<svg width="16" height="16" viewBox="0 0 16 16" fill="none" xmlns="http://www.w3.org/2000/svg">
<path d="M7.96626 1.6C11.4794 1.6 14.3393 4.472 14.3393 8C14.3393 11.528 11.4794 14.4 7.96626 14.4C4.45314 14.4 1.59325 11.528 1.59325 8C1.59325 4.472 4.45314 1.6 7.96626 1.6ZM7.96626 0C3.58482 0 0 3.6 0 8C0 12.4 3.58482 16 7.96626 16C12.3477 16 15.9325 12.4 15.9325 8C15.9325 3.6 12.3477 0 7.96626 0ZM5.12231 9.952L4.0389 9.464C4.26195 9.016 4.38144 8.536 4.38144 8.04C4.38144 7.512 4.26195 7.008 4.0389 6.536L5.12231 6.048C5.42502 6.696 5.57638 7.36 5.57638 8.04C5.57638 8.64 5.42502 9.28 5.12231 9.952ZM7.59185 11.152L6.54827 10.632C6.97048 9.728 7.16964 8.8 7.16964 7.888C7.16964 6.984 6.97048 6.152 6.54827 5.368L7.59185 4.768C8.11762 5.696 8.36458 6.736 8.36458 7.888C8.36458 9.064 8.11762 10.152 7.59185 11.152ZM10.1012 12.28L9.00984 11.72C9.63918 10.488 9.95783 9.256 9.95783 8C9.95783 6.744 9.63918 5.496 9.00984 4.248L10.1012 3.72C10.7943 5.144 11.1528 6.576 11.1528 8C11.1528 9.456 10.7943 10.88 10.1012 12.28Z" fill="#495057"/>
</svg>
