<svg width="17" height="14" viewBox="0 0 17 14" fill="none" xmlns="http://www.w3.org/2000/svg">
<path d="M0.00148773 1.45715V5.70088C0.00148773 6.41562 0.00148628 7.13036 1.47405e-06 7.8451V5.70088C0.00148628 4.28645 0.00148773 2.87158 0.00148773 1.45715Z" fill="#495057"/>
<path d="M1.07809 0.500448C1.07809 0.132579 1.20413 0.000676099 1.57265 0.00113251C3.26671 0.00341457 4.8714 0.373109 6.36837 1.17594C7.07194 1.55339 7.69529 2.03764 8.26044 2.61546C8.43232 2.45435 8.57716 2.30784 8.733 2.17411C10.5128 0.647869 12.618 0.0367327 14.9249 0.000219686C15.3314 -0.00617009 15.4488 0.125733 15.4492 0.539699C15.4497 2.73732 15.4492 4.93495 15.4492 7.13303C15.4492 8.02258 15.452 8.91258 15.4469 9.80213C15.4455 10.1257 15.303 10.2403 14.9867 10.2686C14.3116 10.3293 13.6277 10.3603 12.9654 10.4936C11.2548 10.8377 9.74733 11.5726 8.58862 12.9199C8.38053 13.1613 8.15594 13.1371 7.92309 12.9103C7.5477 12.5447 7.18423 12.1554 6.76163 11.8505C5.22387 10.7414 3.46197 10.3188 1.5919 10.2654C1.20184 10.2544 1.079 10.1458 1.079 9.76288C1.07717 6.67525 1.07717 3.58762 1.07809 0.500448ZM8.6537 11.5429V11.7232C10.3881 10.2193 12.4227 9.60496 14.6553 9.48447V0.770644C14.263 0.811721 13.8853 0.835911 13.5131 0.892962C12.0171 1.12254 10.6347 1.63052 9.44436 2.58808C8.65095 3.2266 8.65325 3.22934 8.65325 4.24394C8.65325 6.67708 8.6537 9.10975 8.6537 11.5429ZM1.87424 9.48401C4.10182 9.60633 6.13232 10.2166 7.87634 11.7277V11.4174C7.87634 8.80989 7.87497 6.20241 7.87955 3.59492C7.87955 3.4224 7.83234 3.29643 7.71225 3.17092C6.62184 2.02943 5.2642 1.37539 3.74431 1.03719C3.13746 0.90209 2.51501 0.838193 1.87424 0.737782V9.48401Z" fill="#495057"/>
<path d="M9.74776 12.8899C9.86143 13.0277 10.0397 13.0318 10.2121 12.8867C11.1957 12.0574 12.3636 11.6644 13.614 11.4878C14.1117 11.4175 14.6177 11.3782 15.1196 11.3778C15.9855 11.3773 16.5474 10.6927 16.5318 9.94418C16.5016 8.53797 16.5231 7.1304 16.5231 5.72374H16.5236C16.5236 4.30155 16.524 2.87937 16.5236 1.45719C16.5236 1.37367 16.5304 1.28832 16.5153 1.20708C16.4874 1.05281 16.3796 0.942816 16.2298 0.975678C16.1248 0.998498 16.0253 1.10302 15.9529 1.1943C15.9144 1.24314 15.935 1.34126 15.935 1.41703C15.9355 4.23081 15.936 7.04459 15.9369 9.85792C15.9373 10.5165 15.6875 10.7707 15.0303 10.7812C13.6415 10.8045 12.2902 11.0195 11.0412 11.6544C10.6168 11.8702 10.229 12.1619 9.83852 12.4385C9.64693 12.5745 9.63134 12.7484 9.74776 12.8899Z" fill="#495057"/>
<path d="M0.000356215 9.98977C-0.000102137 10.7771 0.546252 11.3398 1.34424 11.3586C2.52679 11.3868 3.68779 11.5251 4.79425 11.9756C5.34931 12.202 5.86083 12.4982 6.31964 12.8852C6.51307 13.0486 6.72483 13.0176 6.81695 12.8236C6.89762 12.6534 6.81512 12.5338 6.68953 12.427C6.11338 11.9382 5.46023 11.5836 4.75071 11.3284C3.69054 10.9469 2.59233 10.7931 1.47075 10.7748C0.840055 10.7648 0.598046 10.5206 0.597588 9.87247C0.594838 7.08197 0.596671 4.29101 0.596213 1.50005C0.596213 1.40146 0.597129 1.30151 0.581545 1.20475C0.555877 1.04865 0.454124 0.962392 0.295534 0.963761C0.125028 0.965587 0.0287737 1.06417 0.0072312 1.22939C-0.00285252 1.30424 0.00127241 1.38138 0.00127241 1.45714C0.00127241 2.87156 0.00127197 4.28644 0.000813615 5.70086V7.84509C0.000813615 8.55983 0.000814566 9.27503 0.000356215 9.98977Z" fill="#495057"/>
<path d="M2.7232 3.38C3.37772 3.52012 4.03958 3.63651 4.68082 3.82181C5.43939 4.04134 6.12921 4.41971 6.75898 4.8994C6.7709 4.90853 6.78281 4.91857 6.79519 4.92724C6.95057 5.04089 7.10549 5.05869 7.24254 4.90396C7.35759 4.77343 7.331 4.59588 7.16233 4.47083C6.91803 4.28963 6.66914 4.11209 6.40788 3.95736C5.28859 3.2942 4.06571 2.94367 2.84145 2.79671C2.59348 2.77891 2.45827 2.85011 2.43398 3.04226C2.40877 3.24627 2.53207 3.33892 2.7232 3.38Z" fill="#495057"/>
<path d="M2.42818 5.1678C2.43872 5.349 2.56431 5.43024 2.75407 5.45443C3.85411 5.59546 4.89686 5.92408 5.87636 6.44119C6.19216 6.60778 6.48963 6.80906 6.7926 6.99984C6.98557 7.12124 7.14783 7.11257 7.25508 6.96241C7.35913 6.81499 7.31787 6.64795 7.13132 6.51513C5.99461 5.70545 4.72223 5.21755 3.35955 4.94735C3.17254 4.91038 2.9837 4.88072 2.79486 4.85972C2.58677 4.83645 2.4346 4.96059 2.42818 5.1678Z" fill="#495057"/>
<path d="M4.00391 7.7761C5.00449 8.0495 5.93815 8.46483 6.78748 9.06273C6.85348 9.10929 6.93231 9.13713 7.04874 9.19555C7.1317 9.11613 7.27058 9.04493 7.2802 8.95867C7.29258 8.84639 7.23758 8.67524 7.15095 8.61271C6.83698 8.38724 6.51567 8.15675 6.16458 8.00112C5.50547 7.70855 4.82665 7.45981 4.15058 7.20878C3.91224 7.12024 3.73899 7.21335 3.69407 7.4023C3.65282 7.57528 3.7619 7.71038 4.00391 7.7761Z" fill="#495057"/>
<path d="M9.22153 6.97015C9.35353 7.12578 9.5025 7.11894 9.66567 7.00438C10.8271 6.18603 12.1247 5.70634 13.5218 5.47722C13.5969 5.4649 13.6735 5.46216 13.7491 5.44984C13.949 5.41743 14.0718 5.27731 14.0374 5.10981C13.9989 4.92359 13.8697 4.84965 13.6602 4.85878C12.0954 5.07877 10.6213 5.59771 9.31091 6.53656C9.14498 6.65568 9.11015 6.83961 9.22153 6.97015Z" fill="#495057"/>
<path d="M9.21765 4.89578C9.32445 5.04046 9.49908 5.05279 9.67921 4.91723C10.8494 4.04092 12.1804 3.57949 13.6197 3.39555C13.665 3.38962 13.7104 3.38186 13.7553 3.37502C13.941 3.34717 14.0473 3.24357 14.0386 3.05324C14.0303 2.88118 13.8878 2.78487 13.6142 2.7972C12.092 2.98935 10.6156 3.46767 9.33132 4.44622C9.14982 4.58451 9.11223 4.75201 9.21765 4.89578Z" fill="#495057"/>
<path d="M9.21353 9.02898C9.30841 9.1796 9.48121 9.20424 9.65264 9.08284C10.8792 8.2152 12.2524 7.73095 13.732 7.51232C13.8388 7.49635 13.9579 7.39685 14.0189 7.30283C14.0551 7.24669 14.0161 7.10155 13.9616 7.03857C13.9011 6.96965 13.7851 6.94865 13.7292 6.9231C12.0888 7.15495 10.6152 7.67252 9.3052 8.61182C9.15487 8.71953 9.10995 8.86422 9.21353 9.02898Z" fill="#495057"/>
</svg>
