<svg width="16" height="14" viewBox="0 0 16 14" fill="none" xmlns="http://www.w3.org/2000/svg">
<path d="M15.192 1.24675H12.3786V0.155844C12.3786 0.0701299 12.3153 0 12.238 0H11.2533C11.1759 0 11.1126 0.0701299 11.1126 0.155844V1.24675H8.51032V0.155844C8.51032 0.0701299 8.44702 0 8.36965 0H7.38499C7.30762 0 7.24432 0.0701299 7.24432 0.155844V1.24675H4.64199V0.155844C4.64199 0.0701299 4.57869 0 4.50133 0H3.51666C3.43929 0 3.37599 0.0701299 3.37599 0.155844V1.24675H0.562666C0.251441 1.24675 0 1.52532 0 1.87013V13.0909C0 13.4357 0.251441 13.7143 0.562666 13.7143H15.192C15.5032 13.7143 15.7546 13.4357 15.7546 13.0909V1.87013C15.7546 1.52532 15.5032 1.24675 15.192 1.24675ZM14.4886 12.3117H1.266V2.64935H3.37599V3.74026C3.37599 3.82597 3.43929 3.8961 3.51666 3.8961H4.50133C4.57869 3.8961 4.64199 3.82597 4.64199 3.74026V2.64935H7.24432V3.74026C7.24432 3.82597 7.30762 3.8961 7.38499 3.8961H8.36965C8.44702 3.8961 8.51032 3.82597 8.51032 3.74026V2.64935H11.1126V3.74026C11.1126 3.82597 11.1759 3.8961 11.2533 3.8961H12.238C12.3153 3.8961 12.3786 3.82597 12.3786 3.74026V2.64935H14.4886V12.3117ZM6.18932 6.54545H2.95399C2.87663 6.54545 2.81333 6.61558 2.81333 6.7013V7.63636C2.81333 7.72208 2.87663 7.79221 2.95399 7.79221H6.18932C6.26669 7.79221 6.32999 7.72208 6.32999 7.63636V6.7013C6.32999 6.61558 6.26669 6.54545 6.18932 6.54545ZM6.18932 9.19481H2.95399C2.87663 9.19481 2.81333 9.26494 2.81333 9.35065V10.2857C2.81333 10.3714 2.87663 10.4416 2.95399 10.4416H6.18932C6.26669 10.4416 6.32999 10.3714 6.32999 10.2857V9.35065C6.32999 9.26494 6.26669 9.19481 6.18932 9.19481ZM11.6085 5.73896L9.78687 8.53831L8.85847 7.11429C8.80572 7.03247 8.72132 6.98571 8.63164 6.98571H7.66632C7.55203 6.98571 7.48521 7.12987 7.55203 7.23312L9.55828 10.3149C9.58418 10.3548 9.61826 10.3872 9.65769 10.4096C9.69713 10.4319 9.7408 10.4436 9.78511 10.4436C9.82941 10.4436 9.87308 10.4319 9.91252 10.4096C9.95196 10.3872 9.98603 10.3548 10.0119 10.3149L12.9132 5.85974C12.98 5.75649 12.9132 5.61234 12.7989 5.61234H11.8336C11.7456 5.61039 11.6612 5.65909 11.6085 5.73896Z" fill="#495057"/>
</svg>
