<svg width="18" height="15" viewBox="0 0 18 15" fill="none" xmlns="http://www.w3.org/2000/svg">
<path d="M16.8229 1.72023C16.8235 5.71864 16.8235 9.71647 16.8235 13.7143C16.8235 13.732 16.8239 13.7498 16.8243 13.7677C16.8254 13.8178 16.8265 13.8682 16.8189 13.9171M16.8229 1.72023L15.5238 2.49733C15.7494 1.98466 16.1596 1.64509 16.7536 1.51721C16.7544 1.53211 16.7553 1.54617 16.7561 1.55955C16.76 1.62307 16.7629 1.67118 16.7629 1.72023V1.72023C16.7635 5.71864 16.7635 9.71647 16.7635 13.7143C16.7635 13.7352 16.7639 13.7549 16.7643 13.7738C16.7654 13.822 16.7663 13.8646 16.7596 13.9078L16.8189 13.9171M16.8229 1.72023C16.8229 1.66936 16.8198 1.6185 16.8159 1.55359C16.8149 1.53832 16.814 1.52226 16.813 1.50525L16.8229 1.72023ZM16.8189 13.9171L16.7596 13.9076C16.7435 14.0084 16.7092 14.0857 16.6588 14.1366C16.6098 14.1859 16.5402 14.216 16.4402 14.2133C16.3483 14.2105 16.2824 14.1795 16.2358 14.131C16.1883 14.0814 16.156 14.0083 16.1426 13.9138L16.1425 13.9138C16.1348 13.8601 16.1355 13.8064 16.1363 13.7475C16.1366 13.729 16.1368 13.7101 16.1368 13.6905L16.1368 13.6905C16.1362 12.0643 16.1362 10.4381 16.1362 8.81186C16.1362 8.79505 16.1374 8.77692 16.139 8.75663C16.1392 8.75378 16.1394 8.75088 16.1397 8.74794C16.141 8.73065 16.1425 8.71184 16.1431 8.69347C16.1446 8.65173 16.1429 8.60018 16.1189 8.55492L16.0659 8.58295M16.8189 13.9171C16.7843 14.1338 16.6669 14.2796 16.4383 14.2732C16.2271 14.2668 16.1125 14.128 16.0832 13.9223C16.0747 13.8636 16.0755 13.8035 16.0763 13.7436C16.0766 13.7258 16.0768 13.7081 16.0768 13.6905C16.0762 12.0643 16.0762 10.4381 16.0762 8.81186C16.0762 8.7897 16.078 8.76644 16.0799 8.74309C16.0843 8.68503 16.0889 8.62646 16.0659 8.58295M16.0659 8.58295C16.0356 8.52506 15.9843 8.47833 15.933 8.43151C15.9204 8.42007 15.9078 8.40862 15.8956 8.397L15.869 8.37089L15.8437 8.39555C15.8309 8.4076 15.8177 8.41945 15.8045 8.4313C15.7537 8.47702 15.7028 8.52273 15.6727 8.57947C15.6496 8.62318 15.654 8.68211 15.6583 8.74043C15.6601 8.7635 15.6618 8.78648 15.6618 8.80838M16.0659 8.58295L16.119 8.55513C16.0929 8.50517 16.055 8.4642 16.0183 8.42889C16.0013 8.4125 15.9858 8.3984 15.971 8.38494C15.9507 8.36651 15.9317 8.34928 15.912 8.32902L15.8692 8.28509L15.8262 8.32884C15.8065 8.34887 15.7874 8.36603 15.7669 8.38444C15.7523 8.39746 15.7371 8.4111 15.7205 8.42683C15.6839 8.46152 15.6459 8.50191 15.6197 8.55133L15.6197 8.55143C15.5958 8.59657 15.5938 8.64799 15.5952 8.68977C15.5958 8.70843 15.5972 8.7275 15.5985 8.74503C15.5987 8.74772 15.5989 8.75038 15.5991 8.75299C15.6006 8.7733 15.6018 8.79148 15.6018 8.80835L15.6618 8.80838M15.6618 8.80838C15.6612 10.154 15.6606 11.4996 15.6618 12.8451M15.6618 8.80838H15.6018M17.231 1.47156C17.2359 1.57973 17.2348 1.68818 17.2337 1.79671C17.2332 1.84325 17.2328 1.8898 17.2328 1.93636C17.2328 2.92468 17.2328 3.913 17.2328 4.90132C17.2329 7.86261 17.2331 10.8239 17.2322 13.7852M17.231 1.47156L15.6018 8.80838M17.231 1.47156C17.2161 1.15608 17.0307 0.989333 16.7216 1.03872L17.231 1.47156ZM17.2322 13.7852C17.2322 14.3296 16.9363 14.6793 16.4735 14.691M17.2322 13.7852H17.2922M17.2322 13.7852H17.2922M16.4735 14.691C16.0457 14.702 15.6992 14.3935 15.6733 13.9485M16.4735 14.691L16.475 14.7509C16.0151 14.7628 15.6412 14.4295 15.6134 13.9519L15.6733 13.9485M16.4735 14.691L15.6018 12.8452M15.6733 13.9485C15.6571 13.6696 15.6589 13.3894 15.6606 13.1094C15.6612 13.0213 15.6618 12.9332 15.6618 12.8451M15.6733 13.9485L15.6134 13.9519C15.5971 13.671 15.5989 13.3881 15.6006 13.1077C15.6012 13.0199 15.6018 12.9323 15.6018 12.8452M15.6618 12.8451H15.6018C15.6018 12.8452 15.6018 12.8452 15.6018 12.8452M15.6618 12.8451L15.6018 12.8452M15.6018 8.80838C15.6012 10.1539 15.6006 11.4996 15.6018 12.8452M15.6018 8.80838V12.8452M17.2922 13.7852C17.2931 10.8239 17.2929 7.86261 17.2928 4.90132C17.2928 3.91299 17.2928 2.92467 17.2928 1.93636C17.2928 1.89111 17.2932 1.8453 17.2937 1.79916C17.2948 1.68989 17.2959 1.57876 17.291 1.46888L17.291 1.46872C17.283 1.30047 17.229 1.16193 17.1258 1.07289C17.022 0.983281 16.8788 0.952835 16.7121 0.979469L16.7121 0.979477C16.5308 1.00858 16.3424 1.0594 16.1756 1.14446L16.1756 1.14448M17.2922 13.7852L16.1756 1.14448M15.1938 7.86864L15.1936 7.86898C15.1706 7.91386 15.1368 7.96724 15.0982 8.0109C15.0789 8.03275 15.0571 8.05362 15.0335 8.06975C15.0103 8.08558 14.9815 8.09948 14.9491 8.10136M15.1938 7.86864L14.9491 8.10136M15.1938 7.86864C15.2166 7.82337 15.2181 7.77224 15.2164 7.73065C15.2157 7.71274 15.2143 7.69439 15.2129 7.67747C15.2127 7.67418 15.2124 7.67094 15.2122 7.66778C15.2106 7.64759 15.2094 7.6295 15.2094 7.61271L15.1938 7.86864ZM14.9491 8.10136C14.9157 8.10336 14.8854 8.09078 14.8619 8.07671M14.9491 8.10136L14.8619 8.07671M14.6908 7.88399L14.6907 7.88383C14.6656 7.83929 14.663 7.78751 14.6639 7.74568C14.6643 7.72596 14.6656 7.70586 14.6669 7.68745L14.6673 7.68198C14.6686 7.66147 14.6698 7.64312 14.6698 7.62608L14.6908 7.88399ZM14.6908 7.88399C14.7157 7.92792 14.753 7.9801 14.7941 8.02166M14.6908 7.88399L14.7941 8.02166M16.1756 1.14448C15.112 1.68805 14.6896 2.62448 14.6738 3.76276C14.6611 4.6781 14.6641 5.59371 14.6671 6.50872M16.1756 1.14448L14.6671 6.50872M14.7941 8.02166C14.8146 8.04244 14.8375 8.06215 14.8619 8.07671M14.7941 8.02166L14.8619 8.07671M14.6671 6.50872C14.6684 6.88128 14.6696 7.25375 14.6698 7.62605L14.6671 6.50872Z" fill="#495057" stroke="#495057" stroke-width="0.12"/>
<path d="M9.26251 12.5304H9.26253C11.8235 12.5381 13.8992 10.4493 13.9021 7.86317C13.9051 5.29007 11.844 3.19415 9.29972 3.18709C6.74003 3.18002 4.65608 5.27571 4.6555 7.85438C4.65492 10.424 6.72119 12.5222 9.26251 12.5304ZM9.34266 3.72714L9.34267 3.72714C11.6139 3.77295 13.4211 5.65583 13.3752 7.92812C13.328 10.2288 11.4524 12.043 9.176 11.9909C6.90191 11.9389 5.14289 10.0409 5.19572 7.68783C5.24506 5.49296 7.14024 3.68249 9.34266 3.72714Z" fill="#495057" stroke="#495057" stroke-width="0.12"/>
<path d="M2.63444 14.2738C2.82729 14.2569 2.94933 14.1396 2.96487 13.935C2.97186 13.845 2.97182 13.7545 2.97179 13.6644C2.97178 13.658 2.97178 13.6516 2.97178 13.6451C2.97216 12.2836 2.97204 10.9219 2.97191 9.56023C2.97185 8.87943 2.97178 8.19865 2.97178 7.51794C2.97178 7.49664 2.96946 7.47407 2.96715 7.45155C2.96208 7.40219 2.95702 7.353 2.97639 7.3175L3.44101 7.30638C3.43762 7.23692 3.39419 7.17709 3.35575 7.13123C3.34056 7.11312 3.32399 7.0948 3.30835 7.07751C3.30335 7.07198 3.29844 7.06656 3.2937 7.06128C3.27344 7.03869 3.25548 7.01789 3.24093 6.99771L3.19423 6.93296L3.14502 6.99582C3.12357 7.02322 3.10248 7.0484 3.08072 7.07437C3.06479 7.09339 3.04849 7.11284 3.03143 7.13391C2.993 7.18138 2.95487 7.23223 2.92384 7.28854L2.92371 7.28876C2.90069 7.33097 2.9012 7.37954 2.90364 7.41566C2.90461 7.42993 2.90614 7.44486 2.90755 7.45851C2.90799 7.46286 2.90843 7.46709 2.90882 7.47111C2.91057 7.48875 2.91178 7.50408 2.91178 7.51794C2.91178 8.19866 2.91185 8.87945 2.91191 9.56025C2.91204 10.9219 2.91216 12.2836 2.91178 13.6451V13.6451C2.91178 13.6514 2.91178 13.6577 2.91179 13.6639C2.91182 13.7545 2.91185 13.8428 2.90505 13.9304L2.90505 13.9305C2.89812 14.0216 2.86809 14.0876 2.82355 14.1325C2.77899 14.1774 2.71463 14.2065 2.6293 14.214L2.63444 14.2738ZM2.63444 14.2738C2.4249 14.2918 2.28558 14.1762 2.24183 13.9693L2.62922 14.214M2.63444 14.2738L2.62922 14.214M2.8161 14.7282C3.01764 14.6772 3.17772 14.5676 3.28666 14.4049C3.39501 14.2431 3.44999 14.0331 3.45029 13.7847L2.8161 14.7282ZM2.8161 14.7282C2.53554 14.7993 2.26928 14.7326 2.07329 14.5686C1.87759 14.4048 1.75529 14.1468 1.75469 13.841M2.8161 14.7282L1.75469 13.841M1.75469 13.841L1.81469 13.8409L1.75469 13.8411C1.75469 13.8411 1.75469 13.841 1.75469 13.841ZM1.75469 13.841C1.75259 12.9541 1.75294 12.0671 1.75328 11.1799C1.75341 10.8473 1.75354 10.5145 1.75354 10.1818V10.1218H1.75468M1.75469 13.841L1.75469 10.1818C1.75469 10.1618 1.75469 10.1418 1.75468 10.1218M1.75468 10.1218C1.75466 9.8418 1.75449 9.56177 1.75433 9.28172C1.75379 8.38142 1.75325 7.48094 1.75757 6.58051L1.81756 6.58079M1.75468 10.1218L1.81756 6.58079M1.81756 6.58079L1.75757 6.5806C1.75784 6.49606 1.74941 6.43016 1.72604 6.37343C1.70311 6.31779 1.66391 6.26641 1.59495 6.21447L1.59494 6.21446C1.15119 5.88008 0.94472 5.41468 0.94472 4.86047C0.94472 3.69907 0.94472 2.53765 0.945296 1.37565L1.81756 6.58079ZM1.81756 6.58079C1.81325 7.48105 1.81379 8.3813 1.81433 9.28155M1.81756 6.58079L1.81433 9.28155M1.81756 6.58079C1.81814 6.40475 1.78302 6.281 1.63105 6.16654L1.81756 6.58079ZM2.62922 14.214C2.53699 14.2219 2.46567 14.2002 2.41315 14.1588C2.36015 14.1169 2.32024 14.0501 2.30053 13.9569L2.30051 13.9568M2.62922 14.214L2.30051 13.9568M2.30051 13.9568C2.2844 13.8815 2.28533 13.8029 2.28635 13.7172C2.28661 13.6958 2.28687 13.6739 2.28687 13.6515C2.28652 12.1996 2.2868 10.7477 2.28707 9.29582C2.28726 8.32788 2.28744 7.35994 2.28744 6.39197C2.28744 6.38125 2.28752 6.37031 2.28759 6.35918C2.28809 6.28539 2.28865 6.2037 2.26793 6.12877C2.24248 6.03673 2.186 5.95543 2.07253 5.89367C1.64755 5.66187 1.47176 5.28068 1.47287 4.79206M2.30051 13.9568L1.23121 0.977017C1.26148 0.975395 1.28911 0.986952 1.30976 0.998936C1.33151 1.01156 1.35223 1.02858 1.3705 1.04677C1.40623 1.08234 1.44001 1.12983 1.45566 1.17449C1.47433 1.2275 1.47792 1.28344 1.47769 1.33474C1.47758 1.35981 1.47652 1.38502 1.47553 1.40885L1.47543 1.41103C1.47439 1.43592 1.47345 1.45929 1.47345 1.48194C1.47356 1.70258 1.47372 1.92322 1.47388 2.14388C1.47453 3.02653 1.47517 3.90931 1.47287 4.79206M0.972751 1.14089C0.942006 1.18054 0.93954 1.23244 0.940049 1.26851M0.972751 1.14089C0.972703 1.14095 0.972654 1.14102 0.972605 1.14108L0.940049 1.26851M0.972751 1.14089C1.00158 1.10324 1.04047 1.0648 1.08346 1.03475C1.12559 1.00529 1.17737 0.979902 1.2312 0.977018L0.972751 1.14089ZM0.940049 1.26851C0.940314 1.28724 0.941628 1.30646 0.942801 1.3236M0.940049 1.26851L0.942801 1.3236M1.47287 4.79206L1.41287 4.79191L1.47287 4.79206ZM0.942801 1.3236C0.942867 1.32457 0.942933 1.32552 0.942998 1.32647M0.942801 1.3236L0.942998 1.32647M0.942998 1.32647C0.944268 1.34509 0.945295 1.36115 0.945296 1.37562L0.942998 1.32647ZM1.81433 9.28155C1.81449 9.56164 1.81466 9.84172 1.81469 10.1218L1.81433 9.28155Z" fill="#495057" stroke="#495057" stroke-width="0.12"/>
<path d="M4.0357 12.3195C6.98176 15.8115 12.3505 15.5363 14.9478 11.7652C15.262 11.3093 15.3306 10.8532 15.263 10.305L15.2377 10.099L15.1492 10.2868C14.0579 12.6038 12.3158 13.9951 9.79875 14.2039C7.28847 14.4122 5.34042 13.3373 3.89383 11.2335L3.80618 11.1061L3.78495 11.2593C3.75628 11.4663 3.75087 11.6516 3.78724 11.8257C3.82383 12.0007 3.902 12.1611 4.0357 12.3195ZM4.0357 12.3195L4.08154 12.2808L4.03572 12.3195C4.03571 12.3195 4.03571 12.3195 4.0357 12.3195Z" fill="#495057" stroke="#495057" stroke-width="0.12"/>
<path d="M9.54345 1.49018C11.4359 1.56842 12.9677 2.3929 14.2542 3.90065L14.3748 4.04202L14.3596 3.8568C14.3535 3.78186 14.3556 3.7116 14.3592 3.64306C14.3599 3.62923 14.3607 3.61535 14.3615 3.60145C14.3646 3.54772 14.3677 3.49372 14.3668 3.44188C14.3644 3.30651 14.3345 3.17624 14.2106 3.04788L14.2105 3.04781C11.6857 0.442184 7.66653 0.226428 4.88147 2.54495L4.88144 2.54498C4.74144 2.66171 4.6479 2.78462 4.60229 2.92932C4.55681 3.07361 4.5612 3.23257 4.60409 3.41744L4.62851 3.52269L4.70494 3.44632C6.05906 2.0935 7.65734 1.4125 9.54345 1.49018ZM9.54345 1.49018L9.54593 1.43023M9.54345 1.49018L9.54593 1.43023M9.54593 1.43023C7.66504 1.35276 6.06719 2.02346 4.713 3.35388C4.71546 3.36584 4.71812 3.37799 4.72099 3.39032L4.66254 3.40388L4.62013 3.36143C4.6294 3.35217 4.63868 3.34294 4.64798 3.33374C4.59016 3.01555 4.66957 2.79977 4.91986 2.59106C7.68077 0.292642 11.6644 0.506449 14.1674 3.08956C14.3216 3.24924 14.3125 3.40807 14.3017 3.59681C14.2986 3.65024 14.2954 3.70606 14.2957 3.76498C14.3123 3.78413 14.3289 3.80339 14.3454 3.82276L14.2998 3.8617L14.24 3.8666C14.2378 3.83964 14.2366 3.81336 14.236 3.78775C12.9533 2.31591 11.4259 1.50796 9.54593 1.43023Z" fill="#495057" stroke="#495057" stroke-width="0.12"/>
<path d="M3.72157 3.15063V3.15058C3.72178 2.92609 3.72176 2.70143 3.72173 2.47671C3.72169 2.10208 3.72164 1.7273 3.72272 1.35286L3.72272 1.35282C3.723 1.27528 3.72516 1.17367 3.76117 1.09655C3.78021 1.05577 3.81015 1.01843 3.85638 0.995954C3.90211 0.973724 3.95649 0.969577 4.01805 0.980857L4.01821 0.980887C4.05641 0.987998 4.08887 1.01294 4.1133 1.03765C4.13907 1.06371 4.1628 1.09656 4.18292 1.13111C4.22214 1.19846 4.25415 1.28374 4.2549 1.35352C4.26814 2.53272 4.27044 3.71254 4.26008 4.8918L3.72157 3.15063ZM3.72157 3.15063C3.72157 3.3217 3.72141 3.49277 3.72126 3.66384C3.7209 4.06309 3.72053 4.4624 3.72215 4.86191M3.72157 3.15063L4.00723 1.03987C3.79481 1.00095 3.7833 1.19326 3.78272 1.35303C3.78164 1.7274 3.78169 2.102 3.78173 2.47654C3.78176 2.70128 3.78179 2.926 3.78157 3.15063C3.78157 3.32182 3.78141 3.49295 3.78126 3.66406C3.7809 4.06325 3.78053 4.46232 3.78214 4.86167M3.78214 4.86167L3.72215 4.86189C3.72215 4.86189 3.72215 4.8619 3.72215 4.86191M3.78214 4.86167L3.72215 4.86191M3.78214 4.86167L3.72215 4.86191M3.72215 4.86191C3.72379 5.31701 3.54006 5.65846 3.14865 5.88641L3.14852 5.88648C3.14582 5.88806 3.14308 5.88966 3.14032 5.89128C3.08076 5.92608 3.00594 5.96981 2.96117 6.03078C2.93611 6.06489 2.91909 6.10578 2.91833 6.15407L3.72215 4.86191ZM3.41818 6.35162C3.35696 6.38846 3.27784 6.4338 3.19722 6.44102C3.15473 6.44483 3.11055 6.43831 3.0684 6.4146C3.02676 6.39116 2.99155 6.35345 2.96216 6.3022L3.41818 6.35162ZM3.41818 6.35162C3.96341 6.02396 4.25471 5.5303 4.26008 4.89183L3.41818 6.35162Z" fill="#495057" stroke="#495057" stroke-width="0.12"/>
<path d="M1.86936 2.88579V2.82579C1.86936 2.6611 1.86942 2.4965 1.86948 2.33194C1.86961 2.00293 1.86974 1.67406 1.86936 1.3449L1.86936 1.34483L1.86936 1.34446C1.86936 1.2718 1.86936 1.18013 1.90083 1.10667C1.9175 1.06775 1.94363 1.03194 1.98388 1.00609C2.02376 0.980489 2.07287 0.967636 2.13077 0.966454L2.13078 0.966454C2.18926 0.965277 2.23931 0.976113 2.28038 1.00025C2.32193 1.02467 2.34938 1.05983 2.3671 1.09859C2.4006 1.17185 2.40153 1.26434 2.40153 1.33786C2.40153 2.33487 2.40096 3.33187 2.40038 4.32886C2.40038 4.3332 2.40039 4.33762 2.4004 4.34212C2.40053 4.41029 2.40069 4.49611 2.37278 4.56524C2.3569 4.60457 2.33122 4.6411 2.29045 4.66725C2.25016 4.69309 2.20022 4.70554 2.14114 4.70605L2.14098 4.70605C2.08357 4.70639 2.03431 4.69536 1.99369 4.67176C1.95258 4.64787 1.92478 4.61368 1.90647 4.57544C1.87176 4.50294 1.86965 4.41145 1.86993 4.33559L1.86936 2.88579ZM1.86936 2.88579H1.87051M1.86936 2.88579H1.87051M1.87051 2.88579C1.87053 3.00961 1.87061 3.13344 1.87069 3.25727C1.87093 3.61679 1.87116 3.9763 1.86993 4.33558L1.87051 2.88579ZM1.92936 2.76579C1.92937 2.62117 1.92943 2.47659 1.92948 2.33203C1.92961 2.00299 1.92974 1.67404 1.92936 1.34483L1.92936 2.76579Z" fill="#495057" stroke="#495057" stroke-width="0.12"/>
<path d="M3.05661 4.70602L3.05655 4.70602C2.99911 4.704 2.95042 4.69077 2.91083 4.66532C2.87084 4.63962 2.84453 4.60427 2.82756 4.56558C2.79541 4.49231 2.79487 4.40104 2.79487 4.32709V4.32702C2.79553 3.76262 2.79543 3.19852 2.79534 2.63435C2.79527 2.21119 2.7952 1.78799 2.79544 1.36459C2.79544 1.36458 2.79544 1.36457 2.79544 1.36455M3.05661 4.70602L3.06959 1.02877C2.85502 1.02426 2.85524 1.19602 2.85543 1.35063C2.85544 1.3553 2.85544 1.35996 2.85544 1.36459L2.79544 1.36455M3.05661 4.70602C3.11546 4.70803 3.16594 4.69805 3.20752 4.67471C3.24969 4.65104 3.27779 4.61639 3.29604 4.57779C3.33044 4.505 3.33165 4.41267 3.33165 4.33936M3.05661 4.70602L3.33165 4.33936M2.79544 1.36455C2.79544 1.35914 2.79543 1.35359 2.79541 1.34793C2.79522 1.27616 2.79498 1.18574 2.82391 1.1134C2.84056 1.07177 2.86771 1.03314 2.9112 1.0061C2.95416 0.979402 3.00753 0.967458 3.07084 0.968786L2.79544 1.36455ZM3.33165 4.33936C3.33252 3.96193 3.33241 3.58415 3.3323 3.20662C3.33227 3.08081 3.33223 2.95502 3.33223 2.82928C3.33223 2.7004 3.33239 2.57146 3.33256 2.44245C3.33301 2.08743 3.33346 1.73198 3.3305 1.37633L3.33165 4.33936ZM3.23029 1.01505C3.18858 0.985097 3.13527 0.970126 3.07086 0.968787L3.33061 1.3368C3.33079 1.31094 3.33099 1.28285 3.33008 1.25697C3.32861 1.21557 3.32426 1.17066 3.31061 1.12899C3.29667 1.0864 3.27235 1.04525 3.23029 1.01505Z" fill="#495057" stroke="#495057" stroke-width="0.12"/>
</svg>
