<svg width="15" height="15" viewBox="0 0 15 15" fill="none" xmlns="http://www.w3.org/2000/svg">
<path fill-rule="evenodd" clip-rule="evenodd" d="M3.4375 1.875C2.91973 1.875 2.5 2.29473 2.5 2.8125V12.1875C2.5 12.7053 2.91973 13.125 3.4375 13.125C3.95527 13.125 4.375 12.7053 4.375 12.1875V2.8125C4.375 2.29473 3.95527 1.875 3.4375 1.875ZM6.5625 1.875C6.04473 1.875 5.625 2.29473 5.625 2.8125V12.1875C5.625 12.7053 6.04473 13.125 6.5625 13.125C7.08027 13.125 7.5 12.7053 7.5 12.1875V2.8125C7.5 2.29473 7.08027 1.875 6.5625 1.875Z" fill="#50A5F1"/>
<rect opacity="0.3" x="8.42334" y="2.45264" width="1.875" height="11.25" rx="0.9375" transform="rotate(-19 8.42334 2.45264)" fill="#50A5F1"/>
</svg>
