<svg width="15" height="15" viewBox="0 0 15 15" fill="none" xmlns="http://www.w3.org/2000/svg">
<path fill-rule="evenodd" clip-rule="evenodd" d="M4.375 1.875C2.99429 1.875 1.875 2.99429 1.875 4.375C1.875 5.75571 2.99429 6.875 4.375 6.875H10.625C12.0057 6.875 13.125 5.75571 13.125 4.375C13.125 2.99429 12.0057 1.875 10.625 1.875H4.375ZM5.625 4.375C5.625 5.06536 5.06536 5.625 4.375 5.625C3.68464 5.625 3.125 5.06536 3.125 4.375C3.125 3.68464 3.68464 3.125 4.375 3.125C5.06536 3.125 5.625 3.68464 5.625 4.375Z" fill="#50A5F1"/>
<path opacity="0.3" fill-rule="evenodd" clip-rule="evenodd" d="M4.375 8.125C2.99429 8.125 1.875 9.24429 1.875 10.625C1.875 12.0057 2.99429 13.125 4.375 13.125H10.625C12.0057 13.125 13.125 12.0057 13.125 10.625C13.125 9.24429 12.0057 8.125 10.625 8.125H4.375ZM11.875 10.625C11.875 11.3154 11.3154 11.875 10.625 11.875C9.93464 11.875 9.375 11.3154 9.375 10.625C9.375 9.93464 9.93464 9.375 10.625 9.375C11.3154 9.375 11.875 9.93464 11.875 10.625Z" fill="#50A5F1"/>
</svg>
