<svg width="19" height="20" viewBox="0 0 19 20" fill="none" xmlns="http://www.w3.org/2000/svg">
<rect x="3.1665" y="3.6665" width="5.54167" height="5.54167" rx="1.5" fill="#50A5F1"/>
<path opacity="0.3" fill-rule="evenodd" clip-rule="evenodd" d="M10.2915 5.1665C10.2915 4.33808 10.9631 3.6665 11.7915 3.6665H14.3332C15.1616 3.6665 15.8332 4.33808 15.8332 5.1665V7.70817C15.8332 8.5366 15.1616 9.20817 14.3332 9.20817H11.7915C10.9631 9.20817 10.2915 8.5366 10.2915 7.70817V5.1665ZM3.1665 12.2915C3.1665 11.4631 3.83808 10.7915 4.6665 10.7915H7.20817C8.0366 10.7915 8.70817 11.4631 8.70817 12.2915V14.8332C8.70817 15.6616 8.0366 16.3332 7.20817 16.3332H4.6665C3.83808 16.3332 3.1665 15.6616 3.1665 14.8332V12.2915ZM11.7915 10.7915C10.9631 10.7915 10.2915 11.4631 10.2915 12.2915V14.8332C10.2915 15.6616 10.9631 16.3332 11.7915 16.3332H14.3332C15.1616 16.3332 15.8332 15.6616 15.8332 14.8332V12.2915C15.8332 11.4631 15.1616 10.7915 14.3332 10.7915H11.7915Z" fill="#50A5F1"/>
</svg>
