<svg width="16" height="14" viewBox="0 0 16 14" fill="none" xmlns="http://www.w3.org/2000/svg">
<path d="M11.1937 0.675585V3.75058L7.51875 5.85058V1.57558L10.1437 0.075583C10.5938 -0.149417 11.1937 0.150585 11.1937 0.675585ZM0.39375 7.87558L3.01875 9.37558L6.69375 7.27558L3.01875 5.17559L0.39375 6.67559C-0.13125 6.97559 -0.13125 7.65058 0.39375 7.87558ZM12.0187 12.5256V9.45058L8.34375 7.35058V11.6256L10.9688 13.1256C11.4188 13.3506 12.0187 13.0506 12.0187 12.5256Z" fill="#50A5F1"/>
<path opacity="0.3" d="M4.89404 0.075583L7.51904 1.57558V5.85058L3.84405 3.75058V0.675585C3.84405 0.150585 4.44404 -0.149417 4.89404 0.075583ZM4.06904 13.1256L6.69404 11.6256V7.35058L3.01904 9.45058V12.5256C3.01904 13.0506 3.61904 13.3506 4.06904 13.1256ZM14.644 6.67559L12.019 5.17559L8.34405 7.27558L12.019 9.37558L14.644 7.87558C15.169 7.65058 15.169 6.97559 14.644 6.67559Z" fill="#50A5F1"/>
</svg>
