<svg width="15" height="15" viewBox="0 0 15 15" fill="none" xmlns="http://www.w3.org/2000/svg">
<path opacity="0.3" fill-rule="evenodd" clip-rule="evenodd" d="M1.99793 6.27875C1.41215 6.86454 1.41215 7.81429 1.99793 8.40008L2.52826 8.93041C3.11405 9.51619 4.06379 9.51619 4.64958 8.93041L5.17991 8.40008C5.76569 7.81429 5.76569 6.86454 5.17991 6.27875L4.64958 5.74842C4.06379 5.16264 3.11405 5.16264 2.52826 5.74842L1.99793 6.27875ZM9.49793 6.27875C8.91215 6.86454 8.91215 7.81429 9.49793 8.40008L10.0283 8.93041C10.614 9.51619 11.5638 9.51619 12.1496 8.93041L12.6799 8.40008C13.2657 7.81429 13.2657 6.86454 12.6799 6.27875L12.1496 5.74842C11.5638 5.16264 10.614 5.16264 10.0283 5.74842L9.49793 6.27875Z" fill="#50A5F1"/>
<path fill-rule="evenodd" clip-rule="evenodd" d="M5.74793 2.52875C5.16215 3.11454 5.16215 4.06429 5.74793 4.65008L6.27826 5.18041C6.86405 5.76619 7.81379 5.76619 8.39958 5.18041L8.92991 4.65008C9.5157 4.06429 9.5157 3.11454 8.92991 2.52875L8.39958 1.99842C7.8138 1.41264 6.86405 1.41264 6.27826 1.99842L5.74793 2.52875ZM5.74793 10.0288C5.16215 10.6145 5.16215 11.5643 5.74793 12.1501L6.27826 12.6804C6.86405 13.2662 7.81379 13.2662 8.39958 12.6804L8.92991 12.1501C9.5157 11.5643 9.5157 10.6145 8.92991 10.0288L8.39958 9.49842C7.8138 8.91264 6.86405 8.91264 6.27826 9.49842L5.74793 10.0288Z" fill="#50A5F1"/>
</svg>
