<svg width="15" height="15" viewBox="0 0 15 15" fill="none" xmlns="http://www.w3.org/2000/svg">
<path d="M14.3182 9.54545H12.9545V7.5C12.9545 7.31917 12.8827 7.14575 12.7548 7.01788C12.627 6.89002 12.4536 6.81818 12.2727 6.81818H8.18182V5.45455H9.54545C9.72628 5.45455 9.89971 5.38271 10.0276 5.25485C10.1554 5.12698 10.2273 4.95356 10.2273 4.77273V0.681818C10.2273 0.500989 10.1554 0.327566 10.0276 0.1997C9.89971 0.0718342 9.72628 0 9.54545 0H5.45455C5.27372 0 5.10029 0.0718342 4.97243 0.1997C4.84456 0.327566 4.77273 0.500989 4.77273 0.681818V4.77273C4.77273 4.95356 4.84456 5.12698 4.97243 5.25485C5.10029 5.38271 5.27372 5.45455 5.45455 5.45455H6.81818V6.81818H2.72727C2.54644 6.81818 2.37302 6.89002 2.24515 7.01788C2.11729 7.14575 2.04545 7.31917 2.04545 7.5V9.54545H0.681818C0.500989 9.54545 0.327566 9.61729 0.1997 9.74515C0.0718342 9.87302 0 10.0464 0 10.2273V14.3182C0 14.499 0.0718342 14.6724 0.1997 14.8003C0.327566 14.9282 0.500989 15 0.681818 15H4.77273C4.95356 15 5.12698 14.9282 5.25485 14.8003C5.38271 14.6724 5.45455 14.499 5.45455 14.3182V10.2273C5.45455 10.0464 5.38271 9.87302 5.25485 9.74515C5.12698 9.61729 4.95356 9.54545 4.77273 9.54545H3.40909V8.18182H11.5909V9.54545H10.2273C10.0464 9.54545 9.87302 9.61729 9.74515 9.74515C9.61729 9.87302 9.54545 10.0464 9.54545 10.2273V14.3182C9.54545 14.499 9.61729 14.6724 9.74515 14.8003C9.87302 14.9282 10.0464 15 10.2273 15H14.3182C14.499 15 14.6724 14.9282 14.8003 14.8003C14.9282 14.6724 15 14.499 15 14.3182V10.2273C15 10.0464 14.9282 9.87302 14.8003 9.74515C14.6724 9.61729 14.499 9.54545 14.3182 9.54545ZM4.09091 10.9091V13.6364H1.36364V10.9091H4.09091ZM6.13636 4.09091V1.36364H8.86364V4.09091H6.13636ZM13.6364 13.6364H10.9091V10.9091H13.6364V13.6364Z" fill="#50A5F1"/>
</svg>
