<svg width="16" height="16" viewBox="0 0 16 16" fill="none" xmlns="http://www.w3.org/2000/svg">
<path d="M13.3333 1.3335H5.33333C4.97971 1.3335 4.64057 1.47397 4.39052 1.72402C4.14048 1.97407 4 2.31321 4 2.66683V10.6668C4 11.0205 4.14048 11.3596 4.39052 11.6096C4.64057 11.8597 4.97971 12.0002 5.33333 12.0002H13.3333C13.687 12.0002 14.0261 11.8597 14.2761 11.6096C14.5262 11.3596 14.6667 11.0205 14.6667 10.6668V2.66683C14.6667 2.31321 14.5262 1.97407 14.2761 1.72402C14.0261 1.47397 13.687 1.3335 13.3333 1.3335ZM9.33333 3.00016C9.77536 3.00016 10.1993 3.17576 10.5118 3.48832C10.8244 3.80088 11 4.2248 11 4.66683C11 5.10886 10.8244 5.53278 10.5118 5.84534C10.1993 6.1579 9.77536 6.3335 9.33333 6.3335C8.89131 6.3335 8.46738 6.1579 8.15482 5.84534C7.84226 5.53278 7.66667 5.10886 7.66667 4.66683C7.66667 4.2248 7.84226 3.80088 8.15482 3.48832C8.46738 3.17576 8.89131 3.00016 9.33333 3.00016ZM12.6667 10.0002H6V9.8335C6 8.60083 7.50267 7.3335 9.33333 7.3335C11.164 7.3335 12.6667 8.60083 12.6667 9.8335V10.0002Z" fill="#50A5F1"/>
<path d="M2.66683 5.3335H1.3335V13.3335C1.3335 14.0688 1.9315 14.6668 2.66683 14.6668H10.6668V13.3335H2.66683V5.3335Z" fill="#50A5F1"/>
</svg>
