<svg width="15" height="16" viewBox="0 0 15 16" fill="none" xmlns="http://www.w3.org/2000/svg">
<path opacity="0.3" fill-rule="evenodd" clip-rule="evenodd" d="M3.125 4.66667C3.125 6.13943 4.24429 7.33333 5.625 7.33333C7.00571 7.33333 8.125 6.13943 8.125 4.66667C8.125 3.19391 7.00571 2 5.625 2C4.24429 2 3.125 3.19391 3.125 4.66667ZM9.375 7.33333C9.375 8.4379 10.2145 9.33333 11.25 9.33333C12.2855 9.33333 13.125 8.4379 13.125 7.33333C13.125 6.22876 12.2855 5.33333 11.25 5.33333C10.2145 5.33333 9.375 6.22876 9.375 7.33333Z" fill="#50A5F1"/>
<path fill-rule="evenodd" clip-rule="evenodd" d="M5.61459 8.6665C2.6637 8.6665 0.242662 10.2842 0.000407303 13.466C-0.0127886 13.6393 0.297945 13.9998 0.454689 13.9998H10.7792C11.2487 13.9998 11.256 13.5968 11.2487 13.4665C11.0656 10.1953 8.60701 8.6665 5.61459 8.6665ZM14.66 13.9998L12.25 13.9998C12.25 12.4992 11.7852 11.1144 11.0007 10.0002C13.1298 10.0251 14.8682 11.1733 14.9991 13.5998C15.0043 13.6976 14.9991 13.9998 14.66 13.9998Z" fill="#50A5F1"/>
</svg>
