<svg width="16" height="16" viewBox="0 0 16 16" fill="none" xmlns="http://www.w3.org/2000/svg">
<path d="M14.2566 4.03136C14.2228 3.96571 14.174 3.90896 14.1142 3.86574C14.0544 3.82251 13.9852 3.79403 13.9122 3.7826C13.8393 3.77118 13.7647 3.77715 13.6945 3.80001C13.6243 3.82287 13.5605 3.86199 13.5083 3.91417L11.7083 5.71534C11.62 5.80242 11.5009 5.85123 11.3768 5.85123C11.2528 5.85123 11.1337 5.80242 11.0453 5.71534L10.2672 4.93604C10.2237 4.89252 10.1891 4.84084 10.1656 4.78396C10.142 4.72708 10.1299 4.66612 10.1299 4.60455C10.1299 4.54298 10.142 4.48202 10.1656 4.42514C10.1891 4.36826 10.2237 4.31659 10.2672 4.27306L12.0596 2.48038C12.1133 2.42666 12.1532 2.36068 12.1758 2.28812C12.1983 2.21557 12.2029 2.13861 12.1891 2.06389C12.1754 1.98917 12.1436 1.91892 12.0967 1.85918C12.0497 1.79945 11.9889 1.75203 11.9196 1.72101C10.5657 1.11573 8.8759 1.43155 7.81037 2.48917C6.9051 3.388 6.63528 4.79249 7.07063 6.34259C7.0941 6.42525 7.09423 6.51279 7.07102 6.59553C7.0478 6.67826 7.00214 6.75296 6.93909 6.81134L2.06174 11.2659C1.87174 11.4365 1.71848 11.644 1.61131 11.8758C1.50414 12.1076 1.44532 12.3588 1.43843 12.6141C1.43154 12.8693 1.47672 13.1233 1.57122 13.3605C1.66572 13.5978 1.80756 13.8132 1.98808 13.9938C2.16861 14.1745 2.38403 14.3164 2.62122 14.411C2.8584 14.5056 3.11237 14.5509 3.36764 14.5441C3.6229 14.5373 3.87411 14.4786 4.10594 14.3716C4.33777 14.2645 4.54536 14.1113 4.71604 13.9214L9.21838 9.03321C9.27592 8.97097 9.34935 8.92561 9.43077 8.90202C9.51218 8.87843 9.59849 8.87749 9.68039 8.89932C10.1217 9.02024 10.5769 9.08298 11.0345 9.08595C12.013 9.08595 12.8717 8.76925 13.491 8.15899C14.638 7.02901 14.8129 5.11241 14.2566 4.03136ZM3.41497 13.6006C3.22202 13.6217 3.02729 13.5823 2.85765 13.488C2.68801 13.3937 2.55184 13.249 2.46791 13.074C2.38398 12.899 2.35645 12.7022 2.3891 12.5109C2.42175 12.3196 2.51299 12.1431 2.65021 12.0058C2.78743 11.8686 2.96388 11.7773 3.15519 11.7445C3.34651 11.7118 3.54327 11.7393 3.71831 11.8232C3.89335 11.907 4.03805 12.0431 4.13243 12.2128C4.22682 12.3824 4.26623 12.5771 4.24524 12.77C4.22214 12.9823 4.12725 13.1804 3.97627 13.3314C3.82529 13.4825 3.62726 13.5774 3.41497 13.6006Z" fill="#50A5F1"/>
</svg>
