<svg width="16" height="11" viewBox="0 0 16 11" fill="none" xmlns="http://www.w3.org/2000/svg">
<path d="M14.7499 9.25H8.74992C8.29992 9.25 7.99992 9.55 7.99992 10C7.99992 10.45 8.29992 10.75 8.74992 10.75H14.7499C15.1999 10.75 15.4999 10.45 15.4999 10C15.4999 9.55 15.1999 9.25 14.7499 9.25ZM14.7499 6.25H8.74992C8.29992 6.25 7.99992 6.55 7.99992 7C7.99992 7.45 8.29992 7.75 8.74992 7.75H14.7499C15.1999 7.75 15.4999 7.45 15.4999 7C15.4999 6.55 15.1999 6.25 14.7499 6.25ZM8.74992 1.75H14.7499C15.1999 1.75 15.4999 1.45 15.4999 1C15.4999 0.55 15.1999 0.25 14.7499 0.25H8.74992C8.29992 0.25 7.99992 0.55 7.99992 1C7.99992 1.45 8.29992 1.75 8.74992 1.75ZM14.7499 3.25H8.74992C8.29992 3.25 7.99992 3.55 7.99992 4C7.99992 4.45 8.29992 4.75 8.74992 4.75H14.7499C15.1999 4.75 15.4999 4.45 15.4999 4C15.4999 3.55 15.1999 3.25 14.7499 3.25ZM5.74992 0.25C5.29992 0.25 4.99992 0.55 4.99992 1V10C4.99992 10.45 5.29992 10.75 5.74992 10.75C6.19992 10.75 6.49992 10.45 6.49992 10V1C6.49992 0.55 6.19992 0.25 5.74992 0.25ZM2.44992 5.5L3.27492 4.825C3.57492 4.525 3.64992 4.075 3.34992 3.775C3.04992 3.475 2.59992 3.4 2.29992 3.7L0.799915 4.975L0.724915 5.05C0.424915 5.35 0.499915 5.875 0.799915 6.1L2.29992 7.375C2.44992 7.45 2.59992 7.525 2.74992 7.525C2.97492 7.525 3.19992 7.45 3.34992 7.225C3.64992 6.925 3.57492 6.4 3.27492 6.175L2.44992 5.5Z" fill="#50A5F1"/>
</svg>
