<svg width="20" height="16" viewBox="0 0 20 16" fill="none" xmlns="http://www.w3.org/2000/svg">
<path d="M1 10C0.734784 10 0.48043 10.1054 0.292894 10.2929C0.105357 10.4804 3.95857e-07 10.7348 3.95857e-07 11C3.95857e-07 11.2652 0.105357 11.5196 0.292894 11.7071C0.48043 11.8946 0.734784 12 1 12C1.79565 12 2.55871 12.3161 3.12132 12.8787C3.68393 13.4413 4 14.2044 4 15C4 15.2652 4.10536 15.5196 4.29289 15.7071C4.48043 15.8946 4.73478 16 5 16C5.26522 16 5.51957 15.8946 5.70711 15.7071C5.89464 15.5196 6 15.2652 6 15C6 13.6739 5.47322 12.4021 4.53553 11.4645C3.59785 10.5268 2.32608 10 1 10ZM0.29 14.29C0.150968 14.4302 0.0565414 14.6084 0.0186199 14.8021C-0.0193015 14.9959 0.000979535 15.1965 0.0769073 15.3788C0.152835 15.561 0.281011 15.7167 0.445283 15.8262C0.609554 15.9358 0.802568 15.9942 1 15.9942C1.19743 15.9942 1.39045 15.9358 1.55472 15.8262C1.71899 15.7167 1.84717 15.561 1.92309 15.3788C1.99902 15.1965 2.0193 14.9959 1.98138 14.8021C1.94346 14.6084 1.84903 14.4302 1.71 14.29C1.61704 14.1963 1.50644 14.1219 1.38458 14.0711C1.26272 14.0203 1.13201 13.9942 1 13.9942C0.867988 13.9942 0.737283 14.0203 0.615424 14.0711C0.493565 14.1219 0.382963 14.1963 0.29 14.29ZM17 0H3C2.20435 0 1.44129 0.316071 0.87868 0.87868C0.316071 1.44129 3.95857e-07 2.20435 3.95857e-07 3C3.95857e-07 3.26522 0.105357 3.51957 0.292894 3.70711C0.48043 3.89464 0.734784 4 1 4C1.26522 4 1.51957 3.89464 1.70711 3.70711C1.89464 3.51957 2 3.26522 2 3C2 2.73478 2.10536 2.48043 2.29289 2.29289C2.48043 2.10536 2.73478 2 3 2H17C17.2652 2 17.5196 2.10536 17.7071 2.29289C17.8946 2.48043 18 2.73478 18 3V13C18 13.2652 17.8946 13.5196 17.7071 13.7071C17.5196 13.8946 17.2652 14 17 14H13C12.7348 14 12.4804 14.1054 12.2929 14.2929C12.1054 14.4804 12 14.7348 12 15C12 15.2652 12.1054 15.5196 12.2929 15.7071C12.4804 15.8946 12.7348 16 13 16H17C17.7956 16 18.5587 15.6839 19.1213 15.1213C19.6839 14.5587 20 13.7956 20 13V3C20 2.20435 19.6839 1.44129 19.1213 0.87868C18.5587 0.316071 17.7956 0 17 0ZM1 6C0.734784 6 0.48043 6.10536 0.292894 6.29289C0.105357 6.48043 3.95857e-07 6.73478 3.95857e-07 7C3.95857e-07 7.26522 0.105357 7.51957 0.292894 7.70711C0.48043 7.89464 0.734784 8 1 8C2.85652 8 4.63699 8.7375 5.94975 10.0503C7.2625 11.363 8 13.1435 8 15C8 15.2652 8.10536 15.5196 8.29289 15.7071C8.48043 15.8946 8.73478 16 9 16C9.26522 16 9.51957 15.8946 9.70711 15.7071C9.89464 15.5196 10 15.2652 10 15C10 12.6131 9.05179 10.3239 7.36396 8.63604C5.67613 6.94821 3.38695 6 1 6Z" fill="#50A5F1"/>
</svg>
