<svg width="16" height="11" viewBox="0 0 16 11" fill="none" xmlns="http://www.w3.org/2000/svg">
<path d="M14.7502 9.25H8.75016C8.30016 9.25 8.00016 9.55 8.00016 10C8.00016 10.45 8.30016 10.75 8.75016 10.75H14.7502C15.2002 10.75 15.5002 10.45 15.5002 10C15.5002 9.55 15.2002 9.25 14.7502 9.25ZM14.7502 6.25H8.75016C8.30016 6.25 8.00016 6.55 8.00016 7C8.00016 7.45 8.30016 7.75 8.75016 7.75H14.7502C15.2002 7.75 15.5002 7.45 15.5002 7C15.5002 6.55 15.2002 6.25 14.7502 6.25ZM8.75016 1.75H14.7502C15.2002 1.75 15.5002 1.45 15.5002 1C15.5002 0.55 15.2002 0.25 14.7502 0.25H8.75016C8.30016 0.25 8.00016 0.55 8.00016 1C8.00016 1.45 8.30016 1.75 8.75016 1.75ZM14.7502 3.25H8.75016C8.30016 3.25 8.00016 3.55 8.00016 4C8.00016 4.45 8.30016 4.75 8.75016 4.75H14.7502C15.2002 4.75 15.5002 4.45 15.5002 4C15.5002 3.55 15.2002 3.25 14.7502 3.25ZM5.75016 0.25C5.30016 0.25 5.00016 0.55 5.00016 1V10C5.00016 10.45 5.30016 10.75 5.75016 10.75C6.20016 10.75 6.50016 10.45 6.50016 10V1C6.50016 0.55 6.20016 0.25 5.75016 0.25ZM2.45016 5.5L3.27516 4.825C3.57516 4.525 3.65016 4.075 3.35016 3.775C3.05016 3.475 2.60016 3.4 2.30016 3.7L0.80016 4.975L0.725159 5.05C0.425159 5.35 0.50016 5.875 0.80016 6.1L2.30016 7.375C2.45016 7.45 2.60016 7.525 2.75016 7.525C2.97516 7.525 3.20016 7.45 3.35016 7.225C3.65016 6.925 3.57516 6.4 3.27516 6.175L2.45016 5.5Z" fill="#50A5F1"/>
</svg>
