<svg width="16" height="16" viewBox="0 0 16 16" fill="none" xmlns="http://www.w3.org/2000/svg">
<path d="M8 1.6C11.528 1.6 14.4 4.472 14.4 8C14.4 11.528 11.528 14.4 8 14.4C4.472 14.4 1.6 11.528 1.6 8C1.6 4.472 4.472 1.6 8 1.6ZM8 0C3.6 0 0 3.6 0 8C0 12.4 3.6 16 8 16C12.4 16 16 12.4 16 8C16 3.6 12.4 0 8 0ZM5.144 9.952L4.056 9.464C4.28 9.016 4.4 8.536 4.4 8.04C4.4 7.512 4.28 7.008 4.056 6.536L5.144 6.048C5.448 6.696 5.6 7.36 5.6 8.04C5.6 8.64 5.448 9.28 5.144 9.952ZM7.624 11.152L6.576 10.632C7 9.728 7.2 8.8 7.2 7.888C7.2 6.984 7 6.152 6.576 5.368L7.624 4.768C8.152 5.696 8.4 6.736 8.4 7.888C8.4 9.064 8.152 10.152 7.624 11.152ZM10.144 12.28L9.048 11.72C9.68 10.488 10 9.256 10 8C10 6.744 9.68 5.496 9.048 4.248L10.144 3.72C10.84 5.144 11.2 6.576 11.2 8C11.2 9.456 10.84 10.88 10.144 12.28Z" fill="#556EE6"/>
</svg>
