<svg width="14" height="15" viewBox="0 0 14 15" fill="none" xmlns="http://www.w3.org/2000/svg">
<path d="M10.9978 6.59908V0.255433C10.9978 0.0984238 10.8783 0 10.6918 0H0.339498C0.153013 0 0 0.0984238 0 0.255433V12.3897C0 12.5467 0.153013 12.6967 0.339498 12.6967H4.61908C5.31481 12.0968 5.9962 11.4008 6.68237 10.7446C8.11925 9.35963 9.52984 7.94889 10.9978 6.59908ZM9.40791 2.11845C9.40791 2.33874 9.31228 2.51684 9.19513 2.51684H1.80268C1.68553 2.51684 1.5899 2.33874 1.5899 2.11845V2.07393C1.5899 1.85365 1.68553 1.67555 1.80268 1.67555H9.19513C9.31228 1.67555 9.40791 1.85365 9.40791 2.07393V2.11845ZM9.40791 4.03303C9.40791 4.25331 9.31228 4.43141 9.19513 4.43141H1.80268C1.68553 4.43141 1.5899 4.25331 1.5899 4.03303V3.99085C1.5899 3.77057 1.68553 3.59247 1.80268 3.59247H9.19513C9.31228 3.59247 9.40791 3.77057 9.40791 3.99085V4.03303ZM9.40791 5.94995C9.40791 6.17023 9.31228 6.34833 9.19513 6.34833H1.80268C1.68553 6.34833 1.5899 6.17023 1.5899 5.94995V5.90777C1.5899 5.68749 1.68553 5.50939 1.80268 5.50939H9.19513C9.31228 5.50939 9.40791 5.68749 9.40791 5.90777V5.94995Z" fill="#556EE6"/>
<path d="M13.1374 7.9958C13.4028 7.69115 13.4625 7.29043 13.0824 6.84986C13.0824 6.84986 12.6042 6.37415 11.942 6.70691L11.9372 6.70457L11.9252 6.71629C11.8918 6.73269 11.8583 6.75144 11.8224 6.77253C11.8224 6.77253 11.7818 6.7819 11.8009 6.79128C11.7722 6.79362 11.7985 6.79128 11.7698 6.79362L11.7388 6.79831L10.2875 8.18327C10.2588 8.20671 10.2325 8.23248 10.2086 8.25592L6.33548 11.9187C6.21594 12.0312 6.18725 12.078 6.07967 12.2069L6.08684 12.2022L6.09162 12.1999L4.58301 14.9112L7.3468 13.5146C7.37789 13.5286 7.52612 13.4232 7.68869 13.2685L11.5451 9.60807C11.569 9.58464 11.5953 9.5612 11.6192 9.53543L13.147 8.0661L13.1446 8.03095C13.1398 8.02861 13.1398 8.01689 13.1374 7.9958ZM11.5929 8.28404C11.3156 7.9958 10.8685 7.85754 10.7872 7.83644L11.7196 6.94594C11.8535 6.97641 12.2384 7.08421 12.554 7.3537C12.8816 7.63725 12.97 7.98877 12.9915 8.09188L11.985 9.05971C11.9826 8.86286 11.875 8.58165 11.5929 8.28404ZM11.5164 9.26125L7.68869 12.8818C7.66478 12.9053 7.59784 12.9732 7.57393 12.9967C7.3731 13.1912 7.36354 13.3411 7.34441 13.4466L5.85254 14.2082C5.8358 14.1121 5.733 13.6856 5.27874 13.7653L6.13226 12.2304C6.23507 12.2186 6.50523 12.1999 6.72041 12.0054C6.74432 11.982 6.70845 12.0148 6.73236 11.9913L10.6772 8.25826C10.7322 8.20436 10.7633 8.17624 10.792 8.14578C10.8494 8.16687 10.9139 8.19499 10.9809 8.22545C10.957 8.24889 10.9354 8.26998 10.9067 8.29576L6.83756 12.1085C6.76583 12.1765 6.64868 12.2936 6.57457 12.4085C6.40482 12.678 6.41438 12.8514 6.58413 13.0248C6.76583 13.2076 7.00492 13.1584 7.2966 12.9732C7.35398 12.9451 7.45678 12.8607 7.51177 12.8092L11.5929 8.93082C11.624 8.90036 11.6527 8.87224 11.679 8.84646C11.7172 8.91442 11.7459 8.97769 11.7651 9.03393C11.667 9.12298 11.6097 9.17454 11.5164 9.26125Z" fill="#556EE6"/>
</svg>
