<svg width="21" height="13" viewBox="0 0 21 13" fill="none" xmlns="http://www.w3.org/2000/svg">
<path d="M6.00015 2.9999H20.0001C20.6001 2.9999 21.0001 2.5999 21.0001 1.9999C21.0001 1.3999 20.6001 0.999901 20.0001 0.999901H6.00015C5.40015 0.999901 5.00015 1.3999 5.00015 1.9999C5.00015 2.5999 5.40015 2.9999 6.00015 2.9999ZM20.0001 5.9999H6.00015C5.40015 5.9999 5.00015 6.3999 5.00015 6.9999C5.00015 7.5999 5.40015 7.9999 6.00015 7.9999H20.0001C20.6001 7.9999 21.0001 7.5999 21.0001 6.9999C21.0001 6.3999 20.6001 5.9999 20.0001 5.9999ZM20.0001 10.9999H6.00015C5.40015 10.9999 5.00015 11.3999 5.00015 11.9999C5.00015 12.5999 5.40015 12.9999 6.00015 12.9999H20.0001C20.6001 12.9999 21.0001 12.5999 21.0001 11.9999C21.0001 11.3999 20.6001 10.9999 20.0001 10.9999ZM2.70015 1.2999C2.60015 1.1999 2.50015 1.0999 2.40015 1.0999C2.00015 0.899901 1.60015 0.999902 1.30015 1.2999C1.20015 1.3999 1.10015 1.4999 1.10015 1.5999C1.00015 1.8999 1.00015 2.0999 1.10015 2.3999C1.20015 2.4999 1.20015 2.5999 1.30015 2.6999C1.40015 2.7999 1.50015 2.8999 1.60015 2.8999C1.70015 2.9999 1.90015 2.9999 2.00015 2.9999C2.30015 2.9999 2.50015 2.8999 2.70015 2.6999C2.80015 2.5999 2.90015 2.4999 2.90015 2.3999C3.00015 2.0999 3.00015 1.8999 2.90015 1.5999C2.90015 1.4999 2.80015 1.3999 2.70015 1.2999ZM2.70015 6.2999C2.40015 5.9999 2.00015 5.8999 1.60015 6.0999C1.50015 6.1999 1.40015 6.1999 1.30015 6.2999C1.20015 6.3999 1.10015 6.4999 1.10015 6.5999C1.00015 6.7999 1.00015 7.0999 1.10015 7.3999C1.20015 7.4999 1.20015 7.5999 1.30015 7.6999C1.40015 7.7999 1.50015 7.8999 1.60015 7.8999C1.70015 7.9999 1.90015 7.9999 2.00015 7.9999C2.10015 7.9999 2.30015 7.9999 2.40015 7.8999C2.50015 7.7999 2.60015 7.7999 2.70015 7.6999C2.80015 7.5999 2.90015 7.4999 2.90015 7.3999C3.00015 7.1999 3.00015 6.8999 2.90015 6.5999C2.90015 6.4999 2.80015 6.3999 2.70015 6.2999ZM2.70015 11.2999C2.60015 11.1999 2.50015 11.0999 2.40015 11.0999C2.20015 10.9999 1.90015 10.9999 1.60015 11.0999C1.50015 11.0999 1.40015 11.1999 1.30015 11.2999C1.20015 11.3999 1.10015 11.4999 1.10015 11.5999C0.900146 11.9999 1.00015 12.3999 1.30015 12.6999C1.40015 12.7999 1.50015 12.8999 1.60015 12.8999C1.70015 12.9999 1.90015 12.9999 2.00015 12.9999C2.10015 12.9999 2.30015 12.9999 2.40015 12.8999C2.50015 12.7999 2.60015 12.7999 2.70015 12.6999C3.00015 12.3999 3.10015 11.9999 2.90015 11.5999C2.90015 11.4999 2.80015 11.3999 2.70015 11.2999Z" fill="#556EE6"/>
</svg>
