<svg width="16" height="16" viewBox="0 0 16 16" fill="none" xmlns="http://www.w3.org/2000/svg">
<path d="M15.2749 6.72503L8.52491 0.725024C8.22492 0.500024 7.84992 0.500024 7.54991 0.725024L0.799915 6.72503C0.499915 7.02503 0.424915 7.47503 0.724915 7.77502C1.02492 8.07503 1.47492 8.15003 1.77492 7.85003L1.99992 7.55002V14.75C1.99992 15.2 2.29992 15.5 2.74992 15.5H13.2499C13.6999 15.5 13.9999 15.2 13.9999 14.75V7.55002L14.2249 7.77502C14.5249 8.07503 14.9749 8.00003 15.2749 7.70003C15.5749 7.47503 15.5749 6.95003 15.2749 6.72503ZM7.99992 7.25003C9.12492 7.25003 10.0249 8.15002 10.0249 9.27503C10.0249 10.4 9.12492 11.3 7.99992 11.3C6.87492 11.3 5.97492 10.4 5.97492 9.27503C5.97492 8.15002 6.87492 7.25003 7.99992 7.25003ZM4.24992 14C4.24992 13.925 4.24992 13.925 4.32492 13.85C5.97492 11.825 8.97492 11.45 10.9999 13.1C11.2999 13.325 11.5249 13.55 11.7499 13.85C11.7499 13.85 11.7499 13.925 11.8249 14H4.24992Z" fill="#50A5F1"/>
</svg>
