<svg width="16" height="16" viewBox="0 0 16 16" fill="none" xmlns="http://www.w3.org/2000/svg">
<path d="M15.2752 6.72503L8.52516 0.725024C8.22516 0.500024 7.85016 0.500024 7.55016 0.725024L0.80016 6.72503C0.50016 7.02503 0.425159 7.47503 0.725159 7.77502C1.02516 8.07503 1.47516 8.15003 1.77516 7.85003L2.00016 7.55002V14.75C2.00016 15.2 2.30016 15.5 2.75016 15.5H13.2502C13.7002 15.5 14.0002 15.2 14.0002 14.75V7.55002L14.2252 7.77502C14.5252 8.07503 14.9752 8.00003 15.2752 7.70003C15.5752 7.47503 15.5752 6.95003 15.2752 6.72503ZM8.00016 7.25003C9.12516 7.25003 10.0252 8.15002 10.0252 9.27503C10.0252 10.4 9.12516 11.3 8.00016 11.3C6.87516 11.3 5.97516 10.4 5.97516 9.27503C5.97516 8.15002 6.87516 7.25003 8.00016 7.25003ZM4.25016 14C4.25016 13.925 4.25016 13.925 4.32516 13.85C5.97516 11.825 8.97516 11.45 11.0002 13.1C11.3002 13.325 11.5252 13.55 11.7502 13.85C11.7502 13.85 11.7502 13.925 11.8252 14H4.25016Z" fill="#50A5F1"/>
</svg>
