<svg width="13" height="16" viewBox="0 0 13 16" fill="none" xmlns="http://www.w3.org/2000/svg">
<path d="M3.81827 2.51418H4.31827V2.01418H3.81827V2.51418ZM9.45464 2.51418V2.01418H8.95464V2.51418H9.45464ZM3 3.01418H3.81827V2.01418H3V3.01418ZM1.5 4.51418C1.5 3.68575 2.17157 3.01418 3 3.01418V2.01418C1.61929 2.01418 0.5 3.13347 0.5 4.51418H1.5ZM1.5 13.4989V4.51418H0.5V13.4989H1.5ZM3 14.9989C2.17157 14.9989 1.5 14.3274 1.5 13.4989H0.5C0.5 14.8796 1.61929 15.9989 3 15.9989V14.9989ZM10.2727 14.9989H3V15.9989H10.2727V14.9989ZM11.7727 13.4989C11.7727 14.3274 11.1012 14.9989 10.2727 14.9989V15.9989C11.6534 15.9989 12.7727 14.8796 12.7727 13.4989H11.7727ZM11.7727 4.51418V13.4989H12.7727V4.51418H11.7727ZM10.2727 3.01418C11.1012 3.01418 11.7727 3.68575 11.7727 4.51418H12.7727C12.7727 3.13346 11.6534 2.01418 10.2727 2.01418V3.01418ZM9.45464 3.01418H10.2727V2.01418H9.45464V3.01418ZM8.95464 2.51418V2.83891H9.95464V2.51418H8.95464ZM8.95464 2.83891C8.95464 3.06291 8.74461 3.31277 8.39782 3.31277V4.31277C9.21835 4.31277 9.95464 3.6906 9.95464 2.83891H8.95464ZM8.39782 3.31277H4.87509V4.31277H8.39782V3.31277ZM4.87509 3.31277C4.52829 3.31277 4.31827 3.06291 4.31827 2.83891H3.31827C3.31827 3.6906 4.05455 4.31277 4.87509 4.31277V3.31277ZM4.31827 2.83891V2.51418H3.31827V2.83891H4.31827Z" fill="#556EE6"/>
<path fill-rule="evenodd" clip-rule="evenodd" d="M7.34058 0.649246C7.34058 0.649244 7.34058 0.649241 7.34058 0.649238C7.34058 0.290674 7.02515 0 6.63604 0C6.24693 0 5.93149 0.290674 5.93149 0.649238C5.93149 0.649241 5.93149 0.649244 5.93149 0.649246H5.02246C4.74632 0.649246 4.52246 0.873104 4.52246 1.14925V1.44772C4.52246 1.72386 4.74632 1.94772 5.02246 1.94772H8.24974C8.52588 1.94772 8.74974 1.72387 8.74974 1.44772V1.14925C8.74974 0.873104 8.52588 0.649246 8.24974 0.649246H7.34058Z" fill="#556EE6"/>
<rect x="3.11328" y="7.05876" width="3.52273" height="1.29848" rx="0.649238" fill="#556EE6"/>
<rect x="3.11328" y="9.65588" width="6.34092" height="1.29848" rx="0.649239" fill="#556EE6"/>
</svg>
