<svg width="26" height="19" viewBox="0 0 26 19" fill="none" xmlns="http://www.w3.org/2000/svg">
<g clip-path="url(#clip0_134_25864)">
<path d="M21.904 6.63319C21.1755 8.19615 20.0369 9.07387 18.4091 9.07387C16.7813 9.07387 15.6403 8.19978 14.9237 6.6562C14.8093 6.77968 14.7198 6.89591 14.6137 6.99155C14.0326 7.50971 13.1061 7.23973 13.0094 6.46249C12.9175 5.73126 12.9894 4.97702 13.0012 4.23247C13.0024 4.13925 13.0637 4.04118 13.1155 3.95765C13.4632 3.40801 13.811 2.85717 14.1693 2.31358C16.357 -1.00845 21.1991 -0.693682 22.9813 2.87775C23.1464 3.20826 23.4127 3.48549 23.5872 3.81237C23.7145 4.04966 23.8182 4.32206 23.8441 4.5884C23.8854 5.02787 23.8442 5.4746 23.8595 5.9177C23.8783 6.48186 23.7734 6.97218 23.1923 7.19252C22.6348 7.40438 22.2552 7.10898 21.904 6.63319ZM14.6891 3.92859C14.7586 3.92859 14.8282 3.92859 14.8977 3.92859C15.5826 2.3729 16.7153 1.4516 18.4032 1.44675C20.1159 1.44191 21.2451 2.40196 22.0407 3.94796C22.1327 3.71673 22.2069 3.4637 22.1209 3.30026C21.3241 1.80148 20.0982 0.97702 18.415 0.973388C16.7318 0.969756 15.5024 1.78937 14.7009 3.28574C14.6125 3.45281 14.6891 3.7131 14.6891 3.92859Z" fill="#495057"/>
<path d="M25.9988 18.8826C25.0841 19.1162 24.9981 19.0533 24.9969 18.2058C24.9957 17.4601 25.0028 16.7143 24.9946 15.9685C24.9863 15.1368 24.5655 14.6731 23.7746 14.6719C20.2019 14.6634 16.6304 14.6647 13.0578 14.6719C12.2598 14.6731 11.8295 15.1271 11.8166 15.9516C11.8048 16.6973 11.8142 17.4431 11.813 18.1889C11.8119 19.0509 11.7364 19.109 10.8595 18.8971C10.8595 17.7022 10.8194 16.4976 10.883 15.2978C10.9019 14.931 11.1341 14.5061 11.3958 14.2397C11.793 13.8354 11.9851 13.3777 12.136 12.8475C12.5533 11.3765 13.5493 10.4528 14.9826 10.184C17.2339 9.76151 19.5171 9.76635 21.7708 10.1695C23.4222 10.4649 24.3981 11.5823 24.8013 13.2482C24.8625 13.5012 25.0158 13.7603 25.1949 13.9479C25.6971 14.4794 26 15.0811 26 15.8317C25.9988 16.8535 25.9988 17.8777 25.9988 18.8826Z" fill="#495057"/>
<path d="M13.9005 0.926141C13.4951 1.62711 13.033 1.88256 12.3081 1.87408C8.77314 1.83171 5.23583 1.85471 1.6997 1.85471C1.48753 1.85471 1.27536 1.85471 1.02312 1.85471C1.02312 5.62832 1.02312 9.35229 1.02312 13.1683C4.37066 13.1683 7.72998 13.1683 11.0881 13.1683C11.1188 13.2082 11.1494 13.2482 11.1789 13.2881C9.89999 14.3426 9.92828 15.793 9.97779 17.2312C9.99664 17.7651 9.83634 17.937 9.31771 17.9201C8.27808 17.885 7.2361 17.9104 6.19412 17.9092C5.27237 17.908 5.24408 17.8692 5.43268 16.7893C6.12812 16.7893 6.84477 16.7905 7.56261 16.7893C7.81603 16.7893 8.0942 16.8414 8.09656 16.4274C8.1001 16.0218 7.83489 16.0484 7.57321 16.0484C5.47157 16.0484 3.36875 16.0496 1.26711 16.0472C0.29114 16.046 0.00117676 15.7506 -1.95345e-06 14.7542C-0.00235937 10.5169 -0.00235937 6.27965 -1.95345e-06 2.04236C-1.95345e-06 1.15859 0.267565 0.876504 1.12449 0.875293C5.19104 0.870451 9.25759 0.872872 13.3241 0.875293C13.4939 0.875293 13.6613 0.904349 13.9005 0.926141Z" fill="#495057"/>
<path d="M7.39522 8.42252C6.02792 8.42615 4.95765 7.34867 4.9435 5.95642C4.93054 4.54843 6.02792 3.39226 7.38226 3.38984C8.7142 3.38741 9.82337 4.51695 9.83515 5.88378C9.84812 7.31356 8.7861 8.41889 7.39522 8.42252Z" fill="#495057"/>
<path d="M3.58211 11.8608C3.51139 10.5521 4.90698 9.00605 6.07744 9.10411C6.31554 9.12469 6.5395 9.37772 6.76109 9.53631C6.96973 9.68522 7.16657 9.85108 7.38817 10.0242C7.58855 9.86803 7.80425 9.74939 7.95513 9.57263C8.47376 8.9673 9.02776 9.08837 9.63479 9.40798C10.6591 9.94793 11.239 10.8196 11.193 11.8596C8.67296 11.8608 6.15052 11.8608 3.58211 11.8608Z" fill="#495057"/>
</g>
<defs>
<clipPath id="clip0_134_25864">
<rect width="26" height="19" fill="white"/>
</clipPath>
</defs>
</svg>
