<svg width="20" height="20" viewBox="0 0 20 20" fill="none" xmlns="http://www.w3.org/2000/svg">
<circle cx="10" cy="10" r="10" fill="#50A5F1"/>
<path d="M12.4501 10.525C12.4501 10.525 12.3917 10.525 12.4501 10.525C12.3334 10.4666 12.2751 10.4083 12.1584 10.4083C13.6751 9.24163 13.9667 7.02497 12.7417 5.5083C11.5167 3.99163 9.35841 3.69997 7.84175 4.92497C6.32508 6.14997 6.03341 8.3083 7.25841 9.82497C7.43341 10.0583 7.60841 10.2333 7.84175 10.4083C7.78341 10.4666 7.66675 10.4666 7.60841 10.525C7.60841 10.525 7.60841 10.525 7.55008 10.525C5.68341 11.4 4.40008 13.15 4.16675 15.1916C4.16675 15.4833 4.40008 15.775 4.75008 15.8333H15.2501C15.5417 15.775 15.7751 15.4833 15.7751 15.1916C15.6001 13.15 14.3167 11.4 12.4501 10.525ZM7.66675 7.4333C7.78341 6.14997 8.95008 5.21663 10.1751 5.3333C11.2834 5.44997 12.1584 6.32497 12.2751 7.4333H7.66675ZM10.0001 12.45L8.89175 11.3416C9.65008 11.1666 10.4084 11.1666 11.1667 11.3416L10.0001 12.45Z" fill="white"/>
</svg>
