<svg width="21" height="21" viewBox="0 0 21 21" fill="none" xmlns="http://www.w3.org/2000/svg">
<path d="M19.95 4.2H15.75V3.15C15.75 2.31457 15.4181 1.51335 14.8274 0.922614C14.2366 0.331874 13.4354 0 12.6 0H8.4C7.56457 0 6.76335 0.331874 6.17261 0.922614C5.58187 1.51335 5.25 2.31457 5.25 3.15V4.2H1.05C0.771523 4.2 0.504451 4.31062 0.307538 4.50754C0.110625 4.70445 0 4.97152 0 5.25V9.45C0.00236422 9.89035 0.0970294 10.3253 0.277886 10.7268C0.458743 11.1283 0.721773 11.4874 1.05 11.781V17.85C1.05 18.6854 1.38187 19.4866 1.97261 20.0774C2.56335 20.6681 3.36457 21 4.2 21H16.8C17.6354 21 18.4366 20.6681 19.0274 20.0774C19.6181 19.4866 19.95 18.6854 19.95 17.85V11.781C20.2782 11.4874 20.5413 11.1283 20.7221 10.7268C20.903 10.3253 20.9976 9.89035 21 9.45V5.25C21 4.97152 20.8894 4.70445 20.6925 4.50754C20.4955 4.31062 20.2285 4.2 19.95 4.2ZM7.35 3.15C7.35 2.87152 7.46062 2.60445 7.65754 2.40754C7.85445 2.21062 8.12152 2.1 8.4 2.1H12.6C12.8785 2.1 13.1455 2.21062 13.3425 2.40754C13.5394 2.60445 13.65 2.87152 13.65 3.15V4.2H7.35V3.15ZM17.85 17.85C17.85 18.1285 17.7394 18.3955 17.5425 18.5925C17.3455 18.7894 17.0785 18.9 16.8 18.9H4.2C3.92152 18.9 3.65445 18.7894 3.45754 18.5925C3.26062 18.3955 3.15 18.1285 3.15 17.85V12.6H5.25V13.65C5.25 13.9285 5.36062 14.1955 5.55754 14.3925C5.75445 14.5894 6.02152 14.7 6.3 14.7C6.57848 14.7 6.84555 14.5894 7.04246 14.3925C7.23937 14.1955 7.35 13.9285 7.35 13.65V12.6H13.65V13.65C13.65 13.9285 13.7606 14.1955 13.9575 14.3925C14.1545 14.5894 14.4215 14.7 14.7 14.7C14.9785 14.7 15.2455 14.5894 15.4425 14.3925C15.6394 14.1955 15.75 13.9285 15.75 13.65V12.6H17.85V17.85ZM18.9 9.45C18.9 9.72848 18.7894 9.99555 18.5925 10.1925C18.3955 10.3894 18.1285 10.5 17.85 10.5H15.75V9.45C15.75 9.17152 15.6394 8.90445 15.4425 8.70754C15.2455 8.51062 14.9785 8.4 14.7 8.4C14.4215 8.4 14.1545 8.51062 13.9575 8.70754C13.7606 8.90445 13.65 9.17152 13.65 9.45V10.5H7.35V9.45C7.35 9.17152 7.23937 8.90445 7.04246 8.70754C6.84555 8.51062 6.57848 8.4 6.3 8.4C6.02152 8.4 5.75445 8.51062 5.55754 8.70754C5.36062 8.90445 5.25 9.17152 5.25 9.45V10.5H3.15C2.87152 10.5 2.60445 10.3894 2.40754 10.1925C2.21062 9.99555 2.1 9.72848 2.1 9.45V6.3H18.9V9.45Z" fill="#495057"/>
</svg>
