<svg width="14" height="15" viewBox="0 0 14 15" fill="none" xmlns="http://www.w3.org/2000/svg">
<path d="M13 5.66699C13.0875 5.66701 13.1742 5.64979 13.2551 5.61629C13.336 5.58279 13.4095 5.53369 13.4714 5.47178C13.5333 5.40987 13.5825 5.33637 13.6159 5.25547C13.6494 5.17458 13.6667 5.08788 13.6666 5.00032V3.00032C13.6667 2.86044 13.6227 2.72409 13.5409 2.61062C13.4591 2.49715 13.3437 2.41232 13.2109 2.36816L7.21092 0.368164C7.07399 0.322591 6.92597 0.322591 6.78904 0.368164L0.78904 2.36816C0.656309 2.41232 0.540852 2.49715 0.45905 2.61062C0.377248 2.72409 0.333256 2.86044 0.333313 3.00032V5.00032C0.33329 5.08788 0.350519 5.17458 0.384014 5.25547C0.417509 5.33637 0.466614 5.40987 0.528524 5.47178C0.590435 5.53369 0.663936 5.58279 0.74483 5.61629C0.825725 5.64979 0.912425 5.66701 0.99998 5.66699H1.66665V10.4565C1.2778 10.5935 0.94089 10.8474 0.702158 11.1835C0.463426 11.5196 0.334581 11.9214 0.333313 12.3337V13.667C0.33329 13.7545 0.350519 13.8412 0.384014 13.9221C0.417509 14.003 0.466614 14.0765 0.528524 14.1384C0.590435 14.2004 0.663936 14.2495 0.74483 14.283C0.825725 14.3165 0.912425 14.3337 0.99998 14.3337H13C13.0875 14.3337 13.1742 14.3165 13.2551 14.283C13.336 14.2495 13.4095 14.2004 13.4714 14.1384C13.5333 14.0765 13.5825 14.003 13.6159 13.9221C13.6494 13.8412 13.6667 13.7545 13.6666 13.667V12.3337C13.6654 11.9214 13.5365 11.5196 13.2978 11.1835C13.0591 10.8474 12.7222 10.5935 12.3333 10.4565V5.66699H13ZM12.3333 13.0003H1.66665V12.3337C1.66682 12.1569 1.73712 11.9874 1.8621 11.8624C1.98709 11.7375 2.15656 11.6672 2.33331 11.667H11.6666C11.8434 11.6672 12.0129 11.7375 12.1379 11.8624C12.2628 11.9874 12.3331 12.1569 12.3333 12.3337V13.0003ZM2.99998 10.3337V5.66699H4.33331V10.3337H2.99998ZM5.66665 10.3337V5.66699H8.33331V10.3337H5.66665ZM9.66665 10.3337V5.66699H11V10.3337H9.66665ZM1.66665 4.33366V3.48079L6.99998 1.70279L12.3333 3.48079V4.33366H1.66665Z" fill="#50A5F1"/>
</svg>
