<svg width="18" height="24" viewBox="0 0 18 24" fill="none" xmlns="http://www.w3.org/2000/svg">
<path d="M12 0.75C12 0.551088 11.921 0.360322 11.7803 0.21967C11.6397 0.0790176 11.4489 0 11.25 0L6.75 0C6.55109 0 6.36032 0.0790176 6.21967 0.21967C6.07902 0.360322 6 0.551088 6 0.75C6 0.948912 5.92098 1.13968 5.78033 1.28033C5.63968 1.42098 5.44891 1.5 5.25 1.5C5.05109 1.5 4.86032 1.57902 4.71967 1.71967C4.57902 1.86032 4.5 2.05109 4.5 2.25V3C4.5 3.19891 4.57902 3.38968 4.71967 3.53033C4.86032 3.67098 5.05109 3.75 5.25 3.75H12.75C12.9489 3.75 13.1397 3.67098 13.2803 3.53033C13.421 3.38968 13.5 3.19891 13.5 3V2.25C13.5 2.05109 13.421 1.86032 13.2803 1.71967C13.1397 1.57902 12.9489 1.5 12.75 1.5C12.5511 1.5 12.3603 1.42098 12.2197 1.28033C12.079 1.13968 12 0.948912 12 0.75Z" fill="#495057"/>
<path d="M3.1275 1.5H2.25C1.65326 1.5 1.08097 1.73705 0.65901 2.15901C0.237053 2.58097 0 3.15326 0 3.75V21.75C0 22.3467 0.237053 22.919 0.65901 23.341C1.08097 23.7629 1.65326 24 2.25 24H15.75C16.3467 24 16.919 23.7629 17.341 23.341C17.7629 22.919 18 22.3467 18 21.75V3.75C18 3.15326 17.7629 2.58097 17.341 2.15901C16.919 1.73705 16.3467 1.5 15.75 1.5H14.8725C14.955 1.734 15 1.9875 15 2.25V3C15 3.59674 14.7629 4.16903 14.341 4.59099C13.919 5.01295 13.3467 5.25 12.75 5.25H5.25C4.65326 5.25 4.08097 5.01295 3.65901 4.59099C3.23705 4.16903 3 3.59674 3 3V2.25C3 1.9875 3.045 1.734 3.1275 1.5ZM9.75 9.75V12H12C12.1989 12 12.3897 12.079 12.5303 12.2197C12.671 12.3603 12.75 12.5511 12.75 12.75C12.75 12.9489 12.671 13.1397 12.5303 13.2803C12.3897 13.421 12.1989 13.5 12 13.5H9.75V15.75C9.75 15.9489 9.67098 16.1397 9.53033 16.2803C9.38968 16.421 9.19891 16.5 9 16.5C8.80109 16.5 8.61032 16.421 8.46967 16.2803C8.32902 16.1397 8.25 15.9489 8.25 15.75V13.5H6C5.80109 13.5 5.61032 13.421 5.46967 13.2803C5.32902 13.1397 5.25 12.9489 5.25 12.75C5.25 12.5511 5.32902 12.3603 5.46967 12.2197C5.61032 12.079 5.80109 12 6 12H8.25V9.75C8.25 9.55109 8.32902 9.36032 8.46967 9.21967C8.61032 9.07902 8.80109 9 9 9C9.19891 9 9.38968 9.07902 9.53033 9.21967C9.67098 9.36032 9.75 9.55109 9.75 9.75Z" fill="#495057"/>
</svg>
