<svg width="16" height="18" viewBox="0 0 16 18" fill="none" xmlns="http://www.w3.org/2000/svg">
<path d="M15.7843 14.4502C15.2676 13.9896 14.8153 13.4615 14.4395 12.8803C14.0292 12.078 13.7832 11.2018 13.7161 10.3032V7.65638C13.7197 6.24491 13.2077 4.88073 12.2763 3.82013C11.345 2.75954 10.0584 2.07555 8.65831 1.89667V1.20551C8.65831 1.01581 8.58296 0.833874 8.44882 0.699734C8.31467 0.565594 8.13274 0.490234 7.94304 0.490234C7.75334 0.490234 7.5714 0.565594 7.43726 0.699734C7.30312 0.833874 7.22776 1.01581 7.22776 1.20551V1.90739C5.84021 2.09916 4.56917 2.78729 3.65006 3.84432C2.73095 4.90134 2.22605 6.25564 2.22887 7.65638V10.3032C2.16177 11.2018 1.91585 12.078 1.50556 12.8803C1.13634 13.4602 0.691269 13.9882 0.182168 14.4502C0.125016 14.5004 0.0792114 14.5622 0.0478015 14.6315C0.0163916 14.7007 9.63324e-05 14.7759 0 14.852V15.5807C0 15.7228 0.0564488 15.859 0.156928 15.9595C0.257408 16.06 0.393687 16.1165 0.535787 16.1165H15.4307C15.5728 16.1165 15.709 16.06 15.8095 15.9595C15.91 15.859 15.9664 15.7228 15.9664 15.5807V14.852C15.9664 14.7759 15.9501 14.7007 15.9186 14.6315C15.8872 14.5622 15.8414 14.5004 15.7843 14.4502ZM1.11444 15.0449C1.61294 14.5633 2.05185 14.0237 2.42176 13.4375C2.93858 12.4685 3.24013 11.3994 3.3058 10.3032V7.65638C3.28456 7.02846 3.38988 6.40268 3.61551 5.81631C3.84114 5.22994 4.18247 4.69497 4.61915 4.24326C5.05584 3.79155 5.57896 3.43233 6.15736 3.187C6.73576 2.94166 7.35762 2.81523 7.9859 2.81523C8.61418 2.81523 9.23604 2.94166 9.81445 3.187C10.3928 3.43233 10.916 3.79155 11.3527 4.24326C11.7893 4.69497 12.1307 5.22994 12.3563 5.81631C12.5819 6.40268 12.6872 7.02846 12.666 7.65638V10.3032C12.7317 11.3994 13.0332 12.4685 13.55 13.4375C13.92 14.0237 14.3589 14.5633 14.8574 15.0449H1.11444Z" fill="#50A5F1"/>
<path d="M8.00988 17.9062C8.34739 17.8984 8.67128 17.7715 8.92426 17.5479C9.17723 17.3244 9.34299 17.0186 9.39221 16.6846H6.57397C6.62459 17.0276 6.79811 17.3406 7.06224 17.5654C7.32637 17.7901 7.66313 17.9112 8.00988 17.9062V17.9062Z" fill="#50A5F1"/>
</svg>
