<svg width="12" height="16" viewBox="0 0 12 16" fill="none" xmlns="http://www.w3.org/2000/svg">
<path d="M9.75 5.75H3.75V4.25C3.75 3.65 3.975 3.125 4.425 2.675C5.325 1.775 6.75 1.775 7.575 2.675C7.875 2.975 8.025 3.35 8.175 3.725C8.25 4.1 8.7 4.325 9.075 4.25C9.45 4.175 9.75 3.725 9.6 3.35C9.45 2.675 9.075 2.075 8.625 1.625C7.95 0.875 6.975 0.5 6 0.5C3.9 0.5 2.25 2.15 2.25 4.25V5.75C0.975 5.75 0 6.725 0 8V13.25C0 14.525 0.975 15.5 2.25 15.5H9.75C11.025 15.5 12 14.525 12 13.25V8C12 6.725 11.025 5.75 9.75 5.75ZM6.825 10.625L6.75 10.7V11.75C6.75 12.2 6.45 12.5 6 12.5C5.55 12.5 5.25 12.2 5.25 11.75V10.7C4.8 10.25 4.725 9.575 5.175 9.125C5.625 8.675 6.3 8.6 6.75 9.05C7.2 9.425 7.275 10.175 6.825 10.625Z" fill="#50A5F1"/>
</svg>
