<svg width="17" height="17" viewBox="0 0 17 17" fill="none" xmlns="http://www.w3.org/2000/svg">
<path d="M15.7595 0.630828C15.192 0.533083 14.6174 0.482771 14.0416 0.480411C12.077 0.478801 10.1533 1.04216 8.49993 2.10333C6.84229 1.05609 4.91894 0.506561 2.95826 0.519994C2.38244 0.522354 1.80781 0.572667 1.24034 0.670411C1.05446 0.702457 0.886134 0.799816 0.765668 0.944955C0.645202 1.0901 0.580516 1.27348 0.583258 1.46208V10.9621C0.581562 11.0784 0.605524 11.1937 0.653439 11.2997C0.701354 11.4057 0.772044 11.4998 0.860478 11.5754C0.948913 11.651 1.05292 11.7062 1.1651 11.737C1.27728 11.7678 1.39487 11.7735 1.50951 11.7537C2.64398 11.5573 3.80629 11.5899 4.92798 11.8496C6.04966 12.1093 7.10804 12.5908 8.04076 13.2658L8.13576 13.3212H8.22284C8.31064 13.3578 8.40481 13.3767 8.49993 13.3767C8.59504 13.3767 8.68921 13.3578 8.77701 13.3212H8.86409L8.95909 13.2658C9.88531 12.5757 10.9406 12.0786 12.0625 11.8039C13.1844 11.5292 14.3501 11.4825 15.4903 11.6667C15.605 11.6865 15.7226 11.6807 15.8348 11.6499C15.9469 11.6191 16.0509 11.5639 16.1394 11.4883C16.2278 11.4127 16.2985 11.3186 16.3464 11.2126C16.3943 11.1066 16.4183 10.9913 16.4166 10.875V1.37499C16.4084 1.19462 16.3387 1.02247 16.2192 0.88712C16.0997 0.751767 15.9375 0.661336 15.7595 0.630828ZM7.70826 11.1521C6.24358 10.3815 4.61325 9.97939 2.95826 9.98041C2.69701 9.98041 2.43576 9.98041 2.16659 9.98041V2.06374C2.43026 2.04855 2.69459 2.04855 2.95826 2.06374C4.64719 2.06188 6.29926 2.5575 7.70826 3.48874V11.1521ZM14.8333 10.0121C14.5641 10.0121 14.3028 10.0121 14.0416 10.0121C12.3866 10.0111 10.7563 10.4132 9.29159 11.1837V3.48874C10.7006 2.5575 12.3527 2.06188 14.0416 2.06374C14.3053 2.04855 14.5696 2.04855 14.8333 2.06374V10.0121ZM15.7595 13.2975C15.192 13.1997 14.6174 13.1494 14.0416 13.1471C12.077 13.1455 10.1533 13.7088 8.49993 14.77C6.84654 13.7088 4.92289 13.1455 2.95826 13.1471C2.38244 13.1494 1.80781 13.1997 1.24034 13.2975C1.13729 13.3138 1.03848 13.3504 0.949611 13.4051C0.860739 13.4598 0.783551 13.5315 0.722486 13.6161C0.661421 13.7007 0.617684 13.7965 0.59379 13.8981C0.569896 13.9997 0.566317 14.105 0.583258 14.2079C0.623489 14.4135 0.743563 14.5948 0.917175 14.712C1.09079 14.8292 1.30378 14.8728 1.50951 14.8333C2.64398 14.6369 3.80629 14.6695 4.92798 14.9292C6.04966 15.1889 7.10804 15.6704 8.04076 16.3454C8.17484 16.4409 8.33533 16.4922 8.49993 16.4922C8.66452 16.4922 8.82501 16.4409 8.95909 16.3454C9.89181 15.6704 10.9502 15.1889 12.0719 14.9292C13.1936 14.6695 14.3559 14.6369 15.4903 14.8333C15.6961 14.8728 15.9091 14.8292 16.0827 14.712C16.2563 14.5948 16.3764 14.4135 16.4166 14.2079C16.4335 14.105 16.43 13.9997 16.4061 13.8981C16.3822 13.7965 16.3384 13.7007 16.2774 13.6161C16.2163 13.5315 16.1391 13.4598 16.0502 13.4051C15.9614 13.3504 15.8626 13.3138 15.7595 13.2975Z" fill="#50A5F1"/>
</svg>
