<svg width="19" height="19" viewBox="0 0 19 19" fill="none" xmlns="http://www.w3.org/2000/svg">
<path d="M14.2498 1.58334H6.33317C5.49332 1.58334 4.68786 1.91697 4.094 2.51084C3.50013 3.1047 3.1665 3.91016 3.1665 4.75001V14.25C3.1665 15.0899 3.50013 15.8953 4.094 16.4892C4.68786 17.083 5.49332 17.4167 6.33317 17.4167H14.2498C14.6698 17.4167 15.0725 17.2499 15.3694 16.9529C15.6664 16.656 15.8332 16.2533 15.8332 15.8333V3.16668C15.8332 2.74675 15.6664 2.34402 15.3694 2.04709C15.0725 1.75016 14.6698 1.58334 14.2498 1.58334ZM4.74984 4.75001C4.74984 4.33008 4.91665 3.92736 5.21358 3.63042C5.51052 3.33349 5.91324 3.16668 6.33317 3.16668H14.2498V11.0833H6.33317C5.77508 11.0857 5.228 11.2389 4.74984 11.5267V4.75001ZM6.33317 15.8333C5.91324 15.8333 5.51052 15.6665 5.21358 15.3696C4.91665 15.0727 4.74984 14.6699 4.74984 14.25C4.74984 13.8301 4.91665 13.4274 5.21358 13.1304C5.51052 12.8335 5.91324 12.6667 6.33317 12.6667H14.2498V15.8333H6.33317ZM7.9165 6.33334H11.0832C11.2931 6.33334 11.4945 6.24994 11.643 6.10147C11.7914 5.953 11.8748 5.75164 11.8748 5.54168C11.8748 5.33171 11.7914 5.13035 11.643 4.98188C11.4945 4.83342 11.2931 4.75001 11.0832 4.75001H7.9165C7.70654 4.75001 7.50518 4.83342 7.35671 4.98188C7.20824 5.13035 7.12484 5.33171 7.12484 5.54168C7.12484 5.75164 7.20824 5.953 7.35671 6.10147C7.50518 6.24994 7.70654 6.33334 7.9165 6.33334V6.33334Z" fill="#50A5F1"/>
</svg>
