<svg width="19" height="19" viewBox="0 0 19 19" fill="none" xmlns="http://www.w3.org/2000/svg">
<path d="M16.6252 4.75001C16.4152 4.75001 16.2138 4.83342 16.0654 4.98188C15.9169 5.13035 15.8335 5.33171 15.8335 5.54168V13.4583C15.8335 14.0882 15.5833 14.6923 15.1379 15.1377C14.6925 15.5831 14.0884 15.8333 13.4585 15.8333H5.54183C5.33187 15.8333 5.1305 15.9167 4.98204 16.0652C4.83357 16.2137 4.75016 16.415 4.75016 16.625C4.75016 16.835 4.83357 17.0363 4.98204 17.1848C5.1305 17.3333 5.33187 17.4167 5.54183 17.4167H13.4585C14.5083 17.4167 15.5151 16.9996 16.2575 16.2573C16.9998 15.515 17.4168 14.5082 17.4168 13.4583V5.54168C17.4168 5.33171 17.3334 5.13035 17.185 4.98188C17.0365 4.83342 16.8351 4.75001 16.6252 4.75001ZM14.2502 11.875V3.95834C14.2502 3.32845 13.9999 2.72436 13.5545 2.27896C13.1091 1.83357 12.5051 1.58334 11.8752 1.58334H3.9585C3.32861 1.58334 2.72452 1.83357 2.27912 2.27896C1.83372 2.72436 1.5835 3.32845 1.5835 3.95834V11.875C1.5835 12.5049 1.83372 13.109 2.27912 13.5544C2.72452 13.9998 3.32861 14.25 3.9585 14.25H11.8752C12.5051 14.25 13.1091 13.9998 13.5545 13.5544C13.9999 13.109 14.2502 12.5049 14.2502 11.875ZM7.91683 3.16668H9.50016V7.01418L9.21516 6.77668C9.07291 6.65819 8.89363 6.59331 8.7085 6.59331C8.52336 6.59331 8.34408 6.65819 8.20183 6.77668L7.91683 7.01418V3.16668ZM3.16683 11.875V3.95834C3.16683 3.74838 3.25024 3.54702 3.3987 3.39855C3.54717 3.25008 3.74853 3.16668 3.9585 3.16668H6.3335V8.70834C6.33349 8.85968 6.37685 9.00785 6.45846 9.1353C6.54007 9.26275 6.6565 9.36414 6.79396 9.42745C6.93142 9.49077 7.08414 9.51335 7.23404 9.49254C7.38394 9.47172 7.52474 9.40838 7.63975 9.31001L8.7085 8.41543L9.77725 9.31001C9.92065 9.43264 10.1031 9.50002 10.2918 9.50001C10.4064 9.4992 10.5195 9.47495 10.6243 9.42876C10.7617 9.36516 10.878 9.26349 10.9594 9.1358C11.0408 9.00811 11.0839 8.85976 11.0835 8.70834V3.16668H11.8752C12.0851 3.16668 12.2865 3.25008 12.435 3.39855C12.5834 3.54702 12.6668 3.74838 12.6668 3.95834V11.875C12.6668 12.085 12.5834 12.2863 12.435 12.4348C12.2865 12.5833 12.0851 12.6667 11.8752 12.6667H3.9585C3.74853 12.6667 3.54717 12.5833 3.3987 12.4348C3.25024 12.2863 3.16683 12.085 3.16683 11.875Z" fill="#50A5F1"/>
</svg>
