<svg width="16" height="16" viewBox="0 0 16 16" fill="none" xmlns="http://www.w3.org/2000/svg">
<path d="M15.7422 3.26756C15.7291 3.11827 15.6253 2.99622 15.5128 2.99622C15.4002 2.99622 15.3079 2.90359 15.3079 2.7919C15.3079 2.6802 15.1866 2.60882 15.0385 2.63388L14.2343 2.7701C14.0726 1.79316 13.83 1.18236 13.4639 0.8173C12.3712 -0.272433 3.62943 -0.272433 2.53671 0.8173C2.17065 1.18236 1.92807 1.79261 1.76634 2.76956L0.962101 2.63334C0.814584 2.60828 0.692746 2.67965 0.692746 2.79135C0.692746 2.90305 0.599865 2.99622 0.487861 2.99622C0.375857 2.99622 0.271502 3.11881 0.25839 3.26756L0.00160042 6.02786C-0.0023814 6.06237 0.00108762 6.09734 0.0117746 6.13041C0.0224616 6.16347 0.0401192 6.19388 0.0635619 6.21958C0.0870045 6.24528 0.11569 6.26568 0.147691 6.27941C0.179693 6.29315 0.21427 6.29989 0.249101 6.2992H0.829336C0.979585 6.2992 1.11344 6.17715 1.12765 6.02786L1.34291 3.72198C1.34571 3.68712 1.35579 3.65324 1.37253 3.62251C1.38927 3.59178 1.41228 3.5649 1.44008 3.54359C1.46789 3.52228 1.49986 3.50702 1.53394 3.4988C1.56802 3.49058 1.60345 3.48958 1.63795 3.49586L1.66745 3.50131C1.44836 5.49116 1.44399 15.4551 1.44399 15.4551C1.44399 15.757 1.52048 16 1.615 16H3.01478C3.1093 16 3.18579 15.757 3.18579 15.4551V14.4242C5.72254 14.8057 10.2786 14.8057 12.8154 14.4242V15.454C12.8154 15.7554 12.8919 15.9989 12.9858 15.9989H14.3856C14.4796 15.9989 14.5561 15.7554 14.5561 15.454C14.5561 15.454 14.5517 5.49225 14.3332 3.50131L14.3627 3.49586C14.3972 3.48975 14.4326 3.4909 14.4667 3.49922C14.5007 3.50754 14.5326 3.52286 14.5604 3.5442C14.5882 3.56553 14.6112 3.59241 14.6279 3.62312C14.6447 3.65383 14.6548 3.68769 14.6577 3.72253L14.8724 6.02731C14.8855 6.17715 15.0199 6.29975 15.1702 6.29975H15.7504C15.7853 6.30027 15.8199 6.29338 15.852 6.27953C15.884 6.26567 15.9127 6.24518 15.9362 6.21941C15.9596 6.19363 15.9773 6.16317 15.9881 6.13005C15.9988 6.09693 16.0024 6.06191 15.9985 6.02731L15.7422 3.26756ZM3.15191 12.0159C3.01928 12.0204 2.88711 11.9982 2.76325 11.9507C2.63939 11.9032 2.52639 11.8313 2.43095 11.7394C2.33552 11.6474 2.25961 11.5372 2.20774 11.4154C2.15588 11.2936 2.12911 11.1626 2.12904 11.0303C2.12896 10.898 2.15558 10.7669 2.20732 10.6451C2.25905 10.5232 2.33484 10.413 2.43017 10.3209C2.5255 10.2288 2.63843 10.1568 2.76223 10.1092C2.88603 10.0615 3.01819 10.0392 3.15082 10.0435C3.40606 10.0537 3.64745 10.162 3.82447 10.3457C4.00149 10.5294 4.10042 10.7742 4.10056 11.0289C4.10071 11.2837 4.00204 11.5286 3.82523 11.7125C3.64841 11.8963 3.40715 12.0054 3.15191 12.0159ZM2.01384 7.98774C2.06848 3.93666 2.25971 1.86453 2.92353 1.20198C3.18961 0.93717 4.98713 0.544321 8.00086 0.544321C11.0146 0.544321 12.8121 0.936625 13.0782 1.20198C13.7431 1.86453 13.9327 3.9372 13.9879 7.98829C13.3459 8.24601 11.3085 8.54677 8.00086 8.54677C4.69538 8.54677 2.65855 8.2471 2.01384 7.98774ZM11.8593 11.0292C11.8677 10.773 11.9757 10.5301 12.1604 10.3519C12.3451 10.1736 12.592 10.0739 12.849 10.0739C13.106 10.0738 13.353 10.1734 13.5378 10.3515C13.7225 10.5297 13.8307 10.7725 13.8393 11.0286C13.8393 11.2905 13.735 11.5416 13.5493 11.7268C13.3636 11.9119 13.1118 12.0159 12.8493 12.0159C12.5867 12.0159 12.3349 11.9119 12.1492 11.7268C11.9636 11.5416 11.8593 11.291 11.8593 11.0292Z" fill="#556EE6"/>
</svg>
