<svg width="22" height="22" viewBox="0 0 22 22" fill="none" xmlns="http://www.w3.org/2000/svg">
<path d="M16.8067 7.45067C16.7968 7.3387 16.719 7.24716 16.6346 7.24716C16.5502 7.24716 16.4809 7.17769 16.4809 7.09392C16.4809 7.01015 16.3899 6.95662 16.2789 6.97541L15.6757 7.07758C15.5544 6.34487 15.3725 5.88677 15.0979 5.61297C14.2784 4.79568 7.72207 4.79568 6.90253 5.61297C6.62799 5.88677 6.44605 6.34446 6.32476 7.07717L5.72158 6.975C5.61094 6.95621 5.51956 7.00974 5.51956 7.09351C5.51956 7.17729 5.4499 7.24716 5.3659 7.24716C5.28189 7.24716 5.20363 7.33911 5.19379 7.45067L5.0012 9.52089C4.99821 9.54678 5.00082 9.573 5.00883 9.5978C5.01685 9.62261 5.03009 9.64541 5.04767 9.66469C5.06525 9.68396 5.08677 9.69926 5.11077 9.70956C5.13477 9.71986 5.1607 9.72492 5.18683 9.7244H5.622C5.73469 9.7244 5.83508 9.63286 5.84574 9.52089L6.00719 7.79149C6.00928 7.76534 6.01685 7.73993 6.0294 7.71688C6.04195 7.69384 6.05921 7.67367 6.08006 7.65769C6.10091 7.64171 6.1249 7.63027 6.15046 7.6241C6.17602 7.61794 6.20259 7.61719 6.22846 7.6219L6.25059 7.62598C6.08627 9.11837 6.08299 16.5914 6.08299 16.5914C6.08299 16.8177 6.14036 17 6.21125 17H7.26108C7.33197 17 7.38934 16.8177 7.38934 16.5914V15.8182C9.2919 16.1042 12.709 16.1042 14.6115 15.8182V16.5905C14.6115 16.8165 14.6689 16.9992 14.7394 16.9992H15.7892C15.8597 16.9992 15.9171 16.8165 15.9171 16.5905C15.9171 16.5905 15.9138 9.11919 15.7499 7.62598L15.772 7.6219C15.7979 7.61731 15.8245 7.61817 15.85 7.62441C15.8755 7.63066 15.8995 7.64215 15.9203 7.65815C15.9411 7.67415 15.9584 7.69431 15.9709 7.71734C15.9835 7.74037 15.9911 7.76576 15.9933 7.7919L16.1543 9.52048C16.1642 9.63286 16.265 9.72481 16.3776 9.72481H16.8128C16.839 9.7252 16.865 9.72003 16.889 9.70964C16.913 9.69925 16.9345 9.68388 16.9521 9.66456C16.9697 9.64523 16.983 9.62238 16.991 9.59754C16.9991 9.5727 17.0018 9.54643 16.9989 9.52048L16.8067 7.45067ZM7.36393 14.012C7.26446 14.0153 7.16533 13.9987 7.07244 13.963C6.97955 13.9274 6.89479 13.8735 6.82322 13.8045C6.75164 13.7356 6.69471 13.6529 6.65581 13.5616C6.61691 13.4702 6.59683 13.372 6.59678 13.2727C6.59672 13.1735 6.61669 13.0752 6.65549 12.9838C6.69429 12.8924 6.75113 12.8097 6.82263 12.7407C6.89412 12.6716 6.97882 12.6176 7.07167 12.5819C7.16453 12.5461 7.26364 12.5294 7.36311 12.5326C7.55455 12.5403 7.73559 12.6215 7.86835 12.7593C8.00112 12.897 8.07532 13.0806 8.07542 13.2717C8.07553 13.4628 8.00153 13.6465 7.86892 13.7844C7.73631 13.9223 7.55536 14.0041 7.36393 14.012ZM6.51038 10.9908C6.55136 7.95249 6.69478 6.3984 7.19265 5.90148C7.39221 5.70288 8.74035 5.40824 11.0006 5.40824C13.2609 5.40824 14.6091 5.70247 14.8086 5.90148C15.3073 6.3984 15.4495 7.9529 15.4909 10.9912C15.0094 11.1845 13.4814 11.4101 11.0006 11.4101C8.52153 11.4101 6.99391 11.1853 6.51038 10.9908ZM13.8944 13.2719C13.9008 13.0798 13.9818 12.8976 14.1203 12.7639C14.2588 12.6302 14.444 12.5555 14.6367 12.5554C14.8295 12.5554 15.0147 12.63 15.1533 12.7636C15.2919 12.8973 15.373 13.0794 15.3794 13.2715C15.3794 13.4679 15.3012 13.6562 15.162 13.7951C15.0227 13.9339 14.8339 14.012 14.6369 14.012C14.44 14.012 14.2512 13.9339 14.1119 13.7951C13.9727 13.6562 13.8944 13.4683 13.8944 13.2719Z" fill="white"/>
<path d="M17.8944 17.8944L4.10573 4.10573M17.8944 17.8944C19.7229 16.0659 20.7501 13.5859 20.7501 11.0001C20.7501 8.41418 19.7229 5.93422 17.8944 4.10573C16.0659 2.27724 13.5859 1.25 11.0001 1.25C8.41418 1.25 5.93422 2.27724 4.10573 4.10573L17.8944 17.8944ZM17.8944 17.8944C16.0659 19.7229 13.5859 20.7501 11.0001 20.7501C8.41418 20.7501 5.93422 19.7229 4.10573 17.8944C2.27724 16.0659 1.25 13.5859 1.25 11.0001C1.25 8.41418 2.27724 5.93422 4.10573 4.10573L17.8944 17.8944Z" stroke="white" stroke-width="1.2" stroke-linecap="round" stroke-linejoin="round"/>
</svg>
