<svg width="16" height="16" viewBox="0 0 16 16" fill="none" xmlns="http://www.w3.org/2000/svg">
<path d="M13.3333 1.33301H5.33333C4.97971 1.33301 4.64057 1.47348 4.39052 1.72353C4.14048 1.97358 4 2.31272 4 2.66634V10.6663C4 11.02 4.14048 11.3591 4.39052 11.6091C4.64057 11.8592 4.97971 11.9997 5.33333 11.9997H13.3333C13.687 11.9997 14.0261 11.8592 14.2761 11.6091C14.5262 11.3591 14.6667 11.02 14.6667 10.6663V2.66634C14.6667 2.31272 14.5262 1.97358 14.2761 1.72353C14.0261 1.47348 13.687 1.33301 13.3333 1.33301ZM9.33333 2.99967C9.77536 2.99967 10.1993 3.17527 10.5118 3.48783C10.8244 3.80039 11 4.22431 11 4.66634C11 5.10837 10.8244 5.53229 10.5118 5.84485C10.1993 6.15741 9.77536 6.33301 9.33333 6.33301C8.89131 6.33301 8.46738 6.15741 8.15482 5.84485C7.84226 5.53229 7.66667 5.10837 7.66667 4.66634C7.66667 4.22431 7.84226 3.80039 8.15482 3.48783C8.46738 3.17527 8.89131 2.99967 9.33333 2.99967ZM12.6667 9.99967H6V9.83301C6 8.60034 7.50267 7.33301 9.33333 7.33301C11.164 7.33301 12.6667 8.60034 12.6667 9.83301V9.99967Z" fill="#50A5F1"/>
<path d="M2.66634 5.33301H1.33301V13.333C1.33301 14.0683 1.93101 14.6663 2.66634 14.6663H10.6663V13.333H2.66634V5.33301Z" fill="#50A5F1"/>
</svg>
