<svg width="16" height="12" viewBox="0 0 16 12" fill="none" xmlns="http://www.w3.org/2000/svg">
<path d="M8.561 0.00146484L8.56025 0.00296509H14.1838C14.909 0.00296509 15.4963 0.590965 15.4963 1.31546V10.6875C15.4963 11.0356 15.358 11.3694 15.1118 11.6155C14.8657 11.8617 14.5318 12 14.1838 12H7.436L7.43525 11.9985H1.8125C1.64008 11.9985 1.46934 11.9645 1.31005 11.8985C1.15077 11.8325 1.00604 11.7357 0.884157 11.6138C0.762271 11.4918 0.665608 11.347 0.599693 11.1877C0.533778 11.0284 0.499902 10.8576 0.5 10.6852V1.31396C0.5 0.588715 1.088 0.00146484 1.8125 0.00146484H8.561ZM14.1838 1.12796H8.561V10.875H14.1838C14.2335 10.875 14.2812 10.8552 14.3163 10.82C14.3515 10.7849 14.3713 10.7372 14.3713 10.6875V1.31621C14.3713 1.26649 14.3515 1.2188 14.3163 1.18363C14.2812 1.14847 14.2335 1.12871 14.1838 1.12871V1.12796ZM7.436 1.12646H1.8125C1.76277 1.12646 1.71508 1.14622 1.67992 1.18138C1.64475 1.21655 1.625 1.26424 1.625 1.31396V10.6852C1.625 10.7887 1.709 10.8727 1.8125 10.8727H7.436V1.12646V1.12646ZM11.375 2.24996C11.66 2.24996 11.8963 2.46071 11.9338 2.73521L11.939 2.81096V7.83446L12.662 7.11446C12.7579 7.01922 12.8847 6.96143 13.0195 6.95153C13.1543 6.94162 13.2882 6.98026 13.397 7.06046L13.46 7.11446C13.5555 7.20944 13.6136 7.33568 13.6235 7.47001C13.6334 7.60434 13.5945 7.73774 13.514 7.84571L13.46 7.90871L11.774 9.58646L11.7455 9.61271L11.6982 9.65021L11.648 9.68021L11.603 9.70271L11.5265 9.73046L11.48 9.74096L11.4103 9.74996H11.3397L11.2708 9.74096L11.1987 9.72296L11.1147 9.68771L11.057 9.65321L10.976 9.58646L9.29 7.90871C9.2376 7.8567 9.196 7.79484 9.16762 7.72668C9.13923 7.65852 9.12462 7.58542 9.12462 7.51159C9.12462 7.43776 9.13923 7.36465 9.16762 7.2965C9.196 7.22834 9.2376 7.16647 9.29 7.11446C9.38591 7.01922 9.51272 6.96143 9.64751 6.95153C9.78231 6.94162 9.9162 6.98026 10.025 7.06046L10.088 7.11446L10.8102 7.83446V2.81096C10.8105 2.68774 10.8513 2.56801 10.9262 2.47018C11.0011 2.37235 11.1061 2.30183 11.225 2.26946L11.2985 2.25446L11.375 2.24996Z" fill="#50A5F1"/>
</svg>
