<svg width="22" height="22" viewBox="0 0 22 22" fill="none" xmlns="http://www.w3.org/2000/svg">
<path d="M16.3426 6.51227C16.343 9.35599 16.343 12.1993 16.343 15.0426C16.343 15.0552 16.3433 15.0679 16.3436 15.0806C16.3444 15.1162 16.3452 15.1521 16.3397 15.1868M16.3426 6.51227L15.4503 11.5534C15.4503 11.5421 15.4495 11.5298 15.4484 11.5154C15.4483 11.5135 15.4482 11.5117 15.448 11.5098C15.4471 11.4973 15.446 11.4833 15.4456 11.4697C15.4446 11.4394 15.4458 11.3988 15.4652 11.3624L15.4652 11.3623C15.4854 11.3246 15.5143 11.2944 15.5409 11.2693C15.5536 11.2574 15.5647 11.2476 15.5751 11.2383C15.5894 11.2256 15.6023 11.2141 15.6162 11.2001L15.659 11.1568L15.7017 11.2003C15.7157 11.2145 15.7285 11.2261 15.7426 11.2388C15.7532 11.2483 15.7645 11.2585 15.7775 11.2709C15.8042 11.2964 15.833 11.3271 15.853 11.3651L15.8 11.3931M16.3426 6.51227C16.3426 6.4761 16.3404 6.43993 16.3376 6.39376C16.3372 6.38826 16.3369 6.38261 16.3365 6.3768L16.3426 6.51227ZM16.3397 15.1868L16.2805 15.1773C16.2693 15.2467 16.2458 15.2978 16.2131 15.3305C16.1817 15.3619 16.1365 15.382 16.0686 15.3801L16.067 15.4401M16.3397 15.1868C16.315 15.3409 16.2308 15.4447 16.067 15.4401M16.3397 15.1868L16.2805 15.1775C16.285 15.1484 16.2844 15.1203 16.2837 15.0868C16.2833 15.0731 16.283 15.0585 16.283 15.0426C16.283 12.1993 16.283 9.356 16.2826 6.51228V6.51227C16.2826 6.47793 16.2806 6.44452 16.2778 6.39977C16.2776 6.39628 16.2774 6.39272 16.2772 6.38908C15.8668 6.48205 15.5838 6.71837 15.4269 7.07209C15.3048 7.3478 15.2225 7.66123 15.2133 7.95829C15.1933 8.60977 15.1968 9.26133 15.2003 9.91419C15.2017 10.1769 15.2032 10.4398 15.203 10.7031L15.6702 11.2535M16.067 15.4401C15.9155 15.4356 15.8334 15.3368 15.8124 15.1905C15.8063 15.1488 15.8069 15.106 15.8075 15.0634C15.8076 15.0508 15.8078 15.0382 15.8078 15.0257C15.8074 13.8691 15.8074 12.7125 15.8074 11.5559C15.8074 11.5402 15.8087 11.5236 15.81 11.507C15.8132 11.4657 15.8165 11.4241 15.8 11.3931M16.067 15.4401L16.0688 15.3801C16.0067 15.3783 15.9638 15.3577 15.9339 15.3268C15.903 15.2948 15.881 15.2466 15.8717 15.182L15.8717 15.1819C15.8664 15.1453 15.8669 15.1089 15.8675 15.0674C15.8676 15.0541 15.8678 15.0402 15.8678 15.0257V15.0256C15.8674 13.8691 15.8674 12.7125 15.8674 11.5559C15.8674 11.5447 15.8682 11.5324 15.8693 11.518C15.8695 11.516 15.8696 11.514 15.8698 11.5119C15.8707 11.4996 15.8718 11.4858 15.8723 11.4724C15.8734 11.4421 15.8724 11.4014 15.8529 11.3649L15.8 11.3931M15.8 11.3931C15.7783 11.352 15.7415 11.3187 15.7047 11.2854C15.693 11.2749 15.6814 11.2643 15.6702 11.2535M15.6702 11.2535L15.6588 11.2423L15.648 11.2529C15.6366 11.2639 15.6246 11.2746 15.6126 11.2853C15.5762 11.3178 15.5397 11.3503 15.5181 11.3906C15.5016 11.4217 15.5047 11.4636 15.5078 11.5051C15.5091 11.5215 15.5103 11.5379 15.5103 11.5535M15.6702 11.2535L15.5103 11.5535M15.5103 11.5535C15.5099 12.5104 15.5095 13.4674 15.5103 14.4244M15.5103 11.5535H15.4503C15.4499 12.5104 15.4495 13.4675 15.4503 14.4245M15.5103 14.4244H15.4503C15.4503 14.4245 15.4503 14.4245 15.4503 14.4245M15.5103 14.4244L15.4503 14.4245M15.5103 14.4244C15.5103 14.4871 15.5099 14.5497 15.5095 14.6124C15.5082 14.8115 15.5069 15.0108 15.5185 15.2091M15.4503 14.4245C15.4503 14.4862 15.4499 14.5483 15.4495 14.6106C15.4482 14.8102 15.4469 15.0122 15.4586 15.2126L15.5185 15.2091M15.5185 15.2091C15.5371 15.5257 15.7855 15.7451 16.0921 15.7372L16.0937 15.7972C15.7553 15.8059 15.4791 15.5621 15.4586 15.2126L15.5185 15.2091ZM16.27 6.02758C16.1429 6.04782 16.0125 6.08295 15.8982 6.1408L16.27 6.02758ZM16.27 6.02758C16.4916 5.99245 16.6244 6.11105 16.6352 6.33542L16.27 6.02758ZM15.1899 10.8931L15.1897 10.8934C15.1727 10.9263 15.1478 10.9656 15.1189 10.9979C15.1045 11.0141 15.0878 11.0301 15.0694 11.0426C15.0514 11.0548 15.0278 11.0663 15.0005 11.0679M15.1899 10.8931L15.0004 11.0679C15.0004 11.0679 15.0005 11.0679 15.0005 11.0679M15.1899 10.8931C15.2085 10.8566 15.2092 10.8164 15.208 10.7862M15.1899 10.8931L15.208 10.7862M15.0005 11.0679C14.9718 11.0696 14.9467 11.0589 14.9284 11.0481C14.9093 11.0367 14.8917 11.0217 14.8764 11.0063C14.8457 10.9755 14.8181 10.9371 14.7996 10.9047L14.7995 10.9046C14.7791 10.8685 14.7773 10.8276 14.778 10.7973C14.7783 10.7828 14.7793 10.7681 14.7802 10.7551L14.7805 10.7512C14.7815 10.7365 14.7822 10.724 14.7822 10.7126L15.0005 11.0679ZM15.208 10.7862C15.2075 10.7731 15.2064 10.7597 15.2055 10.7476M15.208 10.7862L15.2055 10.7476M15.2055 10.7476C15.2053 10.7453 15.2051 10.7431 15.205 10.7409M15.2055 10.7476L15.205 10.7409M15.205 10.7409C15.2038 10.7265 15.203 10.7143 15.203 10.7031L15.205 10.7409ZM16.696 15.093C16.6966 12.987 16.6965 10.881 16.6965 8.77502C16.6964 8.07201 16.6964 7.369 16.6964 6.66599C16.6964 6.63419 16.6967 6.60183 16.6971 6.56913C16.6979 6.49121 16.6987 6.41137 16.6951 6.33272L16.6951 6.33255C16.6892 6.20973 16.6494 6.10597 16.5707 6.03861C16.4914 5.97077 16.3834 5.94885 16.2606 5.96832L16.2605 5.96832C16.1296 5.98919 15.9927 6.02573 15.8711 6.08726L15.871 6.08728C15.1017 6.47738 14.7965 7.15018 14.7851 7.9647C14.776 8.61586 14.7782 9.2673 14.7803 9.91813C14.7812 10.1831 14.7821 10.4479 14.7822 10.7126L16.696 15.093Z" fill="white" stroke="white" stroke-width="0.12"/>
<path d="M10.9224 14.2174L10.9224 14.2174C12.7673 14.2229 14.2631 12.7298 14.2652 10.8807C14.2673 9.04088 12.7821 7.54272 10.9492 7.53767C9.10526 7.53262 7.60351 9.03055 7.60309 10.8744C7.60267 12.7118 9.09163 14.2115 10.9224 14.2174ZM10.9796 7.95641L10.9796 7.95641C12.5987 7.98881 13.8862 9.32044 13.8535 10.9265C13.8199 12.5529 12.4835 13.8359 10.8608 13.7991C9.24018 13.7623 7.98665 12.4205 8.0243 10.7564C8.05944 9.2054 9.40971 7.92483 10.9796 7.95641Z" fill="white" stroke="white" stroke-width="0.12"/>
<path d="M6.17159 15.4406C6.30983 15.4286 6.39731 15.3452 6.40845 15.1997C6.41346 15.1357 6.41343 15.0713 6.41341 15.0072C6.41341 15.0027 6.41341 14.9981 6.41341 14.9935C6.41368 14.0252 6.41359 13.0567 6.4135 12.0883C6.41345 11.6041 6.41341 11.1199 6.41341 10.6358C6.41341 10.6206 6.41174 10.6046 6.41008 10.5886C6.40645 10.5535 6.40282 10.5185 6.41671 10.4932L6.7734 15.0928C6.7734 15.0928 6.7734 15.0928 6.7734 15.0928M6.17159 15.4406L6.1665 15.3808M6.17159 15.4406L6.16641 15.3808C6.16644 15.3808 6.16647 15.3808 6.1665 15.3808M6.17159 15.4406C6.02139 15.4534 5.92153 15.3712 5.89017 15.2241C5.87752 15.1654 5.87829 15.1035 5.87907 15.0421C5.87925 15.0274 5.87944 15.0127 5.87944 14.9981C5.87919 13.9654 5.87939 12.9328 5.87959 11.9002C5.87972 11.2118 5.87985 10.5234 5.87985 9.83498C5.87985 9.82688 5.8799 9.81881 5.87994 9.81077C5.8806 9.69663 5.88121 9.58985 5.74822 9.51805M6.1665 15.3808C6.22463 15.3758 6.26673 15.3563 6.29526 15.3278C6.32371 15.2993 6.34392 15.2566 6.34863 15.1951L6.34864 15.195C6.35345 15.1334 6.35343 15.0713 6.35341 15.0067L6.35341 14.9935V14.9935C6.35368 14.0252 6.35359 13.0567 6.3535 12.0883C6.35345 11.6041 6.35341 11.1199 6.35341 10.6358C6.35341 10.6269 6.35261 10.6167 6.35137 10.6042C6.3511 10.6015 6.3508 10.5986 6.35049 10.5956C6.34948 10.5858 6.34833 10.5747 6.34761 10.5642C6.34584 10.5382 6.34499 10.4991 6.36413 10.4643L6.36425 10.4641C6.38724 10.4227 6.41532 10.3856 6.44311 10.3516C6.45577 10.3361 6.46755 10.3221 6.47896 10.3086C6.49431 10.2904 6.50901 10.273 6.52435 10.2536L6.57341 10.1914L6.61998 10.2555C6.62984 10.269 6.64218 10.2832 6.65666 10.2993C6.65995 10.3029 6.66339 10.3067 6.66693 10.3106C6.67819 10.3229 6.69039 10.3363 6.70151 10.3494C6.72905 10.382 6.76397 10.4286 6.76672 10.4844C6.77832 10.7086 6.77692 10.9343 6.77554 11.1578C6.77509 11.2305 6.77464 11.3029 6.77464 11.375C6.77464 11.6504 6.77468 11.9258 6.77472 12.2012C6.77486 13.165 6.77501 14.1289 6.7734 15.0928M6.1665 15.3808C6.10377 15.3862 6.05704 15.3715 6.02332 15.3451C5.98919 15.3183 5.96232 15.2748 5.94885 15.2116L5.94882 15.2114C5.93773 15.16 5.93836 15.1066 5.93907 15.046C5.93925 15.0305 5.93944 15.0146 5.93944 14.9981C5.93919 13.9654 5.93939 12.9328 5.93959 11.9002C5.93972 11.2118 5.93985 10.5234 5.93985 9.83498C5.93985 9.82757 5.93991 9.81992 5.93996 9.81207C5.94035 9.75983 5.94079 9.69894 5.92522 9.64305C5.90567 9.57293 5.86207 9.51135 5.77677 9.46528M6.7734 15.0928C6.77318 15.272 6.7332 15.425 6.65311 15.5437C6.57245 15.6632 6.454 15.7434 6.30587 15.7806M6.7734 15.0928L6.30587 15.7806M6.30587 15.7806C5.88815 15.8857 5.52489 15.5797 5.52398 15.1329L6.30587 15.7806ZM5.77677 9.46528L5.74822 9.51805M5.77677 9.46528C5.47878 9.30401 5.35517 9.03956 5.35595 8.69716L5.77677 9.46528ZM5.77677 9.46528C5.77675 9.46527 5.77674 9.46526 5.77672 9.46525L5.74822 9.51805M5.77677 9.46528L5.74822 9.51805M5.01453 6.12641L4.96734 6.08935M5.01453 6.12641L4.96701 6.08978C4.98871 6.06163 5.01789 6.033 5.05027 6.01053C5.08174 5.9887 5.12189 5.96878 5.16484 5.9665L4.96734 6.08935M5.01453 6.12641C5.05084 6.07931 5.11356 6.02931 5.16803 6.02641L5.00338 8.74576C5.00338 7.91975 5.00338 7.09374 5.0038 6.26732C5.0038 6.25481 5.00287 6.24135 5.00193 6.22773C4.99927 6.18915 4.99653 6.14932 5.01453 6.12641ZM4.96734 6.08935C4.94109 6.12277 4.93967 6.16548 4.94004 6.19137M4.96734 6.08935L4.94004 6.19137M4.94004 6.19137C4.94023 6.20519 4.94121 6.2193 4.94204 6.2314M4.94004 6.19137L4.94204 6.2314M4.94204 6.2314C4.94209 6.23213 4.94214 6.23284 4.94219 6.23355M4.94204 6.2314L4.94219 6.23355M4.94219 6.23355C4.94311 6.24688 4.94379 6.2577 4.9438 6.26729L4.94219 6.23355ZM5.34261 6.11837C5.33025 6.08339 5.30424 6.04747 5.2774 6.02097C5.26357 6.0073 5.24757 5.99419 5.2304 5.9843C5.2143 5.97504 5.19116 5.9651 5.16485 5.9665L5.34261 6.11837ZM5.34261 6.11837C5.357 6.15893 5.35957 6.20113 5.35941 6.2383C5.35933 6.25647 5.35856 6.27469 5.35785 6.29156L5.35777 6.29322C5.35703 6.31097 5.35637 6.32723 5.35636 6.3429C5.35645 6.49981 5.35656 6.65673 5.35668 6.81366C5.35714 7.44141 5.3576 8.06928 5.35595 8.69714L5.34261 6.11837ZM5.52297 13.2402C5.52273 13.8712 5.52248 14.502 5.52398 15.1329L4.9438 6.26732C4.94338 7.09374 4.94338 7.91975 4.94338 8.74574V8.74576C4.94338 9.14496 5.09359 9.48135 5.41642 9.72271L5.41643 9.72272C5.46388 9.75817 5.48977 9.79237 5.50479 9.82855C5.52025 9.86579 5.52624 9.90997 5.52604 9.96902C5.52295 10.6095 5.52334 11.2499 5.52372 11.8902C5.52384 12.0836 5.52396 12.277 5.52398 12.4704H5.52316V12.5304C5.52316 12.767 5.52306 13.0036 5.52297 13.2402Z" fill="white" stroke="white" stroke-width="0.12"/>
<path d="M7.16303 14.0619C9.28204 16.554 13.1436 16.3575 15.0117 13.6663C15.24 13.3377 15.2895 13.0087 15.2407 12.6157L15.2153 12.4112L15.1269 12.5973C14.347 14.2404 13.103 15.2255 11.3055 15.3735C9.51281 15.5211 8.12194 14.76 7.08805 13.2682L7.00055 13.1419L6.97931 13.2941C6.95861 13.4423 6.95449 13.5764 6.98116 13.7029C7.00804 13.8306 7.06548 13.9472 7.16303 14.0619ZM7.16303 14.0619L7.20874 14.023M7.16303 14.0619L7.20874 14.023M7.20874 14.023C7.04494 13.8305 7.00581 13.6377 7.02826 13.392L15.1925 12.7373C15.217 13.0688 15.1582 13.3503 14.9624 13.6321C13.1166 16.2911 9.30211 16.4849 7.20874 14.023Z" fill="white" stroke="white" stroke-width="0.12"/>
<path d="M14.4875 8.0744L14.608 8.21453L14.5928 8.03034C14.5885 7.97825 14.59 7.92923 14.5926 7.88071C14.5931 7.87108 14.5936 7.86135 14.5942 7.85155C14.5964 7.81327 14.5987 7.77398 14.598 7.73638C14.5962 7.63696 14.5739 7.53956 14.4811 7.44427L14.481 7.4442C12.665 5.58473 9.77424 5.43079 7.77112 7.08532L7.77109 7.08535C7.66908 7.16974 7.59954 7.25976 7.56553 7.36682C7.53164 7.47349 7.53528 7.59001 7.56645 7.72333L7.59089 7.82784L7.66712 7.75228C8.63468 6.79321 9.77592 6.31089 11.1229 6.36594C12.4743 6.42137 13.5681 7.00523 14.4875 8.0744Z" fill="white" stroke="white" stroke-width="0.12"/>
<path d="M6.93376 7.5302V7.53015C6.93392 7.37053 6.9339 7.21077 6.93388 7.05096C6.93385 6.78449 6.93381 6.51788 6.93459 6.25155L6.93459 6.25151C6.93479 6.19705 6.93608 6.12077 6.96382 6.06182C6.97875 6.0301 7.00269 6.00016 7.04013 5.98211C7.07701 5.96431 7.11981 5.96153 7.16625 5.96997L7.16642 5.97C7.19877 5.97598 7.22503 5.99658 7.24347 6.01508C7.26322 6.0349 7.28109 6.05952 7.29604 6.085L6.93376 7.5302ZM6.93376 7.5302C6.93376 7.65184 6.93365 7.77348 6.93354 7.89515C6.93328 8.17912 6.93302 8.46318 6.93418 8.74736C6.93533 9.06498 6.80674 9.30192 6.5317 9.46084L6.53157 9.46092M6.93376 7.5302L6.53157 9.46092M7.15552 6.02901C7.00325 6.00132 6.995 6.13809 6.99459 6.25173L7.15552 6.02901ZM7.15552 6.02901C7.21371 6.03975 7.28922 6.17404 7.29005 6.25255L7.15552 6.02901ZM6.53157 9.46092C6.52939 9.46219 6.52715 9.46348 6.52487 9.4648C6.48292 9.4891 6.42642 9.52183 6.39212 9.56816C6.3724 9.59481 6.3586 9.62736 6.35799 9.666C6.35739 9.70386 6.36954 9.74201 6.39177 9.78043C6.41398 9.81888 6.44124 9.84826 6.4744 9.86677C6.50802 9.88555 6.54315 9.89058 6.57637 9.88763C6.6385 9.88211 6.69836 9.84771 6.74183 9.82176M6.53157 9.46092L6.74183 9.82176M6.74183 9.82176C7.13756 9.58581 7.34985 9.22924 7.35376 8.76872L6.74183 9.82176ZM7.35004 6.25192C7.35004 6.25192 7.35004 6.25191 7.35004 6.2519L7.35376 8.76869C7.36119 7.92988 7.35954 7.09068 7.35004 6.25192Z" fill="white" stroke="white" stroke-width="0.12"/>
<path d="M5.60602 7.35832V7.29832C5.60602 7.18118 5.60606 7.06411 5.60611 6.94707C5.6062 6.71308 5.60629 6.47921 5.60602 6.24512L5.60602 6.24505C5.60602 6.24442 5.60602 6.24379 5.60602 6.24316C5.60601 6.19253 5.60601 6.12429 5.63002 6.06868C5.64309 6.0384 5.66388 6.00997 5.6961 5.98944C5.72792 5.96917 5.76634 5.95951 5.81005 5.95862L5.81007 5.95862C5.85417 5.95774 5.89328 5.96582 5.92607 5.98494C5.95936 6.00435 5.98124 6.03231 5.99518 6.06255C6.02107 6.11875 6.02147 6.18856 6.02147 6.24009C6.02147 6.94918 6.02106 7.65827 6.02065 8.36734C6.02065 8.37059 6.02066 8.37394 6.02066 8.37737C6.02078 8.42511 6.02094 8.48954 5.99956 8.54208C5.98708 8.57275 5.9666 8.60185 5.93385 8.62269C5.90161 8.64321 5.8625 8.65254 5.81797 8.65291L5.81781 8.65292C5.77453 8.65317 5.73611 8.64493 5.70377 8.62628C5.67092 8.60734 5.64878 8.58021 5.63436 8.55035C5.60747 8.49461 5.60623 8.42551 5.60643 8.37205L5.60602 7.35832ZM5.60602 7.35832H5.60685M5.60602 7.35832H5.60685M5.60685 7.35832C5.60687 7.44064 5.60692 7.52294 5.60698 7.60525C5.60714 7.86093 5.60731 8.11656 5.60643 8.37204L5.60685 7.35832ZM5.66602 7.23832C5.66603 7.14125 5.66607 7.0442 5.66611 6.94716C5.6662 6.71314 5.66629 6.47919 5.66602 6.24505L5.66602 7.23832Z" fill="white" stroke="white" stroke-width="0.12"/>
<path d="M6.47315 8.65319L6.47308 8.65319C6.42975 8.65167 6.39174 8.64172 6.36021 8.62161C6.32826 8.60124 6.30735 8.57323 6.29403 8.54311C6.26922 8.487 6.2691 8.41817 6.2691 8.36637V8.3663C6.26957 7.96489 6.26951 7.56373 6.26944 7.1625C6.26939 6.86155 6.26934 6.56056 6.26951 6.25941C6.26951 6.25939 6.26951 6.25938 6.26951 6.25937M6.47315 8.65319L6.48302 6.02057C6.32921 6.01736 6.32936 6.13952 6.32951 6.24948C6.32951 6.2528 6.32951 6.25611 6.32951 6.25941L6.26951 6.25937M6.47315 8.65319C6.51746 8.65469 6.55686 8.64728 6.59003 8.62881C6.62381 8.61 6.64624 8.58243 6.66062 8.55224C6.68727 8.49631 6.68786 8.42653 6.68786 8.37512M6.47315 8.65319L6.68786 8.37512M6.26951 6.25937C6.26951 6.25542 6.2695 6.25133 6.26949 6.24712C6.26932 6.19679 6.26909 6.12901 6.2912 6.07417C6.30423 6.04184 6.32582 6.01112 6.36069 5.98962C6.39499 5.96847 6.43668 5.95959 6.48425 5.96058L6.26951 6.25937ZM6.68786 8.37512C6.68848 8.10667 6.6884 7.83797 6.68832 7.56947C6.6883 7.47999 6.68827 7.39053 6.68827 7.30111C6.68827 7.2095 6.68839 7.11782 6.68851 7.02609C6.68883 6.77357 6.68915 6.52065 6.68703 6.26762L6.68786 8.37512ZM6.60794 5.99661C6.57453 5.9728 6.53275 5.96158 6.48427 5.96058L6.68711 6.24049C6.68724 6.22181 6.68739 6.20095 6.68672 6.18224C6.68565 6.15219 6.68244 6.1183 6.67189 6.08632C6.66102 6.05339 6.64174 6.02068 6.60794 5.99661Z" fill="white" stroke="white" stroke-width="0.12"/>
<path d="M17.8944 17.8944L4.10573 4.10573M17.8944 17.8944C19.7229 16.0659 20.7501 13.5859 20.7501 11.0001C20.7501 8.41418 19.7229 5.93422 17.8944 4.10573C16.0659 2.27724 13.5859 1.25 11.0001 1.25C8.41418 1.25 5.93422 2.27724 4.10573 4.10573L17.8944 17.8944ZM17.8944 17.8944C16.0659 19.7229 13.5859 20.7501 11.0001 20.7501C8.41418 20.7501 5.93422 19.7229 4.10573 17.8944C2.27724 16.0659 1.25 13.5859 1.25 11.0001C1.25 8.41418 2.27724 5.93422 4.10573 4.10573L17.8944 17.8944Z" stroke="white" stroke-width="1.2" stroke-linecap="round" stroke-linejoin="round"/>
</svg>
