<svg width="10" height="11" viewBox="0 0 10 11" fill="none" xmlns="http://www.w3.org/2000/svg">
<path d="M9.76 1.7881L8.58402 0.584139C8.49289 0.490871 8.36931 0.438477 8.24046 0.438477C8.1116 0.438477 7.98802 0.490871 7.8969 0.584139L5.67128 2.86271C5.58014 2.95599 5.52892 3.08251 5.5289 3.21444V4.4184C5.5289 4.55035 5.58009 4.67689 5.67123 4.77019C5.76236 4.86349 5.88596 4.91591 6.01484 4.91591H7.19082C7.31969 4.91588 7.44327 4.86344 7.53438 4.77014L9.76 2.49157C9.8511 2.39827 9.90228 2.27175 9.90228 2.13983C9.90228 2.00791 9.8511 1.88139 9.76 1.7881ZM6.99013 3.9209H6.50078V3.42041L8.24046 1.63934L8.72931 2.13983L6.99013 3.9209ZM8.42997 5.3945C8.3011 5.3945 8.17749 5.44692 8.08636 5.54022C7.99523 5.63352 7.94403 5.76006 7.94403 5.89201V7.08204L7.22484 6.34573C6.97154 6.08674 6.62819 5.94127 6.2702 5.94127C5.91221 5.94127 5.56886 6.08674 5.31557 6.34573L4.97638 6.69249L3.76832 5.4557C3.51532 5.1971 3.17242 5.05186 2.8149 5.05186C2.45739 5.05186 2.11449 5.1971 1.86148 5.4557L1.14083 6.1935V3.40449C1.14096 3.27258 1.1922 3.14612 1.2833 3.05285C1.37441 2.95957 1.49793 2.90712 1.62677 2.90698H4.54243C4.67131 2.90698 4.79491 2.85457 4.88604 2.76127C4.97718 2.66797 5.02837 2.54143 5.02837 2.40948C5.02837 2.27753 4.97718 2.15099 4.88604 2.05769C4.79491 1.96439 4.67131 1.91198 4.54243 1.91198H1.62677C1.24025 1.91237 0.869672 2.06975 0.59636 2.34956C0.323047 2.62937 0.169331 3.00877 0.168945 3.40449V9.37454C0.169331 9.77025 0.323047 10.1497 0.59636 10.4295C0.869672 10.7093 1.24025 10.8667 1.62677 10.867H7.45809C7.84461 10.8667 8.21519 10.7093 8.4885 10.4295C8.76182 10.1497 8.91553 9.77025 8.91592 9.37454V5.89201C8.91592 5.76006 8.86472 5.63352 8.77359 5.54022C8.68246 5.44692 8.55886 5.3945 8.42997 5.3945ZM1.62677 9.87204C1.49793 9.87191 1.37441 9.81945 1.2833 9.72618C1.1922 9.63291 1.14096 9.50644 1.14083 9.37454V7.60044L2.54861 6.15917C2.62071 6.08977 2.71594 6.05113 2.8149 6.05113C2.91387 6.05113 3.0091 6.08977 3.0812 6.15917L4.62067 7.73476C4.62504 7.73974 4.6265 7.74571 4.63039 7.74969L6.70391 9.87204H1.62677ZM7.94403 9.37454C7.9416 9.47046 7.91131 9.56346 7.85705 9.6417L5.6635 7.39596L6.00269 7.04871C6.07371 6.9764 6.1698 6.93581 6.26996 6.93581C6.37012 6.93581 6.46621 6.9764 6.53723 7.04871L7.94403 8.48898V9.37454Z" fill="white"/>
</svg>
