<svg width="20" height="20" viewBox="0 0 20 20" fill="none" xmlns="http://www.w3.org/2000/svg">
<path opacity="0.3" fill-rule="evenodd" clip-rule="evenodd" d="M10 18.3334C5.85786 18.3334 2.5 14.9755 2.5 10.8334C2.5 6.69124 5.85786 3.33337 10 3.33337C14.1421 3.33337 17.5 6.69124 17.5 10.8334C17.5 14.9755 14.1421 18.3334 10 18.3334Z" fill="#1670F7"/>
<path fill-rule="evenodd" clip-rule="evenodd" d="M9.55081 6.67021C9.56905 6.4331 9.76677 6.25 10.0046 6.25C10.2384 6.25 10.4342 6.42718 10.4574 6.65983L10.8331 10.4167L13.5276 11.9564C13.665 12.0349 13.7498 12.181 13.7498 12.3393C13.7498 12.6301 13.4733 12.8413 13.1927 12.7647L9.56512 11.7754C9.33375 11.7123 9.17976 11.4938 9.19816 11.2547L9.55081 6.67021Z" fill="#1670F7"/>
</svg>
