<svg width="20" height="20" viewBox="0 0 20 20" fill="none" xmlns="http://www.w3.org/2000/svg">
<path opacity="0.3" fill-rule="evenodd" clip-rule="evenodd" d="M10 18.3332C5.85786 18.3332 2.5 14.9754 2.5 10.8333C2.5 6.69112 5.85786 3.33325 10 3.33325C14.1421 3.33325 17.5 6.69112 17.5 10.8333C17.5 14.9754 14.1421 18.3332 10 18.3332Z" fill="#1670F7"/>
<path fill-rule="evenodd" clip-rule="evenodd" d="M9.55058 6.67021C9.56882 6.4331 9.76654 6.25 10.0044 6.25C10.2382 6.25 10.434 6.42718 10.4572 6.65983L10.8329 10.4167L13.5274 11.9564C13.6648 12.0349 13.7496 12.181 13.7496 12.3393C13.7496 12.6301 13.4731 12.8413 13.1925 12.7647L9.5649 11.7754C9.33352 11.7123 9.17953 11.4938 9.19793 11.2547L9.55058 6.67021Z" fill="#1670F7"/>
</svg>
