<svg width="13" height="12" viewBox="0 0 13 12" fill="none" xmlns="http://www.w3.org/2000/svg">
<path d="M4.75 5.01465L7 7.10715H9.25" stroke="#50A5F1" stroke-miterlimit="10" stroke-linecap="round" stroke-linejoin="round"/>
<path d="M1.10875 3.96858C1.03825 3.74748 1 3.51381 1 3.27108C1 1.92282 2.17525 0.829834 3.625 0.829834C4.027 0.829834 4.408 0.914231 4.7485 1.06419" stroke="#50A5F1" stroke-miterlimit="10" stroke-linecap="round" stroke-linejoin="round"/>
<path d="M12.1417 3.96858C12.2122 3.74748 12.2505 3.51381 12.2505 3.27108C12.2505 1.92282 11.0752 0.829834 9.62545 0.829834C9.22345 0.829834 8.84245 0.914231 8.50195 1.06419" stroke="#50A5F1" stroke-miterlimit="10" stroke-linecap="round" stroke-linejoin="round"/>
<path d="M6.625 11.2924C9.31739 11.2924 11.5 9.26252 11.5 6.7586C11.5 4.25468 9.31739 2.22485 6.625 2.22485C3.93261 2.22485 1.75 4.25468 1.75 6.7586C1.75 9.26252 3.93261 11.2924 6.625 11.2924Z" stroke="#50A5F1" stroke-miterlimit="10" stroke-linecap="round" stroke-linejoin="round"/>
<path d="M1.75 11.2922L3.178 9.96411" stroke="#50A5F1" stroke-miterlimit="10" stroke-linecap="round" stroke-linejoin="round"/>
<path d="M11.5003 11.2924L10.0723 9.96436" stroke="#50A5F1" stroke-miterlimit="10" stroke-linecap="round" stroke-linejoin="round"/>
</svg>
