<svg width="15" height="14" viewBox="0 0 15 14" fill="none" xmlns="http://www.w3.org/2000/svg">
<path d="M13.9709 8.07586H14.0709C14.0709 8.07589 14.0709 8.07593 14.0709 8.07597C14.0708 8.93467 13.8321 9.74269 13.4137 10.4467L14.0389 11.9508C14.1001 12.098 14.1158 12.2585 14.0838 12.4139C14.0518 12.5693 13.9736 12.7124 13.8592 12.8276C13.7449 12.9427 13.5989 13.0255 13.4379 13.0679C13.277 13.1103 13.1066 13.1107 12.9454 13.0692L10.9622 12.5586C10.2747 12.8532 9.50832 13.017 8.70168 13.0172L13.0199 12.1082L13.1412 12.1394L12.4036 10.3662L12.5074 10.2098C12.9209 9.5886 13.1601 8.85867 13.1601 8.07586C13.1613 7.24876 12.8887 6.44088 12.3785 5.75944C12.3727 5.37337 12.3234 4.98903 12.2315 4.61257C12.1965 4.58264 12.161 4.55313 12.1251 4.52406L12.1879 4.44631L12.2843 4.41941C12.2971 4.46535 12.3093 4.51141 12.3209 4.5576C12.8201 4.99019 13.2228 5.50879 13.5056 6.08442C13.813 6.7103 13.9716 7.38921 13.9709 8.07586ZM13.9709 8.07586C13.9709 8.93315 13.7276 9.73905 13.302 10.4384L13.9709 8.07586ZM6.30009 0.9H6.30004H6.29924C5.36438 0.899932 4.44535 1.12441 3.63324 1.55165C2.82111 1.97891 2.14365 2.59439 1.6689 3.33782C1.19409 4.08134 0.93876 4.92673 0.929013 5.79004C0.919455 6.63665 1.14642 7.47059 1.58711 8.2122L0.961142 9.71627C0.89985 9.86354 0.884176 10.024 0.916216 10.1795C0.94824 10.3348 1.02642 10.4779 1.14079 10.5931C1.2551 10.7082 1.4011 10.7911 1.56205 10.8334C1.72299 10.8758 1.89341 10.8762 2.05459 10.8347L4.03791 10.3241C4.75649 10.6307 5.53987 10.7873 6.33187 10.7826C7.13551 10.7779 7.92799 10.6073 8.65075 10.2831C9.37353 9.95887 10.0085 9.48922 10.5082 8.90829C11.0079 8.32733 11.3596 7.64997 11.5366 6.92611C11.7136 6.20222 11.7112 5.45094 11.5295 4.72804C11.3479 4.00517 10.9918 3.32975 10.4883 2.75154C9.9849 2.17336 9.34697 1.70719 8.62213 1.38693C7.8973 1.06667 7.10375 0.900359 6.30009 0.9ZM1.93993 5.84154V5.84142C1.94028 4.97272 2.24946 4.12684 2.8221 3.43255C3.39488 2.73809 4.20009 2.23322 5.11613 1.99637C6.0322 1.75952 7.00749 1.8041 7.89319 2.12314C8.77885 2.44216 9.52515 3.01762 10.0198 3.76034C10.5144 4.50286 10.7307 5.37239 10.6373 6.23688C10.5439 7.10144 10.1454 7.91567 9.50075 8.55525C8.85592 9.19496 8.00008 9.62473 7.06289 9.77763C6.12581 9.93052 5.16026 9.79795 4.31346 9.40065C4.31335 9.4006 4.31324 9.40055 4.31313 9.4005L4.17249 9.33367L4.13976 9.31812L4.10466 9.32715L1.98012 9.87376L2.68872 8.17012L2.7092 8.12087L2.67971 8.07643L2.57593 7.92002L2.57582 7.91985C2.15853 7.29363 1.93875 6.57427 1.93993 5.84154ZM10.6867 11.6351C10.0918 11.9141 9.4172 12.0724 8.70077 12.0724H8.70065C7.80025 12.0735 6.92237 11.8178 6.18826 11.3415L6.16449 11.326L6.13617 11.3254C5.66122 11.3143 5.18947 11.251 4.731 11.1369L4.40292 11.0552L4.6338 11.3022C5.13798 11.8415 5.7627 12.2737 6.46475 12.5695C7.16627 12.8652 7.92874 13.0178 8.69996 13.0172C8.7005 13.0172 8.70104 13.0172 8.70158 13.0172L10.6867 11.6351Z" fill="#556EE6" stroke="#556EE6" stroke-width="0.2"/>
</svg>
