<svg width="21" height="21" viewBox="0 0 21 21" fill="none" xmlns="http://www.w3.org/2000/svg">
<path d="M20.1975 12.4H20.3475C20.3475 12.4001 20.3475 12.4001 20.3475 12.4002C20.3475 13.7826 19.9935 15.0839 19.3725 16.218L20.3016 18.6512C20.3016 18.6512 20.3017 18.6513 20.3017 18.6513C20.391 18.8849 20.4136 19.1388 20.3671 19.3845C20.3206 19.6303 20.2066 19.8583 20.0381 20.0431C19.8695 20.2279 19.6529 20.3623 19.4124 20.4311C19.172 20.5 18.9171 20.5008 18.6762 20.4332L15.7456 19.6119C14.728 20.0858 13.5934 20.3496 12.3989 20.35L18.7943 18.9084L18.9741 18.9588L17.8779 16.09L18.0315 15.838C18.6435 14.8372 18.9975 13.6612 18.9975 12.4C18.9994 11.0675 18.5959 9.76587 17.8407 8.668C17.8321 8.04294 17.7584 7.42071 17.6211 6.81135C17.568 6.76183 17.5142 6.71303 17.4596 6.66498L17.5587 6.5524L17.704 6.51511C17.7226 6.58765 17.7404 6.66039 17.7572 6.73332C18.4953 7.42994 19.0907 8.26488 19.5089 9.19158C19.9639 10.1999 20.1987 11.2937 20.1975 12.4ZM20.1975 12.4C20.1975 13.7812 19.8375 15.0796 19.2075 16.2064L20.1975 12.4ZM8.8444 0.85H8.84433H8.84314C8.84314 0.85 8.84314 0.85 8.84313 0.85C7.45687 0.849892 6.09467 1.21227 4.8917 1.90119C3.68873 2.5901 2.68682 3.58161 1.98536 4.77731C1.28391 5.97301 0.907317 7.33135 0.89294 8.71755C0.878806 10.0803 1.21521 11.4233 1.86931 12.618L0.939023 15.0512C0.849692 15.2849 0.827032 15.5387 0.873571 15.7845L1.02095 15.7566L0.873571 15.7845C0.920111 16.0303 1.03402 16.2583 1.20259 16.4431C1.37116 16.6279 1.58776 16.7623 1.82822 16.8311L1.86953 16.6869L1.82822 16.8311C2.06869 16.9 2.32356 16.9008 2.56441 16.8332C2.56441 16.8332 2.56442 16.8332 2.56442 16.8332L5.49518 16.0119C6.55879 16.5052 7.71861 16.7574 8.89152 16.7498C10.0832 16.7422 11.2579 16.4667 12.3287 15.9439C13.3996 15.421 14.3392 14.6641 15.0781 13.7291C15.8169 12.7941 16.3361 11.705 16.5973 10.5422C16.8584 9.37952 16.8549 8.17296 16.5868 7.01181C16.3188 5.85066 15.7931 4.76462 15.0487 3.83403C14.3043 2.90343 13.3603 2.15209 12.2863 1.63557C11.2124 1.11906 10.0361 0.850579 8.8444 0.85ZM2.39313 8.80022V8.80006C2.39365 7.39446 2.85332 6.02751 3.70218 4.90718C4.55104 3.78686 5.74264 2.97449 7.09567 2.59368C8.4487 2.21287 9.88909 2.28446 11.1977 2.79757C12.5063 3.31068 13.6114 4.23721 14.345 5.43619C15.0786 6.63517 15.4004 8.04097 15.2616 9.43969C15.1227 10.8384 14.5307 12.1535 13.5757 13.1848C12.6207 14.2161 11.3549 14.9073 9.97099 15.1531C8.58722 15.3988 7.16104 15.1859 5.90941 14.5466C5.90926 14.5466 5.90911 14.5465 5.90897 14.5464L5.70084 14.4388L5.64837 14.4116L5.59148 14.4276L2.4464 15.3084L3.50285 12.5435L3.52912 12.4748L3.49081 12.4119L3.33721 12.1599L3.33706 12.1597C2.71811 11.1486 2.39138 9.98574 2.39313 8.80022ZM15.3313 18.1466C14.452 18.5956 13.4555 18.85 12.3975 18.85H12.3973C11.0679 18.8518 9.77074 18.4408 8.68487 17.6739L8.64767 17.6476L8.60215 17.6464C7.90033 17.6286 7.20317 17.5268 6.52555 17.3432L6.05474 17.2157L6.37254 17.5857C7.11815 18.454 8.04281 19.1506 9.08305 19.6277C10.1225 20.1045 11.2528 20.3509 12.3963 20.35C12.3971 20.35 12.3979 20.35 12.3987 20.35L15.3313 18.1466Z" fill="#495057" stroke="#495057" stroke-width="0.3"/>
</svg>
