<svg width="13" height="13" viewBox="0 0 13 13" fill="none" xmlns="http://www.w3.org/2000/svg">
<path d="M12.325 4.96875L11.1438 4.575L11.7 3.4625C11.7564 3.34606 11.7753 3.21498 11.754 3.08736C11.7327 2.95974 11.6724 2.84187 11.5813 2.75L10.25 1.41875C10.1576 1.32631 10.0386 1.26513 9.90972 1.24383C9.78079 1.22253 9.64843 1.24217 9.53125 1.3L8.41875 1.85625L8.025 0.675002C7.98342 0.551872 7.90448 0.444768 7.79919 0.368595C7.69389 0.292421 7.56746 0.250967 7.4375 0.250002H5.5625C5.43147 0.249664 5.30365 0.290514 5.19711 0.366778C5.09056 0.443043 5.01068 0.550864 4.96875 0.675002L4.575 1.85625L3.4625 1.3C3.34606 1.24361 3.21498 1.22475 3.08736 1.24602C2.95974 1.26729 2.84187 1.32765 2.75 1.41875L1.41875 2.75C1.32631 2.84236 1.26513 2.96136 1.24383 3.09029C1.22253 3.21921 1.24217 3.35157 1.3 3.46875L1.85625 4.58125L0.675002 4.975C0.551872 5.01659 0.444768 5.09552 0.368595 5.20082C0.292421 5.30612 0.250967 5.43254 0.250002 5.5625V7.4375C0.249664 7.56853 0.290514 7.69635 0.366778 7.8029C0.443043 7.90944 0.550864 7.98932 0.675002 8.03125L1.85625 8.425L1.3 9.5375C1.24361 9.65395 1.22475 9.78502 1.24602 9.91264C1.26729 10.0403 1.32765 10.1581 1.41875 10.25L2.75 11.5813C2.84236 11.6737 2.96136 11.7349 3.09029 11.7562C3.21921 11.7775 3.35157 11.7578 3.46875 11.7L4.58125 11.1438L4.975 12.325C5.01693 12.4491 5.09681 12.557 5.20336 12.6332C5.30991 12.7095 5.43772 12.7503 5.56875 12.75H7.44375C7.57478 12.7503 7.7026 12.7095 7.80914 12.6332C7.91569 12.557 7.99557 12.4491 8.0375 12.325L8.43125 11.1438L9.54375 11.7C9.65945 11.755 9.78925 11.7731 9.91557 11.7518C10.0419 11.7306 10.1586 11.671 10.25 11.5813L11.5813 10.25C11.6737 10.1576 11.7349 10.0386 11.7562 9.90972C11.7775 9.78079 11.7578 9.64843 11.7 9.53125L11.1438 8.41875L12.325 8.025C12.4481 7.98342 12.5552 7.90448 12.6314 7.79919C12.7076 7.69389 12.749 7.56746 12.75 7.4375V5.5625C12.7503 5.43147 12.7095 5.30365 12.6332 5.19711C12.557 5.09056 12.4491 5.01068 12.325 4.96875ZM11.5 6.9875L10.75 7.2375C10.5775 7.29344 10.4193 7.38624 10.2863 7.50944C10.1533 7.63264 10.0486 7.78331 9.97966 7.95099C9.91069 8.11867 9.87902 8.29935 9.88685 8.48049C9.89468 8.66163 9.94182 8.8389 10.025 9L10.3813 9.7125L9.69375 10.4L9 10.025C8.83972 9.94515 8.66416 9.90067 8.4852 9.89456C8.30623 9.88846 8.12805 9.92088 7.9627 9.98962C7.79735 10.0584 7.64871 10.1618 7.52683 10.293C7.40494 10.4242 7.31267 10.5801 7.25625 10.75L7.00625 11.5H6.0125L5.7625 10.75C5.70656 10.5775 5.61377 10.4193 5.49056 10.2863C5.36736 10.1533 5.21669 10.0486 5.04901 9.97966C4.88134 9.91069 4.70066 9.87902 4.51952 9.88685C4.33838 9.89468 4.1611 9.94182 4 10.025L3.2875 10.3813L2.6 9.69375L2.975 9C3.05819 8.8389 3.10533 8.66163 3.11316 8.48049C3.12098 8.29935 3.08931 8.11867 3.02034 7.95099C2.95136 7.78331 2.84674 7.63264 2.71372 7.50944C2.5807 7.38624 2.42247 7.29344 2.25 7.2375L1.5 6.9875V6.0125L2.25 5.7625C2.42247 5.70656 2.5807 5.61377 2.71372 5.49056C2.84674 5.36736 2.95136 5.21669 3.02034 5.04901C3.08931 4.88134 3.12098 4.70066 3.11316 4.51952C3.10533 4.33838 3.05819 4.1611 2.975 4L2.61875 3.30625L3.30625 2.61875L4 2.975C4.1611 3.05819 4.33838 3.10533 4.51952 3.11316C4.70066 3.12098 4.88134 3.08931 5.04901 3.02034C5.21669 2.95136 5.36736 2.84674 5.49056 2.71372C5.61377 2.5807 5.70656 2.42247 5.7625 2.25L6.0125 1.5H6.9875L7.2375 2.25C7.29344 2.42247 7.38624 2.5807 7.50944 2.71372C7.63264 2.84674 7.78331 2.95136 7.95099 3.02034C8.11867 3.08931 8.29935 3.12098 8.48049 3.11316C8.66163 3.10533 8.8389 3.05819 9 2.975L9.7125 2.61875L10.4 3.30625L10.025 4C9.94515 4.16028 9.90067 4.33584 9.89456 4.51481C9.88846 4.69377 9.92088 4.87196 9.98962 5.0373C10.0584 5.20265 10.1618 5.35129 10.293 5.47318C10.4242 5.59506 10.5801 5.68733 10.75 5.74375L11.5 5.99375V6.9875ZM6.5 4C6.00555 4 5.5222 4.14662 5.11108 4.42133C4.69995 4.69603 4.37952 5.08648 4.1903 5.54329C4.00108 6.00011 3.95158 6.50278 4.04804 6.98773C4.1445 7.47268 4.3826 7.91814 4.73223 8.26777C5.08187 8.6174 5.52732 8.8555 6.01228 8.95197C6.49723 9.04843 6.9999 8.99892 7.45671 8.8097C7.91353 8.62048 8.30397 8.30005 8.57868 7.88893C8.85338 7.4778 9 6.99445 9 6.5C9 5.83696 8.73661 5.20108 8.26777 4.73223C7.79893 4.26339 7.16304 4 6.5 4ZM6.5 7.75C6.25278 7.75 6.0111 7.67669 5.80554 7.53934C5.59998 7.40199 5.43976 7.20676 5.34515 6.97836C5.25054 6.74995 5.22579 6.49862 5.27402 6.25614C5.32225 6.01366 5.4413 5.79093 5.61612 5.61612C5.79093 5.4413 6.01366 5.32225 6.25614 5.27402C6.49862 5.22579 6.74995 5.25054 6.97836 5.34515C7.20676 5.43976 7.40199 5.59998 7.53934 5.80554C7.67669 6.0111 7.75 6.25278 7.75 6.5C7.75 6.83152 7.61831 7.14946 7.38388 7.38388C7.14946 7.61831 6.83152 7.75 6.5 7.75Z" fill="#50A5F1"/>
</svg>
