<svg width="15" height="15" viewBox="0 0 15 15" fill="none" xmlns="http://www.w3.org/2000/svg">
<path d="M13.7568 3.53136C13.7231 3.46571 13.6743 3.40896 13.6144 3.36574C13.5546 3.32251 13.4854 3.29403 13.4125 3.2826C13.3395 3.27118 13.2649 3.27715 13.1948 3.30001C13.1246 3.32287 13.0608 3.36199 13.0086 3.41417L11.2086 5.21534C11.1202 5.30242 11.0011 5.35123 10.8771 5.35123C10.753 5.35123 10.6339 5.30242 10.5456 5.21534L9.76745 4.43604C9.72391 4.39252 9.68938 4.34084 9.66581 4.28396C9.64225 4.22708 9.63012 4.16612 9.63012 4.10455C9.63012 4.04298 9.64225 3.98202 9.66581 3.92514C9.68938 3.86826 9.72391 3.81659 9.76745 3.77306L11.5598 1.98038C11.6136 1.92666 11.6534 1.86068 11.676 1.78812C11.6986 1.71557 11.7032 1.63861 11.6894 1.56389C11.6756 1.48917 11.6439 1.41892 11.5969 1.35918C11.5499 1.29945 11.4892 1.25203 11.4198 1.22101C10.066 0.615733 8.37614 0.931553 7.31062 1.98917C6.40534 2.888 6.13552 4.29249 6.57087 5.84259C6.59434 5.92525 6.59448 6.01279 6.57126 6.09553C6.54804 6.17826 6.50238 6.25296 6.43933 6.31134L1.56199 10.7659C1.37198 10.9365 1.21872 11.144 1.11155 11.3758C1.00439 11.6076 0.945566 11.8588 0.938673 12.1141C0.931781 12.3693 0.976963 12.6233 1.07146 12.8605C1.16597 13.0978 1.3078 13.3132 1.48833 13.4938C1.66885 13.6745 1.88428 13.8164 2.12146 13.911C2.35865 14.0056 2.61262 14.0509 2.86788 14.0441C3.12315 14.0373 3.37436 13.9786 3.60619 13.8716C3.83801 13.7645 4.0456 13.6113 4.21628 13.4214L8.71863 8.53321C8.77617 8.47097 8.8496 8.42561 8.93101 8.40202C9.01243 8.37843 9.09873 8.37749 9.18064 8.39932C9.62195 8.52024 10.0772 8.58298 10.5347 8.58595C11.5133 8.58595 12.3719 8.26925 12.9913 7.65899C14.1383 6.52901 14.3132 4.61241 13.7568 3.53136ZM2.91521 13.1006C2.72226 13.1217 2.52753 13.0823 2.35789 12.988C2.18826 12.8937 2.05208 12.749 1.96815 12.574C1.88423 12.399 1.85669 12.2022 1.88934 12.0109C1.922 11.8196 2.01323 11.6431 2.15045 11.5058C2.28768 11.3686 2.46412 11.2773 2.65544 11.2445C2.84676 11.2118 3.04351 11.2393 3.21856 11.3232C3.3936 11.407 3.5383 11.5431 3.63268 11.7128C3.72706 11.8824 3.76648 12.0771 3.74548 12.27C3.72238 12.4823 3.62749 12.6804 3.47651 12.8314C3.32553 12.9825 3.12751 13.0774 2.91521 13.1006Z" fill="#50A5F1"/>
</svg>
