<svg width="13" height="13" viewBox="0 0 13 13" fill="none" xmlns="http://www.w3.org/2000/svg">
<path d="M9.125 7.06244C9.125 7.06244 9.0625 7.06244 9.125 7.06244C9 6.99994 8.9375 6.93744 8.8125 6.93744C10.4375 5.68744 10.75 3.31244 9.4375 1.68744C8.125 0.0624395 5.8125 -0.250061 4.1875 1.06244C2.5625 2.37494 2.25 4.68744 3.5625 6.31244C3.75 6.56244 3.9375 6.74994 4.1875 6.93744C4.125 6.99994 4 6.99994 3.9375 7.06244C3.9375 7.06244 3.9375 7.06244 3.875 7.06244C1.875 7.99994 0.5 9.87494 0.25 12.0624C0.25 12.3749 0.5 12.6874 0.875 12.7499H12.125C12.4375 12.6874 12.6875 12.3749 12.6875 12.0624C12.5 9.87494 11.125 7.99994 9.125 7.06244ZM4 3.74994C4.125 2.37494 5.375 1.37494 6.6875 1.49994C7.875 1.62494 8.8125 2.56244 8.9375 3.74994H4ZM6.5 9.12494L5.3125 7.93744C6.125 7.74994 6.9375 7.74994 7.75 7.93744L6.5 9.12494Z" fill="#50A5F1"/>
</svg>
