<svg width="14" height="14" viewBox="0 0 14 14" fill="none" xmlns="http://www.w3.org/2000/svg">
<path d="M7.90909 2.09235C7.90909 1.7594 7.77021 1.44008 7.523 1.20464C7.2758 0.969207 6.94051 0.836941 6.59091 0.836941C6.24131 0.836941 5.90602 0.969207 5.65881 1.20464C5.41161 1.44008 5.27273 1.7594 5.27273 2.09235H4.39394C4.39394 1.53743 4.62541 1.00523 5.03742 0.612836C5.44943 0.220444 6.00824 0 6.59091 0C7.17358 0 7.73239 0.220444 8.1444 0.612836C8.55641 1.00523 8.78788 1.53743 8.78788 2.09235H12.7424C12.859 2.09235 12.9707 2.13644 13.0531 2.21492C13.1355 2.2934 13.1818 2.39984 13.1818 2.51082C13.1818 2.62181 13.1355 2.72825 13.0531 2.80673C12.9707 2.8852 12.859 2.92929 12.7424 2.92929H12.2556L11.1167 12.3281C11.0671 12.7361 10.8618 13.1124 10.5398 13.3855C10.2179 13.6587 9.80169 13.8096 9.37051 13.8095H3.8113C3.38012 13.8096 2.96397 13.6587 2.642 13.3855C2.32004 13.1124 2.11474 12.7361 2.06515 12.3281L0.925364 2.92929H0.439394C0.336553 2.92933 0.236959 2.895 0.157954 2.8323C0.07895 2.7696 0.0255415 2.68249 0.00703021 2.58615L0 2.51082C0 2.39984 0.0462932 2.2934 0.128696 2.21492C0.211098 2.13644 0.322859 2.09235 0.439394 2.09235H7.90909ZM11.3698 2.92929H1.81118L2.93779 12.2319C2.96259 12.4359 3.0653 12.6241 3.22638 12.7607C3.38745 12.8973 3.59564 12.9727 3.8113 12.9726H9.37051C9.58603 12.9725 9.794 12.897 9.95489 12.7605C10.1158 12.6239 10.2184 12.4358 10.2432 12.2319L11.3698 2.92929ZM5.27273 5.02165C5.48803 5.02165 5.66818 5.15137 5.70509 5.32211L5.71212 5.38823V10.5145C5.71212 10.7162 5.51527 10.8802 5.27273 10.8802C5.05742 10.8802 4.87727 10.7505 4.84036 10.5798L4.83333 10.5137V5.38906C4.83333 5.18652 5.03018 5.02248 5.27273 5.02248V5.02165ZM7.90909 5.02165C8.12439 5.02165 8.30455 5.15137 8.34145 5.32211L8.34848 5.38823V10.5145C8.34848 10.7162 8.15164 10.8802 7.90909 10.8802C7.69379 10.8802 7.51364 10.7505 7.47673 10.5798L7.4697 10.5137V5.38906C7.4697 5.18652 7.66655 5.02248 7.90909 5.02248V5.02165Z" fill="#EE4957"/>
</svg>
