<svg width="16" height="16" viewBox="0 0 16 16" fill="none" xmlns="http://www.w3.org/2000/svg">
<path d="M11.2179 3.71737L5.96794 8.96737C5.89765 9.03709 5.84185 9.12004 5.80377 9.21144C5.7657 9.30283 5.74609 9.40086 5.74609 9.49987C5.74609 9.59888 5.7657 9.69691 5.80377 9.7883C5.84185 9.87969 5.89765 9.96265 5.96794 10.0324C6.03767 10.1027 6.12062 10.1585 6.21201 10.1965C6.3034 10.2346 6.40143 10.2542 6.50044 10.2542C6.59945 10.2542 6.69748 10.2346 6.78888 10.1965C6.88027 10.1585 6.96322 10.1027 7.03294 10.0324L12.2829 4.78237C12.4242 4.64114 12.5035 4.44959 12.5035 4.24987C12.5035 4.05014 12.4242 3.8586 12.2829 3.71737C12.1417 3.57614 11.9502 3.4968 11.7504 3.4968C11.5507 3.4968 11.3592 3.57614 11.2179 3.71737ZM14.4054 1.59487C14.0571 1.24564 13.6433 0.968572 13.1877 0.779523C12.7321 0.590475 12.2437 0.493164 11.7504 0.493164C11.2572 0.493164 10.7688 0.590475 10.3132 0.779523C9.8576 0.968572 9.44379 1.24564 9.09544 1.59487L2.96794 7.76737C2.82938 7.90706 2.75127 8.09561 2.75044 8.29237V12.1849L0.717942 14.2174C0.647646 14.2871 0.59185 14.37 0.553774 14.4614C0.515697 14.5528 0.496094 14.6509 0.496094 14.7499C0.496094 14.8489 0.515697 14.9469 0.553774 15.0383C0.59185 15.1297 0.647646 15.2126 0.717942 15.2824C0.787665 15.3527 0.870616 15.4085 0.96201 15.4465C1.0534 15.4846 1.15143 15.5042 1.25044 15.5042C1.34945 15.5042 1.44748 15.4846 1.53887 15.4465C1.63027 15.4085 1.71322 15.3527 1.78294 15.2824L3.81544 13.2499H7.70794C7.9047 13.249 8.09325 13.1709 8.23294 13.0324L14.4054 6.90487C14.7547 6.55652 15.0317 6.14271 15.2208 5.68712C15.4098 5.23153 15.5071 4.74312 15.5071 4.24987C15.5071 3.75661 15.4098 3.2682 15.2208 2.81262C15.0317 2.35703 14.7547 1.94321 14.4054 1.59487ZM13.3404 5.83987L7.40044 11.7499H4.25044V8.59987L10.1604 2.65987C10.587 2.26243 11.1511 2.04606 11.734 2.05634C12.3169 2.06663 12.8731 2.30276 13.2853 2.715C13.6975 3.12724 13.9337 3.6834 13.944 4.2663C13.9543 4.8492 13.7379 5.41334 13.3404 5.83987Z" fill="#50A5F1"/>
</svg>
