<svg width="17" height="17" viewBox="0 0 17 17" fill="none" xmlns="http://www.w3.org/2000/svg">
<path d="M4.80404 11.6666C4.64746 11.6666 4.4944 11.713 4.36421 11.8C4.23402 11.887 4.13255 12.0106 4.07263 12.1553C4.01271 12.3 3.99703 12.4591 4.02758 12.6127C4.05813 12.7663 4.13353 12.9073 4.24424 13.018C4.35496 13.1288 4.49602 13.2042 4.64959 13.2347C4.80316 13.2653 4.96234 13.2496 5.10699 13.1897C5.25165 13.1297 5.37529 13.0283 5.46228 12.8981C5.54927 12.7679 5.5957 12.6148 5.5957 12.4583C5.5957 12.2483 5.5123 12.0469 5.36383 11.8985C5.21536 11.75 5.014 11.6666 4.80404 11.6666ZM14.3515 8.49992L15.3253 7.52617C15.77 7.08085 16.0199 6.47721 16.0199 5.84783C16.0199 5.21846 15.77 4.61482 15.3253 4.1695L13.0849 1.937C12.6396 1.49224 12.0359 1.24243 11.4065 1.24243C10.7772 1.24243 10.1735 1.49224 9.7282 1.937L8.76237 2.91075C8.74993 2.28913 8.49423 1.69717 8.05017 1.262C7.60612 0.826819 7.00911 0.583128 6.38737 0.583252H3.2207C2.59081 0.583252 1.98672 0.833475 1.54132 1.27887C1.09593 1.72427 0.845703 2.32836 0.845703 2.95825V14.0416C0.845703 14.6715 1.09593 15.2756 1.54132 15.721C1.98672 16.1664 2.59081 16.4166 3.2207 16.4166H14.304C14.9339 16.4166 15.538 16.1664 15.9834 15.721C16.4288 15.2756 16.679 14.6715 16.679 14.0416V10.8749C16.6792 10.2532 16.4355 9.65617 16.0003 9.21211C15.5651 8.76805 14.9732 8.51235 14.3515 8.49992ZM7.17904 14.0416C7.17904 14.2515 7.09563 14.4529 6.94716 14.6014C6.7987 14.7498 6.59733 14.8333 6.38737 14.8333H3.2207C3.01074 14.8333 2.80938 14.7498 2.66091 14.6014C2.51244 14.4529 2.42904 14.2515 2.42904 14.0416V2.95825C2.42904 2.74829 2.51244 2.54693 2.66091 2.39846C2.80938 2.24999 3.01074 2.16659 3.2207 2.16659H6.38737C6.59733 2.16659 6.7987 2.24999 6.94716 2.39846C7.09563 2.54693 7.17904 2.74829 7.17904 2.95825V14.0416ZM8.76237 5.14325L10.8524 3.05325C11.0007 2.9058 11.2013 2.82304 11.4105 2.82304C11.6196 2.82304 11.8203 2.9058 11.9686 3.05325L14.209 5.33325C14.3565 5.48158 14.4392 5.68223 14.4392 5.89138C14.4392 6.10052 14.3565 6.30117 14.209 6.4495L11.929 8.7295L8.76237 11.8566V5.14325ZM15.0957 14.0416C15.0957 14.2515 15.0123 14.4529 14.8638 14.6014C14.7154 14.7498 14.514 14.8333 14.304 14.8333H8.61987C8.70108 14.5986 8.74645 14.3531 8.75445 14.1049L12.7761 10.0833H14.304C14.514 10.0833 14.7154 10.1667 14.8638 10.3151C15.0123 10.4636 15.0957 10.665 15.0957 10.8749V14.0416Z" fill="#1670F7"/>
</svg>
