<svg width="20" height="20" viewBox="0 0 20 20" fill="none" xmlns="http://www.w3.org/2000/svg">
<path d="M12.7497 14.5833C12.5684 14.5833 12.3911 14.637 12.2404 14.7377C12.0897 14.8385 11.9722 14.9816 11.9028 15.1491C11.8334 15.3166 11.8153 15.5009 11.8506 15.6788C11.886 15.8566 11.9733 16.0199 12.1015 16.1481C12.2297 16.2763 12.393 16.3636 12.5708 16.399C12.7487 16.4343 12.933 16.4162 13.1005 16.3468C13.268 16.2774 13.4111 16.1599 13.5119 16.0092C13.6126 15.8584 13.6663 15.6812 13.6663 15.4999C13.6663 15.2568 13.5698 15.0236 13.3979 14.8517C13.2259 14.6798 12.9928 14.5833 12.7497 14.5833ZM7.24967 14.5833H4.49967C4.25656 14.5833 4.0234 14.6798 3.85149 14.8517C3.67959 15.0236 3.58301 15.2568 3.58301 15.4999C3.58301 15.743 3.67959 15.9762 3.85149 16.1481C4.0234 16.32 4.25656 16.4166 4.49967 16.4166H7.24967C7.49279 16.4166 7.72595 16.32 7.89786 16.1481C8.06976 15.9762 8.16634 15.743 8.16634 15.4999C8.16634 15.2568 8.06976 15.0236 7.89786 14.8517C7.72595 14.6798 7.49279 14.5833 7.24967 14.5833ZM15.4997 14.5833C15.3184 14.5833 15.1411 14.637 14.9904 14.7377C14.8397 14.8385 14.7222 14.9816 14.6528 15.1491C14.5834 15.3166 14.5653 15.5009 14.6006 15.6788C14.636 15.8566 14.7233 16.0199 14.8515 16.1481C14.9797 16.2763 15.143 16.3636 15.3208 16.399C15.4987 16.4343 15.683 16.4162 15.8505 16.3468C16.018 16.2774 16.1611 16.1599 16.2619 16.0092C16.3626 15.8584 16.4163 15.6812 16.4163 15.4999C16.4163 15.2568 16.3198 15.0236 16.1479 14.8517C15.9759 14.6798 15.7428 14.5833 15.4997 14.5833ZM12.7497 9.08325C12.5684 9.08325 12.3911 9.13701 12.2404 9.23774C12.0897 9.33846 11.9722 9.48163 11.9028 9.64913C11.8334 9.81662 11.8153 10.0009 11.8506 10.1788C11.886 10.3566 11.9733 10.5199 12.1015 10.6481C12.2297 10.7763 12.393 10.8636 12.5708 10.899C12.7487 10.9343 12.933 10.9162 13.1005 10.8468C13.268 10.7774 13.4111 10.6599 13.5119 10.5092C13.6126 10.3584 13.6663 10.1812 13.6663 9.99992C13.6663 9.7568 13.5698 9.52365 13.3979 9.35174C13.2259 9.17983 12.9928 9.08325 12.7497 9.08325ZM7.24967 9.08325H4.49967C4.25656 9.08325 4.0234 9.17983 3.85149 9.35174C3.67959 9.52365 3.58301 9.7568 3.58301 9.99992C3.58301 10.243 3.67959 10.4762 3.85149 10.6481C4.0234 10.82 4.25656 10.9166 4.49967 10.9166H7.24967C7.49279 10.9166 7.72595 10.82 7.89786 10.6481C8.06976 10.4762 8.16634 10.243 8.16634 9.99992C8.16634 9.7568 8.06976 9.52365 7.89786 9.35174C7.72595 9.17983 7.49279 9.08325 7.24967 9.08325ZM15.4997 3.58325C15.3184 3.58325 15.1411 3.63701 14.9904 3.73774C14.8397 3.83846 14.7222 3.98163 14.6528 4.14913C14.5834 4.31662 14.5653 4.50094 14.6006 4.67875C14.636 4.85657 14.7233 5.0199 14.8515 5.1481C14.9797 5.2763 15.143 5.3636 15.3208 5.39897C15.4987 5.43434 15.683 5.41619 15.8505 5.34681C16.018 5.27743 16.1611 5.15994 16.2619 5.00919C16.3626 4.85845 16.4163 4.68122 16.4163 4.49992C16.4163 4.2568 16.3198 4.02365 16.1479 3.85174C15.9759 3.67983 15.7428 3.58325 15.4997 3.58325ZM15.4997 9.08325C15.3184 9.08325 15.1411 9.13701 14.9904 9.23774C14.8397 9.33846 14.7222 9.48163 14.6528 9.64913C14.5834 9.81662 14.5653 10.0009 14.6006 10.1788C14.636 10.3566 14.7233 10.5199 14.8515 10.6481C14.9797 10.7763 15.143 10.8636 15.3208 10.899C15.4987 10.9343 15.683 10.9162 15.8505 10.8468C16.018 10.7774 16.1611 10.6599 16.2619 10.5092C16.3626 10.3584 16.4163 10.1812 16.4163 9.99992C16.4163 9.7568 16.3198 9.52365 16.1479 9.35174C15.9759 9.17983 15.7428 9.08325 15.4997 9.08325ZM19.1663 3.58325C19.1663 2.85391 18.8766 2.15443 18.3609 1.63871C17.8452 1.12298 17.1457 0.833252 16.4163 0.833252H3.58301C2.85366 0.833252 2.15419 1.12298 1.63846 1.63871C1.12274 2.15443 0.833008 2.85391 0.833008 3.58325V5.41659C0.837051 6.09497 1.0917 6.74792 1.54801 7.24992C1.0917 7.75192 0.837051 8.40487 0.833008 9.08325V10.9166C0.837051 11.595 1.0917 12.2479 1.54801 12.7499C1.0917 13.2519 0.837051 13.9049 0.833008 14.5833V16.4166C0.833008 17.1459 1.12274 17.8454 1.63846 18.3611C2.15419 18.8769 2.85366 19.1666 3.58301 19.1666H16.4163C17.1457 19.1666 17.8452 18.8769 18.3609 18.3611C18.8766 17.8454 19.1663 17.1459 19.1663 16.4166V14.5833C19.1623 13.9049 18.9076 13.2519 18.4513 12.7499C18.9076 12.2479 19.1623 11.595 19.1663 10.9166V9.08325C19.1623 8.40487 18.9076 7.75192 18.4513 7.24992C18.9076 6.74792 19.1623 6.09497 19.1663 5.41659V3.58325ZM17.333 16.4166C17.333 16.6597 17.2364 16.8929 17.0645 17.0648C16.8926 17.2367 16.6595 17.3333 16.4163 17.3333H3.58301C3.33989 17.3333 3.10674 17.2367 2.93483 17.0648C2.76292 16.8929 2.66634 16.6597 2.66634 16.4166V14.5833C2.66634 14.3401 2.76292 14.107 2.93483 13.9351C3.10674 13.7632 3.33989 13.6666 3.58301 13.6666H16.4163C16.6595 13.6666 16.8926 13.7632 17.0645 13.9351C17.2364 14.107 17.333 14.3401 17.333 14.5833V16.4166ZM17.333 10.9166C17.333 11.1597 17.2364 11.3929 17.0645 11.5648C16.8926 11.7367 16.6595 11.8333 16.4163 11.8333H3.58301C3.33989 11.8333 3.10674 11.7367 2.93483 11.5648C2.76292 11.3929 2.66634 11.1597 2.66634 10.9166V9.08325C2.66634 8.84014 2.76292 8.60698 2.93483 8.43507C3.10674 8.26316 3.33989 8.16659 3.58301 8.16659H16.4163C16.6595 8.16659 16.8926 8.26316 17.0645 8.43507C17.2364 8.60698 17.333 8.84014 17.333 9.08325V10.9166ZM17.333 5.41659C17.333 5.6597 17.2364 5.89286 17.0645 6.06477C16.8926 6.23667 16.6595 6.33325 16.4163 6.33325H3.58301C3.33989 6.33325 3.10674 6.23667 2.93483 6.06477C2.76292 5.89286 2.66634 5.6597 2.66634 5.41659V3.58325C2.66634 3.34014 2.76292 3.10698 2.93483 2.93507C3.10674 2.76316 3.33989 2.66659 3.58301 2.66659H16.4163C16.6595 2.66659 16.8926 2.76316 17.0645 2.93507C17.2364 3.10698 17.333 3.34014 17.333 3.58325V5.41659ZM12.7497 3.58325C12.5684 3.58325 12.3911 3.63701 12.2404 3.73774C12.0897 3.83846 11.9722 3.98163 11.9028 4.14913C11.8334 4.31662 11.8153 4.50094 11.8506 4.67875C11.886 4.85657 11.9733 5.0199 12.1015 5.1481C12.2297 5.2763 12.393 5.3636 12.5708 5.39897C12.7487 5.43434 12.933 5.41619 13.1005 5.34681C13.268 5.27743 13.4111 5.15994 13.5119 5.00919C13.6126 4.85845 13.6663 4.68122 13.6663 4.49992C13.6663 4.2568 13.5698 4.02365 13.3979 3.85174C13.2259 3.67983 12.9928 3.58325 12.7497 3.58325ZM7.24967 3.58325H4.49967C4.25656 3.58325 4.0234 3.67983 3.85149 3.85174C3.67959 4.02365 3.58301 4.2568 3.58301 4.49992C3.58301 4.74303 3.67959 4.97619 3.85149 5.1481C4.0234 5.32001 4.25656 5.41659 4.49967 5.41659H7.24967C7.49279 5.41659 7.72595 5.32001 7.89786 5.1481C8.06976 4.97619 8.16634 4.74303 8.16634 4.49992C8.16634 4.2568 8.06976 4.02365 7.89786 3.85174C7.72595 3.67983 7.49279 3.58325 7.24967 3.58325Z" fill="#50A5F1"/>
</svg>
