<svg width="13" height="17" viewBox="0 0 13 17" fill="none" xmlns="http://www.w3.org/2000/svg">
<path d="M4.125 6.91683H4.91666C5.12663 6.91683 5.32799 6.83342 5.47646 6.68496C5.62492 6.53649 5.70833 6.33513 5.70833 6.12516C5.70833 5.9152 5.62492 5.71384 5.47646 5.56537C5.32799 5.4169 5.12663 5.3335 4.91666 5.3335H4.125C3.91503 5.3335 3.71367 5.4169 3.5652 5.56537C3.41674 5.71384 3.33333 5.9152 3.33333 6.12516C3.33333 6.33513 3.41674 6.53649 3.5652 6.68496C3.71367 6.83342 3.91503 6.91683 4.125 6.91683ZM4.125 8.50016C3.91503 8.50016 3.71367 8.58357 3.5652 8.73204C3.41674 8.8805 3.33333 9.08187 3.33333 9.29183C3.33333 9.50179 3.41674 9.70316 3.5652 9.85162C3.71367 10.0001 3.91503 10.0835 4.125 10.0835H8.875C9.08496 10.0835 9.28632 10.0001 9.43479 9.85162C9.58325 9.70316 9.66666 9.50179 9.66666 9.29183C9.66666 9.08187 9.58325 8.8805 9.43479 8.73204C9.28632 8.58357 9.08496 8.50016 8.875 8.50016H4.125ZM12.8333 6.07766C12.8251 6.00494 12.8092 5.93329 12.7858 5.86391V5.79266C12.7478 5.71126 12.697 5.63644 12.6354 5.571L7.88541 0.820996C7.81997 0.759417 7.74515 0.708644 7.66375 0.670579C7.64011 0.667223 7.61613 0.667223 7.5925 0.670579C7.51207 0.624458 7.42326 0.594852 7.33125 0.583496H2.54166C1.91177 0.583496 1.30768 0.833719 0.862285 1.27912C0.416887 1.72452 0.166664 2.32861 0.166664 2.9585V14.0418C0.166664 14.6717 0.416887 15.2758 0.862285 15.7212C1.30768 16.1666 1.91177 16.4168 2.54166 16.4168H10.4583C11.0882 16.4168 11.6923 16.1666 12.1377 15.7212C12.5831 15.2758 12.8333 14.6717 12.8333 14.0418V6.12516C12.8333 6.12516 12.8333 6.12516 12.8333 6.07766ZM8.08333 3.28308L10.1337 5.3335H8.875C8.66503 5.3335 8.46367 5.25009 8.3152 5.10162C8.16674 4.95316 8.08333 4.75179 8.08333 4.54183V3.28308ZM11.25 14.0418C11.25 14.2518 11.1666 14.4532 11.0181 14.6016C10.8697 14.7501 10.6683 14.8335 10.4583 14.8335H2.54166C2.3317 14.8335 2.13034 14.7501 1.98187 14.6016C1.8334 14.4532 1.75 14.2518 1.75 14.0418V2.9585C1.75 2.74853 1.8334 2.54717 1.98187 2.3987C2.13034 2.25024 2.3317 2.16683 2.54166 2.16683H6.5V4.54183C6.5 5.17172 6.75022 5.77581 7.19562 6.22121C7.64102 6.66661 8.24511 6.91683 8.875 6.91683H11.25V14.0418ZM8.875 11.6668H4.125C3.91503 11.6668 3.71367 11.7502 3.5652 11.8987C3.41674 12.0472 3.33333 12.2485 3.33333 12.4585C3.33333 12.6685 3.41674 12.8698 3.5652 13.0183C3.71367 13.1668 3.91503 13.2502 4.125 13.2502H8.875C9.08496 13.2502 9.28632 13.1668 9.43479 13.0183C9.58325 12.8698 9.66666 12.6685 9.66666 12.4585C9.66666 12.2485 9.58325 12.0472 9.43479 11.8987C9.28632 11.7502 9.08496 11.6668 8.875 11.6668Z" fill="#50A5F1"/>
</svg>
