<svg width="19" height="19" viewBox="0 0 19 19" fill="none" xmlns="http://www.w3.org/2000/svg">
<path d="M9.73187 5.30971C9.42271 5.00055 9.42271 4.49929 9.73187 4.19013C10.041 3.88096 10.5423 3.88096 10.8515 4.19013L15.6015 8.94013C15.9012 9.23983 15.9117 9.72242 15.6252 10.0349L11.2711 14.7849C10.9756 15.1072 10.4749 15.1289 10.1526 14.8335C9.83025 14.5381 9.80848 14.0373 10.1039 13.715L13.9459 9.52373L9.73187 5.30971Z" fill="white"/>
<path opacity="0.3" d="M4.19004 5.30971C3.88088 5.00055 3.88088 4.49929 4.19004 4.19013C4.49921 3.88096 5.00046 3.88096 5.30963 4.19013L10.0596 8.94013C10.3593 9.23983 10.3698 9.72242 10.0834 10.0349L5.72925 14.7849C5.43381 15.1072 4.93302 15.1289 4.61072 14.8335C4.28842 14.5381 4.26664 14.0373 4.56209 13.715L8.40406 9.52373L4.19004 5.30971Z" fill="white"/>
</svg>
