<svg width="19" height="19" viewBox="0 0 19 19" fill="none" xmlns="http://www.w3.org/2000/svg">
<path d="M13.6905 9.73187C13.9997 9.42271 14.501 9.42271 14.8101 9.73187C15.1193 10.041 15.1193 10.5423 14.8101 10.8515L10.0601 15.6015C9.76041 15.9012 9.27782 15.9117 8.96538 15.6252L4.21538 11.2711C3.89307 10.9756 3.8713 10.4749 4.16674 10.1526C4.46219 9.83025 4.96297 9.80848 5.28527 10.1039L9.47652 13.9459L13.6905 9.73187Z" fill="#556EE6"/>
<path opacity="0.3" d="M13.6905 4.19029C13.9997 3.88112 14.501 3.88112 14.8101 4.19029C15.1193 4.49945 15.1193 5.00071 14.8101 5.30987L10.0601 10.0599C9.76041 10.3596 9.27782 10.3701 8.96538 10.0837L4.21538 5.72949C3.89307 5.43405 3.8713 4.93327 4.16674 4.61096C4.46219 4.28866 4.96297 4.26689 5.28527 4.56233L9.47652 8.4043L13.6905 4.19029Z" fill="#556EE6"/>
</svg>
