<svg width="15" height="15" viewBox="0 0 15 15" fill="none" xmlns="http://www.w3.org/2000/svg">
<path d="M10.3262 6.44531C10.3262 6.1217 10.0639 5.85938 9.74024 5.85938H3.70508C3.38147 5.85938 3.11914 6.1217 3.11914 6.44531C3.11914 6.76893 3.38147 7.03125 3.70508 7.03125H9.74024C10.0639 7.03125 10.3262 6.76893 10.3262 6.44531Z" fill="#556EE6"/>
<path d="M3.70508 8.20312C3.38146 8.20312 3.11914 8.46545 3.11914 8.78906C3.11914 9.11268 3.38146 9.375 3.70508 9.375H7.37043C7.69404 9.375 7.95637 9.11268 7.95637 8.78906C7.95637 8.46545 7.69404 8.20312 7.37043 8.20312H3.70508Z" fill="#556EE6"/>
<path d="M5.08171 13.8281H3.12207C2.4759 13.8281 1.9502 13.3024 1.9502 12.6562V2.34375C1.9502 1.69758 2.4759 1.17188 3.12207 1.17188H10.3259C10.972 1.17188 11.4977 1.69758 11.4977 2.34375V5.94727C11.4977 6.27088 11.7601 6.5332 12.0837 6.5332C12.4073 6.5332 12.6696 6.27088 12.6696 5.94727V2.34375C12.6696 1.05141 11.6182 0 10.3259 0H3.12207C1.82973 0 0.77832 1.05141 0.77832 2.34375V12.6562C0.77832 13.9486 1.82973 15 3.12207 15H5.08171C5.40532 15 5.66765 14.7377 5.66765 14.4141C5.66765 14.0904 5.40532 13.8281 5.08171 13.8281Z" fill="#556EE6"/>
<path d="M13.7068 8.48358C13.0215 7.79821 11.9063 7.79818 11.2214 8.48311L8.0045 11.6929C7.93618 11.761 7.88579 11.845 7.85772 11.9374L7.15715 14.2437C7.09504 14.4482 7.14915 14.6703 7.29839 14.8232C7.41018 14.9378 7.56206 15 7.71783 15C7.76995 15 7.82257 14.993 7.87422 14.9787L10.2392 14.3236C10.3365 14.2967 10.4252 14.245 10.4967 14.1736L13.7069 10.9695C14.3922 10.2842 14.3922 9.16901 13.7068 8.48358ZM9.7779 13.2354L8.5881 13.565L8.93629 12.4186L11.1069 10.2529L11.9357 11.0817L9.7779 13.2354ZM12.8787 10.1406L12.7651 10.2538L11.9365 9.42518L12.0496 9.31227C12.2781 9.08381 12.6498 9.08381 12.8782 9.31227C13.1067 9.54073 13.1067 9.91245 12.8787 10.1406Z" fill="#556EE6"/>
<path d="M9.74024 3.51562H3.70508C3.38147 3.51562 3.11914 3.77795 3.11914 4.10156C3.11914 4.42518 3.38147 4.6875 3.70508 4.6875H9.74024C10.0639 4.6875 10.3262 4.42518 10.3262 4.10156C10.3262 3.77795 10.0639 3.51562 9.74024 3.51562Z" fill="#556EE6"/>
</svg>
