<svg width="16" height="16" viewBox="0 0 16 16" fill="none" xmlns="http://www.w3.org/2000/svg">
<path d="M14.75 8.00044C14.5511 8.00044 14.3603 8.07946 14.2197 8.22011C14.079 8.36077 14 8.55153 14 8.75044V13.2504C14 13.4494 13.921 13.6401 13.7803 13.7808C13.6397 13.9214 13.4489 14.0004 13.25 14.0004H2.75C2.55109 14.0004 2.36032 13.9214 2.21967 13.7808C2.07902 13.6401 2 13.4494 2 13.2504V2.75044C2 2.55153 2.07902 2.36077 2.21967 2.22011C2.36032 2.07946 2.55109 2.00044 2.75 2.00044H7.25C7.44891 2.00044 7.63968 1.92143 7.78033 1.78077C7.92098 1.64012 8 1.44936 8 1.25044C8 1.05153 7.92098 0.860765 7.78033 0.720112C7.63968 0.57946 7.44891 0.500443 7.25 0.500443H2.75C2.15326 0.500443 1.58097 0.737496 1.15901 1.15945C0.737053 1.58141 0.5 2.15371 0.5 2.75044V13.2504C0.5 13.8472 0.737053 14.4195 1.15901 14.8414C1.58097 15.2634 2.15326 15.5004 2.75 15.5004H13.25C13.8467 15.5004 14.419 15.2634 14.841 14.8414C15.2629 14.4195 15.5 13.8472 15.5 13.2504V8.75044C15.5 8.55153 15.421 8.36077 15.2803 8.22011C15.1397 8.07946 14.9489 8.00044 14.75 8.00044ZM3.5 8.57044V11.7504C3.5 11.9494 3.57902 12.1401 3.71967 12.2808C3.86032 12.4214 4.05109 12.5004 4.25 12.5004H7.43C7.5287 12.501 7.62655 12.4821 7.71793 12.4448C7.80931 12.4074 7.89242 12.3525 7.9625 12.2829L13.1525 7.08544L15.2825 5.00044C15.3528 4.93072 15.4086 4.84777 15.4467 4.75638C15.4847 4.66498 15.5043 4.56695 15.5043 4.46794C15.5043 4.36893 15.4847 4.27091 15.4467 4.17951C15.4086 4.08812 15.3528 4.00517 15.2825 3.93544L12.1025 0.717943C12.0328 0.647646 11.9498 0.59185 11.8584 0.553774C11.767 0.515697 11.669 0.496094 11.57 0.496094C11.471 0.496094 11.373 0.515697 11.2816 0.553774C11.1902 0.59185 11.1072 0.647646 11.0375 0.717943L8.9225 2.84044L3.7175 8.03794C3.64799 8.10802 3.59299 8.19114 3.55567 8.28251C3.51835 8.37389 3.49943 8.47174 3.5 8.57044ZM11.57 2.30794L13.6925 4.43044L12.6275 5.49544L10.505 3.37294L11.57 2.30794ZM5 8.87794L9.4475 4.43044L11.57 6.55294L7.1225 11.0004H5V8.87794Z" fill="#50A5F1"/>
</svg>
