<svg width="12" height="9" viewBox="0 0 12 9" fill="none" xmlns="http://www.w3.org/2000/svg">
<path d="M9.7911 0.166626H2.20776C1.77679 0.166626 1.36346 0.337831 1.05872 0.642577C0.753969 0.947324 0.582764 1.36065 0.582764 1.79163V7.20829C0.582764 7.63927 0.753969 8.05259 1.05872 8.35734C1.36346 8.66209 1.77679 8.83329 2.20776 8.83329H9.7911C10.2221 8.83329 10.6354 8.66209 10.9401 8.35734C11.2449 8.05259 11.4161 7.63927 11.4161 7.20829V1.79163C11.4161 1.36065 11.2449 0.947324 10.9401 0.642577C10.6354 0.337831 10.2221 0.166626 9.7911 0.166626ZM9.56901 1.24996L6.38401 4.43496C6.33366 4.48573 6.27375 4.52603 6.20774 4.55352C6.14174 4.58102 6.07094 4.59518 5.99943 4.59518C5.92792 4.59518 5.85713 4.58102 5.79112 4.55352C5.72511 4.52603 5.6652 4.48573 5.61485 4.43496L2.42985 1.24996H9.56901ZM10.3328 7.20829C10.3328 7.35195 10.2757 7.48973 10.1741 7.59131C10.0725 7.69289 9.93476 7.74996 9.7911 7.74996H2.20776C2.0641 7.74996 1.92633 7.69289 1.82475 7.59131C1.72317 7.48973 1.6661 7.35195 1.6661 7.20829V2.01371L4.8511 5.19871C5.15579 5.50302 5.5688 5.67395 5.99943 5.67395C6.43006 5.67395 6.84308 5.50302 7.14776 5.19871L10.3328 2.01371V7.20829Z" fill="#50A5F1"/>
</svg>
