<svg width="16" height="10" viewBox="0 0 16 10" fill="none" xmlns="http://www.w3.org/2000/svg">
<path d="M0.0318408 0.805243L7.03909 4.68689L0 8.5835V1.04237C0 0.961193 0.0113717 0.882149 0.0318408 0.805243Z" fill="#50A5F1"/>
<path d="M7.3482 4.51611L0.149902 0.529785C0.340947 0.215749 0.695745 -1.68114e-05 1.10967 -1.68114e-05H14.8922C15.3402 -1.68114e-05 15.7246 0.252066 15.8997 0.610964L8.84926 4.51611L8.09873 4.10167L7.3482 4.51611Z" fill="#50A5F1"/>
<path d="M15.9999 1.0425V8.47681L9.15869 4.68702L15.9863 0.903638C15.9931 0.950636 15.9999 0.995499 15.9999 1.0425Z" fill="#50A5F1"/>
<path d="M1.10988 10C0.495807 10 0 9.53429 0 8.95962V8.92758L8.09666 4.44349L16 8.82076V8.95962C16 9.53429 15.5042 10 14.8901 10H1.10988Z" fill="#50A5F1"/>
</svg>
