<svg width="16" height="14" viewBox="0 0 16 14" fill="none" xmlns="http://www.w3.org/2000/svg">
<path d="M0.0010376 1.45715V5.70088C0.0010376 6.41562 0.00103716 7.13036 0.000593824 7.8451V5.70088C0.00103716 4.28645 0.0010376 2.87158 0.0010376 1.45715Z" fill="#556EE6"/>
<path d="M1.0433 0.500448C1.0433 0.132579 1.16529 0.000676099 1.52195 0.00113251C3.1615 0.00341457 4.71456 0.373109 6.16337 1.17594C6.8443 1.55339 7.4476 2.03764 7.99456 2.61546C8.16091 2.45435 8.30109 2.30784 8.45192 2.17411C10.1744 0.647869 12.2119 0.0367327 14.4446 0.000219686C14.838 -0.00617009 14.9516 0.125733 14.952 0.539699C14.9525 2.73732 14.952 4.93495 14.952 7.13303C14.952 8.02258 14.9547 8.91258 14.9498 9.80213C14.9485 10.1257 14.8105 10.2403 14.5044 10.2686C13.851 10.3293 13.1892 10.3603 12.5481 10.4936C10.8926 10.8377 9.43361 11.5726 8.31218 12.9199C8.11079 13.1613 7.89342 13.1371 7.66807 12.9103C7.30476 12.5447 6.95298 12.1554 6.54398 11.8505C5.05569 10.7414 3.35048 10.3188 1.54058 10.2654C1.16307 10.2544 1.04418 10.1458 1.04418 9.76288C1.04241 6.67525 1.04241 3.58762 1.0433 0.500448ZM8.37517 11.5429V11.7232C10.0538 10.2193 12.0229 9.60496 14.1837 9.48447V0.770644C13.804 0.811721 13.4385 0.835911 13.0783 0.892962C11.6303 1.12254 10.2924 1.63052 9.14039 2.58808C8.37251 3.2266 8.37473 3.22934 8.37473 4.24394C8.37473 6.67708 8.37517 9.10975 8.37517 11.5429ZM1.81384 9.48401C3.96975 9.60633 5.93491 10.2166 7.62282 11.7277V11.4174C7.62282 8.80989 7.62149 6.20241 7.62593 3.59492C7.62593 3.4224 7.58024 3.29643 7.46401 3.17092C6.40868 2.02943 5.09473 1.37539 3.62374 1.03719C3.03641 0.90209 2.43399 0.838193 1.81384 0.737782V9.48401Z" fill="#556EE6"/>
<path d="M9.43386 12.8899C9.54388 13.0277 9.71644 13.0318 9.88323 12.8867C10.8352 12.0574 11.9655 11.6644 13.1757 11.4878C13.6574 11.4175 14.1471 11.3782 14.6329 11.3778C15.4709 11.3773 16.0147 10.6927 15.9996 9.94418C15.9704 8.53797 15.9912 7.1304 15.9912 5.72374H15.9916C15.9916 4.30155 15.9921 2.87937 15.9916 1.45719C15.9916 1.37367 15.9983 1.28832 15.9837 1.20708C15.9566 1.05281 15.8524 0.942816 15.7073 0.975678C15.6057 0.998498 15.5095 1.10302 15.4394 1.1943C15.4021 1.24314 15.4221 1.34126 15.4221 1.41703C15.4225 4.23081 15.4229 7.04459 15.4238 9.85792C15.4243 10.5165 15.1825 10.7707 14.5464 10.7812C13.2023 10.8045 11.8945 11.0195 10.6857 11.6544C10.2749 11.8702 9.89965 12.1619 9.5217 12.4385C9.33627 12.5745 9.32119 12.7484 9.43386 12.8899Z" fill="#556EE6"/>
<path d="M2.38419e-05 9.98977C-0.000420094 10.7771 0.528356 11.3398 1.30067 11.3585C2.44517 11.3868 3.56881 11.5251 4.63967 11.9756C5.17688 12.202 5.67194 12.4982 6.11599 12.8852C6.30319 13.0486 6.50813 13.0176 6.5973 12.8236C6.67537 12.6534 6.59552 12.5338 6.47397 12.427C5.91636 11.9382 5.28423 11.5836 4.59753 11.3284C3.57148 10.9469 2.5086 10.7931 1.4231 10.7748C0.812705 10.7648 0.578483 10.5206 0.578039 9.87247C0.575377 7.08197 0.577152 4.29101 0.576708 1.50005C0.576708 1.40146 0.577595 1.30151 0.562513 1.20475C0.537671 1.04865 0.439191 0.962392 0.285705 0.963761C0.120684 0.965587 0.0275269 1.06417 0.00667763 1.22939C-0.0030818 1.30424 0.000910282 1.38138 0.000910282 1.45714C0.000910282 2.87156 0.000909805 4.28644 0.000466347 5.70086V7.84509C0.000466347 8.55983 0.0004673 9.27503 2.38419e-05 9.98977Z" fill="#556EE6"/>
<path d="M2.63541 3.38C3.26887 3.52012 3.90944 3.63651 4.53004 3.82181C5.26421 4.04134 5.93183 4.41971 6.54134 4.8994C6.55288 4.90853 6.56441 4.91857 6.57639 4.92724C6.72677 5.04089 6.87671 5.05869 7.00934 4.90396C7.12069 4.77343 7.09496 4.59588 6.93171 4.47083C6.69527 4.28963 6.4544 4.11209 6.20154 3.95736C5.11826 3.2942 3.93472 2.94367 2.74986 2.79671C2.50987 2.77891 2.37901 2.85011 2.35549 3.04226C2.3311 3.24627 2.45043 3.33892 2.63541 3.38Z" fill="#556EE6"/>
<path d="M2.34988 5.1678C2.36009 5.349 2.48163 5.43024 2.66529 5.45443C3.72994 5.59546 4.73914 5.92408 5.68712 6.44119C5.99276 6.60778 6.28066 6.80906 6.57388 6.99984C6.76064 7.12125 6.91768 7.11257 7.02148 6.96241C7.12218 6.81499 7.08225 6.64795 6.90171 6.51513C5.80157 5.70545 4.57012 5.21755 3.25129 4.94735C3.0703 4.91038 2.88753 4.88072 2.70477 4.85972C2.50337 4.83645 2.3561 4.96059 2.34988 5.1678Z" fill="#556EE6"/>
<path d="M3.87469 7.7761C4.84307 8.0495 5.74669 8.46483 6.56869 9.06273C6.63257 9.10929 6.70887 9.13713 6.82154 9.19555C6.90184 9.11613 7.03625 9.04493 7.04556 8.95867C7.05754 8.84639 7.00431 8.67524 6.92047 8.61271C6.6166 8.38724 6.30563 8.15675 5.96583 8.00112C5.32793 7.70855 4.67095 7.45981 4.01664 7.20878C3.78596 7.12024 3.61828 7.21335 3.57481 7.4023C3.53489 7.57528 3.64046 7.71038 3.87469 7.7761Z" fill="#556EE6"/>
<path d="M8.92462 6.97015C9.05238 7.12578 9.19655 7.11894 9.35447 7.00438C10.4786 6.18603 11.7344 5.70634 13.0865 5.47722C13.1593 5.4649 13.2333 5.46216 13.3065 5.44983C13.4999 5.41743 13.6188 5.27731 13.5856 5.10981C13.5483 4.92359 13.4232 4.84965 13.2205 4.85878C11.706 5.07877 10.2794 5.59771 9.01112 6.53655C8.85054 6.65568 8.81683 6.83961 8.92462 6.97015Z" fill="#556EE6"/>
<path d="M8.92092 4.89578C9.02428 5.04046 9.19329 5.05279 9.36763 4.91723C10.5001 4.04092 11.7884 3.57949 13.1813 3.39555C13.2252 3.38962 13.2691 3.38186 13.3126 3.37502C13.4923 3.34717 13.5952 3.24357 13.5867 3.05324C13.5788 2.88118 13.4408 2.78487 13.176 2.7972C11.7028 2.98935 10.2739 3.46767 9.03093 4.44622C8.85526 4.58451 8.81889 4.75201 8.92092 4.89578Z" fill="#556EE6"/>
<path d="M8.91701 9.02898C9.00883 9.1796 9.17607 9.20424 9.34198 9.08284C10.5291 8.2152 11.8581 7.73095 13.2901 7.51232C13.3934 7.49635 13.5087 7.39685 13.5677 7.30283C13.6028 7.24669 13.5651 7.10155 13.5123 7.03857C13.4537 6.96965 13.3415 6.94865 13.2874 6.9231C11.6997 7.15495 10.2735 7.67252 9.00573 8.61182C8.86023 8.71953 8.81675 8.86422 8.91701 9.02898Z" fill="#556EE6"/>
</svg>
