<svg width="14" height="15" viewBox="0 0 14 15" fill="none" xmlns="http://www.w3.org/2000/svg">
<path d="M10.9978 6.59908V0.255433C10.9978 0.0984238 10.8783 0 10.6918 0H0.339498C0.153013 0 0 0.0984238 0 0.255433V12.3897C0 12.5467 0.153013 12.6967 0.339498 12.6967H4.61908C5.31481 12.0968 5.9962 11.4008 6.68237 10.7446C8.11925 9.35963 9.52984 7.94889 10.9978 6.59908ZM9.40791 2.11845C9.40791 2.33874 9.31228 2.51684 9.19513 2.51684H1.80268C1.68553 2.51684 1.5899 2.33874 1.5899 2.11845V2.07393C1.5899 1.85365 1.68553 1.67555 1.80268 1.67555H9.19513C9.31228 1.67555 9.40791 1.85365 9.40791 2.07393V2.11845ZM9.40791 4.03303C9.40791 4.25331 9.31228 4.43141 9.19513 4.43141H1.80268C1.68553 4.43141 1.5899 4.25331 1.5899 4.03303V3.99085C1.5899 3.77057 1.68553 3.59247 1.80268 3.59247H9.19513C9.31228 3.59247 9.40791 3.77057 9.40791 3.99085V4.03303ZM9.40791 5.94995C9.40791 6.17023 9.31228 6.34833 9.19513 6.34833H1.80268C1.68553 6.34833 1.5899 6.17023 1.5899 5.94995V5.90777C1.5899 5.68749 1.68553 5.50939 1.80268 5.50939H9.19513C9.31228 5.50939 9.40791 5.68749 9.40791 5.90777V5.94995Z" fill="#556EE6"/>
<path d="M13.1376 7.99568C13.403 7.69103 13.4628 7.29031 13.0826 6.84974C13.0826 6.84974 12.6045 6.37403 11.9422 6.70679L11.9374 6.70445L11.9255 6.71617C11.892 6.73257 11.8585 6.75132 11.8227 6.77241C11.8227 6.77241 11.782 6.78178 11.8012 6.79116C11.7725 6.7935 11.7988 6.79116 11.7701 6.7935L11.739 6.79819L10.2878 8.18315C10.2591 8.20658 10.2328 8.23236 10.2089 8.2558L6.33573 11.9186C6.21619 12.031 6.1875 12.0779 6.07991 12.2068L6.08708 12.2021L6.09186 12.1998L4.58325 14.9111L7.34705 13.5144C7.37813 13.5285 7.52636 13.423 7.68894 13.2684L11.5453 9.60795C11.5693 9.58452 11.5955 9.56108 11.6195 9.5353L13.1472 8.06598L13.1448 8.03083C13.14 8.02848 13.14 8.01677 13.1376 7.99568ZM11.5932 8.28392C11.3158 7.99568 10.8687 7.85741 10.7874 7.83632L11.7199 6.94582C11.8538 6.97629 12.2387 7.08408 12.5543 7.35358C12.8818 7.63713 12.9703 7.98865 12.9918 8.09176L11.9853 9.05959C11.9829 8.86274 11.8753 8.58153 11.5932 8.28392ZM11.5167 9.26112L7.68894 12.8817C7.66503 12.9051 7.59809 12.9731 7.57418 12.9965C7.37335 13.191 7.36378 13.341 7.34466 13.4465L5.85278 14.2081C5.83605 14.112 5.73324 13.6855 5.27898 13.7652L6.13251 12.2302C6.23531 12.2185 6.50548 12.1998 6.72065 12.0053C6.74456 11.9818 6.7087 12.0146 6.73261 11.9912L10.6775 8.25814C10.7325 8.20424 10.7635 8.17612 10.7922 8.14565C10.8496 8.16675 10.9142 8.19487 10.9811 8.22533C10.9572 8.24877 10.9357 8.26986 10.907 8.29563L6.8378 12.1084C6.76608 12.1763 6.64893 12.2935 6.57481 12.4083C6.40506 12.6778 6.41463 12.8512 6.58438 13.0247C6.76608 13.2074 7.00516 13.1582 7.29684 12.9731C7.35422 12.945 7.45703 12.8606 7.51202 12.8091L11.5932 8.9307C11.6242 8.90024 11.6529 8.87212 11.6792 8.84634C11.7175 8.9143 11.7462 8.97757 11.7653 9.03381C11.6673 9.12286 11.6099 9.17442 11.5167 9.26112Z" fill="#556EE6"/>
</svg>
