<svg width="19" height="13" viewBox="0 0 19 13" fill="none" xmlns="http://www.w3.org/2000/svg">
<path d="M9.52509 10.1313L4.10059 6.23634C3.97282 6.16084 3.86694 6.05333 3.79339 5.92443C3.71984 5.79553 3.68115 5.64969 3.68115 5.50128C3.68115 5.35287 3.71984 5.20702 3.79339 5.07812C3.86694 4.94922 3.97282 4.84172 4.10059 4.76621L9.52509 0.868838C9.6544 0.792781 9.80153 0.752291 9.95155 0.751477C10.1016 0.750664 10.2491 0.789556 10.3793 0.864207C10.5094 0.938858 10.6174 1.04661 10.6925 1.17652C10.7675 1.30643 10.8068 1.45388 10.8064 1.6039V3.12509C12.5877 3.12509 17.9314 3.12509 19.1189 12.6251C16.1502 7.28134 10.8064 7.87509 10.8064 7.87509V9.39628C10.8064 10.0613 10.0868 10.4627 9.52509 10.1325V10.1313Z" fill="#556EE6"/>
<path d="M6.21303 1.09797C6.25944 1.16078 6.29301 1.23213 6.3118 1.30793C6.33059 1.38373 6.33425 1.46249 6.32255 1.53971C6.31086 1.61692 6.28405 1.69107 6.24366 1.75791C6.20327 1.82475 6.15008 1.88296 6.08716 1.92922L1.32291 5.43472C1.30685 5.44663 1.29021 5.45773 1.27303 5.46797C1.24721 5.48349 1.22585 5.50542 1.21101 5.53164C1.19618 5.55786 1.18838 5.58747 1.18838 5.61759C1.18838 5.64772 1.19618 5.67733 1.21101 5.70355C1.22585 5.72977 1.24721 5.7517 1.27303 5.76722C1.2902 5.77746 1.30685 5.78856 1.32291 5.80047L6.08716 9.30834C6.1515 9.35397 6.2061 9.41196 6.24778 9.47892C6.28946 9.54588 6.31738 9.62048 6.32991 9.69835C6.34244 9.77623 6.33932 9.85581 6.32075 9.93247C6.30218 10.0091 6.26852 10.0813 6.22174 10.1448C6.17496 10.2083 6.116 10.2619 6.04829 10.3023C5.98059 10.3428 5.9055 10.3694 5.82741 10.3805C5.74933 10.3916 5.66981 10.3871 5.5935 10.3671C5.51719 10.3472 5.44562 10.3122 5.38297 10.2643L0.640096 6.77422C0.444016 6.65182 0.28231 6.48154 0.1702 6.27941C0.0580912 6.07727 -0.000732422 5.84993 -0.000732422 5.61878C-0.000732422 5.38764 0.0580912 5.16029 0.1702 4.95816C0.28231 4.75602 0.444016 4.58574 0.640096 4.46334L5.38297 0.972093C5.50975 0.878738 5.66841 0.839554 5.82407 0.863159C5.97972 0.886764 6.11964 0.971225 6.21303 1.09797Z" fill="#556EE6"/>
</svg>
