<svg width="15" height="15" viewBox="0 0 15 15" fill="none" xmlns="http://www.w3.org/2000/svg">
<g clip-path="url(#clip0_356_32406)">
<path d="M14.375 13.125V11.875C14.3746 11.3211 14.1902 10.783 13.8509 10.3452C13.5115 9.90741 13.0363 9.59473 12.5 9.45625" stroke="#495057" stroke-width="2" stroke-linecap="round" stroke-linejoin="round"/>
<path d="M10.625 13.125V11.875C10.625 11.212 10.3616 10.5761 9.89277 10.1072C9.42393 9.63839 8.78804 9.375 8.125 9.375H3.125C2.46196 9.375 1.82607 9.63839 1.35723 10.1072C0.888392 10.5761 0.625 11.212 0.625 11.875V13.125" stroke="#495057" stroke-width="2" stroke-linecap="round" stroke-linejoin="round"/>
<path d="M10 1.95625C10.5378 2.09394 11.0144 2.40669 11.3548 2.8452C11.6952 3.2837 11.8799 3.82302 11.8799 4.37813C11.8799 4.93323 11.6952 5.47255 11.3548 5.91106C11.0144 6.34956 10.5378 6.66231 10 6.8" stroke="#495057" stroke-width="2" stroke-linecap="round" stroke-linejoin="round"/>
<path d="M5.625 6.875C7.00571 6.875 8.125 5.75571 8.125 4.375C8.125 2.99429 7.00571 1.875 5.625 1.875C4.24429 1.875 3.125 2.99429 3.125 4.375C3.125 5.75571 4.24429 6.875 5.625 6.875Z" stroke="#495057" stroke-width="2" stroke-linecap="round" stroke-linejoin="round"/>
</g>
<defs>
<clipPath id="clip0_356_32406">
<rect width="15" height="15" fill="white"/>
</clipPath>
</defs>
</svg>
