<svg width="11" height="14" viewBox="0 0 11 14" fill="none" xmlns="http://www.w3.org/2000/svg">
<path d="M5 8.0625H3.3125C3.27935 8.0625 3.24755 8.07567 3.22411 8.09911C3.20067 8.12255 3.1875 8.15435 3.1875 8.1875V8.9375C3.1875 8.97065 3.20067 9.00245 3.22411 9.02589C3.24755 9.04933 3.27935 9.0625 3.3125 9.0625H5V10.75C5 10.7832 5.01317 10.8149 5.03661 10.8384C5.06005 10.8618 5.09185 10.875 5.125 10.875H5.875C5.90815 10.875 5.93995 10.8618 5.96339 10.8384C5.98683 10.8149 6 10.7832 6 10.75V9.0625H7.6875C7.72065 9.0625 7.75245 9.04933 7.77589 9.02589C7.79933 9.00245 7.8125 8.97065 7.8125 8.9375V8.1875C7.8125 8.15435 7.79933 8.12255 7.77589 8.09911C7.75245 8.07567 7.72065 8.0625 7.6875 8.0625H6V6.375C6 6.34185 5.98683 6.31005 5.96339 6.28661C5.93995 6.26317 5.90815 6.25 5.875 6.25H5.125C5.09185 6.25 5.06005 6.26317 5.03661 6.28661C5.01317 6.31005 5 6.34185 5 6.375V8.0625ZM10.8531 3.51094C10.9469 3.60469 11 3.73125 11 3.86406V13.5C11 13.7766 10.7766 14 10.5 14H0.5C0.223437 14 0 13.7766 0 13.5V0.5C0 0.223437 0.223437 0 0.5 0H7.13594C7.26875 0 7.39688 0.053125 7.49063 0.146875L10.8531 3.51094ZM9.84688 4.09375L6.90625 1.15313V4.09375H9.84688Z" fill="#50A5F1"/>
</svg>
