<svg width="18" height="18" viewBox="0 0 18 18" fill="none" xmlns="http://www.w3.org/2000/svg">
<path d="M17.1 14.67V3.33C17.64 3.06 18 2.43 18 1.8C18 0.81 17.19 0 16.2 0C15.57 0 14.94 0.36 14.67 0.9H3.33C3.06 0.36 2.43 0 1.8 0C0.81 0 0 0.81 0 1.8C0 2.43 0.36 3.06 0.9 3.33V14.67C0.36 14.94 0 15.57 0 16.2C0 17.19 0.81 18 1.8 18C2.43 18 3.06 17.64 3.33 17.1H14.67C14.94 17.64 15.57 18 16.2 18C17.19 18 18 17.19 18 16.2C18 15.57 17.64 14.94 17.1 14.67ZM15.3 14.67C15.03 14.85 14.85 15.03 14.67 15.3H3.33C3.15 15.03 2.97 14.85 2.7 14.67V3.33C2.97 3.15 3.15 2.97 3.33 2.7H14.67C14.85 2.97 15.03 3.15 15.3 3.33V14.67Z" fill="#50A5F1"/>
<path d="M8.55274 11.6521L7.12684 12.421C6.31882 12.8567 5.36774 12.572 4.93204 11.7639C4.49633 10.9559 4.78104 10.0048 5.58905 9.56914L7.01496 8.80025C7.30014 8.64647 7.38774 8.35384 7.23397 8.06865C7.08019 7.78347 6.78755 7.69587 6.50237 7.84965L5.07646 8.61854C3.74562 9.33617 3.2638 10.9457 3.98144 12.2765C4.69907 13.6074 6.30858 14.0892 7.63943 13.3716L9.06534 12.6027C9.35052 12.4489 9.43812 12.1563 9.28434 11.8711C9.13056 11.5859 8.83792 11.4983 8.55274 11.6521ZM9.82948 6.05557L8.40357 6.82446C8.11839 6.97824 8.03079 7.27088 8.18457 7.55606C8.33835 7.84124 8.63099 7.92884 8.91617 7.77507L10.3421 7.00617C11.1501 6.57047 12.1012 6.85518 12.5369 7.66319C12.9726 8.4712 12.6879 9.42228 11.8799 9.85799L10.4539 10.6269C10.1688 10.7807 10.0812 11.0733 10.2349 11.3585C10.3887 11.6437 10.6814 11.7313 10.9665 11.5775L12.3924 10.8086C13.7233 10.091 14.2051 8.48144 13.4875 7.1506C12.7698 5.81975 11.1603 5.33794 9.82948 6.05557ZM6.83325 10.7388C6.98703 11.0239 7.27966 11.1115 7.56485 10.9578L10.4167 9.41998C10.7018 9.2662 10.7894 8.97356 10.6357 8.68838C10.4819 8.4032 10.1892 8.31559 9.90406 8.46937L7.05225 10.0072C6.76707 10.1609 6.67947 10.4536 6.83325 10.7388Z" fill="#50A5F1"/>
</svg>
