<svg width="16" height="17" viewBox="0 0 16 17" fill="none" xmlns="http://www.w3.org/2000/svg">
<path d="M9.99972 8.49893V15.3899C10.0397 15.6522 9.93973 15.932 9.70976 16.1157C9.61726 16.1968 9.50739 16.2611 9.38643 16.305C9.26547 16.3488 9.13581 16.3714 9.00486 16.3714C8.87391 16.3714 8.74425 16.3488 8.62329 16.305C8.50233 16.2611 8.39246 16.1968 8.29996 16.1157L6.29024 14.358C6.18119 14.2647 6.09827 14.1507 6.04797 14.0248C5.99767 13.8989 5.98134 13.7645 6.00028 13.6322V8.49893H5.97028L0.211078 2.04524C0.0487091 1.86293 -0.0245552 1.63183 0.00729454 1.40243C0.0391443 1.17303 0.173519 0.963976 0.381055 0.820957C0.571029 0.698529 0.780999 0.628571 1.00097 0.628571H14.999C15.219 0.628571 15.429 0.698529 15.6189 0.820957C15.8265 0.963976 15.9609 1.17303 15.9927 1.40243C16.0246 1.63183 15.9513 1.86293 15.7889 2.04524L10.0297 8.49893H9.99972Z" fill="#556EE6"/>
</svg>
