<svg width="7" height="9" viewBox="0 0 7 9" fill="none" xmlns="http://www.w3.org/2000/svg">
<path d="M6.56671 5.33113C6.47762 4.17116 5.93755 3.44425 5.4611 2.8028C5.01992 2.20896 4.63889 1.69614 4.63889 0.939658C4.63889 0.878894 4.60486 0.823356 4.5509 0.795511C4.49678 0.767499 4.43174 0.772087 4.38254 0.807846C3.66699 1.31987 3.06995 2.18286 2.86139 3.00627C2.71661 3.57953 2.69745 4.22399 2.69476 4.64963C2.03396 4.50849 1.88426 3.52004 1.88268 3.50927C1.87524 3.458 1.84392 3.41339 1.79834 3.38902C1.7523 3.36497 1.69817 3.36323 1.65149 3.38633C1.61684 3.4031 0.80095 3.81766 0.753479 5.47289C0.750152 5.52796 0.75 5.58319 0.75 5.63841C0.75 7.24648 2.05847 8.55488 3.66667 8.55488C3.66888 8.55503 3.67125 8.55535 3.67315 8.55488C3.67379 8.55488 3.67441 8.55488 3.6752 8.55488C5.27945 8.55027 6.58333 7.24364 6.58333 5.63841C6.58333 5.55755 6.56671 5.33113 6.56671 5.33113ZM3.66667 8.23082C3.13055 8.23082 2.69444 7.76627 2.69444 7.19522C2.69444 7.17577 2.69429 7.15614 2.69571 7.13209C2.70219 6.89127 2.74793 6.72687 2.79809 6.61753C2.89209 6.81943 3.06014 7.00503 3.3331 7.00503C3.42267 7.00503 3.49515 6.93256 3.49515 6.84301C3.49515 6.61232 3.4999 6.34617 3.55734 6.10597C3.60845 5.89299 3.73061 5.66641 3.88537 5.48477C3.9542 5.72053 4.0884 5.91134 4.21942 6.09759C4.40694 6.36404 4.60077 6.63952 4.6348 7.1093C4.63685 7.13715 4.63892 7.16516 4.63892 7.19522C4.63889 7.76625 4.20279 8.23082 3.66667 8.23082Z" fill="white"/>
</svg>
