<svg width="19" height="19" viewBox="0 0 19 19" fill="none" xmlns="http://www.w3.org/2000/svg">
<path d="M5.85833 5.69999C5.9375 5.69999 6.01667 5.69999 6.01667 5.69999L7.52083 5.30416C7.91667 5.22499 8.23333 4.74999 8.075 4.35416C7.99583 3.95832 7.52083 3.64166 7.125 3.79999L5.62083 4.11666C5.30417 4.19582 4.9875 4.51249 4.9875 4.90832C5.06667 5.30416 5.38333 5.69999 5.85833 5.69999ZM7.52083 7.12499H5.9375C5.4625 7.12499 5.14583 7.44166 5.14583 7.91666C5.14583 8.39166 5.4625 8.70832 5.9375 8.70832H7.52083C7.99583 8.70832 8.3125 8.39166 8.3125 7.91666C8.3125 7.44166 7.99583 7.12499 7.52083 7.12499ZM10.45 4.51249C10.5292 4.51249 10.6083 4.51249 10.6083 4.51249L12.1125 4.11666C12.5875 3.95832 12.9042 3.56249 12.7458 3.16666C12.6667 2.77082 12.1917 2.45415 11.7958 2.61249L10.2917 2.92916C9.975 3.00832 9.65833 3.32499 9.65833 3.72082C9.65833 4.11666 10.0542 4.51249 10.45 4.51249ZM10.6875 7.12499C10.2125 7.12499 9.89583 7.44166 9.89583 7.91666C9.89583 8.39166 10.2125 8.70832 10.6875 8.70832H12.2708C12.7458 8.70832 13.0625 8.39166 13.0625 7.91666C13.0625 7.44166 12.7458 7.12499 12.2708 7.12499H10.6875ZM16.625 2.21665C16.5458 1.82082 16.0708 1.50415 15.675 1.66249L14.8833 1.82082C14.5667 1.89999 14.25 2.21665 14.25 2.61249C14.25 3.08749 14.5667 3.40416 15.0417 3.40416C15.1208 3.72082 15.4375 3.95832 15.8333 3.95832C16.3083 3.95832 16.625 3.64166 16.625 3.16666V2.37499C16.625 2.29582 16.625 2.21665 16.625 2.21665ZM3.16667 8.31249C3.64167 8.31249 3.95833 7.99582 3.95833 7.52082V5.93749C3.95833 5.46249 3.64167 5.14582 3.16667 5.14582C2.69167 5.14582 2.375 5.54166 2.375 5.93749V7.52082C2.375 7.99582 2.69167 8.31249 3.16667 8.31249ZM15.8333 5.54166C15.3583 5.54166 15.0417 5.85832 15.0417 6.33332V7.20416C14.8042 7.36249 14.6458 7.59999 14.6458 7.91666C14.6458 8.39166 14.9625 8.70832 15.4375 8.70832H15.8333C16.3083 8.70832 16.625 8.39166 16.625 7.91666V6.33332C16.625 5.85832 16.3083 5.54166 15.8333 5.54166ZM15.8333 10.2917H3.16667C2.69167 10.2917 2.375 10.6083 2.375 11.0833V13.4583C2.375 13.8542 2.6125 14.1708 3.00833 14.25L15.675 17.4167C15.7542 17.4167 15.8333 17.4167 15.8333 17.4167C16.3083 17.4167 16.625 17.1 16.625 16.625V11.0833C16.625 10.6083 16.3083 10.2917 15.8333 10.2917Z" fill="#50A5F1"/>
</svg>
