<svg width="18" height="15" viewBox="0 0 18 15" fill="none" xmlns="http://www.w3.org/2000/svg">
<path d="M16.585 1.72023C16.5856 5.71864 16.5856 9.71647 16.5856 13.7143C16.5856 13.732 16.586 13.7498 16.5864 13.7677C16.5875 13.8178 16.5886 13.8682 16.5809 13.9171M16.585 1.72023L16.5217 13.9076L16.5809 13.9171M16.585 1.72023C16.585 1.66936 16.5819 1.6185 16.5779 1.5536C16.577 1.53831 16.576 1.52225 16.575 1.50523C16.555 1.50896 16.5352 1.51291 16.5156 1.51709M16.585 1.72023L16.5217 13.9076M16.5809 13.9171C16.5461 14.1338 16.4278 14.2796 16.1974 14.2732M16.5809 13.9171L16.5217 13.9077C16.5217 13.9077 16.5217 13.9076 16.5217 13.9076M16.1974 14.2732L16.1991 14.2133C16.3002 14.2161 16.3706 14.1859 16.4201 14.1364C16.471 14.0855 16.5055 14.0083 16.5217 13.9076M16.1974 14.2732L16.1992 14.2133C16.1064 14.2105 16.0398 14.1794 15.9928 14.1308C15.9448 14.0812 15.9124 14.0081 15.8988 13.9138L15.8988 13.9137C15.8911 13.8601 15.8918 13.8064 15.8926 13.7475C15.8928 13.7291 15.8931 13.7101 15.8931 13.6905L15.8931 13.6905C15.8925 12.0643 15.8925 10.4381 15.8925 8.81186C15.8925 8.79507 15.8937 8.77696 15.8952 8.75667C15.8955 8.75382 15.8957 8.75093 15.8959 8.74799C15.8973 8.73069 15.8987 8.71187 15.8994 8.69348C15.9009 8.65172 15.8991 8.60008 15.875 8.55475L15.822 8.58295M16.1974 14.2732L15.822 8.58295M16.1974 14.2732C15.9845 14.2668 15.869 14.128 15.8394 13.9223L16.1974 14.2732ZM16.5217 13.9076C16.5285 13.8645 16.5275 13.8219 16.5265 13.7739C16.526 13.755 16.5256 13.7353 16.5256 13.7143C16.5256 9.71647 16.5256 5.71864 16.525 1.72023V1.72023C16.525 1.6712 16.5221 1.62311 16.5182 1.55961C16.5174 1.54618 16.5165 1.53206 16.5156 1.51709M15.822 8.58295C15.7915 8.52506 15.7398 8.47833 15.6881 8.43151C15.6717 8.41669 15.6553 8.40185 15.6395 8.38665L15.6236 8.37089L15.6084 8.38583C15.5923 8.40125 15.5754 8.41627 15.5586 8.4313C15.5073 8.47702 15.4561 8.52273 15.4258 8.57947C15.4025 8.62318 15.4069 8.68211 15.4113 8.74043C15.413 8.7635 15.4147 8.78648 15.4147 8.80838M15.822 8.58295L15.8751 8.55496C15.8487 8.50499 15.8106 8.46403 15.7736 8.42872C15.7565 8.41236 15.7408 8.39826 15.7259 8.38479C15.7054 8.36636 15.6863 8.34911 15.6664 8.32885L15.6238 8.28543L15.581 8.32867C15.5611 8.3487 15.5418 8.36587 15.5211 8.38429C15.5065 8.39731 15.4912 8.41095 15.4744 8.42667C15.4376 8.46134 15.3993 8.50172 15.3728 8.55116L15.3728 8.55126C15.3487 8.59646 15.3467 8.64797 15.3481 8.68978C15.3487 8.70846 15.3501 8.72754 15.3515 8.74507C15.3517 8.74776 15.3519 8.75041 15.352 8.75302C15.3536 8.77334 15.3547 8.79149 15.3547 8.80835L15.4147 8.80838M15.822 8.58295C15.8452 8.62646 15.8406 8.68503 15.8361 8.74309C15.8343 8.76644 15.8325 8.7897 15.8325 8.81186C15.8325 10.4381 15.8325 12.0643 15.8331 13.6905L15.822 8.58295ZM15.4147 8.80838V8.80852C15.4141 10.1541 15.4136 11.4996 15.4147 12.8451M15.4147 8.80838H15.3547M15.4147 12.8451L15.3547 8.80838M15.4147 12.8451C15.4147 12.9332 15.4142 13.0213 15.4136 13.1094C15.4118 13.3894 15.41 13.6696 15.4263 13.9485M15.4147 12.8451L15.4263 13.9485M15.4147 12.8451L15.3547 12.8452M15.4147 12.8451H15.3547C15.3547 12.8452 15.3547 12.8452 15.3547 12.8452M15.3547 8.80838V8.80844C15.3541 10.154 15.3536 11.4996 15.3547 12.8452M15.3547 8.80838L16.2328 14.691L16.2344 14.7509C15.7715 14.7628 15.3945 14.4299 15.3664 13.952L15.4263 13.9485M15.3547 12.8452C15.3547 12.9323 15.3542 13.0199 15.3536 13.1076C15.3518 13.3881 15.35 13.671 15.3664 13.952L15.4263 13.9485M16.5156 1.51709C16.5145 1.49832 16.5133 1.47822 16.5122 1.45649L14.9728 3.75267C14.9859 3.33128 15.1025 2.88746 15.2752 2.49749C15.5026 1.98471 15.9163 1.64492 16.5156 1.51709ZM17.0575 13.7852C17.0584 10.824 17.0583 7.86279 17.0582 4.9016C17.0582 3.91318 17.0581 2.92477 17.0581 1.93636C17.0581 1.89112 17.0586 1.84532 17.059 1.79918C17.0601 1.6899 17.0613 1.57875 17.0563 1.46886L17.0563 1.46869C17.0483 1.30032 16.9938 1.16174 16.8898 1.07274C16.7853 0.983253 16.6413 0.952859 16.4735 0.979458L16.4735 0.979465C16.2909 1.00855 16.101 1.05935 15.933 1.14438L15.933 1.1444C14.8612 1.68785 14.4353 2.62424 14.4194 3.76275C14.4067 4.6781 14.4097 5.59372 14.4127 6.50873C14.414 6.88129 14.4152 7.25375 14.4154 7.62605L17.0575 13.7852ZM16.4829 1.03872C16.7945 0.989333 16.9813 1.15608 16.9964 1.47156L16.4829 1.03872ZM14.9611 7.66774C14.9595 7.64755 14.9583 7.62948 14.9583 7.61272L14.4154 7.62608C14.4154 7.6431 14.4142 7.66143 14.4129 7.68195L14.4125 7.68742C14.4112 7.70583 14.4099 7.72594 14.4094 7.74567C14.4085 7.78753 14.4112 7.8394 14.4365 7.88401L14.4366 7.88416C14.4617 7.9281 14.4994 7.98028 14.5407 8.02183C14.5613 8.0426 14.5845 8.06229 14.6089 8.07681C14.6326 8.09088 14.6631 8.10338 14.6965 8.10136C14.7289 8.09946 14.7578 8.08566 14.7811 8.06987C14.8048 8.05377 14.8268 8.03292 14.8462 8.01108C14.8851 7.96742 14.9192 7.91404 14.9424 7.86915L14.9425 7.86881C14.9656 7.82347 14.9671 7.77224 14.9654 7.73063C14.9647 7.71271 14.9632 7.69435 14.9619 7.67743C14.9616 7.67414 14.9614 7.67091 14.9611 7.66774Z" fill="#556EE6" stroke="#556EE6" stroke-width="0.12"/>
<path d="M8.96489 12.5304H8.96491C11.5453 12.5381 13.6377 10.4497 13.6406 7.86317C13.6436 5.28962 11.566 3.19415 9.00239 3.18709C6.42324 3.18003 4.32264 5.27527 4.32205 7.85438C4.32146 10.4244 6.40425 12.5222 8.96489 12.5304ZM9.04569 3.72714L9.0457 3.72714C11.3355 3.77296 13.1567 5.65627 13.1104 7.9281C13.063 10.2283 11.1727 12.0431 8.87768 11.9909C6.58497 11.9389 4.81234 10.0405 4.86558 7.68784C4.9153 5.49341 6.8252 3.68247 9.04569 3.72714Z" fill="#556EE6" stroke="#556EE6" stroke-width="0.12"/>
<path d="M1.23744 6.21461L1.23742 6.2146C0.79027 5.88029 0.582087 5.41486 0.582087 4.86047C0.582087 3.69907 0.582087 2.53765 0.582667 1.37565L1.23744 6.21461ZM1.23744 6.21461C1.307 6.26659 1.3465 6.31799 1.36959 6.37358C1.39312 6.43025 1.40161 6.49607 1.40134 6.58054C1.39699 7.48096 1.39753 8.38144 1.39807 9.28172C1.39824 9.56177 1.39841 9.8418 1.39843 10.1218H1.39728M1.23744 6.21461L1.39728 10.1218M1.9476 13.9567L1.94763 13.9568C1.96747 14.0499 2.00766 14.1167 2.06114 14.1586C2.11421 14.2002 2.18633 14.2219 2.27955 14.214C2.36576 14.2065 2.43077 14.1773 2.47575 14.1323C2.52067 14.0874 2.55089 14.0215 2.55786 13.9305L2.55787 13.9304C2.56472 13.8428 2.56469 13.7545 2.56465 13.6639C2.56465 13.6577 2.56465 13.6514 2.56465 13.6451V13.6451C2.56504 12.2836 2.56491 10.9219 2.56478 9.56025C2.56471 8.87945 2.56465 8.19866 2.56465 7.51794C2.56465 7.5041 2.56343 7.48879 2.56167 7.47116C2.56127 7.46713 2.56083 7.46291 2.56038 7.45856C2.55897 7.44491 2.55742 7.42997 2.55645 7.41569C2.55399 7.37955 2.55346 7.33088 2.57671 7.28859L2.57684 7.28836C2.60812 7.23205 2.64655 7.1812 2.68528 7.13373C2.70247 7.11267 2.7189 7.09322 2.73496 7.07419C2.75689 7.04822 2.77815 7.02304 2.79977 6.99564L2.84883 6.93346L2.8954 6.99753C2.91007 7.01772 2.92818 7.03852 2.9486 7.0611C2.95337 7.06638 2.95832 7.0718 2.96336 7.07733C2.97912 7.09462 2.99583 7.11294 3.01113 7.13106C3.04984 7.17686 3.09367 7.23675 3.0971 7.30635C3.11337 7.62078 3.11141 7.9371 3.10946 8.2512C3.10883 8.35353 3.1082 8.45562 3.1082 8.55734C3.1082 8.94452 3.10826 9.3317 3.10831 9.71889C3.10851 11.0741 3.10871 12.4294 3.10646 13.7847C3.10615 14.0332 3.05072 14.2433 2.94149 14.4051C2.8317 14.5677 2.67044 14.6772 2.46752 14.7282M1.9476 13.9567L2.46752 14.7282M1.9476 13.9567C1.93138 13.8814 1.93232 13.8029 1.93334 13.7172C1.9336 13.6958 1.93386 13.6739 1.93386 13.6515C1.93351 12.1996 1.93379 10.7477 1.93407 9.29582C1.93426 8.32788 1.93444 7.35994 1.93444 6.39197C1.93444 6.38126 1.93452 6.37031 1.93459 6.35919C1.9351 6.28541 1.93566 6.20364 1.91476 6.12865C1.88908 6.03649 1.8321 5.95522 1.71786 5.89355C1.28937 5.66164 1.11233 5.28044 1.11345 4.79207M1.9476 13.9567L0.870407 0.977016C0.900652 0.975408 0.928335 0.986866 0.94912 0.998834C0.97099 1.01143 0.991839 1.02842 1.01025 1.0466C1.04624 1.08214 1.08029 1.12964 1.09609 1.17435C1.11492 1.22742 1.11854 1.28342 1.11831 1.33474C1.1182 1.35982 1.11714 1.38504 1.11613 1.40886L1.11604 1.41105C1.11499 1.43594 1.11403 1.45931 1.11403 1.48194C1.11415 1.70258 1.11431 1.92323 1.11447 2.14388C1.11512 3.02654 1.11577 3.90931 1.11345 4.79207M2.46752 14.7282C1.89715 14.8717 1.39968 14.4551 1.39844 13.8411L2.46752 14.7282ZM1.39728 10.1218V10.1818M1.39728 10.1218V10.1818M1.39728 10.1818C1.39728 10.5145 1.39715 10.8473 1.39702 11.1799M1.39728 10.1818L1.39702 11.1799M0.61038 1.14071C0.57936 1.1804 0.576865 1.23241 0.577379 1.26851M0.61038 1.14071C0.610331 1.14077 0.610282 1.14084 0.610233 1.1409L0.577379 1.26851M0.61038 1.14071C0.639437 1.10306 0.678615 1.06465 0.721898 1.03462C0.764346 1.00517 0.816391 0.979887 0.870397 0.977017L0.61038 1.14071ZM0.577379 1.26851C0.577645 1.28726 0.578971 1.30649 0.580153 1.32363M0.577379 1.26851L0.580153 1.32363M0.580153 1.32363C0.58022 1.3246 0.580286 1.32556 0.580351 1.32651M0.580153 1.32363L0.580351 1.32651M0.580351 1.32651C0.581632 1.34513 0.582665 1.36117 0.582667 1.37562L0.580351 1.32651ZM1.11345 4.79207L1.05345 4.79191L1.11345 4.79207ZM1.39702 11.1799C1.39667 12.0671 1.39633 12.9541 1.39844 13.841L1.39702 11.1799Z" fill="#556EE6" stroke="#556EE6" stroke-width="0.12"/>
<path d="M14.987 10.1005L15.0123 10.305C15.0804 10.8533 15.0113 11.3095 14.6946 11.7654C12.077 15.5363 6.66658 15.8114 3.69755 12.3197L14.987 10.1005ZM14.987 10.1005L14.8986 10.2866M14.987 10.1005L14.8986 10.2866M14.8986 10.2866C13.7988 12.6035 12.0428 13.995 9.50556 14.2039C6.97507 14.4123 5.01149 13.3371 3.55352 11.2334L3.46602 11.1071M14.8986 10.2866L3.46602 11.1071M3.46602 11.1071L3.44478 11.2592M3.46602 11.1071L3.44478 11.2592M3.44478 11.2592C3.41587 11.4663 3.41041 11.6517 3.44708 11.8258M3.44478 11.2592L3.44708 11.8258M3.44708 11.8258C3.48398 12.0009 3.56279 12.1613 3.69754 12.3197L3.44708 11.8258Z" fill="#556EE6" stroke="#556EE6" stroke-width="0.12"/>
<path d="M13.9964 3.90082L14.1169 4.04095L14.1017 3.85676C14.0955 3.78185 14.0976 3.71162 14.1013 3.64308C14.102 3.62927 14.1028 3.6154 14.1036 3.6015C14.1067 3.54776 14.1099 3.49373 14.1089 3.44187C14.1065 3.30639 14.0764 3.17605 13.9514 3.04771L13.9514 3.04764C11.4068 0.442199 7.35654 0.226514 4.54982 2.5448L4.54979 2.54483C4.40874 2.66152 4.31445 2.78442 4.26845 2.92919C4.22258 3.07358 4.22702 3.23262 4.27026 3.41754L4.29469 3.52205L4.37092 3.44649C5.73576 2.09363 7.34682 1.41249 9.24811 1.49018C11.1557 1.56844 12.6998 2.39307 13.9964 3.90082Z" fill="#556EE6" stroke="#556EE6" stroke-width="0.12"/>
<path d="M3.38097 3.15063V3.15058C3.38119 2.92609 3.38116 2.70144 3.38114 2.47673C3.38109 2.1021 3.38105 1.7273 3.38213 1.35286L3.38213 1.35281C3.38242 1.27528 3.38459 1.17358 3.42092 1.09639C3.44014 1.05554 3.4703 1.01828 3.51675 0.995873C3.56265 0.973736 3.61725 0.969587 3.67915 0.980842L3.67931 0.980872C3.71757 0.987937 3.75018 1.01276 3.77482 1.03748C3.80077 1.06353 3.82469 1.09638 3.84498 1.13093C3.88452 1.19829 3.91682 1.28366 3.91756 1.35356M3.38097 3.15063L3.91756 1.35356M3.38097 3.15063C3.38097 3.3217 3.38082 3.49277 3.38066 3.66385C3.3803 4.0631 3.37993 4.46241 3.38155 4.86191C3.38321 5.31678 3.19816 5.65825 2.80348 5.8863L2.80335 5.88638L3.38097 3.15063ZM3.91756 1.35356L3.85756 1.35419L3.91756 1.35351C3.91756 1.35353 3.91756 1.35355 3.91756 1.35356ZM3.92278 4.89183C3.92278 4.89182 3.92278 4.89181 3.92278 4.89181L3.86278 4.8913L3.92278 4.89183ZM3.04353 6.30022L3.07426 6.35175L2.66756 6.27233L2.61561 6.30234C2.64524 6.35364 2.68072 6.39132 2.7226 6.4147C2.76493 6.43833 2.80929 6.44482 2.85194 6.44103C2.93296 6.43383 3.01256 6.38859 3.07429 6.35173L3.04353 6.30022Z" fill="#556EE6" stroke="#556EE6" stroke-width="0.12"/>
<path d="M1.51391 2.88579V2.82579C1.51391 2.6611 1.51398 2.4965 1.51404 2.33194C1.51417 2.00293 1.5143 1.67406 1.51391 1.3449L1.51391 1.34483L1.51391 1.34443C1.51391 1.27179 1.51391 1.18004 1.54566 1.10651C1.56249 1.06754 1.58883 1.03176 1.62931 1.00598C1.66938 0.98045 1.71872 0.967633 1.77693 0.966454L1.77695 0.966454C1.83575 0.965279 1.88602 0.976087 1.92728 1.00015C1.96906 1.02451 1.99672 1.05961 2.0146 1.09843C2.0484 1.17176 2.04934 1.26435 2.04934 1.33786C2.04934 2.33487 2.04876 3.33187 2.04818 4.32886C2.04818 4.3332 2.04819 4.33763 2.0482 4.34213C2.04833 4.41029 2.04849 4.49619 2.02033 4.56539C2.0043 4.60478 1.97841 4.64128 1.93741 4.66737C1.89694 4.69312 1.84676 4.70555 1.78736 4.70605L1.7872 4.70605C1.72947 4.70638 1.67998 4.69539 1.63917 4.67186C1.59784 4.64803 1.56983 4.61389 1.55135 4.57561C1.51633 4.50303 1.51421 4.41145 1.51449 4.33559L1.51391 2.88579ZM1.51391 2.88579H1.51508M1.51391 2.88579H1.51508M1.51508 2.88579C1.5151 3.00961 1.51518 3.13344 1.51526 3.25727C1.5155 3.6168 1.51574 3.9763 1.51449 4.33557L1.51508 2.88579ZM1.57392 2.76579C1.57393 2.62117 1.57399 2.47659 1.57404 2.33203C1.57417 2.00299 1.5743 1.67404 1.57391 1.34483L1.57392 2.76579Z" fill="#556EE6" stroke="#556EE6" stroke-width="0.12"/>
<path d="M2.7102 4.70602L2.71013 4.70602C2.65239 4.704 2.60346 4.69081 2.56367 4.66543C2.52346 4.63979 2.49694 4.60448 2.47981 4.56574C2.44738 4.49239 2.44684 4.40103 2.44684 4.32709V4.32702C2.4475 3.76262 2.4474 3.19852 2.44731 2.63435C2.44724 2.21119 2.44717 1.78799 2.44742 1.36459C2.44742 1.36458 2.44742 1.36457 2.44742 1.36455M2.7102 4.70602L2.72325 1.02877C2.50698 1.02426 2.50721 1.19602 2.5074 1.35063C2.50741 1.3553 2.50742 1.35996 2.50742 1.36459L2.44742 1.36455M2.7102 4.70602C2.76938 4.70802 2.82009 4.69807 2.86186 4.67481C2.90424 4.65121 2.93256 4.6166 2.95097 4.57796C2.98569 4.50509 2.9869 4.41266 2.9869 4.33936M2.7102 4.70602L2.9869 4.33936M2.44742 1.36455C2.44742 1.35914 2.4474 1.35359 2.44739 1.34792C2.44719 1.27617 2.44695 1.18566 2.47613 1.11325C2.49294 1.07156 2.52031 1.03296 2.56404 1.00599C2.6072 0.979375 2.66083 0.96746 2.72449 0.968786L2.44742 1.36455ZM2.9869 4.33936C2.98777 3.96193 2.98766 3.58415 2.98756 3.20662C2.98752 3.08081 2.98748 2.95502 2.98748 2.82928C2.98748 2.7004 2.98765 2.57146 2.98781 2.44246C2.98827 2.08743 2.98872 1.73198 2.98574 1.37633L2.9869 4.33936ZM2.88476 1.01492C2.84283 0.985052 2.78928 0.970123 2.7245 0.968787L2.98585 1.33682C2.98603 1.31095 2.98624 1.28284 2.98531 1.25695C2.98384 1.21554 2.97945 1.17058 2.96568 1.12886C2.9516 1.08619 2.92707 1.04506 2.88476 1.01492Z" fill="#556EE6" stroke="#556EE6" stroke-width="0.12"/>
</svg>
