<svg width="17" height="16" viewBox="0 0 17 16" fill="none" xmlns="http://www.w3.org/2000/svg">
<path d="M16.2007 2.93103H12.0172V0H10.8448V2.93103H6.15517V4.10345H6.81172L7.03719 5.86207H2.93103C2.15395 5.86295 1.40894 6.17204 0.859455 6.72152C0.30997 7.27101 0.000882433 8.01602 0 8.7931V9.37931H10.2586V8.7931C10.2591 8.35081 10.1589 7.91421 9.96552 7.51642C9.79336 7.16196 9.5517 6.84573 9.25491 6.58652C8.95812 6.3273 8.61225 6.13039 8.23786 6.00748L7.99377 4.10345H14.8683L13.553 14.3621H0V15.5345H14.5848L16.0503 4.10345H17V2.93103H16.2007ZM8.98575 8.2069H1.27287C1.39449 7.86425 1.61914 7.56763 1.91602 7.35772C2.21289 7.14781 2.56745 7.0349 2.93103 7.03448H7.32759C7.69117 7.0349 8.04573 7.14781 8.3426 7.35772C8.63948 7.56763 8.86413 7.86425 8.98575 8.2069Z" fill="#50A5F1"/>
<path d="M9.96552 11.4308H10.2586V10.2584H0V11.4308H9.96552ZM9.96552 13.4826H10.2586V12.3101H0V13.4826H9.96552Z" fill="#50A5F1"/>
</svg>
