<svg width="16" height="21" viewBox="0 0 16 21" fill="none" xmlns="http://www.w3.org/2000/svg">
<path d="M11.636 0.363636C11.636 0.257576 11.6701 0.170455 11.7382 0.102273C11.8064 0.0340909 11.8936 0 11.9996 0H15.2727C15.4696 0 15.6401 0.0719697 15.7841 0.215909C15.928 0.359848 16 0.530303 16 0.727273V4C16 4.10606 15.9659 4.19318 15.8977 4.26136C15.8295 4.32955 15.7424 4.36364 15.6363 4.36364H14.909C14.8029 4.36364 14.7158 4.32955 14.6476 4.26136C14.5794 4.19318 14.5453 4.10606 14.5453 4V2.47727L11.6587 5.375C12.6133 6.57197 13.0906 7.93182 13.0906 9.45455C13.0906 11.1288 12.5319 12.5852 11.4143 13.8239C10.2968 15.0625 8.91601 15.7727 7.27192 15.9545V17.4545H8.36293C8.469 17.4545 8.55613 17.4886 8.62432 17.5568C8.69251 17.625 8.7266 17.7121 8.7266 17.8182V18.5455C8.7266 18.6515 8.69251 18.7386 8.62432 18.8068C8.55613 18.875 8.469 18.9091 8.36293 18.9091H7.27192V20C7.27192 20.1061 7.23783 20.1932 7.16964 20.2614C7.10145 20.3295 7.01432 20.3636 6.90825 20.3636H6.18091C6.07484 20.3636 5.98771 20.3295 5.91952 20.2614C5.85134 20.1932 5.81724 20.1061 5.81724 20V18.9091H4.72623C4.62016 18.9091 4.53303 18.875 4.46484 18.8068C4.39666 18.7386 4.36256 18.6515 4.36256 18.5455V17.8182C4.36256 17.7121 4.39666 17.625 4.46484 17.5568C4.53303 17.4886 4.62016 17.4545 4.72623 17.4545H5.81724V15.9545C4.68835 15.8333 3.66363 15.4432 2.7431 14.7841C1.82256 14.125 1.11605 13.2784 0.623582 12.2443C0.131112 11.2102 -0.069664 10.1061 0.0212534 8.93182C0.142477 7.38636 0.748593 6.04735 1.8396 4.91477C2.93061 3.7822 4.24513 3.12879 5.78315 2.95455C6.67717 2.84848 7.54089 2.92045 8.3743 3.17045C9.20771 3.42045 9.95778 3.81061 10.6245 4.34091L13.5225 1.45455H11.9996C11.8936 1.45455 11.8064 1.42045 11.7382 1.35227C11.6701 1.28409 11.636 1.19697 11.636 1.09091V0.363636ZM6.54458 14.5455C7.94623 14.5455 9.1452 14.0473 10.1415 13.0511C11.1378 12.0549 11.636 10.8561 11.636 9.45455C11.636 8.05303 11.1378 6.85417 10.1415 5.85795C9.1452 4.86174 7.94623 4.36364 6.54458 4.36364C5.14294 4.36364 3.94396 4.86174 2.94766 5.85795C1.95136 6.85417 1.4532 8.05303 1.4532 9.45455C1.4532 10.8561 1.95136 12.0549 2.94766 13.0511C3.94396 14.0473 5.14294 14.5455 6.54458 14.5455Z" fill="#50A5F1"/>
</svg>
