<svg width="20" height="22" viewBox="0 0 20 22" fill="none" xmlns="http://www.w3.org/2000/svg">
<path d="M8 0.502965C7.20435 0.502965 6.44129 0.819035 5.87868 1.38164C5.31607 1.94425 5 2.70732 5 3.50296V6.81047C5.49032 6.67167 5.99248 6.57877 6.5 6.53297V3.50296C6.5 3.10514 6.65804 2.72361 6.93934 2.4423C7.22064 2.161 7.60218 2.00297 8 2.00297H12.5V5.75296C12.5 6.3497 12.7371 6.922 13.159 7.34396C13.581 7.76591 14.1533 8.00297 14.75 8.00297H18.5V18.497C18.5 18.8948 18.342 19.2763 18.0607 19.5576C17.7794 19.8389 17.3978 19.997 17 19.997H13.616C13.1465 20.567 12.6035 21.071 11.999 21.497H17C17.7956 21.497 18.5587 21.1809 19.1213 20.6183C19.6839 20.0557 20 19.2926 20 18.497V7.12697C19.9995 6.53043 19.7621 5.95852 19.34 5.53696L14.963 1.16146C14.5414 0.739387 13.9695 0.50199 13.373 0.501465H8V0.502965ZM14 5.75296V2.31796L18.1865 6.50297H14.75C14.5511 6.50297 14.3603 6.42395 14.2197 6.2833C14.079 6.14264 14 5.95188 14 5.75296ZM14 14.75C14 12.9598 13.2888 11.2429 12.023 9.97699C10.7571 8.71112 9.04021 7.99997 7.25 7.99997C5.45979 7.99997 3.7429 8.71112 2.47703 9.97699C1.21116 11.2429 0.5 12.9598 0.5 14.75C0.5 16.5402 1.21116 18.2571 2.47703 19.5229C3.7429 20.7888 5.45979 21.5 7.25 21.5C9.04021 21.5 10.7571 20.7888 12.023 19.5229C13.2888 18.2571 14 16.5402 14 14.75ZM7.25 17.57C7.49864 17.57 7.7371 17.6687 7.91291 17.8446C8.08873 18.0204 8.1875 18.2588 8.1875 18.5075C8.1875 18.7561 8.08873 18.9946 7.91291 19.1704C7.7371 19.3462 7.49864 19.445 7.25 19.445C7.00136 19.445 6.7629 19.3462 6.58709 19.1704C6.41127 18.9946 6.3125 18.7561 6.3125 18.5075C6.3125 18.2588 6.41127 18.0204 6.58709 17.8446C6.7629 17.6687 7.00136 17.57 7.25 17.57ZM7.25 10.2545C8.7965 10.2545 10.0295 11.5235 10.0295 13.1795C10.0295 14.0585 9.7085 14.5415 8.939 15.158L8.5235 15.479C8.1545 15.77 8.03 15.929 8.0045 16.151L7.988 16.385C7.95461 16.5694 7.85338 16.7346 7.70425 16.8481C7.55511 16.9616 7.36889 17.0152 7.18223 16.9983C6.99558 16.9813 6.82203 16.8951 6.69576 16.7566C6.56949 16.6181 6.49965 16.4374 6.5 16.25C6.5 15.395 6.815 14.924 7.574 14.318L7.991 13.9955C8.423 13.6505 8.531 13.4825 8.531 13.1795C8.531 12.3425 7.958 11.7545 7.25 11.7545C6.509 11.7545 5.9615 12.3035 5.9705 13.172C5.97249 13.3709 5.89538 13.5624 5.75613 13.7045C5.61689 13.8466 5.42691 13.9275 5.228 13.9295C5.02909 13.9315 4.83753 13.8543 4.69547 13.7151C4.55341 13.5759 4.47249 13.3859 4.4705 13.187C4.454 11.48 5.678 10.2545 7.25 10.2545Z" fill="#495057"/>
</svg>
