<svg width="21" height="19" viewBox="0 0 21 19" fill="none" xmlns="http://www.w3.org/2000/svg">
<path d="M12.6251 8.4296H11.574V7.3529C11.574 7.06734 11.4633 6.79347 11.2662 6.59155C11.0691 6.38963 10.8017 6.27619 10.523 6.27619C10.2442 6.27619 9.97689 6.38963 9.77978 6.59155C9.58267 6.79347 9.47194 7.06734 9.47194 7.3529V8.4296H8.4209C8.14215 8.4296 7.87481 8.54304 7.67771 8.74496C7.4806 8.94688 7.36987 9.22075 7.36987 9.5063C7.36987 9.79186 7.4806 10.0657 7.67771 10.2676C7.87481 10.4696 8.14215 10.583 8.4209 10.583H9.47194V11.6597C9.47194 11.9453 9.58267 12.2191 9.77978 12.4211C9.97689 12.623 10.2442 12.7364 10.523 12.7364C10.8017 12.7364 11.0691 12.623 11.2662 12.4211C11.4633 12.2191 11.574 11.9453 11.574 11.6597V10.583H12.6251C12.9038 10.583 13.1711 10.4696 13.3682 10.2676C13.5654 10.0657 13.6761 9.79186 13.6761 9.5063C13.6761 9.22075 13.5654 8.94688 13.3682 8.74496C13.1711 8.54304 12.9038 8.4296 12.6251 8.4296ZM19.0994 1.96937C17.9787 0.833128 16.4985 0.144647 14.9258 0.0281597C13.3531 -0.0883279 11.7916 0.374849 10.523 1.33411C9.1857 0.315161 7.52121 -0.146881 5.8647 0.0410322C4.20819 0.228945 2.6827 1.05286 1.59544 2.34685C0.508177 3.64084 -0.0601019 5.30879 0.00504015 7.01483C0.0701822 8.72086 0.763907 10.3382 1.94651 11.5413L8.25274 18.0553C8.84395 18.6602 9.64536 19 10.4809 19C11.3165 19 12.1179 18.6602 12.7091 18.0553L19.0154 11.5413C19.6364 10.9196 20.1315 10.1784 20.472 9.36012C20.8126 8.54186 20.9919 7.66272 20.9997 6.77323C21.0075 5.88374 20.8437 5.00143 20.5176 4.17702C20.1915 3.35262 19.7095 2.60236 19.0994 1.96937ZM17.6175 10.0016L11.3113 16.4618C11.2135 16.5627 11.0973 16.6428 10.9692 16.6975C10.8411 16.7522 10.7038 16.7803 10.565 16.7803C10.4263 16.7803 10.2889 16.7522 10.1608 16.6975C10.0327 16.6428 9.91649 16.5627 9.81878 16.4618L3.51256 10.0016C2.68829 9.13844 2.22673 7.97896 2.22673 6.77147C2.22673 5.56399 2.68829 4.40451 3.51256 3.54136C4.3525 2.69183 5.48533 2.21547 6.66567 2.21547C7.84601 2.21547 8.97884 2.69183 9.81878 3.54136C9.91649 3.64228 10.0327 3.72238 10.1608 3.77704C10.2889 3.8317 10.4263 3.85985 10.565 3.85985C10.7038 3.85985 10.8411 3.8317 10.9692 3.77704C11.0973 3.72238 11.2135 3.64228 11.3113 3.54136C12.1512 2.69183 13.284 2.21547 14.4644 2.21547C15.6447 2.21547 16.7775 2.69183 17.6175 3.54136C18.4481 4.40546 18.9136 5.56953 18.9136 6.78224C18.9136 7.99495 18.4481 9.15902 17.6175 10.0231V10.0016Z" fill="#495057"/>
</svg>
