<svg width="19" height="17" viewBox="0 0 19 17" fill="none" xmlns="http://www.w3.org/2000/svg">
<path d="M10.8571 0C13.119 0 15.0417 0.826389 16.625 2.47917C18.2083 4.13194 19 6.13889 19 8.5C19 10.8611 18.2083 12.8681 16.625 14.5208C15.0417 16.1736 13.119 17 10.8571 17C8.62351 17 6.70089 16.1736 5.08929 14.5208L6.40402 13.1484C7.61979 14.447 9.10417 15.0964 10.8571 15.0964C12.6101 15.0964 14.1016 14.4544 15.3315 13.1706C16.5614 11.8867 17.1763 10.3299 17.1763 8.5C17.1763 6.67014 16.5614 5.11328 15.3315 3.82943C14.1016 2.54557 12.6101 1.90365 10.8571 1.90365C9.10417 1.90365 7.61272 2.54557 6.38281 3.82943C5.1529 5.11328 4.53795 6.67014 4.53795 8.5H7.25223L3.5625 12.3073L3.52009 12.1745L0 8.5H2.71429C2.71429 6.13889 3.50595 4.13194 5.08929 2.47917C6.67262 0.826389 8.59524 0 10.8571 0ZM9.96652 4.73698H11.3237V8.72135L14.4621 10.7135L13.8259 11.8646L9.96652 9.42969V4.73698Z" fill="#1670F7"/>
</svg>
