<svg width="24" height="23" viewBox="0 0 24 23" fill="none" xmlns="http://www.w3.org/2000/svg">
<path d="M22.7049 11.0996C22.6927 11.0695 22.6745 11.0414 22.6501 11.0171L12.6501 1.01709L12.6501 1.01708L12.6496 1.01656C12.4779 0.84583 12.2455 0.75 12.0034 0.75C11.7612 0.75 11.5288 0.84583 11.3571 1.01656L11.3571 1.01656L11.3566 1.01709L1.35657 11.0171C1.35202 11.0216 1.34765 11.0264 1.34347 11.0313C1.19329 11.2066 1.11482 11.4322 1.12373 11.6629C1.13264 11.8936 1.22828 12.1124 1.39153 12.2757C1.55479 12.4389 1.77363 12.5346 2.00433 12.5435C2.23504 12.5524 2.46061 12.4739 2.63597 12.3238C2.64085 12.3196 2.64558 12.3152 2.65013 12.3106L12 2.96081L21.3498 12.3172C21.3522 12.3196 21.3546 12.3219 21.357 12.3241C21.3593 12.3263 21.3617 12.3284 21.3641 12.3304C21.5394 12.4806 21.765 12.5591 21.9957 12.5502C22.2264 12.5412 22.4452 12.4456 22.6085 12.2824C22.7718 12.1191 22.8674 11.9003 22.8763 11.6696C22.8842 11.4651 22.8234 11.2646 22.7049 11.0996Z" fill="#495057" stroke="#495057" stroke-width="0.5" stroke-linejoin="round"/>
<path d="M10.25 22.334V15.9173H13.75V22.334V22.584H14H18.6667C19.0866 22.584 19.4893 22.4172 19.7862 22.1202C20.0832 21.8233 20.25 21.4206 20.25 21.0007V12.8407V12.7371L20.1768 12.6639L18.8434 11.3305L18.4167 10.9038V11.5073V20.7507H15.5833V14.334V14.084H15.3333H8.66666H8.41666V14.334V20.7507H5.58333V11.6673V11.0638L5.15656 11.4905L3.82322 12.8239L3.75 12.8971V13.0007V21.0007C3.75 21.4206 3.91681 21.8233 4.21375 22.1202C4.51068 22.4172 4.91341 22.584 5.33333 22.584H10H10.25V22.334Z" fill="#495057" stroke="#495057" stroke-width="0.5"/>
</svg>
