<svg width="12" height="11" viewBox="0 0 12 11" fill="none" xmlns="http://www.w3.org/2000/svg">
<path d="M11.5335 9.23658L6.90348 0.716585C6.81131 0.546784 6.67503 0.405008 6.50899 0.306215C6.34296 0.207421 6.15334 0.155273 5.96014 0.155273C5.76694 0.155273 5.57732 0.207421 5.41129 0.306215C5.24526 0.405008 5.10897 0.546784 5.01681 0.716585L0.390144 9.23658C0.298652 9.4004 0.251705 9.58535 0.253986 9.77298C0.256266 9.9606 0.307693 10.1444 0.40314 10.3059C0.498587 10.4675 0.634717 10.6012 0.797957 10.6937C0.961196 10.7862 1.14584 10.8343 1.33348 10.8332H10.5901C10.7759 10.8331 10.9584 10.7847 11.1198 10.6928C11.2812 10.601 11.4161 10.4688 11.5111 10.3093C11.6062 10.1497 11.6582 9.96824 11.6621 9.78255C11.6661 9.59686 11.6217 9.41334 11.5335 9.24992V9.23658ZM5.53348 2.83325C5.53348 2.70948 5.58264 2.59078 5.67016 2.50327C5.75768 2.41575 5.87638 2.36658 6.00014 2.36658C6.12391 2.36658 6.24261 2.41575 6.33013 2.50327C6.41764 2.59078 6.46681 2.70948 6.46681 2.83325V6.83325C6.46681 6.95702 6.41764 7.07572 6.33013 7.16323C6.24261 7.25075 6.12391 7.29992 6.00014 7.29992C5.87638 7.29992 5.75768 7.25075 5.67016 7.16323C5.58264 7.07572 5.53348 6.95702 5.53348 6.83325V2.83325ZM6.00014 9.44992C5.88147 9.44992 5.76547 9.41473 5.6668 9.3488C5.56813 9.28287 5.49123 9.18916 5.44582 9.07953C5.4004 8.96989 5.38852 8.84925 5.41167 8.73286C5.43482 8.61647 5.49197 8.50956 5.57588 8.42565C5.65979 8.34174 5.7667 8.2846 5.88309 8.26145C5.99948 8.23829 6.12012 8.25018 6.22975 8.29559C6.33939 8.341 6.4331 8.4179 6.49903 8.51657C6.56495 8.61524 6.60014 8.73125 6.60014 8.84992C6.60014 8.92871 6.58462 9.00673 6.55447 9.07953C6.52432 9.15232 6.48012 9.21846 6.42441 9.27418C6.36869 9.3299 6.30255 9.37409 6.22975 9.40424C6.15696 9.4344 6.07894 9.44992 6.00014 9.44992Z" fill="#F46A6A"/>
</svg>
