<svg width="12" height="12" viewBox="0 0 12 12" fill="none" xmlns="http://www.w3.org/2000/svg">
<path d="M6.00033 0.166504C2.79199 0.166504 0.166992 2.7915 0.166992 5.99984C0.166992 9.20817 2.79199 11.8332 6.00033 11.8332C9.20866 11.8332 11.8337 9.20817 11.8337 5.99984C11.8337 2.7915 9.20866 0.166504 6.00033 0.166504ZM8.15866 7.3415C8.39199 7.57484 8.39199 7.92484 8.15866 8.15817C7.92532 8.3915 7.57533 8.3915 7.34199 8.15817L6.00033 6.8165L4.65866 8.15817C4.42533 8.3915 4.07533 8.3915 3.84199 8.15817C3.60866 7.92484 3.60866 7.57484 3.84199 7.3415L5.18366 5.99984L3.84199 4.65817C3.60866 4.42484 3.60866 4.07484 3.84199 3.8415C4.07533 3.60817 4.42533 3.60817 4.65866 3.8415L6.00033 5.18317L7.34199 3.8415C7.57533 3.60817 7.92532 3.60817 8.15866 3.8415C8.39199 4.07484 8.39199 4.42484 8.15866 4.65817L6.81699 5.99984L8.15866 7.3415Z" fill="#F46A6A"/>
</svg>
