<svg width="28" height="28" viewBox="0 0 28 28" fill="none" xmlns="http://www.w3.org/2000/svg">
<path opacity="0.3" fill-rule="evenodd" clip-rule="evenodd" d="M9.33375 3.5H6.66699C5.56242 3.5 4.66699 4.39543 4.66699 5.5V24.8333C4.66699 25.9379 5.56242 26.8333 6.66699 26.8333H21.3337C22.4382 26.8333 23.3337 25.9379 23.3337 24.8333V5.5C23.3337 4.39543 22.4382 3.5 21.3337 3.5H18.6671V4.08333C18.6671 5.04983 17.8836 5.83333 16.9171 5.83333H11.0838C10.1173 5.83333 9.33375 5.04983 9.33375 4.08333V3.5Z" fill="#50A5F1"/>
<path fill-rule="evenodd" clip-rule="evenodd" d="M12.8332 2.33366C12.8332 1.68933 13.3556 1.16699 13.9999 1.16699C14.6442 1.16699 15.1666 1.68933 15.1666 2.33366L17 2.33366C17.2761 2.33366 17.5 2.55752 17.5 2.83366V4.16699C17.5 4.44314 17.2761 4.66699 17 4.66699H11C10.7239 4.66699 10.5 4.44314 10.5 4.16699V2.83366C10.5 2.55752 10.7239 2.33366 11 2.33366L12.8332 2.33366Z" fill="#50A5F1"/>
<rect x="8.16699" y="11.667" width="5.83333" height="2.33333" rx="1.16667" fill="#50A5F1"/>
<rect x="8.16699" y="16.333" width="10.5" height="2.33334" rx="1.16667" fill="#50A5F1"/>
</svg>
