<svg width="18" height="18" viewBox="0 0 18 18" fill="none" xmlns="http://www.w3.org/2000/svg">
<path d="M16.5 9C16.5 4.85775 13.1422 1.5 9 1.5C4.85775 1.5 1.5 4.85775 1.5 9C1.5 13.1422 4.85775 16.5 9 16.5" stroke="#50A5F1" stroke-width="1.5" stroke-linecap="round" stroke-linejoin="round"/>
<path d="M9.74991 1.53748C9.74991 1.53748 11.9999 4.49998 11.9999 8.99998M8.24991 16.4625C8.24991 16.4625 5.99991 13.5 5.99991 8.99998C5.99991 4.49998 8.24991 1.53748 8.24991 1.53748M1.97241 11.625H8.99991M1.97241 6.37498H16.0274" stroke="#50A5F1" stroke-width="1.5" stroke-linecap="round" stroke-linejoin="round"/>
<path d="M16.4092 13.4377C16.7797 13.6657 16.7564 14.22 16.3754 14.2635L14.4502 14.4817L13.5869 16.2157C13.4159 16.56 12.8872 16.3912 12.7994 15.9652L11.8582 11.3782C11.7839 11.0182 12.1079 10.7917 12.4207 10.9845L16.4092 13.4377V13.4377Z" stroke="#50A5F1" stroke-width="1.5"/>
</svg>
