<svg width="13" height="14" viewBox="0 0 13 14" fill="none" xmlns="http://www.w3.org/2000/svg">
<path d="M1.76112 13.3248C1.78012 13.7024 2.14872 14 2.59712 14H10.408C10.8564 14 11.2269 13.7024 11.244 13.3248L11.8026 3.408H1.20252L1.76112 13.3248ZM8.26862 5.872C8.26862 5.7136 8.42062 5.5856 8.60872 5.5856H9.15212C9.34022 5.5856 9.49222 5.7152 9.49222 5.872V11.5376C9.49222 11.696 9.33832 11.824 9.15212 11.824H8.60872C8.42062 11.824 8.26862 11.696 8.26862 11.5376V5.872ZM5.89172 5.872C5.89172 5.7136 6.04372 5.5856 6.23182 5.5856H6.77522C6.96332 5.5856 7.11532 5.7152 7.11532 5.872V11.5376C7.11532 11.696 6.96332 11.824 6.77522 11.824H6.23182C6.04372 11.824 5.89172 11.696 5.89172 11.5376V5.872ZM3.51292 5.872C3.51292 5.7136 3.66492 5.5856 3.85112 5.5856H4.39452C4.58262 5.5856 4.73462 5.7152 4.73462 5.872V11.5376C4.73462 11.696 4.58072 11.824 4.39452 11.824H3.85112C3.66302 11.824 3.51292 11.696 3.51292 11.5376V5.872ZM12.1731 0.7216H8.57072V0.1472C8.57072 0.0656 8.49282 0 8.39592 0H4.61112C4.51422 0 4.43632 0.0656 4.43632 0.1472V0.7216H0.832017C0.543217 0.7216 0.307617 0.9184 0.307617 1.1632V2.552H12.6975V1.1632C12.6975 0.92 12.4638 0.7216 12.1731 0.7216Z" fill="#F46A6A"/>
</svg>
