<svg width="12" height="12" viewBox="0 0 12 12" fill="none" xmlns="http://www.w3.org/2000/svg">
<path d="M6.00033 0.166504C2.79199 0.166504 0.166992 2.7915 0.166992 5.99984C0.166992 9.20817 2.79199 11.8332 6.00033 11.8332C9.20866 11.8332 11.8337 9.20817 11.8337 5.99984C11.8337 2.7915 9.20866 0.166504 6.00033 0.166504ZM8.45033 5.00817L5.65033 7.80817C5.41699 8.0415 5.06699 8.0415 4.83366 7.80817L3.55033 6.52484C3.31699 6.2915 3.31699 5.9415 3.55033 5.70817C3.78366 5.47484 4.13366 5.47484 4.36699 5.70817L5.24199 6.58317L7.63366 4.1915C7.86699 3.95817 8.21699 3.95817 8.45033 4.1915C8.68366 4.42484 8.68366 4.77484 8.45033 5.00817Z" fill="#34C38F"/>
</svg>
