<svg width="22" height="24" viewBox="0 0 22 24" fill="none" xmlns="http://www.w3.org/2000/svg">
<path d="M5.29307 23.7383L5.23488 23.7045C5.0686 23.608 4.94822 23.4794 4.87359 23.3227C4.80061 23.1694 4.77861 23.0048 4.78232 22.8444M5.29307 23.7383L5.06381 20.9167L4.81424 20.902C4.81423 20.9022 4.81422 20.9023 4.81421 20.9024C4.78954 21.3226 4.78858 21.7506 4.78764 22.17C4.78713 22.3982 4.78663 22.6239 4.78232 22.8444M5.29307 23.7383H5.36035M5.29307 23.7383H5.36035M4.78232 22.8444C4.78232 22.8442 4.78232 22.8441 4.78233 22.8439L5.03226 22.8498L4.78231 22.8449C4.78231 22.8447 4.78231 22.8446 4.78232 22.8444ZM5.36035 23.7383C9.87166 23.7383 14.3826 23.7383 18.8935 23.75L18.9602 23.7502L19.0181 23.7171C19.1788 23.6253 19.2994 23.503 19.376 23.3511C19.4514 23.2017 19.476 23.0397 19.4721 22.8791M5.36035 23.7383L7.01 18.5881C6.74096 18.2746 6.47295 17.9621 6.20548 17.6503C5.519 16.8499 4.83607 16.0536 4.14829 15.2551C3.77543 15.3191 3.39896 15.3321 3.00851 15.2642C1.71315 15.0403 0.722322 13.9301 0.750585 12.6574C0.778794 11.3872 1.80896 10.3093 3.11938 10.1423C3.34887 10.111 3.59066 10.1045 3.82021 10.1227C3.82312 10.1191 3.82647 10.1149 3.8306 10.1097C3.8318 10.1082 3.83314 10.1065 3.83458 10.1046C3.83999 10.0977 3.84685 10.089 3.85351 10.0807L3.85657 10.0769L3.8566 10.077L5.80622 7.75727L5.80638 7.75708C6.4516 6.99097 7.09355 6.22227 7.73496 5.45421C8.01081 5.12391 8.28655 4.79372 8.56241 4.46392C8.5146 4.41636 8.46685 4.36721 8.42269 4.31742C8.13706 3.99771 7.94829 3.6475 7.87597 3.26927C7.80341 2.88979 7.8514 2.49933 8.01241 2.10613L8.01297 2.10476C8.34394 1.30984 9.00534 0.890068 9.87104 0.781358C9.89225 0.778496 9.91192 0.773832 9.94636 0.765664C9.95762 0.762995 9.97045 0.759951 9.98543 0.756474L10.0133 0.75H10.042H10.0423H10.0427H10.0431H10.0434H10.0438H10.0442H10.0445H10.0449H10.0453H10.0457H10.046H10.0464H10.0468H10.0471H10.0475H10.0479H10.0482H10.0486H10.049H10.0494H10.0497H10.0501H10.0505H10.0508H10.0512H10.0516H10.0519H10.0523H10.0527H10.053H10.0534H10.0538H10.0542H10.0545H10.0549H10.0553H10.0556H10.056H10.0564H10.0567H10.0571H10.0575H10.0579H10.0582H10.0586H10.059H10.0593H10.0597H10.0601H10.0604H10.0608H10.0612H10.0616H10.0619H10.0623H10.0627H10.063H10.0634H10.0638H10.0641H10.0645H10.0649H10.0652H10.0656H10.066H10.0664H10.0667H10.0671H10.0675H10.0678H10.0682H10.0686H10.0689H10.0693H10.0697H10.0701H10.0704H10.0708H10.0712H10.0715H10.0719H10.0723H10.0726H10.073H10.0734H10.0738H10.0741H10.0745H10.0749H10.0752H10.0756H10.076H10.0763H10.0767H10.0771H10.0774H10.0778H10.0782H10.0786H10.0789H10.0793H10.0797H10.08H10.0804H10.0808H10.0811H10.0815H10.0819H10.0823H10.0826H10.083H10.0834H10.0837H10.0841H10.0845H10.0848H10.0852H10.0856H10.0859H10.0863H10.0867H10.0871H10.0874H10.0878H10.0882H10.0885H10.0889H10.0893H10.0896H10.09H10.0904H10.0908H10.0911H10.0915H10.0919H10.0922H10.0926H10.093H10.0933H10.0937H10.0941H10.0945H10.0948H10.0952H10.0956H10.0959H10.0963H10.0967H10.097H10.0974H10.0978H10.0982H10.0985H10.0989H10.0993H10.0996H10.1H10.1004H10.1007H10.1011H10.1015H10.1018H10.1022H10.1026H10.103H10.1033H10.1037H10.1041H10.1044H10.1048H10.1052H10.1055H10.1059H10.1063H10.1067H10.107H10.1074H10.1078H10.1081H10.1085H10.1089H10.1092H10.1096H10.11H10.1103H10.1107H10.1111H10.1115H10.1118H10.1122H10.1126H10.1129H10.1133H10.1137H10.114H10.1144H10.1148H10.1152H10.1155H10.1159H10.1163H10.1166H10.117H10.1174H10.1177H10.1181H10.1185H10.1189H10.1192H10.1196H10.12H10.1203H10.1207H10.1211H10.1214H10.1218H10.1222H10.1226H10.1229H10.1233H10.1237H10.124H10.1244H10.1248H10.1251H10.1255H10.1259H10.1262H10.1266H10.127H10.1274H10.1277H10.1281H10.1285H10.1288H10.1292H10.1296H10.1299H10.1303H10.1307H10.1311H10.1314H10.1318H10.1322H10.1325H10.1329H10.1333H10.1336H10.134H10.1344H10.1347H10.1351H10.1355H10.1359H10.1362H10.1366H10.137H10.1373H10.1377H10.1381H10.1384H10.1388H10.1392H10.1396H10.1399H10.1403H10.1407H10.141H10.1414H10.1418H10.1421H10.1425H10.1429H10.1433H10.1436H10.144H10.1444H10.1447H10.1451H10.1455H10.1458H10.1462H10.1466H10.1469H10.1473H10.1477H10.1481H10.1484H10.1488H10.1492H10.1495H10.1499H10.1503H10.1506H10.151H10.1514H10.1518H10.1521H10.1525H10.1529H10.1532H10.1536H10.154H10.1543H10.1547H10.1551H10.1555H10.1558H10.1562H10.1566H10.1569H10.1573H10.1577H10.158H10.1584H10.1588H10.1591H10.1595H10.1599H10.1603H10.1606H10.161H10.1614H10.1617H10.1621H10.1625H10.1628H10.1632H10.1636H10.164H10.1643H10.1647H10.1651H10.1654H10.1658H10.1662H10.1665H10.1669H10.1673H10.1677H10.168H10.1684H10.1688H10.1691H10.1695H10.1699H10.1702H10.1706H10.171H10.1713H10.1717H10.1721H10.1725H10.1728H10.1732H10.1736H10.1739H10.1743H10.1747H10.175H10.1754H10.1758H10.1762H10.1765H10.1769H10.1773H10.1776H10.178H10.1784H10.1787H10.1791H10.1795H10.1799H10.1802H10.1806H10.181H10.1813H10.1817H10.1821H10.1824H10.1828H10.1832H10.1835H10.1839H10.1843H10.1847H10.185H10.1854H10.1858H10.1861H10.1865H10.1869H10.1872H10.1876H10.188H10.1884H10.1887H10.1891H10.1895H10.1898H10.1902H10.1906H10.1909H10.1913H10.1917H10.1921H10.1924H10.1928H10.1932H10.1935H10.1939H10.1943H10.1946H10.195H10.1954H10.1957H10.1961H10.1965H10.1969H10.1972H10.1976H10.198H10.1983H10.1987H10.1991H10.1994H10.1998H10.2002H10.2006H10.2009H10.2013H10.2017H10.202H10.2024H10.2028H10.2031H10.2035H10.2039H10.2043H10.2046H10.205H10.2054H10.2057H10.2061H10.2065H10.2068H10.2072H10.2076H10.2079H10.2083H10.2087H10.2091H10.2094H10.2098H10.2102H10.2105H10.2109H10.2113H10.2116H10.212H10.2124H10.2128H10.2131H10.2135H10.2139H10.2142H10.2146H10.215H10.2153H10.2157H10.2161H10.2165H10.2168H10.2172H10.2176H10.2179H10.2183H10.2187H10.219H10.2194H10.2198H10.2201H10.2205H10.2209H10.2213H10.2216H10.222H10.2224H10.2227H10.2231H10.2235H10.2238H10.2242H10.2246H10.225H10.2253H10.2257H10.2261H10.2264H10.2268H10.2272H10.2275H10.2279H10.2283H10.2287H10.229H10.2294H10.2298H10.2301H10.2305H10.2309H10.2312H10.2516L10.2717 0.753289C10.2985 0.757691 10.3293 0.76219 10.3623 0.767019C10.4376 0.778018 10.5245 0.790732 10.6038 0.807925C11.0659 0.899391 11.4675 1.10893 11.8039 1.42776L11.8044 1.42825C12.0396 1.65246 12.2782 1.87394 12.5182 2.09673L12.5188 2.09729C12.7577 2.31911 12.998 2.54223 13.2354 2.76846C13.2501 2.78211 13.2605 2.79013 13.2669 2.79467C13.2743 2.79254 13.286 2.7885 13.3031 2.7809C15.8403 1.64578 18.9569 2.13527 20.9691 3.99119L20.9697 3.99174C21.1293 4.13996 21.2444 4.32671 21.2498 4.54367C21.2552 4.76315 21.1471 4.9545 20.9836 5.10677C20.7173 5.36065 20.443 5.61435 20.1698 5.86708C19.966 6.05561 19.7628 6.24359 19.5639 6.43072L19.5627 6.43185L12.6033 12.8931L12.4708 13.0161L12.4641 13.0223L12.464 13.0222C12.2993 13.1642 12.1074 13.2544 11.8961 13.2497C11.6852 13.2451 11.4981 13.1467 11.3409 12.9975C10.7518 12.4503 10.2771 11.8149 9.95301 11.0966C9.15903 9.34794 9.17882 7.59478 10.019 5.86414L10.0202 5.86149L10.0203 5.8615C10.0308 5.84037 10.037 5.82525 10.0406 5.81489C10.0349 5.80883 10.0264 5.80065 10.0141 5.79024C9.90123 5.69694 9.79664 5.59237 9.69446 5.48622C8.99147 6.32237 8.29451 7.15312 7.59952 7.98151C6.83689 8.89054 6.07665 9.79672 5.31344 10.7041C5.91454 11.1812 6.285 11.7984 6.32923 12.5785C6.37391 13.3614 6.0782 14.0176 5.52698 14.5567C5.52885 14.5589 5.53072 14.5612 5.53259 14.5634C5.54734 14.5811 5.56205 14.5988 5.57673 14.6165C5.93739 15.037 6.29906 15.4572 6.6609 15.8776C7.38614 16.7203 8.11204 17.5637 8.83186 18.4118L8.8329 18.413C8.8817 18.4713 8.92107 18.4999 8.95773 18.5166C8.99507 18.5336 9.04714 18.5461 9.13287 18.5461C9.13305 18.5461 9.13322 18.5461 9.1334 18.5461L9.13502 18.5461C11.6264 18.5403 14.1187 18.5344 16.6113 18.5461L16.6114 18.5462C17.7832 18.5525 18.6647 19.0673 19.1962 20.0542C19.4066 20.4448 19.4593 20.8601 19.4659 21.2582L19.4659 21.2594C19.4687 21.5 19.4679 21.7338 19.467 21.9655C19.466 22.2699 19.4649 22.5708 19.4721 22.8791M19.4721 22.8791L19.2222 22.8849M19.4721 22.8791C19.4721 22.879 19.4721 22.879 19.4721 22.8789L19.2222 22.8849M19.2222 22.8849C19.2285 23.1485 19.1402 23.3594 18.8941 23.5L16.6101 18.7961C17.6953 18.802 18.4903 19.2706 18.9761 20.1727C19.1591 20.5125 19.2096 20.8815 19.2159 21.2623C19.2186 21.4932 19.2178 21.7252 19.217 21.9574C19.216 22.267 19.215 22.5769 19.2222 22.8849ZM12.3987 5.13974L12.3987 5.1397C14.3929 3.21316 17.4696 3.2694 19.3016 4.56893C17.645 6.1103 15.9911 7.64461 14.3396 9.17667C13.5401 9.91834 12.7411 10.6595 11.9427 11.4007C10.617 9.85615 10.3837 7.08556 12.3987 5.13974ZM17.8701 20.9075L17.8701 20.908C17.9169 21.2669 17.9217 21.6235 17.9269 22.0018C17.9281 22.0867 17.9292 22.1727 17.9309 22.26H17.9264H17.9027H17.879H17.8553H17.8315H17.8078H17.7841H17.7604H17.7366H17.7129H17.6892H17.6655H17.6418H17.6181H17.5944H17.5706H17.5469H17.5232H17.4995H17.4758H17.4521H17.4284H17.4047H17.381H17.3572H17.3335H17.3098H17.2861H17.2624H17.2387H17.215H17.1913H17.1676H17.1439H17.1202H17.0965H17.0728H17.0491H17.0254H17.0017H16.978H16.9543H16.9306H16.907H16.8833H16.8596H16.8359H16.8122H16.7885H16.7648H16.7411H16.7174H16.6937H16.6701H16.6464H16.6227H16.599H16.5753H16.5516H16.5279H16.5043H16.4806H16.4569H16.4332H16.4095H16.3859H16.3622H16.3385H16.3148H16.2911H16.2675H16.2438H16.2201H16.1964H16.1728H16.1491H16.1254H16.1017H16.0781H16.0544H16.0307H16.007H15.9834H15.9597H15.936H15.9124H15.8887H15.865H15.8414H15.8177H15.794H15.7704H15.7467H15.723H15.6994H15.6757H15.652H15.6284H15.6047H15.581H15.5574H15.5337H15.51H15.4864H15.4627H15.4391H15.4154H15.3917H15.3681H15.3444H15.3208H15.2971H15.2735H15.2498H15.2261H15.2025H15.1788H15.1552H15.1315H15.1079H15.0842H15.0605H15.0369H15.0132H14.9896H14.9659H14.9423H14.9186H14.895H14.8713H14.8477H14.824H14.8004H14.7767H14.7531H14.7294H14.7058H14.6821H14.6585H14.6348H14.6112H14.5875H14.5639H14.5402H14.5166H14.4929H14.4693H14.4456H14.422H14.3983H14.3747H14.3511H14.3274H14.3038H14.2801H14.2565H14.2328H14.2092H14.1855H14.1619H14.1383H14.1146H14.091H14.0673H14.0437H14.02H13.9964H13.9727H13.9491H13.9255H13.9018H13.8782H13.8545H13.8309H13.8073H13.7836H13.76H13.7363H13.7127H13.689H13.6654H13.6418H13.6181H13.5945H13.5708H13.5472H13.5236H13.4999H13.4763H13.4526H13.429H13.4054H13.3817H13.3581H13.3344H13.3108H13.2872H13.2635H13.2399H13.2162H13.1926H13.169H13.1453H13.1217H13.098H13.0744H13.0508H13.0271H13.0035H12.9799H12.9562H12.9326H12.9089H12.8853H12.8617H12.838H12.8144H12.7907H12.7671H12.7435H12.7198H12.6962H12.6725H12.6489H12.6253H12.6016H12.578H12.5543H12.5307H12.5071H12.4834H12.4598H12.4361H12.4125H12.3889H12.3652H12.3416H12.3179H12.2943H12.2707H12.247H12.2234H12.1997H12.1761H12.1524H12.1288H12.1052H12.0815H12.0579H12.0342H12.0106H11.987H11.9633H11.9397H11.916H11.8924H11.8687H11.8451H11.8214H11.7978H11.7742H11.7505H11.7269H11.7032H11.6796H11.6559H11.6323H11.6086H11.585H11.5613H11.5377H11.5141H11.4904H11.4668H11.4431H11.4195H11.3958H11.3722H11.3485H11.3249H11.3012H11.2776H11.2539H11.2303H11.2066H11.183H11.1593H11.1357H11.112H11.0884H11.0647H11.0411H11.0174H10.9938H10.9701H10.9464H10.9228H10.8991H10.8755H10.8518H10.8282H10.8045H10.7809H10.7572H10.7335H10.7099H10.6862H10.6626H10.6389H10.6153H10.5916H10.5679H10.5443H10.5206H10.497H10.4733H10.4496H10.426H10.4023H10.3786H10.355H10.3313H10.3076H10.284H10.2603H10.2367H10.213H10.1893H10.1657H10.142H10.1183H10.0946H10.071H10.0473H10.0236H9.99997H9.9763H9.95262H9.92895H9.90528H9.88161H9.85793H9.83426H9.81058H9.78691H9.76323H9.73956H9.71588H9.6922H9.66852H9.64485H9.62117H9.59749H9.57381H9.55013H9.52644H9.50276H9.47908H9.4554H9.43171H9.40803H9.38434H9.36066H9.33697H9.31328H9.2896H9.26591H9.24222H9.21853H9.19484H9.17115H9.14746H9.12377H9.10007H9.07638H9.05269H9.02899H9.0053H8.9816H8.95791H8.93421H8.91051H8.88681H8.86311H8.83941H8.81571H8.79201H8.76831H8.74461H8.7209H8.6972H8.6735H8.64979H8.62608H8.60238H8.57867H8.55496H8.53125H8.50754H8.48383H8.46012H8.43641H8.4127H8.38898H8.36527H8.34155H8.31784H8.29412H8.2704H8.24668H8.22296H8.19924H8.17552H8.1518H8.12808H8.10436H8.08063H8.05691H8.03318H8.00946H7.98573H7.962H7.93827H7.91454H7.89081H7.86708H7.84335H7.81961H7.79588H7.77215H7.74841H7.72467H7.70094H7.6772H7.65346H7.62972H7.60598H7.58223H7.55849H7.53475H7.511H7.48726H7.46351H7.43976H7.41602H7.39227H7.36852H7.34476H7.32101H7.29726H7.27351H7.24975H7.22599H7.20224H7.17848H7.15472H7.13096H7.1072H7.08344H7.05968H7.03591H7.01215H6.98838H6.96461H6.94085H6.91708H6.89331H6.86954H6.84577H6.82199H6.79822H6.77444H6.75067H6.72689H6.70311H6.67933H6.65555H6.63177H6.60799H6.58421H6.56042H6.53664H6.51285H6.48906H6.46527H6.44148H6.41769H6.3939H6.37011H6.34631H6.32252H6.31931C6.32239 22.1332 6.32385 22.0105 6.32528 21.8904C6.32931 21.5524 6.33309 21.235 6.37191 20.9064C6.43537 20.4179 6.92999 20.0127 7.5308 20.0127H7.53128C10.591 20.0068 13.6508 20.0068 16.7106 20.0127H16.711C17.3123 20.0127 17.8073 20.4185 17.8701 20.9075ZM10.8601 4.53635C10.4337 4.14569 10.0099 3.75618 9.59687 3.36206C9.36759 3.13992 9.32332 2.85069 9.45405 2.60718C9.59782 2.3451 9.82547 2.2224 10.1745 2.2224C10.3501 2.2224 10.502 2.27626 10.6131 2.37512C10.9268 2.65916 11.2309 2.9455 11.5373 3.23407C11.6583 3.34804 11.7797 3.46237 11.9022 3.57704C11.5555 3.89872 11.2136 4.21507 10.8601 4.53635ZM4.78233 12.7389C4.76721 13.3565 4.23681 13.852 3.52231 13.8423C2.79362 13.8269 2.28891 13.3118 2.30413 12.6632C2.31913 12.0693 2.86198 11.5672 3.59011 11.5774C4.27801 11.5873 4.79755 12.1173 4.78233 12.7389Z" fill="#495057" stroke="#495057" stroke-width="0.5"/>
</svg>
