<svg width="19" height="19" viewBox="0 0 19 19" fill="none" xmlns="http://www.w3.org/2000/svg">
<rect x="3.16663" y="3.1665" width="5.54167" height="5.54167" rx="1.5" fill="#50A5F1"/>
<path opacity="0.3" fill-rule="evenodd" clip-rule="evenodd" d="M10.2916 4.6665C10.2916 3.83808 10.9632 3.1665 11.7916 3.1665H14.3333C15.1617 3.1665 15.8333 3.83808 15.8333 4.6665V7.20817C15.8333 8.0366 15.1617 8.70817 14.3333 8.70817H11.7916C10.9632 8.70817 10.2916 8.0366 10.2916 7.20817V4.6665ZM3.16663 11.7915C3.16663 10.9631 3.8382 10.2915 4.66663 10.2915H7.20829C8.03672 10.2915 8.70829 10.9631 8.70829 11.7915V14.3332C8.70829 15.1616 8.03672 15.8332 7.20829 15.8332H4.66662C3.8382 15.8332 3.16663 15.1616 3.16663 14.3332V11.7915ZM11.7916 10.2915C10.9632 10.2915 10.2916 10.9631 10.2916 11.7915V14.3332C10.2916 15.1616 10.9632 15.8332 11.7916 15.8332H14.3333C15.1617 15.8332 15.8333 15.1616 15.8333 14.3332V11.7915C15.8333 10.9631 15.1617 10.2915 14.3333 10.2915H11.7916Z" fill="#50A5F1"/>
</svg>
