<svg width="19" height="20" viewBox="0 0 19 20" fill="none" xmlns="http://www.w3.org/2000/svg">
<rect x="3.1665" y="3.66675" width="5.54167" height="5.54167" rx="1.5" fill="#73B2FF"/>
<path opacity="0.3" fill-rule="evenodd" clip-rule="evenodd" d="M10.2915 5.16675C10.2915 4.33832 10.9631 3.66675 11.7915 3.66675H14.3332C15.1616 3.66675 15.8332 4.33832 15.8332 5.16675V7.70842C15.8332 8.53684 15.1616 9.20842 14.3332 9.20842H11.7915C10.9631 9.20842 10.2915 8.53684 10.2915 7.70842V5.16675ZM3.1665 12.2917C3.1665 11.4633 3.83808 10.7917 4.6665 10.7917H7.20817C8.0366 10.7917 8.70817 11.4633 8.70817 12.2917V14.8334C8.70817 15.6618 8.0366 16.3334 7.20817 16.3334H4.6665C3.83808 16.3334 3.1665 15.6618 3.1665 14.8334V12.2917ZM11.7915 10.7917C10.9631 10.7917 10.2915 11.4633 10.2915 12.2917V14.8334C10.2915 15.6618 10.9631 16.3334 11.7915 16.3334H14.3332C15.1616 16.3334 15.8332 15.6618 15.8332 14.8334V12.2917C15.8332 11.4633 15.1616 10.7917 14.3332 10.7917H11.7915Z" fill="#73B2FF"/>
</svg>
