<svg width="9" height="13" viewBox="0 0 9 13" fill="none" xmlns="http://www.w3.org/2000/svg">
<path fill-rule="evenodd" clip-rule="evenodd" d="M4.5119 0C2.46357 0 0.802734 1.5975 0.802734 3.56819C0.802734 4.07706 0.915819 4.56107 1.11485 4.99908L4.57523 10.5183L7.90895 4.99908C8.11397 4.54993 8.2199 4.06191 8.21956 3.56819C8.21956 1.5975 6.56023 0 4.5119 0ZM4.5119 6.09901C4.20579 6.09852 3.90278 6.0377 3.62019 5.92003C3.3376 5.80236 3.08097 5.63015 2.86497 5.41324C2.64897 5.19634 2.47784 4.93898 2.36136 4.6559C2.24488 4.37282 2.18534 4.06955 2.18613 3.76344C2.18554 3.45743 2.24522 3.15429 2.36178 2.87134C2.47834 2.58838 2.64949 2.33116 2.86546 2.11435C3.08143 1.89755 3.33798 1.7254 3.62048 1.60774C3.90298 1.49009 4.20588 1.42922 4.5119 1.42863C5.12994 1.43003 5.72214 1.67673 6.15838 2.11453C6.59463 2.55233 6.83922 3.1454 6.83842 3.76344C6.83942 4.38162 6.59491 4.97489 6.15865 5.41285C5.72239 5.85081 5.13007 6.09761 4.5119 6.09901ZM6.00235 3.73329C6.00275 3.92948 5.96448 4.12382 5.88975 4.30522C5.81501 4.48661 5.70527 4.65151 5.56679 4.79048C5.42831 4.92945 5.2638 5.03978 5.08267 5.11515C4.90154 5.19053 4.70733 5.22947 4.51114 5.22977C4.11511 5.22877 3.73568 5.07059 3.45621 4.78999C3.17674 4.50939 3.02009 4.12932 3.02069 3.73329C3.0204 3.53726 3.05871 3.3431 3.13345 3.16188C3.2082 2.98066 3.3179 2.81594 3.4563 2.67712C3.5947 2.5383 3.75909 2.4281 3.94008 2.35281C4.12107 2.27752 4.31512 2.23861 4.51114 2.23831C5.3344 2.23831 6.00235 2.90853 6.00235 3.73329Z" fill="#556EE6"/>
<path fill-rule="evenodd" clip-rule="evenodd" d="M2.47504 8.88999C1.1806 9.1644 0.643072 9.52477 0.643072 9.92961C0.643072 10.5094 2.02345 11.3085 4.5 11.3085C6.97655 11.3085 8.35693 10.5094 8.35693 9.92961C8.35693 9.52627 7.82317 9.17647 6.54682 8.88999V8.27179C7.95284 8.54772 9 9.10183 9 9.92961C9 11.1238 6.68102 12.0179 4.5 12.0179C2.31898 12.0179 0 11.1238 0 9.92961C0 9.10032 1.05395 8.53566 2.4675 8.26953L2.47504 8.88999Z" fill="#556EE6"/>
</svg>
