<svg width="11" height="15" viewBox="0 0 11 15" fill="none" xmlns="http://www.w3.org/2000/svg">
<path fill-rule="evenodd" clip-rule="evenodd" d="M5.51487 0C3.01135 0 0.981445 1.9525 0.981445 4.36112C0.981445 4.98308 1.11966 5.57464 1.36292 6.10999L5.59227 12.8558L9.66682 6.10999C9.9174 5.56103 10.0469 4.96456 10.0464 4.36112C10.0464 1.9525 8.01839 0 5.51487 0ZM5.51487 7.45435C5.14073 7.45374 4.77039 7.37941 4.425 7.23559C4.07961 7.09177 3.76595 6.88129 3.50196 6.61619C3.23796 6.35108 3.0288 6.03654 2.88644 5.69055C2.74407 5.34456 2.6713 4.9739 2.67226 4.59977C2.67154 4.22574 2.74449 3.85524 2.88695 3.50941C3.02941 3.16358 3.23859 2.8492 3.50255 2.58421C3.76651 2.31922 4.08008 2.10882 4.42536 1.96502C4.77063 1.82122 5.14085 1.74683 5.51487 1.7461C6.27025 1.74781 6.99405 2.04934 7.52724 2.58442C8.06042 3.11951 8.35937 3.84438 8.35839 4.59977C8.35962 5.35531 8.06078 6.08042 7.52757 6.6157C6.99435 7.15099 6.27041 7.45264 5.51487 7.45435ZM7.33653 4.56291C7.33701 4.80269 7.29025 5.04023 7.19891 5.26193C7.10756 5.48364 6.97343 5.68518 6.80418 5.85503C6.63493 6.02488 6.43386 6.15973 6.21248 6.25185C5.9911 6.34398 5.75373 6.39158 5.51395 6.39194C5.02991 6.39072 4.56616 6.19739 4.22458 5.85444C3.883 5.51148 3.69155 5.04695 3.69228 4.56291C3.69192 4.32332 3.73875 4.08601 3.8301 3.86452C3.92145 3.64303 4.05553 3.4417 4.22469 3.27203C4.39385 3.10236 4.59477 2.96767 4.81598 2.87565C5.03719 2.78363 5.27436 2.73608 5.51395 2.73572C6.52015 2.73572 7.33653 3.55487 7.33653 4.56291Z" fill="#50A5F1"/>
<path fill-rule="evenodd" clip-rule="evenodd" d="M3.02505 10.8658C1.44295 11.2012 0.785977 11.6416 0.785977 12.1364C0.785977 12.845 2.47311 13.8217 5.5 13.8217C8.52689 13.8217 10.214 12.845 10.214 12.1364C10.214 11.6434 9.56165 11.2159 8.00167 10.8658V10.1102C9.72014 10.4474 11 11.1247 11 12.1364C11 13.5959 8.16569 14.6888 5.5 14.6888C2.83431 14.6888 0 13.5959 0 12.1364C0 11.1228 1.28816 10.4327 3.01583 10.1074L3.02505 10.8658V10.8658Z" fill="#50A5F1"/>
</svg>
