<svg width="14" height="18" viewBox="0 0 14 18" fill="none" xmlns="http://www.w3.org/2000/svg">
<path d="M11.1668 6.49984V4.83317C11.1668 2.49984 9.3335 0.666504 7.00016 0.666504C4.66683 0.666504 2.8335 2.49984 2.8335 4.83317V6.49984C1.41683 6.49984 0.333496 7.58317 0.333496 8.99984V14.8332C0.333496 16.2498 1.41683 17.3332 2.8335 17.3332H11.1668C12.5835 17.3332 13.6668 16.2498 13.6668 14.8332V8.99984C13.6668 7.58317 12.5835 6.49984 11.1668 6.49984ZM4.50016 4.83317C4.50016 3.4165 5.5835 2.33317 7.00016 2.33317C8.41683 2.33317 9.50016 3.4165 9.50016 4.83317V6.49984H4.50016V4.83317Z" fill="#F46A6A"/>
</svg>
