<svg width="20" height="20" viewBox="0 0 20 20" fill="none" xmlns="http://www.w3.org/2000/svg">
<path d="M10.2083 0C10.4167 0.103093 10.7292 0.206186 10.9375 0.309278C11.3542 0.618557 11.5625 1.03093 11.5625 1.64948C11.5625 4.2268 11.5625 6.70103 11.5625 9.27835C11.5625 10.1031 11.1458 10.6186 10.4167 10.8247C9.58333 11.0309 8.54167 10.4124 8.4375 9.48454C8.4375 9.27835 8.4375 9.17526 8.4375 8.96907C8.4375 6.59794 8.4375 4.12371 8.4375 1.75258C8.4375 1.34021 8.54167 0.927835 8.85417 0.618557C9.0625 0.412371 9.27083 0.309278 9.47917 0.206186C9.58333 0 9.6875 0 9.6875 0C9.89583 0 10.1042 0 10.2083 0Z" fill="#495057"/>
<path d="M17.7083 10C17.6041 7.73197 16.7708 5.7732 14.8958 4.22681C14.375 3.81444 14.2708 3.40207 14.375 2.88661C14.6875 2.06186 15.625 1.85568 16.25 2.37114C18.125 3.91753 19.375 5.7732 19.7916 8.14434C20.4166 11.134 19.6875 13.9175 17.8125 16.2887C16.25 18.2474 14.1666 19.4845 11.7708 19.7938C8.02081 20.4124 4.79165 19.1753 2.29165 16.3918C1.04165 14.9485 0.312481 13.1959 0.104148 11.2371C-0.312519 7.62887 0.937481 4.63918 3.74998 2.26805C4.27081 1.85568 4.99998 1.85568 5.41665 2.37114C5.83331 2.88661 5.83331 3.50516 5.31248 4.02063C4.79165 4.433 4.27081 4.94846 3.85415 5.56702C2.81248 7.01032 2.29165 8.55671 2.39581 10.3093C2.49998 12.268 3.22915 14.0206 4.58331 15.4639C5.72915 16.701 7.18748 17.3196 8.85415 17.6289C10.5208 17.8351 12.0833 17.6289 13.6458 16.8041C15.1041 16.0825 16.1458 14.9485 16.875 13.5052C17.3958 12.4742 17.7083 11.2371 17.7083 10Z" fill="#495057"/>
</svg>
