<svg width="12" height="9" viewBox="0 0 12 9" fill="none" xmlns="http://www.w3.org/2000/svg">
<path d="M9.79183 0.166626H2.2085C1.77752 0.166626 1.36419 0.337831 1.05945 0.642577C0.754701 0.947324 0.583496 1.36065 0.583496 1.79163V7.20829C0.583496 7.63927 0.754701 8.05259 1.05945 8.35734C1.36419 8.66209 1.77752 8.83329 2.2085 8.83329H9.79183C10.2228 8.83329 10.6361 8.66209 10.9409 8.35734C11.2456 8.05259 11.4168 7.63927 11.4168 7.20829V1.79163C11.4168 1.36065 11.2456 0.947324 10.9409 0.642577C10.6361 0.337831 10.2228 0.166626 9.79183 0.166626ZM9.56975 1.24996L6.38475 4.43496C6.33439 4.48573 6.27448 4.52603 6.20848 4.55352C6.14247 4.58102 6.07167 4.59518 6.00016 4.59518C5.92866 4.59518 5.85786 4.58102 5.79185 4.55352C5.72584 4.52603 5.66593 4.48573 5.61558 4.43496L2.43058 1.24996H9.56975ZM10.3335 7.20829C10.3335 7.35195 10.2764 7.48973 10.1748 7.59131C10.0733 7.69289 9.93549 7.74996 9.79183 7.74996H2.2085C2.06484 7.74996 1.92706 7.69289 1.82548 7.59131C1.7239 7.48973 1.66683 7.35195 1.66683 7.20829V2.01371L4.85183 5.19871C5.15652 5.50302 5.56954 5.67395 6.00016 5.67395C6.43079 5.67395 6.84381 5.50302 7.1485 5.19871L10.3335 2.01371V7.20829Z" fill="#50A5F1"/>
</svg>
