<svg width="13" height="13" viewBox="0 0 13 13" fill="none" xmlns="http://www.w3.org/2000/svg">
<path d="M12.125 10.25H10.875V8.37501C10.875 8.20925 10.8092 8.05027 10.6919 7.93306C10.5747 7.81585 10.4158 7.75001 10.25 7.75001H7.125V6.05626L7.83125 6.42501C7.93425 6.47888 8.05022 6.50297 8.16616 6.49457C8.28209 6.48616 8.39338 6.44559 8.48752 6.37742C8.58167 6.30924 8.65493 6.21617 8.69909 6.10865C8.74325 6.00112 8.75655 5.88342 8.7375 5.76876L8.4875 4.28751L9.5625 3.23126C9.64392 3.15174 9.70209 3.05151 9.73073 2.94137C9.75936 2.83123 9.75738 2.71536 9.725 2.60626C9.68878 2.49518 9.62214 2.39648 9.53266 2.32135C9.44317 2.24623 9.33442 2.1977 9.21875 2.18126L7.75 1.95001L7.0625 0.600005C7.01132 0.494336 6.93141 0.405219 6.83193 0.342864C6.73245 0.280509 6.61741 0.247437 6.5 0.247437C6.38259 0.247437 6.26755 0.280509 6.16807 0.342864C6.06859 0.405219 5.98868 0.494336 5.9375 0.600005L5.25 1.95001L3.75625 2.16876C3.64058 2.1852 3.53183 2.23373 3.44234 2.30885C3.35286 2.38398 3.28623 2.48268 3.25 2.59376C3.21762 2.70286 3.21564 2.81873 3.24427 2.92887C3.27291 3.03901 3.33108 3.13924 3.4125 3.21876L4.5125 4.28751L4.2625 5.76876C4.24345 5.88342 4.25675 6.00112 4.30091 6.10865C4.34507 6.21617 4.41833 6.30924 4.51248 6.37742C4.60662 6.44559 4.71791 6.48616 4.83384 6.49457C4.94978 6.50297 5.06575 6.47888 5.16875 6.42501L5.875 6.05626V7.75001H2.75C2.58424 7.75001 2.42527 7.81585 2.30806 7.93306C2.19085 8.05027 2.125 8.20925 2.125 8.37501V10.25H0.875C0.70924 10.25 0.550268 10.3159 0.433058 10.4331C0.315848 10.5503 0.25 10.7092 0.25 10.875V12.125C0.25 12.2908 0.315848 12.4497 0.433058 12.5669C0.550268 12.6842 0.70924 12.75 0.875 12.75C1.04076 12.75 1.19973 12.6842 1.31694 12.5669C1.43415 12.4497 1.5 12.2908 1.5 12.125V11.5H4V12.125C4 12.2908 4.06585 12.4497 4.18306 12.5669C4.30027 12.6842 4.45924 12.75 4.625 12.75C4.79076 12.75 4.94973 12.6842 5.06694 12.5669C5.18415 12.4497 5.25 12.2908 5.25 12.125V10.875C5.25 10.7092 5.18415 10.5503 5.06694 10.4331C4.94973 10.3159 4.79076 10.25 4.625 10.25H3.375V9.00001H9.625V10.25H8.375C8.20924 10.25 8.05027 10.3159 7.93306 10.4331C7.81585 10.5503 7.75 10.7092 7.75 10.875V12.125C7.75 12.2908 7.81585 12.4497 7.93306 12.5669C8.05027 12.6842 8.20924 12.75 8.375 12.75C8.54076 12.75 8.69973 12.6842 8.81694 12.5669C8.93415 12.4497 9 12.2908 9 12.125V11.5H11.5V12.125C11.5 12.2908 11.5658 12.4497 11.6831 12.5669C11.8003 12.6842 11.9592 12.75 12.125 12.75C12.2908 12.75 12.4497 12.6842 12.5669 12.5669C12.6842 12.4497 12.75 12.2908 12.75 12.125V10.875C12.75 10.7092 12.6842 10.5503 12.5669 10.4331C12.4497 10.3159 12.2908 10.25 12.125 10.25ZM6.5 4.39376C6.39741 4.39427 6.29653 4.42003 6.20625 4.46876L5.70625 4.73126L5.8 4.16876C5.8164 4.06926 5.80848 3.96727 5.77692 3.8715C5.74536 3.77572 5.69109 3.68901 5.61875 3.61876L5.2125 3.21876L5.775 3.13751C5.87563 3.12406 5.97148 3.0863 6.05424 3.0275C6.137 2.96869 6.20419 2.89061 6.25 2.80001L6.5 2.28751L6.75 2.80001C6.79581 2.89061 6.863 2.96869 6.94576 3.0275C7.02852 3.0863 7.12437 3.12406 7.225 3.13751L7.7875 3.21876L7.38125 3.61876C7.30891 3.68901 7.25464 3.77572 7.22308 3.8715C7.19152 3.96727 7.1836 4.06926 7.2 4.16876L7.29375 4.73126L6.79375 4.46876C6.70347 4.42003 6.60259 4.39427 6.5 4.39376Z" fill="#50A5F1"/>
</svg>
