<svg width="20" height="18" viewBox="0 0 20 18" fill="none" xmlns="http://www.w3.org/2000/svg">
<path d="M15.8874 11.5418C15.7501 11.6789 15.6755 11.8617 15.6834 12.048L15.7736 14.284L13.1918 13.3664C12.9603 13.282 12.7484 13.3242 12.6778 13.3453C11.7596 13.5809 10.814 13.6617 9.89579 13.5422C4.38287 12.832 3.78253 8.2125 3.91202 7.01719C4.24946 3.93398 7.20408 1.43438 10.7551 1.43438C14.5416 1.43438 17.6217 4.15899 17.6217 7.50938C17.6257 8.99297 17.0057 10.4273 15.8874 11.5418ZM4.85765 14.6566C4.66538 14.6074 4.46527 14.625 4.28478 14.7023L2.85259 15.3281L2.94676 13.9957C2.95854 13.8023 2.88791 13.6125 2.74273 13.4684C2.00506 12.7336 1.60091 11.7949 1.60091 10.8211C1.60091 10.0125 1.87557 9.23906 2.37389 8.58867C2.81728 11.3063 4.90866 13.5879 7.76518 14.5441C6.86271 14.857 5.84252 14.9098 4.85765 14.6566ZM17.2961 12.2766C18.5438 10.9336 19.2266 9.25313 19.2266 7.51289C19.2266 3.37148 15.4283 0 10.759 0C6.51349 0 2.9036 2.84414 2.3582 6.53555C0.875005 7.56211 0 9.14414 0 10.8211C0 12.048 0.470855 13.2328 1.33016 14.1926L1.16929 16.4707C1.14967 16.7273 1.287 16.9699 1.52243 17.1141C1.65584 17.1949 1.96974 17.2969 2.31896 17.1633L4.72424 16.1086C6.61551 16.5059 8.5774 16.0734 10.0371 14.9977C10.967 15.068 11.9165 15.0012 12.8465 14.7902L16.323 16.0242C16.6565 16.1367 16.9429 16.0313 17.0802 15.9434C17.3 15.8027 17.4295 15.5742 17.4177 15.3316L17.2961 12.2766Z" fill="#50A5F1"/>
<path d="M13.6863 5.05176H8.15372C7.71034 5.05176 7.35327 5.37168 7.35327 5.76895C7.35327 6.16621 7.71034 6.48613 8.15372 6.48613H13.6863C14.1297 6.48613 14.4867 6.16621 14.4867 5.76895C14.4867 5.3752 14.1297 5.05176 13.6863 5.05176Z" fill="#50A5F1"/>
<path d="M13.6863 8.81738H8.15372C7.71034 8.81738 7.35327 9.13731 7.35327 9.53457C7.35327 9.93184 7.71034 10.2518 8.15372 10.2518H13.6863C14.1297 10.2518 14.4867 9.93184 14.4867 9.53457C14.4867 9.14082 14.1297 8.81738 13.6863 8.81738Z" fill="#50A5F1"/>
</svg>
