<svg width="23" height="25" viewBox="0 0 23 25" fill="none" xmlns="http://www.w3.org/2000/svg">
<path d="M17.8333 8.33333C17.8333 6.65363 17.1661 5.04272 15.9783 3.85499C14.7906 2.66726 13.1797 2 11.5 2C9.8203 2 8.20939 2.66726 7.02166 3.85499C5.83393 5.04272 5.16667 6.65363 5.16667 8.33333C5.16667 15.7222 2 17.8333 2 17.8333H21C21 17.8333 17.8333 15.7222 17.8333 8.33333Z" stroke="black" stroke-width="2.3" stroke-linecap="round" stroke-linejoin="round"/>
<path d="M13.326 22.0557C13.1405 22.3756 12.8741 22.6411 12.5536 22.8257C12.2331 23.0103 11.8698 23.1075 11.4999 23.1075C11.1301 23.1075 10.7667 23.0103 10.4463 22.8257C10.1258 22.6411 9.85941 22.3756 9.67383 22.0557" stroke="black" stroke-width="2.3" stroke-linecap="round" stroke-linejoin="round"/>
</svg>
