<svg width="16" height="20" viewBox="0 0 16 20" fill="none" xmlns="http://www.w3.org/2000/svg">
<path d="M13 7H5V5C5 4.2 5.3 3.5 5.9 2.9C7.1 1.7 9 1.7 10.1 2.9C10.5 3.3 10.7 3.8 10.9 4.3C11 4.8 11.6 5.1 12.1 5C12.6 4.9 13 4.3 12.8 3.8C12.6 2.9 12.1 2.1 11.5 1.5C10.6 0.5 9.3 0 8 0C5.2 0 3 2.2 3 5V7C1.3 7 0 8.3 0 10V17C0 18.7 1.3 20 3 20H13C14.7 20 16 18.7 16 17V10C16 8.3 14.7 7 13 7ZM9.1 13.5L9 13.6V15C9 15.6 8.6 16 8 16C7.4 16 7 15.6 7 15V13.6C6.4 13 6.3 12.1 6.9 11.5C7.5 10.9 8.4 10.8 9 11.4C9.6 11.9 9.7 12.9 9.1 13.5Z" fill="#34C38F"/>
</svg>
