<svg width="23" height="24" viewBox="0 0 23 24" fill="none" xmlns="http://www.w3.org/2000/svg">
<path d="M21.6593 2.06205C21.6161 1.89077 21.5301 1.73453 21.41 1.60929C21.29 1.48404 21.1403 1.39428 20.9762 1.34916C19.0103 0.816345 16.9401 0.873732 15.0041 1.51471C13.0681 2.15569 11.3449 3.35419 10.033 4.97222L8.96453 6.29605L6.46826 5.66757C5.86139 5.4468 5.19845 5.46262 4.60189 5.71212C4.00532 5.96161 3.51542 6.42793 3.22265 7.02495L1.11414 10.9248C1.04026 11.0614 0.998215 11.2143 0.991402 11.371C0.98459 11.5277 1.0132 11.6838 1.07492 11.8268C1.13665 11.9699 1.22975 12.0957 1.34671 12.1943C1.46367 12.2928 1.6012 12.3612 1.74819 12.394L4.69291 13.0527C4.44346 13.8451 4.26535 14.66 4.16087 15.4868C4.14193 15.6387 4.15668 15.7932 4.20398 15.9382C4.25128 16.0832 4.32986 16.2149 4.43367 16.3232L7.4046 19.4233C7.49355 19.5162 7.59917 19.5899 7.71543 19.6402C7.83169 19.6905 7.9563 19.7163 8.08214 19.7163C8.10975 19.7163 8.13736 19.7149 8.16544 19.7124C8.97556 19.6364 9.77583 19.4722 10.5532 19.2224L11.1701 22.2256C11.2016 22.379 11.2672 22.5224 11.3617 22.6444C11.4561 22.7664 11.5767 22.8635 11.7137 22.9279C11.8508 22.9923 12.0004 23.0222 12.1506 23.0151C12.3007 23.0081 12.4471 22.9642 12.5781 22.8872L16.3206 20.6846C16.8474 20.3506 17.2588 19.8507 17.4957 19.2569C17.7325 18.6631 17.7825 18.0062 17.6383 17.3809L16.9975 14.6219L18.183 13.4844C19.7394 12.1193 20.8924 10.3211 21.5078 8.299C22.1232 6.27692 22.1758 4.11407 21.6593 2.06205V2.06205ZM3.42341 10.7232L4.91472 7.96343C5.00734 7.77607 5.16516 7.63279 5.35579 7.56297C5.54643 7.49315 5.75544 7.50208 5.93996 7.58794L7.58581 8.00414L6.96289 8.77593C6.37233 9.5145 5.86155 10.3187 5.4398 11.174L3.42341 10.7232ZM15.374 18.9454L12.7714 20.477L12.3598 18.4724C13.1941 18.0382 13.9714 17.4938 14.6726 16.8525L15.3851 16.1689L15.7718 17.8335C15.8219 18.039 15.8107 18.2557 15.7396 18.4544C15.6685 18.6531 15.541 18.8244 15.374 18.9454V18.9454ZM16.921 11.98L13.39 15.3663C11.9923 16.6276 10.2683 17.4293 8.435 17.6705L6.13088 15.2662C6.44035 13.3482 7.23461 11.551 8.43172 10.0602L10.0401 8.0675C10.0669 8.03824 10.0919 8.00726 10.115 7.97473L11.4902 6.27105C12.5069 5.01794 13.8242 4.06885 15.3074 3.52069C16.7906 2.97253 18.3867 2.84493 19.9327 3.15093C20.233 4.76914 20.112 6.44179 19.5823 7.99465C19.0527 9.5475 18.1336 10.9238 16.921 11.98V11.98ZM16.0365 5.81629C15.7522 5.81629 15.4742 5.90426 15.2378 6.06908C15.0015 6.2339 14.8172 6.46817 14.7084 6.74226C14.5996 7.01635 14.5711 7.31795 14.6266 7.60892C14.6821 7.89989 14.819 8.16717 15.02 8.37695C15.2211 8.58672 15.4772 8.72959 15.756 8.78746C16.0349 8.84534 16.3239 8.81564 16.5866 8.70211C16.8493 8.58857 17.0738 8.39632 17.2317 8.14964C17.3897 7.90297 17.474 7.61296 17.474 7.31629C17.474 7.1193 17.4368 6.92423 17.3646 6.74223C17.2923 6.56024 17.1865 6.39487 17.053 6.25558C16.9195 6.11628 16.761 6.00579 16.5866 5.93042C16.4122 5.85504 16.2252 5.81625 16.0364 5.81627L16.0365 5.81629Z" fill="#495057"/>
</svg>
