<svg width="16" height="16" viewBox="0 0 16 16" fill="none" xmlns="http://www.w3.org/2000/svg">
<path d="M1.4375 11.5151C1.4375 11.9503 1.61035 12.3676 1.91803 12.6752C2.2257 12.9829 2.643 13.1558 3.07812 13.1558H12.9219C13.357 13.1558 13.7743 12.9829 14.082 12.6752C14.3896 12.3676 14.5625 11.9503 14.5625 11.5151V7.00342H1.4375V11.5151ZM3.37109 9.28857C3.37109 9.05547 3.46369 8.83192 3.62852 8.66709C3.79335 8.50227 4.0169 8.40967 4.25 8.40967H5.65625C5.88935 8.40967 6.1129 8.50227 6.27773 8.66709C6.44256 8.83192 6.53515 9.05547 6.53515 9.28857V9.87451C6.53515 10.1076 6.44256 10.3312 6.27773 10.496C6.1129 10.6608 5.88935 10.7534 5.65625 10.7534H4.25C4.0169 10.7534 3.79335 10.6608 3.62852 10.496C3.46369 10.3312 3.37109 10.1076 3.37109 9.87451V9.28857Z" fill="#73B2FF"/>
<path d="M12.9219 2.84302H3.07812C2.643 2.84302 2.2257 3.01587 1.91803 3.32355C1.61035 3.63122 1.4375 4.04852 1.4375 4.48364V5.24536H14.5625V4.48364C14.5625 4.04852 14.3896 3.63122 14.082 3.32355C13.7743 3.01587 13.357 2.84302 12.9219 2.84302Z" fill="#73B2FF"/>
</svg>
