<svg width="14" height="14" viewBox="0 0 14 14" fill="none" xmlns="http://www.w3.org/2000/svg">
<path d="M12.5333 2.40016L13.4666 1.46683C13.7333 1.20016 13.7333 0.800163 13.4666 0.533496C13.2 0.266829 12.8 0.266829 12.5333 0.533496L5.53331 7.5335C4.99998 7.20016 4.33331 7.00016 3.66665 7.00016C1.79998 7.00016 0.333313 8.46683 0.333313 10.3335C0.333313 12.2002 1.79998 13.6668 3.66665 13.6668C5.53331 13.6668 6.99998 12.2002 6.99998 10.3335C6.99998 9.66683 6.79998 9.00016 6.46665 8.46683L9.73331 5.20016L10.6666 6.1335C10.9333 6.40016 11.3333 6.40016 11.6 6.1335C11.8666 5.86683 11.8666 5.46683 11.6 5.20016L10.6666 4.26683L11.6 3.3335L12.5333 4.26683C12.8 4.5335 13.2 4.5335 13.4666 4.26683C13.7333 4.00016 13.7333 3.60016 13.4666 3.3335L12.5333 2.40016ZM3.66665 12.3335C2.53331 12.3335 1.66665 11.4668 1.66665 10.3335C1.66665 9.20016 2.53331 8.3335 3.66665 8.3335C4.79998 8.3335 5.66665 9.20016 5.66665 10.3335C5.66665 11.4668 4.79998 12.3335 3.66665 12.3335Z" fill="#50A5F1"/>
</svg>
