<svg width="11" height="13" viewBox="0 0 11 13" fill="none" xmlns="http://www.w3.org/2000/svg">
<path d="M9.42857 0.643799C10.2953 0.643799 11 1.37236 11 2.2713V10.4088C11 11.3065 10.2953 12.0363 9.42857 12.0363H1.57143C0.70346 12.0363 0 11.3065 0 10.4088V2.2713C0 1.37236 0.70346 0.643799 1.57143 0.643799H9.42857ZM7.99955 3.38258C7.61406 2.98587 6.99286 2.98587 6.60982 3.38258L6.08437 3.92677L7.82522 5.73228L8.35067 5.18808C8.73616 4.78884 8.73616 4.14547 8.35067 3.74876L7.99955 3.38258ZM2.73772 7.55559L2.36893 9.06357C2.33529 9.22377 2.37458 9.37127 2.47254 9.47299C2.57076 9.57216 2.71071 9.61285 2.84576 9.57979L4.32143 9.1958C4.45893 9.1602 4.58661 9.08645 4.68728 8.98219L7.27031 6.30699L5.52701 4.50403L2.94397 7.15634C2.8433 7.28349 2.7721 7.41318 2.73772 7.55559Z" fill="#50A5F1"/>
</svg>
