<svg width="16" height="16" viewBox="0 0 16 16" fill="none" xmlns="http://www.w3.org/2000/svg">
<path d="M14.3158 7.57801H16C16 3.25806 12.7386 0 8.41272 0V1.68419C11.8333 1.68419 14.3158 4.16247 14.3158 7.57801Z" fill="#50A5F1"/>
<path d="M8.42119 5.05247C10.1921 5.05247 10.9475 5.80783 10.9475 7.57876H12.6317C12.6317 4.863 11.1369 3.36828 8.42119 3.36828V5.05247ZM11.3028 9.636C11.141 9.48893 10.9284 9.41049 10.7098 9.41725C10.4913 9.424 10.2839 9.51542 10.1315 9.67221L8.11635 11.7446C7.6313 11.652 6.65616 11.348 5.65238 10.3467C4.6486 9.34211 4.34461 8.36443 4.2545 7.88276L6.32521 5.86678C6.48219 5.71447 6.57374 5.50706 6.5805 5.28843C6.58726 5.06981 6.50869 4.85714 6.36142 4.69543L3.24988 1.27399C3.10255 1.11177 2.89778 1.01337 2.67907 0.99969C2.46036 0.986011 2.24492 1.05813 2.07853 1.20073L0.251182 2.76787C0.105593 2.91399 0.0186958 3.10846 0.0069742 3.31439C-0.00565723 3.52491 -0.246496 8.5118 3.6204 12.3804C6.99384 15.753 11.2195 15.9997 12.3832 15.9997C12.5533 15.9997 12.6578 15.9947 12.6856 15.993C12.8915 15.9814 13.0858 15.8942 13.2312 15.7479L14.7975 13.9197C14.9402 13.7534 15.0125 13.5381 14.999 13.3194C14.9855 13.1007 14.8872 12.8958 14.7251 12.7484L11.3028 9.636Z" fill="#50A5F1"/>
</svg>
