<svg width="10" height="11" viewBox="0 0 10 11" fill="none" xmlns="http://www.w3.org/2000/svg">
<rect width="10" height="11" fill="#F5F5F5"/>
<g clip-path="url(#clip0_0_1)">
<rect width="1920" height="1122" transform="translate(-641 -313)" fill="#F3F6F9"/>
<g filter="url(#filter0_d_0_1)">
<rect x="-343" y="-245" width="1600" height="993" rx="15" fill="white"/>
</g>
<path d="M6.34712 3.00663H7.98795L7.62587 3.37329C7.5405 3.45917 7.49259 3.57533 7.49259 3.69642C7.49259 3.8175 7.5405 3.93367 7.62587 4.01954C7.71174 4.10491 7.82791 4.15282 7.94899 4.15282C8.07008 4.15282 8.18624 4.10491 8.27212 4.01954L9.41795 2.87371C9.50332 2.78784 9.55123 2.67167 9.55123 2.55058C9.55123 2.4295 9.50332 2.31333 9.41795 2.22746L8.27212 1.08163C8.18444 1.00654 8.07165 0.967303 7.9563 0.971759C7.84095 0.976214 7.73153 1.02403 7.6499 1.10566C7.56828 1.18729 7.52046 1.29671 7.516 1.41206C7.51155 1.52741 7.55078 1.6402 7.62587 1.72788L7.98795 2.08996H6.34712C6.22556 2.08996 6.10898 2.13825 6.02303 2.2242C5.93707 2.31016 5.88879 2.42674 5.88879 2.54829C5.88879 2.66985 5.93707 2.78643 6.02303 2.87238C6.10898 2.95834 6.22556 3.00663 6.34712 3.00663ZM8.40962 5.95829C8.30879 5.95829 8.20337 5.92621 8.10254 5.90329C7.89834 5.8583 7.69768 5.79856 7.50212 5.72454C7.28949 5.64719 7.05577 5.65121 6.84593 5.73582C6.63608 5.82044 6.46495 5.97967 6.36545 6.18288L6.26462 6.38913C5.8182 6.14079 5.40799 5.83236 5.04545 5.47246C4.68555 5.10993 4.37712 4.69971 4.12879 4.25329L4.32129 4.12496C4.5245 4.02546 4.68373 3.85433 4.76834 3.64448C4.85295 3.43464 4.85697 3.20092 4.77962 2.98829C4.70685 2.79232 4.64713 2.59174 4.60087 2.38788C4.57795 2.28704 4.55962 2.18163 4.54587 2.07621C4.49021 1.75337 4.32111 1.46101 4.06903 1.25178C3.81694 1.04255 3.49844 0.930197 3.17087 0.93496H1.79587C1.59834 0.933105 1.40273 0.973833 1.22236 1.05437C1.04199 1.13491 0.881086 1.25336 0.750608 1.40167C0.62013 1.54998 0.523139 1.72467 0.466238 1.91383C0.409338 2.10299 0.393864 2.3022 0.420869 2.49788C0.665041 4.41801 1.54197 6.20207 2.91313 7.56825C4.28429 8.93443 6.07153 9.80486 7.99254 10.042H8.1667C8.50468 10.0425 8.83101 9.91854 9.08337 9.69371C9.22837 9.56402 9.3442 9.40504 9.42321 9.22727C9.50222 9.0495 9.5426 8.85699 9.5417 8.66246V7.28746C9.53609 6.96909 9.42015 6.66255 9.21369 6.42014C9.00723 6.17773 8.72303 6.0145 8.40962 5.95829ZM8.63879 8.70829C8.6387 8.77337 8.62476 8.83768 8.59789 8.89695C8.57102 8.95622 8.53184 9.00909 8.48295 9.05204C8.43174 9.09626 8.37185 9.12929 8.30714 9.14902C8.24242 9.16875 8.17429 9.17475 8.10712 9.16663C6.39061 8.94654 4.79623 8.16127 3.57545 6.93468C2.35467 5.70809 1.57697 4.10999 1.36504 2.39246C1.35774 2.32532 1.36413 2.2574 1.38383 2.19281C1.40352 2.12821 1.43611 2.06827 1.47962 2.01663C1.52257 1.96774 1.57544 1.92855 1.63471 1.90168C1.69398 1.87482 1.75829 1.86088 1.82337 1.86079H3.19837C3.30495 1.85842 3.40903 1.89328 3.49268 1.95937C3.57634 2.02545 3.63434 2.11864 3.6567 2.22288C3.67504 2.34815 3.69795 2.4719 3.72545 2.59413C3.7784 2.83573 3.84886 3.07317 3.93629 3.30454L3.29462 3.60246C3.23975 3.62763 3.1904 3.66339 3.1494 3.70769C3.10839 3.75199 3.07654 3.80395 3.05568 3.86059C3.03481 3.91723 3.02533 3.97744 3.0278 4.03775C3.03026 4.09806 3.04462 4.15729 3.07004 4.21204C3.72967 5.62497 4.86544 6.76074 6.27837 7.42038C6.38996 7.46622 6.51512 7.46622 6.6267 7.42038C6.68386 7.39993 6.73639 7.36833 6.78124 7.32742C6.82609 7.28651 6.86236 7.23709 6.88795 7.18204L7.17212 6.54038C7.40906 6.62511 7.65089 6.69552 7.89629 6.75121C8.01851 6.77871 8.14226 6.80163 8.26754 6.81996C8.37177 6.84232 8.46496 6.90032 8.53104 6.98398C8.59713 7.06763 8.63199 7.17171 8.62962 7.27829L8.63879 8.70829Z" fill="#50A5F1"/>
</g>
<defs>
<filter id="filter0_d_0_1" x="-348.5" y="-247" width="1611" height="1004" filterUnits="userSpaceOnUse" color-interpolation-filters="sRGB">
<feFlood flood-opacity="0" result="BackgroundImageFix"/>
<feColorMatrix in="SourceAlpha" type="matrix" values="0 0 0 0 0 0 0 0 0 0 0 0 0 0 0 0 0 0 127 0" result="hardAlpha"/>
<feOffset dy="3.5"/>
<feGaussianBlur stdDeviation="2.75"/>
<feColorMatrix type="matrix" values="0 0 0 0 0 0 0 0 0 0 0 0 0 0 0 0 0 0 0.02 0"/>
<feBlend mode="normal" in2="BackgroundImageFix" result="effect1_dropShadow_0_1"/>
<feBlend mode="normal" in="SourceGraphic" in2="effect1_dropShadow_0_1" result="shape"/>
</filter>
<clipPath id="clip0_0_1">
<rect width="1920" height="1122" fill="white" transform="translate(-641 -313)"/>
</clipPath>
</defs>
</svg>
