<svg width="10" height="11" viewBox="0 0 10 11" fill="none" xmlns="http://www.w3.org/2000/svg">
<path d="M6.34736 3.00663H7.9882L7.62611 3.37329C7.54075 3.45917 7.49283 3.57533 7.49283 3.69642C7.49283 3.8175 7.54075 3.93367 7.62611 4.01954C7.71199 4.10491 7.82815 4.15282 7.94924 4.15282C8.07032 4.15282 8.18649 4.10491 8.27236 4.01954L9.4182 2.87371C9.50356 2.78784 9.55148 2.67167 9.55148 2.55058C9.55148 2.4295 9.50356 2.31333 9.4182 2.22746L8.27236 1.08163C8.18468 1.00654 8.0719 0.967303 7.95655 0.971759C7.8412 0.976214 7.73177 1.02403 7.65015 1.10566C7.56852 1.18729 7.5207 1.29671 7.51624 1.41206C7.51179 1.52741 7.55103 1.6402 7.62611 1.72788L7.9882 2.08996H6.34736C6.22581 2.08996 6.10923 2.13825 6.02327 2.2242C5.93732 2.31016 5.88903 2.42674 5.88903 2.54829C5.88903 2.66985 5.93732 2.78643 6.02327 2.87238C6.10923 2.95834 6.22581 3.00663 6.34736 3.00663ZM8.40986 5.95829C8.30903 5.95829 8.20361 5.92621 8.10278 5.90329C7.89858 5.8583 7.69792 5.79856 7.50236 5.72454C7.28974 5.64719 7.05601 5.65121 6.84617 5.73582C6.63633 5.82044 6.46519 5.97967 6.3657 6.18288L6.26486 6.38913C5.81845 6.14079 5.40823 5.83236 5.0457 5.47246C4.6858 5.10993 4.37736 4.69971 4.12903 4.25329L4.32153 4.12496C4.52474 4.02546 4.68397 3.85433 4.76859 3.64448C4.8532 3.43464 4.85722 3.20092 4.77986 2.98829C4.70709 2.79232 4.64738 2.59174 4.60111 2.38788C4.5782 2.28704 4.55986 2.18163 4.54611 2.07621C4.49046 1.75337 4.32136 1.46101 4.06927 1.25178C3.81719 1.04255 3.49868 0.930197 3.17111 0.93496H1.79611C1.59859 0.933105 1.40298 0.973833 1.2226 1.05437C1.04223 1.13491 0.88133 1.25336 0.750852 1.40167C0.620374 1.54998 0.523383 1.72467 0.466483 1.91383C0.409582 2.10299 0.394108 2.3022 0.421113 2.49788C0.665285 4.41801 1.54221 6.20207 2.91337 7.56825C4.28453 8.93443 6.07177 9.80486 7.99278 10.042H8.16695C8.50493 10.0425 8.83125 9.91854 9.08361 9.69371C9.22861 9.56402 9.34444 9.40504 9.42345 9.22727C9.50246 9.0495 9.54285 8.85699 9.54195 8.66246V7.28746C9.53633 6.96909 9.4204 6.66255 9.21393 6.42014C9.00747 6.17773 8.72328 6.0145 8.40986 5.95829ZM8.63903 8.70829C8.63895 8.77337 8.62501 8.83768 8.59814 8.89695C8.57127 8.95622 8.53209 9.00909 8.4832 9.05204C8.43198 9.09626 8.3721 9.12929 8.30738 9.14902C8.24266 9.16875 8.17453 9.17475 8.10736 9.16663C6.39086 8.94654 4.79647 8.16127 3.57569 6.93468C2.35491 5.70809 1.57722 4.10999 1.36528 2.39246C1.35799 2.32532 1.36438 2.2574 1.38407 2.19281C1.40377 2.12821 1.43635 2.06827 1.47986 2.01663C1.52281 1.96774 1.57568 1.92855 1.63495 1.90168C1.69422 1.87482 1.75854 1.86088 1.82361 1.86079H3.19861C3.3052 1.85842 3.40927 1.89328 3.49293 1.95937C3.57658 2.02545 3.63458 2.11864 3.65695 2.22288C3.67528 2.34815 3.6982 2.4719 3.7257 2.59413C3.77864 2.83573 3.84911 3.07317 3.93653 3.30454L3.29486 3.60246C3.24 3.62763 3.19065 3.66339 3.14964 3.70769C3.10864 3.75199 3.07679 3.80395 3.05592 3.86059C3.03505 3.91723 3.02558 3.97744 3.02804 4.03775C3.03051 4.09806 3.04486 4.15729 3.07028 4.21204C3.72991 5.62497 4.86568 6.76074 6.27861 7.42038C6.3902 7.46622 6.51536 7.46622 6.62695 7.42038C6.68411 7.39993 6.73664 7.36833 6.78148 7.32742C6.82633 7.28651 6.8626 7.23709 6.8882 7.18204L7.17236 6.54038C7.40931 6.62511 7.65113 6.69552 7.89653 6.75121C8.01875 6.77871 8.1425 6.80163 8.26778 6.81996C8.37202 6.84232 8.4652 6.90032 8.53129 6.98398C8.59738 7.06763 8.63223 7.17171 8.62986 7.27829L8.63903 8.70829Z" fill="#50A5F1"/>
</svg>
