<svg width="14" height="14" viewBox="0 0 14 14" fill="none" xmlns="http://www.w3.org/2000/svg">
<path d="M12.5335 2.39967L13.4668 1.46634C13.7335 1.19967 13.7335 0.799675 13.4668 0.533008C13.2002 0.266341 12.8002 0.266341 12.5335 0.533008L5.5335 7.53301C5.00016 7.19967 4.3335 6.99967 3.66683 6.99967C1.80016 6.99967 0.333496 8.46634 0.333496 10.333C0.333496 12.1997 1.80016 13.6663 3.66683 13.6663C5.5335 13.6663 7.00016 12.1997 7.00016 10.333C7.00016 9.66634 6.80016 8.99967 6.46683 8.46634L9.7335 5.19967L10.6668 6.13301C10.9335 6.39967 11.3335 6.39967 11.6002 6.13301C11.8668 5.86634 11.8668 5.46634 11.6002 5.19967L10.6668 4.26634L11.6002 3.33301L12.5335 4.26634C12.8002 4.53301 13.2002 4.53301 13.4668 4.26634C13.7335 3.99967 13.7335 3.59967 13.4668 3.33301L12.5335 2.39967ZM3.66683 12.333C2.5335 12.333 1.66683 11.4663 1.66683 10.333C1.66683 9.19967 2.5335 8.33301 3.66683 8.33301C4.80016 8.33301 5.66683 9.19967 5.66683 10.333C5.66683 11.4663 4.80016 12.333 3.66683 12.333Z" fill="#50A5F1"/>
</svg>
