<svg width="15" height="15" viewBox="0 0 15 15" fill="none" xmlns="http://www.w3.org/2000/svg">
<path d="M1.482 0.633711L10.0175 0.616211C10.835 0.616211 11.5 1.28121 11.5 2.09871V3.37971L13.5175 3.38396C14.335 3.38396 15 4.04896 15 4.86646V10.1517C15 10.9692 14.335 11.634 13.5175 11.634H12V14.134C12 14.2372 11.9365 14.33 11.84 14.3672C11.8108 14.3785 11.7803 14.384 11.75 14.384C11.681 14.384 11.6133 14.3552 11.565 14.3022L9.139 11.6335L4.9825 11.6165C4.165 11.6165 3.5 10.9515 3.5 10.1342V10.106L2.185 11.5525C2.13675 11.6055 2.069 11.6342 2 11.6342C1.96975 11.6342 1.93925 11.6287 1.91 11.6175C1.8135 11.5802 1.75 11.4875 1.75 11.3842V8.88421H1.4825C0.665 8.88421 0 8.21921 0 7.40196V2.11621C0 1.29896 0.66475 0.633961 1.482 0.633711ZM4 10.134C4 10.6757 4.44075 11.1162 4.9835 11.1162L9.251 11.1337C9.321 11.134 9.388 11.1637 9.435 11.2155L11.5 13.4872V11.3837C11.5 11.2457 11.6118 11.1337 11.75 11.1337H13.5175C14.0593 11.1337 14.5 10.693 14.5 10.1515V4.86621C14.5 4.32446 14.0592 3.88371 13.517 3.88371L11.25 3.87896L4.9825 3.86596C4.44075 3.86596 4 4.30671 4 4.84846V9.45871V10.134ZM0.5 7.40146C0.5 7.94321 0.94075 8.38371 1.4825 8.38371H2C2.13825 8.38371 2.25 8.49571 2.25 8.63371V10.7372L3.5 9.36221V4.84871C3.5 4.03121 4.165 3.36621 4.983 3.36621L11 3.37846V2.09846C11 1.55671 10.5592 1.11596 10.018 1.11596L1.48275 1.13346C0.941 1.13346 0.49975 1.57421 0.49975 2.11596L0.5 7.40146Z" fill="#0558A2"/>
</svg>
