<svg width="14" height="15" viewBox="0 0 14 15" fill="none" xmlns="http://www.w3.org/2000/svg">
<path d="M12.9999 5.6665C13.0875 5.66652 13.1742 5.6493 13.2551 5.6158C13.336 5.58231 13.4095 5.5332 13.4714 5.47129C13.5333 5.40938 13.5824 5.33588 13.6159 5.25498C13.6494 5.17409 13.6666 5.08739 13.6666 4.99984V2.99984C13.6666 2.85995 13.6226 2.7236 13.5408 2.61013C13.459 2.49666 13.3436 2.41183 13.2109 2.36768L7.21086 0.367676C7.07392 0.322103 6.92591 0.322103 6.78898 0.367676L0.788979 2.36768C0.656247 2.41183 0.540791 2.49666 0.458989 2.61013C0.377187 2.7236 0.333195 2.85995 0.333252 2.99984V4.99984C0.333229 5.08739 0.350458 5.17409 0.383953 5.25498C0.417448 5.33588 0.466553 5.40938 0.528463 5.47129C0.590374 5.5332 0.663875 5.58231 0.744769 5.6158C0.825663 5.6493 0.912364 5.66652 0.999919 5.6665H1.66659V10.456C1.27774 10.593 0.940829 10.8469 0.702097 11.1831C0.463365 11.5192 0.33452 11.9209 0.333252 12.3332V13.6665C0.333229 13.7541 0.350458 13.8408 0.383953 13.9217C0.417448 14.0025 0.466553 14.076 0.528463 14.138C0.590374 14.1999 0.663875 14.249 0.744769 14.2825C0.825663 14.316 0.912364 14.3332 0.999919 14.3332H12.9999C13.0875 14.3332 13.1742 14.316 13.2551 14.2825C13.336 14.249 13.4095 14.1999 13.4714 14.138C13.5333 14.076 13.5824 14.0025 13.6159 13.9217C13.6494 13.8408 13.6666 13.7541 13.6666 13.6665V12.3332C13.6653 11.9209 13.5365 11.5192 13.2977 11.1831C13.059 10.8469 12.7221 10.593 12.3333 10.456V5.6665H12.9999ZM12.3333 12.9998H1.66659V12.3332C1.66676 12.1564 1.73706 11.9869 1.86204 11.862C1.98703 11.737 2.1565 11.6667 2.33325 11.6665H11.6666C11.8433 11.6667 12.0128 11.737 12.1378 11.862C12.2628 11.9869 12.3331 12.1564 12.3333 12.3332V12.9998ZM2.99992 10.3332V5.6665H4.33325V10.3332H2.99992ZM5.66659 10.3332V5.6665H8.33325V10.3332H5.66659ZM9.66659 10.3332V5.6665H10.9999V10.3332H9.66659ZM1.66659 4.33317V3.4803L6.99992 1.7023L12.3333 3.4803V4.33317H1.66659Z" fill="#50A5F1"/>
</svg>
