<svg width="17" height="14" viewBox="0 0 17 14" fill="none" xmlns="http://www.w3.org/2000/svg">
<path d="M16.4244 1.24675H13.5465V0.155844C13.5465 0.0701299 13.4817 0 13.4026 0H12.3953C12.3161 0 12.2514 0.0701299 12.2514 0.155844V1.24675H9.58926V0.155844C9.58926 0.0701299 9.52451 0 9.44536 0H8.43808C8.35893 0 8.29418 0.0701299 8.29418 0.155844V1.24675H5.63207V0.155844C5.63207 0.0701299 5.56731 0 5.48817 0H4.48089C4.40174 0 4.33699 0.0701299 4.33699 0.155844V1.24675H1.45903C1.14066 1.24675 0.883438 1.52532 0.883438 1.87013V13.0909C0.883438 13.4357 1.14066 13.7143 1.45903 13.7143H16.4244C16.7428 13.7143 17 13.4357 17 13.0909V1.87013C17 1.52532 16.7428 1.24675 16.4244 1.24675ZM15.7049 12.3117H2.17852V2.64935H4.33699V3.74026C4.33699 3.82597 4.40174 3.8961 4.48089 3.8961H5.48817C5.56731 3.8961 5.63207 3.82597 5.63207 3.74026V2.64935H8.29418V3.74026C8.29418 3.82597 8.35893 3.8961 8.43808 3.8961H9.44536C9.52451 3.8961 9.58926 3.82597 9.58926 3.74026V2.64935H12.2514V3.74026C12.2514 3.82597 12.3161 3.8961 12.3953 3.8961H13.4026C13.4817 3.8961 13.5465 3.82597 13.5465 3.74026V2.64935H15.7049V12.3117ZM7.21494 6.54545H3.90529C3.82615 6.54545 3.7614 6.61558 3.7614 6.7013V7.63636C3.7614 7.72208 3.82615 7.79221 3.90529 7.79221H7.21494C7.29409 7.79221 7.35884 7.72208 7.35884 7.63636V6.7013C7.35884 6.61558 7.29409 6.54545 7.21494 6.54545ZM7.21494 9.19481H3.90529C3.82615 9.19481 3.7614 9.26494 3.7614 9.35065V10.2857C3.7614 10.3714 3.82615 10.4416 3.90529 10.4416H7.21494C7.29409 10.4416 7.35884 10.3714 7.35884 10.2857V9.35065C7.35884 9.26494 7.29409 9.19481 7.21494 9.19481ZM12.7586 5.73896L10.8951 8.53831L9.94541 7.11429C9.89145 7.03247 9.80511 6.98571 9.71337 6.98571H8.72587C8.60896 6.98571 8.5406 7.12987 8.60896 7.23312L10.6613 10.3149C10.6878 10.3548 10.7227 10.3872 10.763 10.4096C10.8033 10.4319 10.848 10.4436 10.8933 10.4436C10.9387 10.4436 10.9833 10.4319 11.0237 10.4096C11.064 10.3872 11.0989 10.3548 11.1254 10.3149L14.0933 5.85974C14.1616 5.75649 14.0933 5.61234 13.9763 5.61234H12.9888C12.8989 5.61039 12.8126 5.65909 12.7586 5.73896Z" fill="#556EE6"/>
</svg>
