<svg width="16" height="14" viewBox="0 0 16 14" fill="none" xmlns="http://www.w3.org/2000/svg">
<path d="M13.25 2.5H11V1.75C11 0.925 10.325 0.25 9.5 0.25H6.5C5.675 0.25 5 0.925 5 1.75V2.5H2.75C1.475 2.5 0.5 3.475 0.5 4.75V11.5C0.5 12.775 1.475 13.75 2.75 13.75H13.25C14.525 13.75 15.5 12.775 15.5 11.5V4.75C15.5 3.475 14.525 2.5 13.25 2.5ZM6.5 1.75H9.5V2.5H6.5V1.75ZM14 11.5C14 11.95 13.7 12.25 13.25 12.25H2.75C2.3 12.25 2 11.95 2 11.5V7.3L5.525 8.5C5.6 8.5 5.675 8.5 5.75 8.5H10.25C10.325 8.5 10.4 8.5 10.475 8.425L14 7.225V11.5Z" fill="#50A5F1"/>
</svg>
