<svg width="16" height="16" viewBox="0 0 16 16" fill="none" xmlns="http://www.w3.org/2000/svg">
<path d="M11.15 9.17498C11.15 9.17498 11.075 9.17498 11.15 9.17498C11 9.09998 10.925 9.02498 10.775 9.02498C12.725 7.52498 13.1 4.67498 11.525 2.72498C9.95 0.774976 7.175 0.399976 5.225 1.97498C3.275 3.54998 2.9 6.32498 4.475 8.27498C4.7 8.57498 4.925 8.79998 5.225 9.02498C5.15 9.09998 5 9.09998 4.925 9.17498C4.925 9.17498 4.925 9.17498 4.85 9.17498C2.45 10.3 0.8 12.55 0.5 15.175C0.5 15.55 0.8 15.925 1.25 16H14.75C15.125 15.925 15.425 15.55 15.425 15.175C15.2 12.55 13.55 10.3 11.15 9.17498ZM5 5.19998C5.15 3.54998 6.65 2.34998 8.225 2.49998C9.65 2.64998 10.775 3.77498 10.925 5.19998H5ZM8 11.65L6.575 10.225C7.55 9.99998 8.525 9.99998 9.5 10.225L8 11.65Z" fill="#50A5F1"/>
</svg>
