<svg width="12" height="12" viewBox="0 0 12 12" fill="none" xmlns="http://www.w3.org/2000/svg">
<path d="M11.3492 0.201656C10.931 0.129634 10.5076 0.0925614 10.0833 0.0908229C8.63572 0.0896361 7.21829 0.504741 6.00001 1.28666C4.77859 0.515007 3.36139 0.110091 1.91668 0.119989C1.49239 0.121728 1.06898 0.158801 0.650842 0.230823C0.513879 0.254435 0.389847 0.326174 0.301083 0.433119C0.212319 0.540064 0.164655 0.675187 0.166675 0.814156V7.81416C0.165426 7.89987 0.183082 7.9848 0.218388 8.06291C0.253693 8.14103 0.305781 8.2104 0.370943 8.26609C0.436106 8.32179 0.512742 8.36244 0.5954 8.38515C0.678057 8.40786 0.764704 8.41207 0.849175 8.39749C1.6851 8.25276 2.54154 8.27677 3.36805 8.46812C4.19455 8.65947 4.97441 9.01428 5.66168 9.51166L5.73168 9.55249H5.79584C5.86053 9.57944 5.92992 9.59332 6.00001 9.59332C6.07009 9.59332 6.13948 9.57944 6.20418 9.55249H6.26834L6.33834 9.51166C7.02082 9.00316 7.79843 8.63685 8.6251 8.43445C9.45176 8.23204 10.3106 8.19765 11.1508 8.33332C11.2353 8.3479 11.322 8.34369 11.4046 8.32098C11.4873 8.29827 11.5639 8.25762 11.6291 8.20192C11.6942 8.14623 11.7463 8.07686 11.7816 7.99875C11.8169 7.92063 11.8346 7.8357 11.8333 7.74999V0.749989C11.8273 0.617079 11.7759 0.490237 11.6879 0.390503C11.5998 0.290769 11.4803 0.224136 11.3492 0.201656ZM5.41668 7.95416C4.33744 7.38639 3.13614 7.09007 1.91668 7.09082C1.72418 7.09082 1.53168 7.09082 1.33334 7.09082V1.25749C1.52763 1.24629 1.72239 1.24629 1.91668 1.25749C3.16115 1.25611 4.37847 1.62131 5.41668 2.30749V7.95416ZM10.6667 7.11416C10.4683 7.11416 10.2758 7.11416 10.0833 7.11416C8.86387 7.1134 7.66258 7.40972 6.58334 7.97749V2.30749C7.62155 1.62131 8.83887 1.25611 10.0833 1.25749C10.2776 1.24629 10.4724 1.24629 10.6667 1.25749V7.11416ZM11.3492 9.53499C10.931 9.46297 10.5076 9.42589 10.0833 9.42416C8.63572 9.42297 7.21829 9.83807 6.00001 10.62C4.78173 9.83807 3.3643 9.42297 1.91668 9.42416C1.49239 9.42589 1.06898 9.46297 0.650842 9.53499C0.574908 9.54704 0.502105 9.57398 0.43662 9.61427C0.371135 9.65455 0.314259 9.70739 0.269264 9.76973C0.224269 9.83207 0.192042 9.90269 0.174436 9.97753C0.15683 10.0524 0.154193 10.13 0.166675 10.2058C0.19632 10.3573 0.284795 10.4909 0.41272 10.5772C0.540645 10.6636 0.69759 10.6958 0.849175 10.6667C1.6851 10.5219 2.54154 10.5459 3.36805 10.7373C4.19455 10.9286 4.97441 11.2834 5.66168 11.7808C5.76047 11.8512 5.87873 11.889 6.00001 11.889C6.12129 11.889 6.23955 11.8512 6.33834 11.7808C7.02561 11.2834 7.80547 10.9286 8.63197 10.7373C9.45847 10.5459 10.3149 10.5219 11.1508 10.6667C11.3024 10.6958 11.4594 10.6636 11.5873 10.5772C11.7152 10.4909 11.8037 10.3573 11.8333 10.2058C11.8458 10.13 11.8432 10.0524 11.8256 9.97753C11.808 9.90269 11.7757 9.83207 11.7308 9.76973C11.6858 9.70739 11.6289 9.65455 11.5634 9.61427C11.4979 9.57398 11.4251 9.54704 11.3492 9.53499Z" fill="#50A5F1"/>
</svg>
