<svg width="20" height="20" viewBox="0 0 20 20" fill="none" xmlns="http://www.w3.org/2000/svg">
<circle cx="10" cy="10" r="10" fill="#50A5F1"/>
<path d="M12.4498 10.525C12.4498 10.525 12.3915 10.525 12.4498 10.525C12.3332 10.4666 12.2748 10.4083 12.1582 10.4083C13.6748 9.24163 13.9665 7.02497 12.7415 5.5083C11.5165 3.99163 9.35817 3.69997 7.8415 4.92497C6.32484 6.14997 6.03317 8.3083 7.25817 9.82497C7.43317 10.0583 7.60817 10.2333 7.8415 10.4083C7.78317 10.4666 7.6665 10.4666 7.60817 10.525C7.60817 10.525 7.60817 10.525 7.54984 10.525C5.68317 11.4 4.39984 13.15 4.1665 15.1916C4.1665 15.4833 4.39984 15.775 4.74984 15.8333H15.2498C15.5415 15.775 15.7748 15.4833 15.7748 15.1916C15.5998 13.15 14.3165 11.4 12.4498 10.525ZM7.6665 7.4333C7.78317 6.14997 8.94984 5.21663 10.1748 5.3333C11.2832 5.44997 12.1582 6.32497 12.2748 7.4333H7.6665ZM9.99984 12.45L8.8915 11.3416C9.64984 11.1666 10.4082 11.1666 11.1665 11.3416L9.99984 12.45Z" fill="white"/>
</svg>
