<svg width="25" height="24" viewBox="0 0 25 24" fill="none" xmlns="http://www.w3.org/2000/svg">
<path d="M18.4835 15.6148H17.3153L16.9013 15.2316C18.3504 13.6133 19.2228 11.5124 19.2228 9.22695C19.2228 4.13083 14.9199 0 9.6114 0C4.30295 0 0 4.13083 0 9.22695C0 14.3231 4.30295 18.4539 9.6114 18.4539C11.9921 18.4539 14.1805 17.6164 15.8662 16.2252L16.2655 16.6227V17.7441L23.2759 24L25 21.5172L18.4835 15.6148ZM9.6114 15.6148C5.9295 15.6148 2.95735 12.7616 2.95735 9.22695C2.95735 5.69232 5.9295 2.83906 9.6114 2.83906C13.2933 2.83906 16.2655 5.69232 16.2655 9.22695C16.2655 12.7616 13.2933 15.6148 9.6114 15.6148Z" fill="#556EE6"/>
</svg>
