<svg width="21" height="21" viewBox="0 0 21 21" fill="none" xmlns="http://www.w3.org/2000/svg">
<path d="M15.8128 21H3.16255C2.32379 21 1.51938 20.6668 0.92629 20.0737C0.333197 19.4806 0 18.6762 0 17.8374V7.29561C0 6.45685 0.333197 5.65244 0.92629 5.05934C1.51938 4.46625 2.32379 4.13305 3.16255 4.13305H4.21674C4.23447 3.23978 4.53547 2.37522 5.07633 1.66408C5.61719 0.95294 6.36996 0.431971 7.22605 0.176315C8.08214 -0.0793396 8.99732 -0.0564665 9.83957 0.241636C10.6818 0.539738 11.4076 1.09766 11.9123 1.83493C12.385 2.50871 12.6423 3.31001 12.6502 4.13305H15.8128C16.0923 4.13305 16.3605 4.24412 16.5582 4.44182C16.7559 4.63952 16.8669 4.90765 16.8669 5.18724V8.34979C17.7602 8.36752 18.6248 8.66853 19.3359 9.20939C20.0471 9.75025 20.568 10.503 20.8237 11.3591C21.0793 12.2152 21.0565 13.1304 20.7584 13.9726C20.4603 14.8149 19.9023 15.5407 19.1651 16.0453C18.4913 16.5181 17.69 16.7754 16.8669 16.7833V19.9458C16.8669 20.2254 16.7559 20.4935 16.5582 20.6912C16.3605 20.8889 16.0923 21 15.8128 21ZM3.16255 6.24142C2.88297 6.24142 2.61483 6.35249 2.41713 6.55019C2.21943 6.74788 2.10837 7.01602 2.10837 7.29561V17.8374C2.10837 18.117 2.21943 18.3852 2.41713 18.5829C2.61483 18.7806 2.88297 18.8916 3.16255 18.8916H14.7586V15.5393C14.7577 15.3703 14.7974 15.2035 14.8745 15.0531C14.9515 14.9026 15.0636 14.7729 15.2013 14.6749C15.3386 14.577 15.4974 14.5135 15.6643 14.4896C15.8312 14.4658 16.0014 14.4823 16.1606 14.5379C16.4611 14.6604 16.7883 14.7025 17.11 14.66C17.4316 14.6175 17.7367 14.4918 17.9949 14.2954C18.252 14.1386 18.4725 13.9286 18.6416 13.6795C18.8107 13.4304 18.9245 13.1479 18.9753 12.8512C19.016 12.5518 18.9918 12.2473 18.9045 11.9581C18.8172 11.6689 18.6688 11.4018 18.4693 11.175C18.1995 10.8473 17.8321 10.6143 17.4206 10.51C17.0091 10.4057 16.5751 10.4355 16.1817 10.5952C16.0225 10.6507 15.8523 10.6673 15.6854 10.6434C15.5185 10.6196 15.3597 10.5561 15.2224 10.4582C15.0847 10.3601 14.9726 10.2304 14.8956 10.08C14.8185 9.92953 14.7788 9.76276 14.7797 9.59373V6.24142H11.4063C11.233 6.25124 11.06 6.21814 10.9026 6.14505C10.7452 6.07196 10.6083 5.96115 10.504 5.82245C10.3998 5.68375 10.3313 5.52145 10.3048 5.34996C10.2783 5.17846 10.2945 5.00307 10.3521 4.83936C10.4746 4.53892 10.5167 4.21172 10.4742 3.89005C10.4317 3.56838 10.306 3.26335 10.1096 3.00508C9.95398 2.74065 9.74083 2.51464 9.48597 2.34378C9.2311 2.17292 8.94106 2.06161 8.63733 2.01807C8.3336 1.97454 8.02397 1.9999 7.73138 2.09229C7.43878 2.18468 7.17073 2.34172 6.94707 2.55178C6.73937 2.75778 6.57682 3.00475 6.46974 3.27699C6.36266 3.54922 6.3134 3.84075 6.3251 4.13305C6.32755 4.37486 6.37398 4.61419 6.46215 4.83936C6.51788 4.99877 6.5345 5.16924 6.5106 5.33641C6.48671 5.50359 6.42301 5.66257 6.32485 5.79999C6.22669 5.93741 6.09696 6.04923 5.94657 6.12605C5.79619 6.20287 5.62954 6.24244 5.46067 6.24142H3.16255Z" fill="#495057"/>
</svg>
