<svg width="15" height="13" viewBox="0 0 15 13" fill="none" xmlns="http://www.w3.org/2000/svg">
<path d="M1.12502 6.50016H5.37502C5.56288 6.50016 5.74305 6.42553 5.87589 6.2927C6.00873 6.15986 6.08335 5.97969 6.08335 5.79183V1.54183C6.08335 1.35397 6.00873 1.1738 5.87589 1.04096C5.74305 0.908124 5.56288 0.833496 5.37502 0.833496H1.12502C0.937159 0.833496 0.756991 0.908124 0.624153 1.04096C0.491315 1.1738 0.416687 1.35397 0.416687 1.54183V5.79183C0.416687 5.97969 0.491315 6.15986 0.624153 6.2927C0.756991 6.42553 0.937159 6.50016 1.12502 6.50016ZM1.83335 2.25016H4.66669V5.0835H1.83335V2.25016ZM8.20835 3.66683H13.875C14.0629 3.66683 14.2431 3.5922 14.3759 3.45936C14.5087 3.32652 14.5834 3.14636 14.5834 2.9585C14.5834 2.77063 14.5087 2.59047 14.3759 2.45763C14.2431 2.32479 14.0629 2.25016 13.875 2.25016H8.20835C8.02049 2.25016 7.84033 2.32479 7.70749 2.45763C7.57465 2.59047 7.50002 2.77063 7.50002 2.9585C7.50002 3.14636 7.57465 3.32652 7.70749 3.45936C7.84033 3.5922 8.02049 3.66683 8.20835 3.66683ZM8.20835 10.7502H1.12502C0.937159 10.7502 0.756991 10.8248 0.624153 10.9576C0.491315 11.0905 0.416687 11.2706 0.416687 11.4585C0.416687 11.6464 0.491315 11.8265 0.624153 11.9594C0.756991 12.0922 0.937159 12.1668 1.12502 12.1668H8.20835C8.39622 12.1668 8.57638 12.0922 8.70922 11.9594C8.84206 11.8265 8.91669 11.6464 8.91669 11.4585C8.91669 11.2706 8.84206 11.0905 8.70922 10.9576C8.57638 10.8248 8.39622 10.7502 8.20835 10.7502ZM13.875 7.91683H1.12502C0.937159 7.91683 0.756991 7.99146 0.624153 8.12429C0.491315 8.25713 0.416687 8.4373 0.416687 8.62516C0.416687 8.81302 0.491315 8.99319 0.624153 9.12603C0.756991 9.25887 0.937159 9.33349 1.12502 9.33349H13.875C14.0629 9.33349 14.2431 9.25887 14.3759 9.12603C14.5087 8.99319 14.5834 8.81302 14.5834 8.62516C14.5834 8.4373 14.5087 8.25713 14.3759 8.12429C14.2431 7.99146 14.0629 7.91683 13.875 7.91683ZM13.875 5.0835H8.20835C8.02049 5.0835 7.84033 5.15812 7.70749 5.29096C7.57465 5.4238 7.50002 5.60397 7.50002 5.79183C7.50002 5.97969 7.57465 6.15986 7.70749 6.2927C7.84033 6.42553 8.02049 6.50016 8.20835 6.50016H13.875C14.0629 6.50016 14.2431 6.42553 14.3759 6.2927C14.5087 6.15986 14.5834 5.97969 14.5834 5.79183C14.5834 5.60397 14.5087 5.4238 14.3759 5.29096C14.2431 5.15812 14.0629 5.0835 13.875 5.0835Z" fill="#50A5F1"/>
</svg>
