<svg width="16" height="16" viewBox="0 0 16 16" fill="none" xmlns="http://www.w3.org/2000/svg">
<path d="M0.875116 5.675L7.62512 9.575C7.77512 9.65 7.85012 9.65 8.00012 9.65C8.15012 9.65 8.22512 9.65 8.37512 9.575L15.1251 5.675C15.2751 5.6 15.3501 5.525 15.4251 5.375C15.5751 5 15.5001 4.55 15.1251 4.325L8.37512 0.425C8.15012 0.275 7.85012 0.275 7.62512 0.425L0.875116 4.325C0.725117 4.4 0.650116 4.475 0.575116 4.625C0.425116 5 0.500117 5.45 0.875116 5.675ZM15.1251 7.325L14.9751 7.25L8.37512 11.075C8.15012 11.225 7.85012 11.225 7.62512 11.075L1.02512 7.25L0.875116 7.325C0.500117 7.55 0.425116 8 0.575116 8.375C0.650116 8.525 0.725117 8.6 0.875116 8.675L7.62512 12.575C7.85012 12.725 8.15012 12.725 8.37512 12.575L15.1251 8.675C15.5001 8.45 15.5751 8 15.4251 7.625C15.3501 7.475 15.2751 7.4 15.1251 7.325ZM15.1251 10.325L14.9751 10.25L8.37512 14.075C8.15012 14.225 7.85012 14.225 7.62512 14.075L1.02512 10.25L0.875116 10.325C0.500117 10.55 0.425116 11 0.575116 11.375C0.650116 11.525 0.725117 11.6 0.875116 11.675L7.62512 15.575C7.85012 15.725 8.15012 15.725 8.37512 15.575L15.1251 11.675C15.5001 11.45 15.5751 11 15.4251 10.625C15.3501 10.475 15.2751 10.4 15.1251 10.325Z" fill="#50A5F1"/>
</svg>
