<svg width="21" height="21" viewBox="0 0 21 21" fill="none" xmlns="http://www.w3.org/2000/svg">
<path d="M19.95 18.9H18.9V3.15C18.9 2.87152 18.7894 2.60445 18.5925 2.40754C18.3955 2.21062 18.1285 2.1 17.85 2.1C17.5715 2.1 17.3044 2.21062 17.1075 2.40754C16.9106 2.60445 16.8 2.87152 16.8 3.15V18.9H14.7V7.35C14.7 7.07152 14.5894 6.80445 14.3925 6.60754C14.1955 6.41062 13.9285 6.3 13.65 6.3C13.3715 6.3 13.1045 6.41062 12.9075 6.60754C12.7106 6.80445 12.6 7.07152 12.6 7.35V18.9H10.5V11.55C10.5 11.2715 10.3894 11.0045 10.1925 10.8075C9.99555 10.6106 9.72848 10.5 9.45 10.5C9.17152 10.5 8.90445 10.6106 8.70754 10.8075C8.51062 11.0045 8.4 11.2715 8.4 11.55V18.9H6.3V15.75C6.3 15.4715 6.18937 15.2044 5.99246 15.0075C5.79555 14.8106 5.52848 14.7 5.25 14.7C4.97152 14.7 4.70445 14.8106 4.50754 15.0075C4.31062 15.2044 4.2 15.4715 4.2 15.75V18.9H2.1V1.05C2.1 0.771523 1.98938 0.504451 1.79246 0.307538C1.59555 0.110625 1.32848 0 1.05 0C0.771523 0 0.504451 0.110625 0.307538 0.307538C0.110625 0.504451 0 0.771523 0 1.05V19.95C0 20.2285 0.110625 20.4955 0.307538 20.6925C0.504451 20.8894 0.771523 21 1.05 21H19.95C20.2285 21 20.4955 20.8894 20.6925 20.6925C20.8894 20.4955 21 20.2285 21 19.95C21 19.6715 20.8894 19.4044 20.6925 19.2075C20.4955 19.0106 20.2285 18.9 19.95 18.9Z" fill="#495057"/>
</svg>
