<svg width="14" height="14" viewBox="0 0 14 14" fill="none" xmlns="http://www.w3.org/2000/svg">
<path d="M7 14C5.73307 14 4.56185 13.6878 3.48633 13.0635C2.41081 12.4391 1.56087 11.5892 0.936523 10.5137C0.312174 9.43815 0 8.26693 0 7C0 5.73307 0.312174 4.56185 0.936523 3.48633C1.56087 2.41081 2.41081 1.56087 3.48633 0.936523C4.56185 0.312174 5.73307 0 7 0C8.26693 0 9.43815 0.312174 10.5137 0.936523C11.5892 1.56087 12.4391 2.41081 13.0635 3.48633C13.6878 4.56185 14 5.73307 14 7C14 8.26693 13.6878 9.43815 13.0635 10.5137C12.4391 11.5892 11.5892 12.4391 10.5137 13.0635C9.43815 13.6878 8.26693 14 7 14ZM0.875 7C0.875 7.82943 1.03223 8.61784 1.34668 9.36523C1.66113 10.1126 2.10091 10.7689 2.66602 11.334L7 7V0.875C6.17057 0.875 5.3776 1.03678 4.62109 1.36035C3.86458 1.68392 3.21289 2.11914 2.66602 2.66602C2.11914 3.21289 1.68392 3.86458 1.36035 4.62109C1.03678 5.3776 0.875 6.17057 0.875 7Z" fill="white"/>
</svg>
