<svg width="16" height="12" viewBox="0 0 16 12" fill="none" xmlns="http://www.w3.org/2000/svg">
<path d="M16 11.5C16 11.6354 15.9505 11.7526 15.8516 11.8516C15.7526 11.9505 15.6354 12 15.5 12C15.3646 12 15.2474 11.9505 15.1484 11.8516C15.0495 11.7526 15 11.6354 15 11.5V4.92188L9.48438 7.6875C9.06771 7.89583 8.57292 8 8 8C7.42708 8 6.93229 7.89583 6.51562 7.6875L0.609375 4.73438C0.203125 4.52604 0 4.27865 0 3.99219C0 3.70573 0.203125 3.46354 0.609375 3.26562L6.51562 0.3125C6.93229 0.104167 7.42708 0 8 0C8.57292 0 9.06771 0.104167 9.48438 0.3125L15.3906 3.26562C15.7448 3.44271 15.9427 3.66146 15.9844 3.92188C15.9948 3.93229 16 3.95312 16 3.98438V11.5ZM9.98438 8.6875L13 7.17188V9.375C13 9.82292 12.513 10.2057 11.5391 10.5234C10.5651 10.8411 9.38542 11 8 11C6.61458 11 5.4349 10.8411 4.46094 10.5234C3.48698 10.2057 3 9.82292 3 9.375V7.17188L6.01562 8.6875C6.43229 8.89583 7.09375 9 8 9C8.90625 9 9.56771 8.89583 9.98438 8.6875Z" fill="#50A5F1"/>
</svg>
