<svg width="18" height="19" viewBox="0 0 18 19" fill="none" xmlns="http://www.w3.org/2000/svg">
<path d="M5.82561 2.27246C5.65084 2.27246 5.47607 2.38897 5.47607 2.62199C5.47607 2.79676 5.65084 2.91327 5.82561 2.91327C6.69944 2.91327 7.45676 3.61234 7.45676 4.54442C7.45676 4.71919 7.57327 4.89396 7.80629 4.89396C7.98106 4.89396 8.15582 4.77745 8.15582 4.54442C8.09757 3.2628 7.04897 2.27246 5.82561 2.27246Z" fill="#50A5F1"/>
<path d="M12.8162 9.32087C12.0589 9.32087 11.3598 9.49564 10.719 9.84517C10.3112 9.08785 9.72866 8.5053 8.97134 7.92274L8.91308 7.86449C9.78692 7.04891 10.3112 5.8838 10.3112 4.54393C10.3695 2.03894 8.33053 0 5.82555 0C3.32056 0 1.28162 2.03894 1.28162 4.54393C1.28162 5.82555 1.86417 7.04891 2.73801 7.86449H2.67975C1.10685 9.20436 0.291277 10.0782 0 13.7483C0 14.1561 0.174766 14.7969 1.0486 15.3212C2.0972 15.9037 3.96137 16.2533 5.82555 16.2533C6.81589 16.2533 7.74798 16.195 8.62181 16.0202C9.37913 17.5931 10.952 18.7 12.8162 18.7C15.3794 18.7 17.4766 16.6028 17.4766 14.0396C17.4766 11.4181 15.3794 9.32087 12.8162 9.32087ZM1.68941 14.2143C1.5729 14.1561 1.28162 13.9231 1.28162 13.8065C1.51464 10.5442 2.21371 9.96168 3.49533 8.85483L3.7866 8.62181C3.90312 8.68006 4.01963 8.68006 4.07788 8.73832L5.12648 10.1947L3.84486 13.1657L5.24299 14.9134C3.84486 14.8551 2.50498 14.6221 1.68941 14.2143ZM5.82555 7.80623C4.01963 7.80623 2.56324 6.34984 2.56324 4.54393C2.56324 2.73801 4.01963 1.28162 5.82555 1.28162C7.63146 1.28162 9.08785 2.73801 9.08785 4.54393C9.0296 6.34984 7.57321 7.80623 5.82555 7.80623ZM6.34984 14.9134L7.74798 13.1657L6.46636 10.1947L7.51495 8.73832C7.63146 8.68006 7.68972 8.62181 7.80623 8.62181L8.09751 8.85483C8.73832 9.43738 9.26262 9.84517 9.61215 10.5442C9.37913 10.7773 9.14611 11.0103 8.97134 11.3016C8.73832 10.7773 8.38879 10.3695 7.86449 10.0782C7.68972 10.0199 7.51495 10.0782 7.4567 10.1947C7.39844 10.3695 7.4567 10.5442 7.57321 10.6025C8.09751 10.8938 8.38879 11.4181 8.56355 12.0006C8.27227 12.5832 8.15576 13.224 8.15576 13.9231C8.15576 14.1561 8.15576 14.4474 8.21402 14.6804C7.63146 14.8551 6.99065 14.9134 6.34984 14.9134ZM12.8162 17.4766C10.8938 17.4766 9.32087 15.9037 9.32087 13.9813C9.32087 12.0589 10.8938 10.486 12.8162 10.486C14.7386 10.486 16.3115 12.0589 16.3115 13.9813C16.3115 15.9037 14.7386 17.4766 12.8162 17.4766Z" fill="#50A5F1"/>
<path d="M14.7973 13.3977H13.3992V11.9995C13.3992 11.65 13.1662 11.417 12.8167 11.417C12.4671 11.417 12.2341 11.65 12.2341 11.9995V13.3977H10.836C10.4864 13.3977 10.2534 13.6307 10.2534 13.9802C10.2534 14.3298 10.4864 14.5628 10.836 14.5628H12.2341V15.9609C12.2341 16.3104 12.4671 16.5435 12.8167 16.5435C13.1662 16.5435 13.3992 16.3104 13.3992 15.9609V14.5628H14.7973C15.1469 14.5628 15.3799 14.3298 15.3799 13.9802C15.3799 13.6307 15.1469 13.3977 14.7973 13.3977Z" fill="#50A5F1"/>
</svg>
