<svg width="21" height="24" viewBox="0 0 21 24" fill="none" xmlns="http://www.w3.org/2000/svg">
<g clip-path="url(#clip0_1062_96)">
<path d="M7.79955 16.2741L7.79881 16.2738C7.02059 15.9986 6.1144 15.5368 5.57301 14.6094C3.09831 15.1993 1.25366 17.3395 1.11114 19.8293L1.11109 19.8302C1.05496 20.796 1.22658 21.426 1.48827 21.8244C1.73313 22.1972 2.13802 22.4919 2.84042 22.6352L2.8408 22.6353C3.54309 22.7788 4.24598 22.8688 4.92428 22.8745L4.92529 22.8745C8.37217 22.9064 11.8205 22.9026 15.2737 22.8924L7.79955 16.2741ZM7.79955 16.2741C9.54674 16.8906 11.3508 16.9222 13.1278 16.3026M7.79955 16.2741L13.1278 16.3026M13.1278 16.3026C13.9229 16.0259 14.8924 15.5665 15.4589 14.6078C17.5972 15.0809 19.457 16.9596 19.7892 19.1024M13.1278 16.3026L19.7892 19.1024M19.7892 19.1024C19.8819 19.7035 19.9307 20.243 19.8793 20.7229L19.7892 19.1024ZM17.5346 22.7614L17.5351 22.7613C18.4081 22.6693 18.9389 22.4279 19.262 22.1363C19.5695 21.8586 19.8025 21.4329 19.8793 20.723L17.5346 22.7614ZM17.5346 22.7614C16.7771 22.8415 16.0204 22.8899 15.274 22.8924L17.5346 22.7614Z" stroke="#495057" stroke-width="2.2"/>
<path d="M6.5929 10.007L6.59296 10.0071C6.9707 11.1562 7.68413 12.1154 8.72008 12.7916C9.22516 13.1212 9.7885 13.2964 10.3429 13.3216C9.92525 12.9879 9.64933 12.497 9.60172 11.9048C9.51764 10.8743 10.1811 9.9132 11.3084 9.76378L6.5929 10.007ZM6.5929 10.007C6.52389 9.79727 6.51358 9.54179 6.52475 9.18872M6.5929 10.007L6.52475 9.18872M6.02541 5.87087L6.02537 5.87101C6.00623 5.93624 6.01478 6.07744 6.07672 6.34583C6.12096 6.5366 6.17868 6.72127 6.2439 6.92991C6.26249 6.98937 6.28168 7.05078 6.30135 7.11484C6.38547 7.38883 6.47428 7.70049 6.51528 8.03033L6.02541 5.87087ZM6.02541 5.87087C6.55052 4.08007 7.6647 2.93334 9.469 2.53343L9.46917 2.53339M6.02541 5.87087L9.46917 2.53339M9.46917 2.53339C11.3563 2.11452 12.9166 2.67081 14.1459 4.16948C14.4319 4.51913 14.6459 4.96648 14.8686 5.47138C14.9657 5.69142 15.0072 5.85938 15.0074 6.00732C15.0077 6.14617 14.9718 6.30907 14.8433 6.52014C14.6319 6.86696 14.5738 7.2586 14.5474 7.56874C14.5361 7.70138 14.5296 7.83765 14.5238 7.96046C14.5226 7.98449 14.5215 8.00801 14.5204 8.03088C14.5132 8.17743 14.5054 8.30478 14.491 8.42194L14.4909 8.42229M9.46917 2.53339L14.4909 8.42229M14.4909 8.42229C14.4745 8.55572 14.4822 8.68899 14.4864 8.76145M14.4909 8.42229L14.4864 8.76145M6.52475 9.18872C6.52646 9.13477 6.52877 9.07755 6.53118 9.01775M6.52475 9.18872L6.53118 9.01775M6.53118 9.01775C6.54304 8.72418 6.55741 8.36829 6.51532 8.03064L6.53118 9.01775ZM14.4864 8.76145C14.4868 8.7695 14.4873 8.7768 14.4876 8.78327M14.4864 8.76145L14.4876 8.78327M14.4876 8.78327C14.492 8.86776 14.4895 8.88553 14.4895 8.88554M14.4876 8.78327L14.4895 8.88554M14.4895 8.88554C14.4454 9.10153 14.4668 9.31512 14.4805 9.44374M14.4895 8.88554L14.4805 9.44374M14.4805 9.44374C14.4839 9.47637 14.4871 9.50535 14.49 9.53136M14.4805 9.44374L14.49 9.53136M14.49 9.53136C14.4982 9.60599 14.5038 9.65627 14.5056 9.69891L14.49 9.53136ZM14.5721 9.67848C14.5721 9.67849 14.5716 9.67884 14.5703 9.67945C14.5715 9.67876 14.5721 9.67846 14.5721 9.67848ZM14.4764 9.70455C14.0217 9.78296 13.5417 9.8009 13.0333 9.80597C12.8442 9.8077 12.6581 9.79222 12.4417 9.77421C12.382 9.76925 12.32 9.76409 12.255 9.75904C11.9728 9.73715 11.6444 9.71903 11.3085 9.76377L14.4764 9.70455Z" stroke="#495057" stroke-width="1.2"/>
<path d="M12.2957 11.7418C12.1327 11.7067 11.9783 11.6781 11.8061 11.6621L12.2957 11.7418ZM12.2957 11.7418C12.1238 11.7785 11.9523 11.8109 11.781 11.838L11.781 11.838C11.7068 11.8497 11.6498 11.8487 11.6108 11.8428C11.5906 11.8397 11.5776 11.8358 11.5701 11.833C11.5659 11.8198 11.5588 11.7888 11.5598 11.7325L11.5598 11.7316C11.5602 11.7047 11.5626 11.6858 11.5649 11.6735C11.5753 11.6703 11.5906 11.6665 11.612 11.6633C11.6596 11.6563 11.7245 11.6545 11.806 11.6621L12.2957 11.7418ZM16.3399 10.576C16.4476 10.5669 16.5019 10.561 16.5483 10.5488C16.5485 10.5487 16.5486 10.5487 16.5488 10.5486L16.702 11.1287C16.8064 11.1011 16.9158 11.078 17.0259 11.0547L16.3399 10.576ZM16.3399 10.576C16.3794 10.4495 16.4006 10.3221 16.4135 10.2C16.4383 9.96525 16.4385 9.6762 16.4388 9.35213L16.4388 9.31999V9.31944V9.31869V9.31794V9.31719V9.31644V9.31569V9.31494V9.31419V9.31344V9.31269V9.31193V9.31118V9.31043V9.30968V9.30893V9.30818V9.30743V9.30668V9.30593V9.30518V9.30443V9.30368V9.30293V9.30217V9.30142V9.30067V9.29992V9.29917V9.29842V9.29767V9.29692V9.29617V9.29542V9.29467V9.29392V9.29316V9.29241V9.29166V9.29091V9.29016V9.28941V9.28866V9.28791V9.28716V9.28641V9.28566V9.28491V9.28415V9.2834V9.28265V9.2819V9.28115V9.2804V9.27965V9.2789V9.27815V9.2774V9.27665V9.2759V9.27515V9.27439V9.27364V9.27289V9.27214V9.27139V9.27064V9.26989V9.26914V9.26839V9.26764V9.26689V9.26614V9.26538V9.26463V9.26388V9.26313V9.26238V9.26163V9.26088V9.26013V9.25938V9.25863V9.25788V9.25713V9.25638V9.25562V9.25487V9.25412V9.25337V9.25262V9.25187V9.25112V9.25037V9.24962V9.24887V9.24812V9.24737V9.24662V9.24586V9.24511V9.24436V9.24361V9.24286V9.24211V9.24136V9.24061V9.23986V9.23911V9.23836V9.23761V9.23685V9.2361V9.23535V9.2346V9.23385V9.2331V9.23235V9.2316V9.23085V9.2301V9.22935V9.2286V9.22785V9.22709V9.22634V9.22559V9.22484V9.22409V9.22334V9.22259V9.22184V9.22109V9.22034V9.21959V9.21884V9.21808V9.21733V9.21658V9.21583V9.21508V9.21433V9.21358V9.21283V9.21208V9.21133V9.21058V9.20983V9.20907V9.20832V9.20757V9.20682V9.20607V9.20532V9.20457V9.20382V9.20307V9.20232V9.20157V9.20082V9.20007V9.19932V9.19856V9.19781V9.19706V9.19631V9.19556V9.19481V9.19406V9.19331V9.19256V9.19181V9.19106V9.1903V9.18955V9.1888V9.18805V9.1873V9.18655V9.1858V9.18505V9.1843V9.18355V9.1828V9.18205V9.1813V9.18054V9.17979V9.17904V9.17829V9.17754V9.17679V9.17604V9.17529V9.17454V9.17379V9.17304V9.17229V9.17154V9.17078V9.17003V9.16928V9.16853V9.16778V9.16703V9.16628V9.16553V9.16478V9.16403V9.16328V9.16253V9.16177V9.16102V9.16027V9.15952V9.15877V9.15802V9.15727V9.15652V9.15577V9.15502V9.15427V9.15352V9.15277V9.15201V9.15126V9.15051V9.14976V9.14901V9.14826V9.14751V9.14676V9.14601V9.14526V9.14451V9.14375V9.143V9.14225V9.1415V9.14075V9.14V9.13925V9.1385V9.13775V9.137V9.13625V9.1355V9.13475V9.134V9.13324V9.13249V9.13174V9.13099V9.13024V9.12949V9.12874V9.12799V9.12724V9.12649V9.12574V9.12499V9.12423V9.12348V9.12273V9.12198V9.12123V9.12048V9.11973V9.11898V9.11823V9.11748V9.11673V9.11598V9.11522V9.11447V9.11372V9.11297V9.11222V9.11147V9.11072V9.10997V9.10922V9.10847V9.10772V9.10697V9.10622V9.10546V9.10471V9.10396V9.10321V9.10246V9.10171V9.10096V9.10021V9.09946V9.09871V9.09796V9.09721V9.09645V9.0957V9.09495V9.0942V9.09345V9.0927V9.09195V9.0912V9.09045V9.0897V9.08895V9.0882V9.08745V9.08669V9.08594V9.08519V9.08444V9.08369V9.08294V9.08219V9.08144V9.08069V9.07994V9.07919V9.07844V9.07769V9.07693V9.07618V9.07543V9.07468V9.07393V9.07318V9.07243V9.07168V9.07093V9.07018V9.06943V9.06868V9.06792V9.06717V9.06642V9.06567V9.06492V9.06417V9.06342V9.06267V9.06192V9.06117V9.06042V9.05967V9.05892V9.05816V9.05741V9.05666V9.05591V9.05516V9.05441V9.05366V9.05291V9.05216V9.05141V9.05066V9.04991V9.04915V9.0484V9.04765V9.0469V9.04615V9.0454V9.04465V9.0439V9.04315V9.0424V9.04165V9.0409V9.04014V9.03939V9.03864V9.03789V9.03714V9.03639V9.03564V9.03489V9.03414V9.03339V9.03264V9.03189V9.03114V9.03038V9.02963V9.02888V9.02813V9.02738V9.02663V9.02588V9.02513V9.02438V9.02363V9.02288V9.02213V9.02137V9.02062V9.01987V9.01912V9.01837V9.01762V9.01687V9.01612V9.01537V9.01462V9.01387V9.01312V9.01237V9.01161V9.01086V9.01011V9.00936V9.00861V9.00786V9.00711V9.00636V9.00561V9.00486V9.00411V9.00336V9.0026V9.00185V9.0011V9.00035V8.9996V8.99885V8.9981V8.99735V8.9966V8.99585V8.9951V8.99435V8.9936V8.99284V8.99209V8.99134V8.99059V8.98984V8.98909V8.98834V8.98759V8.98684V8.98609V8.98534V8.98459V8.98384V8.98308V8.98233V8.98158V8.98083V8.98008V8.97933V8.97858V8.97783V8.97708V8.97633V8.97558V8.97482V8.97407V8.97332V8.97257V8.97182V8.97107V8.97032V8.96957V8.96882V8.96807V8.96732V8.96657V8.96582V8.96507V8.96431V8.96356V8.96281V8.96206V8.96131V8.96056V8.95981V8.95906V8.95831V8.95756V8.95681V8.95606V8.9553V8.95455V8.9538V8.95305V8.9523V8.95155V8.9508V8.95005V8.9493V8.94855V8.9478V8.94705V8.94629V8.94554V8.94479V8.94404V8.94329V8.94254V8.94179V8.94104V8.94029V8.93954V8.93879V8.93804V8.93729V8.93653V8.93578V8.93503V7.87128C16.4397 7.85982 16.4407 7.84833 16.4417 7.8368L16.4419 7.83446C16.453 7.70194 16.4624 7.59843 16.481 7.51492C16.4826 7.50811 16.484 7.50204 16.4854 7.49666C16.7936 7.23811 16.9591 6.93605 17.0194 6.61649C17.1175 6.87678 17.2655 7.1097 17.412 7.29227C17.4134 7.29578 17.4296 7.32568 17.4528 7.39867C17.4823 7.49132 17.5119 7.6175 17.5383 7.77375C17.5911 8.08543 17.6244 8.47458 17.631 8.86818C17.6378 9.2632 17.6173 9.64086 17.5709 9.93241C17.5475 10.079 17.5202 10.1873 17.4942 10.2587C17.4888 10.2733 17.4842 10.2847 17.4804 10.2934L16.3399 10.576ZM4.32354 7.22327L4.32354 7.22326C4.13376 7.06337 4.05586 6.84488 4.02145 6.7056C3.96876 6.85808 3.87864 7.04136 3.71517 7.18685C3.48241 7.39412 3.41336 7.62138 3.42505 8.04323L3.42506 8.04374C3.43516 8.41958 3.43288 8.80738 3.43067 9.18332L4.32354 7.22327ZM4.32354 7.22327L4.32625 7.22553M4.32354 7.22327L4.32625 7.22553M4.32625 7.22553C4.52908 7.39437 4.59538 7.5953 4.58444 8.01076L4.58444 8.01101M4.32625 7.22553L4.58444 8.01101M4.58444 8.01101C4.57476 8.38485 4.577 8.7739 4.57917 9.15103M4.58444 8.01101L4.57917 9.15103M4.57917 9.15103C4.58048 9.37867 4.58176 9.60198 4.58038 9.81498M4.57917 9.15103L4.58038 9.81498M4.58038 9.81498C4.57782 10.1514 4.49112 10.3342 4.41155 10.4245C4.34239 10.5029 4.22512 10.5734 3.99623 10.5711L4.58038 9.81498ZM3.59586 10.4185C3.66305 10.4984 3.77434 10.5687 3.99615 10.5711L3.59586 10.4185ZM3.59586 10.4185C3.51665 10.3242 3.43126 10.1339 3.42914 9.78531L3.59586 10.4185ZM3.99025 6.17765C3.99023 6.17786 3.9902 6.17806 3.99017 6.17827L4.13115 6.19661L3.99025 6.17765Z" stroke="#495057" stroke-width="1.2"/>
</g>
<defs>
<clipPath id="clip0_1062_96">
<rect width="21" height="24" fill="white"/>
</clipPath>
</defs>
</svg>
