<svg width="21" height="24" viewBox="0 0 21 24" fill="none" xmlns="http://www.w3.org/2000/svg">
<g clip-path="url(#clip0_1613_5372)">
<path d="M7.79955 16.2736L7.79881 16.2733C7.02059 15.9981 6.1144 15.5363 5.57301 14.6089C3.09831 15.1988 1.25366 17.339 1.11114 19.8288L1.11109 19.8297C1.05496 20.7955 1.22658 21.4255 1.48827 21.8239C1.73313 22.1967 2.13802 22.4914 2.84042 22.6347L2.8408 22.6348C3.54309 22.7783 4.24598 22.8683 4.92428 22.874L4.92529 22.874C8.37217 22.9059 11.8205 22.9021 15.2737 22.8919L7.79955 16.2736ZM7.79955 16.2736C9.54674 16.8901 11.3508 16.9217 13.1278 16.3021M7.79955 16.2736L13.1278 16.3021M13.1278 16.3021C13.9229 16.0254 14.8924 15.566 15.4589 14.6074C17.5972 15.0805 19.457 16.9591 19.7892 19.102M13.1278 16.3021L19.7892 19.102M19.7892 19.102C19.8819 19.703 19.9307 20.2425 19.8793 20.7224L19.7892 19.102ZM17.5346 22.7609L17.5351 22.7608C18.4081 22.6688 18.9389 22.4275 19.262 22.1358C19.5695 21.8581 19.8025 21.4325 19.8793 20.7225L17.5346 22.7609ZM17.5346 22.7609C16.7771 22.841 16.0204 22.8894 15.274 22.8919L17.5346 22.7609Z" stroke="#50A5F1" stroke-width="2.2"/>
<path d="M6.59302 10.0066L6.59308 10.0068C6.97082 11.1558 7.68425 12.1151 8.7202 12.7913C9.22528 13.1208 9.78862 13.296 10.343 13.3213C9.92537 12.9876 9.64945 12.4967 9.60184 11.9044C9.51776 10.8739 10.1812 9.91284 11.3085 9.76342L6.59302 10.0066ZM6.59302 10.0066C6.52401 9.7969 6.5137 9.54143 6.52487 9.18835M6.59302 10.0066L6.52487 9.18835M6.02553 5.87051L6.02549 5.87064C6.00635 5.93587 6.0149 6.07708 6.07684 6.34546C6.12108 6.53624 6.1788 6.7209 6.24402 6.92954C6.26261 6.98901 6.28181 7.05042 6.30147 7.11447C6.38559 7.38846 6.4744 7.70013 6.51541 8.02997L6.02553 5.87051ZM6.02553 5.87051C6.55065 4.0797 7.66482 2.93298 9.46912 2.53306L9.4693 2.53302M6.02553 5.87051L9.4693 2.53302M9.4693 2.53302C11.3564 2.11415 12.9167 2.67045 14.146 4.16912C14.432 4.51876 14.646 4.96611 14.8687 5.47101C14.9658 5.69105 15.0073 5.85901 15.0076 6.00695C15.0078 6.14581 14.9719 6.30871 14.8434 6.51978C14.632 6.86659 14.5739 7.25823 14.5475 7.56838C14.5362 7.70101 14.5297 7.83728 14.5239 7.96009C14.5227 7.98413 14.5216 8.00764 14.5205 8.03051C14.5133 8.17707 14.5056 8.30441 14.4911 8.42158L14.4911 8.42192M9.4693 2.53302L14.4911 8.42192M14.4911 8.42192C14.4747 8.55535 14.4823 8.68863 14.4865 8.76109M14.4911 8.42192L14.4865 8.76109M6.52487 9.18835C6.52658 9.1344 6.52889 9.07719 6.53131 9.01739M6.52487 9.18835L6.53131 9.01739M6.53131 9.01739C6.54316 8.72382 6.55753 8.36792 6.51544 8.03028L6.53131 9.01739ZM14.4865 8.76109C14.487 8.76914 14.4874 8.77644 14.4877 8.7829M14.4865 8.76109L14.4877 8.7829M14.4877 8.7829C14.4922 8.86739 14.4896 8.88516 14.4897 8.88517M14.4877 8.7829L14.4897 8.88517M14.4897 8.88517C14.4455 9.10116 14.4669 9.31476 14.4806 9.44337M14.4897 8.88517L14.4806 9.44337M14.4806 9.44337C14.4841 9.47601 14.4872 9.50498 14.4901 9.531M14.4806 9.44337L14.4901 9.531M14.4901 9.531C14.4983 9.60562 14.5039 9.65591 14.5057 9.69854L14.4901 9.531ZM14.5722 9.67811C14.5723 9.67813 14.5717 9.67847 14.5704 9.67908C14.5716 9.6784 14.5722 9.67809 14.5722 9.67811ZM14.4766 9.70418C14.0218 9.7826 13.5418 9.80053 13.0334 9.8056C12.8443 9.80734 12.6583 9.79186 12.4418 9.77385C12.3822 9.76888 12.3202 9.76372 12.2552 9.75868C11.973 9.73679 11.6445 9.71866 11.3086 9.7634L14.4766 9.70418Z" stroke="#50A5F1" stroke-width="1.2"/>
<path d="M12.2958 11.7413C12.1328 11.7062 11.9784 11.6776 11.8062 11.6616L12.2958 11.7413ZM12.2958 11.7413C12.1239 11.778 11.9525 11.8104 11.7811 11.8375L11.7811 11.8375C11.707 11.8492 11.6499 11.8482 11.6109 11.8423C11.5907 11.8393 11.5777 11.8353 11.5703 11.8325C11.5661 11.8193 11.5589 11.7883 11.5599 11.732L11.5599 11.7311C11.5604 11.7042 11.5627 11.6853 11.565 11.673C11.5754 11.6698 11.5907 11.666 11.6121 11.6629C11.6598 11.6559 11.7246 11.654 11.8061 11.6616L12.2958 11.7413ZM16.34 10.5755C16.4477 10.5664 16.502 10.5605 16.5484 10.5483C16.5486 10.5482 16.5488 10.5482 16.5489 10.5481L16.7021 11.1282C16.8065 11.1006 16.9159 11.0775 17.026 11.0542L16.34 10.5755ZM16.34 10.5755C16.3796 10.4491 16.4007 10.3216 16.4136 10.1996C16.4384 9.96476 16.4387 9.67571 16.4389 9.35165L16.439 9.31951V9.31895V9.3182V9.31745V9.3167V9.31595V9.3152V9.31445V9.3137V9.31295V9.3122V9.31145V9.3107V9.30995V9.30919V9.30844V9.30769V9.30694V9.30619V9.30544V9.30469V9.30394V9.30319V9.30244V9.30169V9.30093V9.30018V9.29943V9.29868V9.29793V9.29718V9.29643V9.29568V9.29493V9.29418V9.29343V9.29268V9.29193V9.29117V9.29042V9.28967V9.28892V9.28817V9.28742V9.28667V9.28592V9.28517V9.28442V9.28367V9.28292V9.28217V9.28141V9.28066V9.27991V9.27916V9.27841V9.27766V9.27691V9.27616V9.27541V9.27466V9.27391V9.27316V9.2724V9.27165V9.2709V9.27015V9.2694V9.26865V9.2679V9.26715V9.2664V9.26565V9.2649V9.26415V9.2634V9.26264V9.26189V9.26114V9.26039V9.25964V9.25889V9.25814V9.25739V9.25664V9.25589V9.25514V9.25439V9.25363V9.25288V9.25213V9.25138V9.25063V9.24988V9.24913V9.24838V9.24763V9.24688V9.24613V9.24538V9.24463V9.24387V9.24312V9.24237V9.24162V9.24087V9.24012V9.23937V9.23862V9.23787V9.23712V9.23637V9.23562V9.23487V9.23411V9.23336V9.23261V9.23186V9.23111V9.23036V9.22961V9.22886V9.22811V9.22736V9.22661V9.22585V9.2251V9.22435V9.2236V9.22285V9.2221V9.22135V9.2206V9.21985V9.2191V9.21835V9.2176V9.21685V9.21609V9.21534V9.21459V9.21384V9.21309V9.21234V9.21159V9.21084V9.21009V9.20934V9.20859V9.20784V9.20709V9.20633V9.20558V9.20483V9.20408V9.20333V9.20258V9.20183V9.20108V9.20033V9.19958V9.19883V9.19808V9.19732V9.19657V9.19582V9.19507V9.19432V9.19357V9.19282V9.19207V9.19132V9.19057V9.18982V9.18907V9.18832V9.18756V9.18681V9.18606V9.18531V9.18456V9.18381V9.18306V9.18231V9.18156V9.18081V9.18006V9.17931V9.17855V9.1778V9.17705V9.1763V9.17555V9.1748V9.17405V9.1733V9.17255V9.1718V9.17105V9.1703V9.16955V9.16879V9.16804V9.16729V9.16654V9.16579V9.16504V9.16429V9.16354V9.16279V9.16204V9.16129V9.16054V9.15978V9.15903V9.15828V9.15753V9.15678V9.15603V9.15528V9.15453V9.15378V9.15303V9.15228V9.15153V9.15077V9.15002V9.14927V9.14852V9.14777V9.14702V9.14627V9.14552V9.14477V9.14402V9.14327V9.14252V9.14177V9.14102V9.14026V9.13951V9.13876V9.13801V9.13726V9.13651V9.13576V9.13501V9.13426V9.13351V9.13276V9.132V9.13125V9.1305V9.12975V9.129V9.12825V9.1275V9.12675V9.126V9.12525V9.1245V9.12375V9.123V9.12224V9.12149V9.12074V9.11999V9.11924V9.11849V9.11774V9.11699V9.11624V9.11549V9.11474V9.11399V9.11324V9.11248V9.11173V9.11098V9.11023V9.10948V9.10873V9.10798V9.10723V9.10648V9.10573V9.10498V9.10423V9.10347V9.10272V9.10197V9.10122V9.10047V9.09972V9.09897V9.09822V9.09747V9.09672V9.09597V9.09522V9.09447V9.09371V9.09296V9.09221V9.09146V9.09071V9.08996V9.08921V9.08846V9.08771V9.08696V9.08621V9.08546V9.0847V9.08395V9.0832V9.08245V9.0817V9.08095V9.0802V9.07945V9.0787V9.07795V9.0772V9.07645V9.0757V9.07494V9.07419V9.07344V9.07269V9.07194V9.07119V9.07044V9.06969V9.06894V9.06819V9.06744V9.06669V9.06594V9.06518V9.06443V9.06368V9.06293V9.06218V9.06143V9.06068V9.05993V9.05918V9.05843V9.05768V9.05692V9.05617V9.05542V9.05467V9.05392V9.05317V9.05242V9.05167V9.05092V9.05017V9.04942V9.04867V9.04792V9.04716V9.04641V9.04566V9.04491V9.04416V9.04341V9.04266V9.04191V9.04116V9.04041V9.03966V9.03891V9.03815V9.0374V9.03665V9.0359V9.03515V9.0344V9.03365V9.0329V9.03215V9.0314V9.03065V9.0299V9.02915V9.02839V9.02764V9.02689V9.02614V9.02539V9.02464V9.02389V9.02314V9.02239V9.02164V9.02089V9.02014V9.01939V9.01863V9.01788V9.01713V9.01638V9.01563V9.01488V9.01413V9.01338V9.01263V9.01188V9.01113V9.01038V9.00962V9.00887V9.00812V9.00737V9.00662V9.00587V9.00512V9.00437V9.00362V9.00287V9.00212V9.00137V9.00062V8.99986V8.99911V8.99836V8.99761V8.99686V8.99611V8.99536V8.99461V8.99386V8.99311V8.99236V8.99161V8.99085V8.9901V8.98935V8.9886V8.98785V8.9871V8.98635V8.9856V8.98485V8.9841V8.98335V8.9826V8.98184V8.98109V8.98034V8.97959V8.97884V8.97809V8.97734V8.97659V8.97584V8.97509V8.97434V8.97359V8.97284V8.97208V8.97133V8.97058V8.96983V8.96908V8.96833V8.96758V8.96683V8.96608V8.96533V8.96458V8.96383V8.96307V8.96232V8.96157V8.96082V8.96007V8.95932V8.95857V8.95782V8.95707V8.95632V8.95557V8.95482V8.95407V8.95331V8.95256V8.95181V8.95106V8.95031V8.94956V8.94881V8.94806V8.94731V8.94656V8.94581V8.94506V8.94431V8.94355V8.9428V8.94205V8.9413V8.94055V8.9398V8.93905V8.9383V8.93755V8.9368V8.93605V8.9353V8.93454V7.8708C16.4398 7.85933 16.4408 7.84784 16.4418 7.83631L16.442 7.83397C16.4531 7.70145 16.4625 7.59794 16.4812 7.51443C16.4827 7.50762 16.4842 7.50155 16.4855 7.49617C16.7937 7.23762 16.9592 6.93556 17.0195 6.616C17.1177 6.87629 17.2656 7.10922 17.4121 7.29178C17.4135 7.29529 17.4297 7.32519 17.4529 7.39818C17.4824 7.49083 17.512 7.61701 17.5384 7.77327C17.5912 8.08494 17.6245 8.47409 17.6312 8.86769C17.6379 9.26271 17.6174 9.64037 17.571 9.93193C17.5477 10.0785 17.5203 10.1868 17.4943 10.2582C17.4889 10.2728 17.4843 10.2842 17.4805 10.2929L16.34 10.5755ZM4.32366 7.22278L4.32367 7.22277C4.13388 7.06288 4.05598 6.8444 4.02157 6.70512C3.96888 6.85759 3.87876 7.04087 3.71529 7.18636C3.48254 7.39363 3.41348 7.62089 3.42517 8.04274L3.42518 8.04325C3.43528 8.41909 3.433 8.80689 3.43079 9.18283L4.32366 7.22278ZM4.32366 7.22278L4.32637 7.22504M4.32366 7.22278L4.32637 7.22504M4.32637 7.22504C4.5292 7.39388 4.5955 7.59481 4.58456 8.01027L4.58456 8.01052M4.32637 7.22504L4.58456 8.01052M4.58456 8.01052C4.57488 8.38436 4.57712 8.77341 4.57929 9.15054M4.58456 8.01052L4.57929 9.15054M4.57929 9.15054C4.5806 9.37819 4.58188 9.60149 4.58051 9.81449M4.57929 9.15054L4.58051 9.81449M4.58051 9.81449C4.57794 10.151 4.49125 10.3338 4.41167 10.424C4.34251 10.5024 4.22525 10.5729 3.99636 10.5706L4.58051 9.81449ZM3.59598 10.418C3.66318 10.4979 3.77446 10.5682 3.99627 10.5706L3.59598 10.418ZM3.59598 10.418C3.51677 10.3237 3.43138 10.1334 3.42926 9.78482L3.59598 10.418ZM3.99037 6.17716C3.99035 6.17737 3.99032 6.17757 3.99029 6.17778L4.13127 6.19612L3.99037 6.17716Z" stroke="#50A5F1" stroke-width="1.2"/>
</g>
<defs>
<clipPath id="clip0_1613_5372">
<rect width="21" height="24" fill="white"/>
</clipPath>
</defs>
</svg>
