<svg width="17" height="17" viewBox="0 0 17 17" fill="none" xmlns="http://www.w3.org/2000/svg">
<path d="M16.1078 8.3495L13.5348 6.34658L16.1157 4.31992C16.2178 4.23979 16.2986 4.13579 16.3511 4.01706C16.4036 3.89834 16.426 3.76853 16.4165 3.63908C16.4039 3.51012 16.3616 3.38583 16.2929 3.27595C16.2243 3.16607 16.1311 3.07359 16.0207 3.00575L11.9515 0.686168C11.8086 0.605772 11.6443 0.571731 11.4812 0.588749C11.3181 0.605766 11.1643 0.673001 11.0411 0.781168L8.49985 2.99783L5.9586 0.781168C5.83537 0.673001 5.68159 0.605766 5.51851 0.588749C5.35543 0.571731 5.19109 0.605772 5.04818 0.686168L0.979017 3.00575C0.86862 3.07359 0.775433 3.16607 0.706759 3.27595C0.638084 3.38583 0.595787 3.51012 0.583183 3.63908C0.573672 3.76853 0.596135 3.89834 0.648595 4.01706C0.701054 4.13579 0.781902 4.23979 0.884017 4.31992L3.46485 6.34658L0.891933 8.31783C0.788371 8.39711 0.705998 8.50074 0.652134 8.61951C0.59827 8.73829 0.574585 8.86853 0.583183 8.99867C0.591956 9.12865 0.632672 9.25447 0.701721 9.36495C0.770771 9.47543 0.866019 9.56716 0.979017 9.632L3.6786 11.2153V13.1708C3.67916 13.306 3.71439 13.4389 3.78091 13.5567C3.84744 13.6745 3.94304 13.7733 4.0586 13.8437L8.08818 16.3216C8.20853 16.3911 8.34505 16.4276 8.48401 16.4276C8.62298 16.4276 8.7595 16.3911 8.87985 16.3216L12.9094 13.8437C13.025 13.7733 13.1206 13.6745 13.1871 13.5567C13.2536 13.4389 13.2889 13.306 13.2894 13.1708V11.2074L15.989 9.66367C16.102 9.59882 16.1973 9.50709 16.2663 9.39661C16.3354 9.28613 16.3761 9.16032 16.3848 9.03033C16.3972 8.9029 16.3784 8.77439 16.3301 8.65581C16.2819 8.53723 16.2056 8.43212 16.1078 8.3495ZM11.6665 2.34075L14.2236 3.79742L12.2048 5.38075L9.82985 3.92408L11.6665 2.34075ZM10.8036 6.39408L8.49985 7.97742L6.1961 6.39408L8.49985 4.977L10.8036 6.39408ZM2.79193 3.79742L5.33318 2.34075L7.16193 3.92408L4.78693 5.38075L2.79193 3.79742ZM2.79193 8.85617L4.7711 7.33617L7.1461 8.98283L5.3886 10.3524L2.79193 8.85617ZM11.7298 12.7037L8.49985 14.6987L5.26193 12.7037V12.0703C5.37759 12.0987 5.49817 12.1007 5.61468 12.076C5.73119 12.0513 5.84063 12.0007 5.93485 11.9278L8.49985 9.94867L11.0648 11.9278C11.203 12.0351 11.3728 12.0935 11.5478 12.0941C11.6109 12.1017 11.6747 12.1017 11.7378 12.0941L11.7298 12.7037ZM11.6111 10.3287L9.84568 8.98283L12.2207 7.33617L14.2078 8.872L11.6111 10.3287Z" fill="#50A5F1"/>
</svg>
