<svg width="13" height="13" viewBox="0 0 13 13" fill="none" xmlns="http://www.w3.org/2000/svg">
<path d="M4.75 5.375L7 7.625H9.25" stroke="#556EE6" stroke-miterlimit="10" stroke-linecap="round" stroke-linejoin="round"/>
<path d="M1.10875 4.25C1.03825 4.01225 1 3.761 1 3.5C1 2.05025 2.17525 0.875 3.625 0.875C4.027 0.875 4.408 0.96575 4.7485 1.127" stroke="#556EE6" stroke-miterlimit="10" stroke-linecap="round" stroke-linejoin="round"/>
<path d="M12.1417 4.25C12.2122 4.01225 12.2505 3.761 12.2505 3.5C12.2505 2.05025 11.0752 0.875 9.62545 0.875C9.22345 0.875 8.84245 0.96575 8.50195 1.127" stroke="#556EE6" stroke-miterlimit="10" stroke-linecap="round" stroke-linejoin="round"/>
<path d="M6.625 12.125C9.31739 12.125 11.5 9.94239 11.5 7.25C11.5 4.55761 9.31739 2.375 6.625 2.375C3.93261 2.375 1.75 4.55761 1.75 7.25C1.75 9.94239 3.93261 12.125 6.625 12.125Z" stroke="#556EE6" stroke-miterlimit="10" stroke-linecap="round" stroke-linejoin="round"/>
<path d="M1.75 12.1249L3.178 10.6969" stroke="#556EE6" stroke-miterlimit="10" stroke-linecap="round" stroke-linejoin="round"/>
<path d="M11.5003 12.125L10.0723 10.697" stroke="#556EE6" stroke-miterlimit="10" stroke-linecap="round" stroke-linejoin="round"/>
</svg>
