<svg width="18" height="18" viewBox="0 0 18 18" fill="none" xmlns="http://www.w3.org/2000/svg">
<path d="M8.25 6.75H11.25C11.4489 6.75 11.6397 6.67098 11.7803 6.53033C11.921 6.38968 12 6.19891 12 6C12 5.80109 11.921 5.61032 11.7803 5.46967C11.6397 5.32902 11.4489 5.25 11.25 5.25H9.75V4.5C9.75 4.30109 9.67098 4.11032 9.53033 3.96967C9.38968 3.82902 9.19891 3.75 9 3.75C8.80109 3.75 8.61032 3.82902 8.46967 3.96967C8.32902 4.11032 8.25 4.30109 8.25 4.5V5.25C7.65327 5.25 7.08097 5.48705 6.65901 5.90901C6.23706 6.33097 6 6.90326 6 7.5C6 8.09674 6.23706 8.66903 6.65901 9.09099C7.08097 9.51295 7.65327 9.75 8.25 9.75H9.75C9.94891 9.75 10.1397 9.82902 10.2803 9.96967C10.421 10.1103 10.5 10.3011 10.5 10.5C10.5 10.6989 10.421 10.8897 10.2803 11.0303C10.1397 11.171 9.94891 11.25 9.75 11.25H6.75C6.55109 11.25 6.36032 11.329 6.21967 11.4697C6.07902 11.6103 6 11.8011 6 12C6 12.1989 6.07902 12.3897 6.21967 12.5303C6.36032 12.671 6.55109 12.75 6.75 12.75H8.25V13.5C8.25 13.6989 8.32902 13.8897 8.46967 14.0303C8.61032 14.171 8.80109 14.25 9 14.25C9.19891 14.25 9.38968 14.171 9.53033 14.0303C9.67098 13.8897 9.75 13.6989 9.75 13.5V12.75C10.3467 12.75 10.919 12.5129 11.341 12.091C11.7629 11.669 12 11.0967 12 10.5C12 9.90326 11.7629 9.33097 11.341 8.90901C10.919 8.48705 10.3467 8.25 9.75 8.25H8.25C8.05109 8.25 7.86032 8.17098 7.71967 8.03033C7.57902 7.88968 7.5 7.69891 7.5 7.5C7.5 7.30109 7.57902 7.11032 7.71967 6.96967C7.86032 6.82902 8.05109 6.75 8.25 6.75ZM9 0.75C7.36831 0.75 5.77325 1.23385 4.41655 2.14038C3.05984 3.0469 2.00242 4.33537 1.378 5.84286C0.753575 7.35035 0.590197 9.00915 0.908525 10.6095C1.22685 12.2098 2.01259 13.6798 3.16637 14.8336C4.32016 15.9874 5.79016 16.7732 7.39051 17.0915C8.99085 17.4098 10.6497 17.2464 12.1571 16.622C13.6646 15.9976 14.9531 14.9402 15.8596 13.5835C16.7661 12.2268 17.25 10.6317 17.25 9C17.25 6.81196 16.3808 4.71354 14.8336 3.16637C13.2865 1.61919 11.188 0.75 9 0.75ZM9 15.75C7.66498 15.75 6.35994 15.3541 5.2499 14.6124C4.13987 13.8707 3.27471 12.8165 2.76382 11.5831C2.25293 10.3497 2.11925 8.99251 2.3797 7.68314C2.64015 6.37377 3.28303 5.17103 4.22703 4.22703C5.17104 3.28302 6.37377 2.64015 7.68314 2.3797C8.99251 2.11925 10.3497 2.25292 11.5831 2.76381C12.8165 3.2747 13.8707 4.13987 14.6124 5.2499C15.3541 6.35993 15.75 7.66498 15.75 9C15.75 10.7902 15.0388 12.5071 13.773 13.773C12.5071 15.0388 10.7902 15.75 9 15.75Z" fill="#50A5F1"/>
</svg>
