<svg width="13" height="13" viewBox="0 0 13 13" fill="none" xmlns="http://www.w3.org/2000/svg">
<path d="M6.47947 7.25785C8.40067 7.25785 9.95894 5.69955 9.95894 3.77838C9.95894 1.85721 8.40064 0.30957 6.47947 0.30957C4.5583 0.30957 3 1.86787 3 3.77838C3 5.68889 4.55828 7.25785 6.47947 7.25785ZM6.47947 1.2168C7.88833 1.2168 9.04106 2.3695 9.04106 3.77838C9.04106 5.18726 7.88833 6.33994 6.47947 6.33994C5.07061 6.33994 3.91789 5.18724 3.91789 3.77836C3.91789 2.36948 5.07059 1.2168 6.47947 1.2168Z" fill="#50A5F1"/>
<path d="M0.458944 12.6905H12.5411C12.7972 12.6905 13 12.4877 13 12.2316C13 9.8301 11.0468 7.86621 8.63464 7.86621H4.36536C1.96388 7.86621 0 9.81941 0 12.2316C0 12.4877 0.202788 12.6905 0.458944 12.6905ZM4.36536 8.7841H8.63464C10.385 8.7841 11.8259 10.0863 12.0501 11.7726H0.949914C1.17404 10.0969 2.61495 8.7841 4.36536 8.7841Z" fill="#50A5F1"/>
</svg>
