<svg width="20" height="20" viewBox="0 0 20 20" fill="none" xmlns="http://www.w3.org/2000/svg">
<path d="M2.03471e-05 13.2447C0.0521037 12.9999 0.0989787 12.7603 0.151062 12.5156C0.656271 10.151 2.53648 8.33847 4.9271 7.92701C6.77086 7.6093 8.46356 7.96868 9.94273 9.14056C11.2709 10.1926 11.9844 11.5937 12.1511 13.2708C12.3125 14.9322 11.9167 16.4479 10.8646 17.7656C9.81773 19.0781 8.43752 19.7864 6.77606 19.9739C6.74481 19.9791 6.71356 19.9999 6.67711 20.0104C6.26044 20.0104 5.84377 20.0104 5.42711 20.0104C5.25523 19.9739 5.08335 19.927 4.90627 19.901C2.58335 19.5104 0.645854 17.6562 0.15627 15.3489C0.104187 15.0937 0.0521037 14.8385 -0.00518799 14.5781C2.03471e-05 14.1301 2.03471e-05 13.6874 2.03471e-05 13.2447ZM10.625 13.9166C10.6302 11.3333 8.68752 9.38014 6.10419 9.37493C3.52085 9.36972 1.56773 11.3124 1.56252 13.8958C1.55731 16.4791 3.50523 18.4322 6.08336 18.4374C8.66669 18.4426 10.6198 16.4999 10.625 13.9166Z" fill="#495057"/>
<path d="M20 6.76038C19.9479 7.01038 19.8958 7.26038 19.8438 7.51038C19.3333 9.91663 17.3021 11.802 14.8594 12.1145C14.4167 12.1718 13.9688 12.1823 13.4896 12.2187C13.526 11.6614 13.5573 11.151 13.5885 10.6302C15.151 10.677 16.4844 10.1875 17.474 8.94267C18.2135 8.01038 18.5104 6.92184 18.4167 5.74996C18.2083 3.20829 16.276 1.49996 13.7083 1.57808C11.25 1.65621 9.24479 3.59892 9.36979 6.41663C8.85938 6.44788 8.35417 6.48434 7.79688 6.52079C7.81771 6.10934 7.80729 5.7135 7.85937 5.32288C8.15104 3.18225 9.24479 1.59371 11.1875 0.614543C11.7969 0.307251 12.4479 0.140584 13.125 0.0520427C13.1667 0.0468343 13.2031 0.026001 13.2396 0.010376C13.6563 0.010376 14.0729 0.010376 14.4896 0.010376C14.6146 0.0364177 14.7344 0.0624593 14.8594 0.0832927C17.3229 0.416626 19.3281 2.276 19.8438 4.7135C19.8958 4.96871 19.9479 5.22392 20 5.48434C20 5.901 20 6.32809 20 6.76038Z" fill="#495057"/>
<path d="M10.974 8.18219C11.3073 7.00511 12.5834 6.09886 13.8959 6.09365C15.2136 6.08844 16.4844 6.98428 16.8386 8.18219C16.3594 8.35407 15.8803 8.52074 15.3907 8.69782C15.1042 8.05199 14.625 7.66657 13.9167 7.66657C13.2084 7.66136 12.724 8.03636 12.4271 8.69782C11.948 8.52594 11.4688 8.35407 10.974 8.18219Z" fill="#495057"/>
<path d="M12.3385 3.75C12.7708 3.75 13.1198 4.09375 13.125 4.52604C13.125 4.95834 12.776 5.3073 12.349 5.3125C11.9167 5.3125 11.5677 4.96354 11.5625 4.53646C11.5625 4.10417 11.9062 3.75 12.3385 3.75Z" fill="#495057"/>
<path d="M16.25 4.5416C16.2448 4.96868 15.8906 5.31764 15.4583 5.31243C15.0312 5.30723 14.6823 4.95306 14.6875 4.52077C14.6927 4.08848 15.0469 3.74473 15.4792 3.74994C15.9062 3.75514 16.2552 4.10931 16.25 4.5416Z" fill="#495057"/>
<path d="M4.60942 14.4323C4.90629 15.0937 5.39067 15.4687 6.10942 15.4635C6.81254 15.4583 7.2865 15.0781 7.57296 14.4323C8.05733 14.6041 8.5365 14.776 9.01567 14.9427C8.77608 15.8281 7.73442 17.0208 6.10942 17.0312C4.54171 17.0416 3.43233 15.9114 3.1615 14.9427C3.64587 14.7708 4.12504 14.6041 4.60942 14.4323Z" fill="#495057"/>
<path d="M5.3125 12.3385C5.3125 12.7708 4.96354 13.1198 4.53646 13.125C4.10417 13.125 3.75521 12.776 3.75 12.349C3.75 11.9167 4.09896 11.5677 4.52604 11.5625C4.95833 11.5625 5.3125 11.9115 5.3125 12.3385Z" fill="#495057"/>
<path d="M8.43749 12.3333C8.4427 12.7656 8.09375 13.1197 7.66666 13.1249C7.23437 13.1301 6.8802 12.7812 6.875 12.3541C6.86979 11.9218 7.21875 11.5676 7.64583 11.5624C8.07812 11.5572 8.43229 11.9062 8.43749 12.3333Z" fill="#495057"/>
</svg>
