<svg width="15" height="13" viewBox="0 0 15 13" fill="none" xmlns="http://www.w3.org/2000/svg">
<path d="M1.02312 0C0.4575 0 0 0.4575 0 1.0225V11.9313C0 12.4963 0.4575 12.9538 1.02312 12.9538H13.9769C14.5425 12.9538 15 12.4963 15 11.9313V1.0225C15 0.4575 14.5425 0 13.9769 0H1.02312ZM1.36375 1.36313H13.6363V11.5906H11.9325V10.9094H8.86375V11.5906H1.36375V1.36313ZM7.5 4.09063C7.22873 4.09063 6.96858 4.19839 6.77676 4.3902C6.58495 4.58202 6.47719 4.84217 6.47719 5.11344C6.47719 5.38471 6.58495 5.64486 6.77676 5.83668C6.96858 6.02849 7.22873 6.13625 7.5 6.13625C7.77127 6.13625 8.03142 6.02849 8.22324 5.83668C8.41505 5.64486 8.52281 5.38471 8.52281 5.11344C8.52281 4.84217 8.41505 4.58202 8.22324 4.3902C8.03142 4.19839 7.77127 4.09063 7.5 4.09063ZM4.77313 5.28438C4.34938 5.28438 4.005 5.62813 4.005 6.05063C4.0107 6.25031 4.09403 6.4399 4.23728 6.57912C4.38054 6.71834 4.57243 6.79623 4.77219 6.79623C4.97195 6.79623 5.16384 6.71834 5.30709 6.57912C5.45035 6.4399 5.53367 6.25031 5.53937 6.05063C5.53937 5.6275 5.19625 5.28438 4.77313 5.28438ZM10.2269 5.28438C10.1244 5.28145 10.0223 5.29911 9.92675 5.33632C9.83119 5.37352 9.74406 5.42952 9.67052 5.50099C9.59698 5.57246 9.53852 5.65796 9.4986 5.75242C9.45868 5.84688 9.43811 5.94839 9.43811 6.05094C9.43811 6.15349 9.45868 6.255 9.4986 6.34946C9.53852 6.44392 9.59698 6.52942 9.67052 6.60089C9.74406 6.67236 9.83119 6.72835 9.92675 6.76556C10.0223 6.80277 10.1244 6.82043 10.2269 6.8175C10.4264 6.8118 10.6158 6.72854 10.7549 6.58541C10.894 6.44227 10.9719 6.25054 10.9719 6.05094C10.9719 5.85134 10.894 5.65961 10.7549 5.51647C10.6158 5.37334 10.4264 5.29007 10.2269 5.28438ZM7.5 6.8175C6.76312 6.8175 5.99188 7.06813 5.5325 7.44625C5.28664 7.36947 5.03069 7.32987 4.77313 7.32875C3.95188 7.32875 3.0675 7.76313 3.0675 8.30313V8.86313H11.9325V8.30313C11.9325 7.76313 11.0481 7.32875 10.2269 7.32875C9.97062 7.32875 9.70813 7.37125 9.4675 7.44625C9.00812 7.06813 8.23687 6.8175 7.5 6.8175Z" fill="#50A5F1"/>
</svg>
