<svg width="16" height="15" viewBox="0 0 16 15" fill="none" xmlns="http://www.w3.org/2000/svg">
<g clip-path="url(#clip0_142_31341)">
<path d="M7.49036 8.37443C9.70712 8.37443 11.5051 6.57639 11.5051 4.35965C11.5051 2.14292 9.7071 0.357178 7.49036 0.357178C5.27363 0.357178 3.47559 2.15522 3.47559 4.35965C3.47559 6.56409 5.2736 8.37443 7.49036 8.37443ZM7.49036 1.40398C9.11597 1.40398 10.446 2.73402 10.446 4.35965C10.446 5.98529 9.11597 7.3153 7.49036 7.3153C5.86476 7.3153 4.53469 5.98526 4.53469 4.35963C4.53469 2.734 5.86473 1.40398 7.49036 1.40398Z" fill="#556EE6"/>
<path d="M0.545176 14.6428H14.4861C14.7816 14.6428 15.0156 14.4088 15.0156 14.1133C15.0156 11.3423 12.7619 9.07629 9.97867 9.07629H5.05258C2.28164 9.07629 0.015625 11.33 0.015625 14.1133C0.015625 14.4088 0.249611 14.6428 0.545176 14.6428ZM5.05258 10.1354H9.97867C11.9984 10.1354 13.6609 11.6379 13.9196 13.5837H1.11168C1.37029 11.6502 3.03288 10.1354 5.05258 10.1354Z" fill="#556EE6"/>
</g>
<defs>
<clipPath id="clip0_142_31341">
<rect width="15" height="15" fill="white" transform="translate(0.015625)"/>
</clipPath>
</defs>
</svg>
