<svg width="15" height="14" viewBox="0 0 15 14" fill="none" xmlns="http://www.w3.org/2000/svg">
<path d="M1.02312 0.636963C0.4575 0.636963 0 1.09446 0 1.65946V12.5682C0 13.1332 0.4575 13.5907 1.02312 13.5907H13.9769C14.5425 13.5907 15 13.1332 15 12.5682V1.65946C15 1.09446 14.5425 0.636963 13.9769 0.636963H1.02312ZM1.36375 2.00009H13.6363V12.2276H11.9325V11.5463H8.86375V12.2276H1.36375V2.00009ZM7.5 4.72759C7.22873 4.72759 6.96858 4.83535 6.77676 5.02716C6.58495 5.21898 6.47719 5.47913 6.47719 5.7504C6.47719 6.02167 6.58495 6.28183 6.77676 6.47364C6.96858 6.66545 7.22873 6.77321 7.5 6.77321C7.77127 6.77321 8.03142 6.66545 8.22324 6.47364C8.41505 6.28183 8.52281 6.02167 8.52281 5.7504C8.52281 5.47913 8.41505 5.21898 8.22324 5.02716C8.03142 4.83535 7.77127 4.72759 7.5 4.72759ZM4.77313 5.92134C4.34938 5.92134 4.005 6.26509 4.005 6.68759C4.0107 6.88727 4.09403 7.07686 4.23728 7.21608C4.38054 7.35531 4.57243 7.43319 4.77219 7.43319C4.97195 7.43319 5.16384 7.35531 5.30709 7.21608C5.45035 7.07686 5.53367 6.88727 5.53937 6.68759C5.53937 6.26446 5.19625 5.92134 4.77313 5.92134ZM10.2269 5.92134C10.1244 5.91841 10.0223 5.93607 9.92675 5.97328C9.83119 6.01049 9.74406 6.06648 9.67052 6.13795C9.59698 6.20943 9.53852 6.29492 9.4986 6.38938C9.45868 6.48384 9.43811 6.58535 9.43811 6.6879C9.43811 6.79045 9.45868 6.89196 9.4986 6.98642C9.53852 7.08088 9.59698 7.16638 9.67052 7.23785C9.74406 7.30932 9.83119 7.36532 9.92675 7.40252C10.0223 7.43973 10.1244 7.45739 10.2269 7.45446C10.4264 7.44877 10.6158 7.36551 10.7549 7.22237C10.894 7.07923 10.9719 6.8875 10.9719 6.6879C10.9719 6.4883 10.894 6.29657 10.7549 6.15344C10.6158 6.0103 10.4264 5.92704 10.2269 5.92134ZM7.5 7.45446C6.76312 7.45446 5.99188 7.70509 5.5325 8.08321C5.28664 8.00643 5.03069 7.96683 4.77313 7.96571C3.95188 7.96571 3.0675 8.40009 3.0675 8.94009V9.50009H11.9325V8.94009C11.9325 8.40009 11.0481 7.96571 10.2269 7.96571C9.97062 7.96571 9.70813 8.00821 9.4675 8.08321C9.00812 7.70509 8.23687 7.45446 7.5 7.45446Z" fill="#50A5F1"/>
</svg>
