<svg width="23" height="17" viewBox="0 0 23 17" fill="none" xmlns="http://www.w3.org/2000/svg">
<path d="M15.1262 8.20393C14.1543 8.20393 13.2145 7.77602 12.479 6.99944C11.7638 6.24198 11.327 5.23187 11.2499 4.15604C11.1677 3.00842 11.5227 1.95309 12.2493 1.18398C12.9758 0.414858 13.9917 0 15.1262 0C16.2526 0 17.2713 0.422316 17.9955 1.18957C18.7268 1.96428 19.0828 3.01774 19.0005 4.15557C18.9216 5.2328 18.4852 6.24244 17.7715 6.99898C17.0378 7.77602 16.0985 8.20393 15.1262 8.20393Z" fill="#556EE6"/>
<path d="M21.3583 16.4076H8.8953C8.69493 16.4087 8.49697 16.3644 8.31668 16.2782C8.13639 16.1919 7.97856 16.0661 7.85534 15.9103C7.72463 15.7413 7.63438 15.5455 7.59132 15.3373C7.54826 15.1291 7.55351 14.914 7.60669 14.7081C8.00472 13.1321 8.99079 11.8251 10.4581 10.9287C11.7604 10.1335 13.4182 9.69531 15.1266 9.69531C16.8685 9.69531 18.4828 10.1148 19.7927 10.9096C21.2633 11.8013 22.2508 13.1158 22.6469 14.7109C22.6995 14.9169 22.7041 15.132 22.6606 15.3401C22.617 15.5482 22.5264 15.7439 22.3954 15.9126C22.2724 16.0677 22.1149 16.1929 21.9351 16.2787C21.7553 16.3645 21.558 16.4086 21.3583 16.4076Z" fill="#556EE6"/>
<path d="M6.19225 8.38997C4.52878 8.38997 3.06622 6.86478 2.93055 4.99047C2.86342 4.03023 3.16691 3.14225 3.78143 2.49106C4.38934 1.8464 5.24683 1.49121 6.19225 1.49121C7.13768 1.49121 7.98855 1.84827 8.59977 2.49666C9.21902 3.15297 9.52156 4.03909 9.45065 4.9914C9.31498 6.86525 7.85289 8.38997 6.19225 8.38997Z" fill="#556EE6"/>
<path d="M9.29628 9.8562C8.46478 9.45532 7.38558 9.25488 6.19293 9.25488C4.80032 9.25488 3.4479 9.61287 2.3843 10.2627C1.17841 11.0006 0.367242 12.075 0.0396539 13.3722C-0.00828597 13.5588 -0.0128202 13.7537 0.0263903 13.9423C0.0656009 14.1308 0.147541 14.3082 0.266082 14.4611C0.378563 14.6035 0.522662 14.7186 0.687299 14.7974C0.851936 14.8763 1.03272 14.9169 1.21576 14.9161H6.46285C6.55141 14.9161 6.63716 14.8854 6.70514 14.8294C6.77313 14.7735 6.81904 14.6957 6.83487 14.6098C6.84007 14.5805 6.84669 14.5511 6.85425 14.5222C7.25511 12.9345 8.19439 11.593 9.58227 10.6151C9.63331 10.5788 9.67437 10.5305 9.70172 10.4746C9.72907 10.4187 9.74184 10.357 9.73888 10.295C9.73592 10.233 9.71733 10.1728 9.68478 10.1197C9.65223 10.0666 9.60676 10.0223 9.55248 9.99091C9.47827 9.94802 9.39318 9.90281 9.29628 9.8562Z" fill="#556EE6"/>
</svg>
