<svg width="18" height="18" viewBox="0 0 18 18" fill="none" xmlns="http://www.w3.org/2000/svg">
<path d="M12.15 9.67498C12.15 9.67498 12.075 9.67498 12.15 9.67498C12 9.59998 11.925 9.52498 11.775 9.52498C13.725 8.02498 14.1 5.17498 12.525 3.22498C10.95 1.27498 8.175 0.899976 6.225 2.47498C4.275 4.04998 3.9 6.82498 5.475 8.77498C5.7 9.07498 5.925 9.29998 6.225 9.52498C6.15 9.59998 6 9.59998 5.925 9.67498C5.925 9.67498 5.925 9.67498 5.85 9.67498C3.45 10.8 1.8 13.05 1.5 15.675C1.5 16.05 1.8 16.425 2.25 16.5H15.75C16.125 16.425 16.425 16.05 16.425 15.675C16.2 13.05 14.55 10.8 12.15 9.67498ZM6 5.69998C6.15 4.04998 7.65 2.84998 9.225 2.99998C10.65 3.14998 11.775 4.27498 11.925 5.69998H6ZM9 12.15L7.575 10.725C8.55 10.5 9.525 10.5 10.5 10.725L9 12.15Z" fill="#50A5F1"/>
</svg>
