<svg width="15" height="12" viewBox="0 0 15 12" fill="none" xmlns="http://www.w3.org/2000/svg">
<path d="M11.175 2.23444L14.1188 2.85058C14.6344 2.98274 15 3.4248 15 3.9375V6.07943C14.2523 5.04948 13.0195 4.35449 11.625 4.35449C10.7227 4.35449 9.88594 4.65755 9.20859 5.13607C9.43125 4.81478 9.5625 4.42741 9.5625 3.98991C9.5625 2.90299 8.63906 1.9847 7.5 1.9847C6.36094 1.9847 5.4375 2.90299 5.4375 3.98991C5.4375 5.11784 6.36094 5.99512 7.5 5.99512C7.86562 5.99512 8.20781 5.90397 8.50547 5.76269C7.95469 6.37793 7.59609 7.16178 7.51641 8.02083H7.5C6.67266 8.02083 6 8.6748 6 9.47917V11.6667H7.5H1.125C0.503672 11.6667 0 11.1768 0 10.5729V3.9375C0 3.4248 0.366328 2.98274 0.881016 2.85058L3.825 2.23444L7.08281 0.122449C7.31484 -0.0408163 7.66406 -0.0408163 7.91719 0.122449L11.175 2.23444ZM2.25 4.375C2.04281 4.375 1.875 4.53906 1.875 4.73958V6.19792C1.875 6.39844 2.04281 6.5625 2.25 6.5625H3C3.20625 6.5625 3.375 6.39844 3.375 6.19792V4.73958C3.375 4.53906 3.20625 4.375 3 4.375H2.25ZM2.25 7.29167C2.04281 7.29167 1.875 7.45573 1.875 7.65625V9.11458C1.875 9.3151 2.04281 9.47917 2.25 9.47917H3C3.20625 9.47917 3.375 9.3151 3.375 9.11458V7.65625C3.375 7.45573 3.20625 7.29167 3 7.29167H2.25ZM7.5 2.91666C7.70625 2.91666 7.875 3.08073 7.875 3.28125V3.64583H8.25C8.45625 3.64583 8.625 3.80989 8.625 4.01041C8.625 4.21093 8.45625 4.375 8.25 4.375H7.5C7.29375 4.375 7.125 4.21093 7.125 4.01041V3.28125C7.125 3.08073 7.29375 2.91666 7.5 2.91666ZM15 8.38542C15 10.1969 13.4883 11.6667 11.625 11.6667C9.76172 11.6667 8.25 10.1969 8.25 8.38542C8.25 6.57389 9.76172 5.10416 11.625 5.10416C13.4883 5.10416 15 6.57389 15 8.38542ZM11.25 8.7819L10.5773 8.12793C10.432 7.98438 10.193 7.98438 10.0477 8.12793C9.9 8.26921 9.9 8.50163 10.0477 8.6429L10.9852 9.55436C11.1305 9.69792 11.3695 9.69792 11.5148 9.55436L13.2023 7.91374C13.35 7.77246 13.35 7.54004 13.2023 7.39876C13.057 7.25521 12.818 7.25521 12.6727 7.39876L11.25 8.7819Z" fill="#50A5F1"/>
</svg>
