<svg width="12" height="12" viewBox="0 0 12 12" fill="none" xmlns="http://www.w3.org/2000/svg">
<g clip-path="url(#clip0_2126_5308)">
<path d="M9.21553 2.78626C9.28122 2.78306 9.34709 2.78145 9.41313 2.78145C9.84697 2.78145 10.2701 2.8507 10.67 2.98386C11.0888 2.42141 11.3153 1.74227 11.3153 1.02832C11.3153 0.83962 11.1623 0.686523 10.9735 0.686523C10.2416 0.686523 9.56507 0.927294 9.01855 1.33371C9.15127 1.7331 9.22034 2.15563 9.22034 2.58875C9.22034 2.6547 9.21874 2.72057 9.21553 2.78626Z" fill="#556EE6"/>
<path d="M3.49987 8.49719C3.41922 8.41637 3.34312 8.33288 3.27093 8.24707L0.268105 11.25C0.13459 11.3834 0.13459 11.5999 0.268105 11.7333C0.334862 11.8001 0.422269 11.8334 0.509766 11.8334C0.597262 11.8334 0.68467 11.8001 0.751427 11.7333L3.75417 8.73057C3.66738 8.6574 3.58318 8.5805 3.50209 8.49932C3.50138 8.49861 3.50058 8.4979 3.49987 8.49719Z" fill="#556EE6"/>
<path d="M7.5687 3.2664C7.61303 3.46355 7.6416 3.66293 7.65557 3.86285L8.5106 3.008C8.52814 2.86986 8.53713 2.72985 8.53713 2.58841C8.53713 1.71158 8.19568 0.887169 7.57564 0.267128C7.51147 0.202952 7.42459 0.166992 7.33389 0.166992C7.24328 0.166992 7.15632 0.202952 7.09223 0.267128C6.80259 0.556765 6.57384 0.890996 6.41211 1.25433C6.44469 1.27988 6.47611 1.30721 6.50575 1.33693C7.03678 1.86797 7.4043 2.53518 7.5687 3.2664Z" fill="#556EE6"/>
<path d="M11.7345 4.42633C11.1144 3.80628 10.29 3.46484 9.4132 3.46484C9.27176 3.46484 9.13166 3.47383 8.99361 3.49146L8.14062 4.34435C9.09437 4.41057 9.98206 4.81361 10.6647 5.49622C10.6944 5.52595 10.7217 5.55728 10.7473 5.58977C11.1087 5.42902 11.4413 5.20178 11.7299 4.91428C11.7632 4.88223 11.7902 4.84325 11.8086 4.79883C11.8615 4.6711 11.8322 4.52415 11.7345 4.42633Z" fill="#556EE6"/>
<path d="M6.10435 5.41354L6.95475 4.56323C7.08016 3.58813 6.76979 2.56719 6.02246 1.81986C5.95829 1.75578 5.87132 1.71973 5.78071 1.71973C5.6901 1.71973 5.60305 1.75578 5.53896 1.81995C5.24532 2.11359 5.01923 2.44952 4.86035 2.80831C4.8924 2.8335 4.92328 2.86047 4.95248 2.88976C5.63509 3.57228 6.03813 4.4598 6.10435 5.41354Z" fill="#556EE6"/>
<path d="M7.85975 5.01758C7.71823 5.01758 7.57813 5.02657 7.43998 5.04419L6.58691 5.89708C7.54074 5.96331 8.42835 6.36634 9.11096 7.04887C9.14069 7.0786 9.16819 7.11002 9.19374 7.14259C9.55699 6.98095 9.89122 6.75211 10.1809 6.46247C10.245 6.39838 10.2811 6.31142 10.2811 6.22081C10.2811 6.13011 10.245 6.04324 10.1809 5.97915C9.5609 5.35902 8.73659 5.01758 7.85975 5.01758Z" fill="#556EE6"/>
<path d="M5.43023 5.69485C5.43023 4.81793 5.0887 3.99353 4.46866 3.37357C4.40191 3.30682 4.31441 3.27344 4.227 3.27344C4.13951 3.27344 4.05201 3.30682 3.98534 3.37357C2.78701 4.57182 2.71064 6.47369 3.75606 7.76175L5.40362 6.11418C5.42115 5.97613 5.43023 5.8362 5.43023 5.69485Z" fill="#556EE6"/>
<path d="M6.30659 6.57129C6.16507 6.57129 6.02488 6.58037 5.88674 6.5979L4.23926 8.24538C4.82218 8.71971 5.54441 8.97766 6.30651 8.97775H6.30677C7.18343 8.97775 8.00775 8.63631 8.62779 8.01627C8.69196 7.95218 8.72792 7.86513 8.72792 7.77452C8.72792 7.68391 8.69196 7.59695 8.62779 7.53286C8.00775 6.91273 7.18343 6.57129 6.30659 6.57129Z" fill="#556EE6"/>
</g>
<defs>
<clipPath id="clip0_2126_5308">
<rect width="11.6667" height="11.6667" fill="white" transform="translate(0.167969 0.166992)"/>
</clipPath>
</defs>
</svg>
