<svg width="12" height="14" viewBox="0 0 12 14" fill="none" xmlns="http://www.w3.org/2000/svg">
<path d="M5.30266 0.0952315C5.35236 0.055077 5.4104 0.0265403 5.47254 0.0117088C5.53469 -0.0031227 5.59936 -0.00387359 5.66183 0.00951115L11.6623 1.29446C11.758 1.31522 11.8437 1.36814 11.9051 1.44441C11.9666 1.52068 12.0001 1.61569 12 1.71363V12.0001C12 12.0981 11.9664 12.1932 11.9048 12.2695C11.8432 12.3458 11.7573 12.3987 11.6614 12.4193L5.66098 13.7051C5.59867 13.7183 5.53419 13.7175 5.47223 13.7027C5.41027 13.6879 5.35239 13.6595 5.3028 13.6195C5.25321 13.5795 5.21315 13.529 5.18555 13.4716C5.15795 13.4141 5.14349 13.3513 5.14322 13.2876V0.429541C5.14324 0.365586 5.15756 0.302444 5.18515 0.244745C5.21274 0.187046 5.25289 0.136253 5.30266 0.0960888V0.0952315ZM8.14515 6.85686C8.14515 6.68635 8.07742 6.52282 7.95685 6.40226C7.83628 6.28169 7.67276 6.21395 7.50225 6.21395C7.33174 6.21395 7.16822 6.28169 7.04765 6.40226C6.92708 6.52282 6.85935 6.68635 6.85935 6.85686C6.85935 7.02737 6.92708 7.19089 7.04765 7.31146C7.16822 7.43202 7.33174 7.49976 7.50225 7.49976C7.67276 7.49976 7.83628 7.43202 7.95685 7.31146C8.07742 7.19089 8.14515 7.02737 8.14515 6.85686ZM4.28773 0.858143H0.428602C0.31493 0.858143 0.205913 0.903299 0.125535 0.983678C0.0451562 1.06406 0 1.17307 0 1.28675V12.4261C0 12.5398 0.0451562 12.6488 0.125535 12.7292C0.205913 12.8096 0.31493 12.8547 0.428602 12.8547H4.28773V0.858143Z" fill="#50A5F1"/>
</svg>
