<svg width="16" height="16" viewBox="0 0 16 16" fill="none" xmlns="http://www.w3.org/2000/svg">
<path d="M6.5 0.5H1.25C0.8 0.5 0.5 0.8 0.5 1.25V6.5C0.5 6.95 0.8 7.25 1.25 7.25H6.5C6.95 7.25 7.25 6.95 7.25 6.5V1.25C7.25 0.8 6.95 0.5 6.5 0.5ZM6.5 8.75H1.25C0.8 8.75 0.5 9.05 0.5 9.5V14.75C0.5 15.2 0.8 15.5 1.25 15.5H6.5C6.95 15.5 7.25 15.2 7.25 14.75V9.5C7.25 9.05 6.95 8.75 6.5 8.75ZM14.75 0.5H9.5C9.05 0.5 8.75 0.8 8.75 1.25V6.5C8.75 6.95 9.05 7.25 9.5 7.25H14.75C15.2 7.25 15.5 6.95 15.5 6.5V1.25C15.5 0.8 15.2 0.5 14.75 0.5ZM14.75 8.75H9.5C9.05 8.75 8.75 9.05 8.75 9.5V14.75C8.75 15.2 9.05 15.5 9.5 15.5H14.75C15.2 15.5 15.5 15.2 15.5 14.75V9.5C15.5 9.05 15.2 8.75 14.75 8.75Z" fill="#50A5F1"/>
</svg>
