<svg width="14" height="15" viewBox="0 0 14 15" fill="none" xmlns="http://www.w3.org/2000/svg">
<path d="M10.9978 6.59908V0.255433C10.9978 0.0984238 10.8783 0 10.6918 0H0.339498C0.153013 0 0 0.0984238 0 0.255433V12.3897C0 12.5467 0.153013 12.6967 0.339498 12.6967H4.61908C5.31481 12.0968 5.9962 11.4008 6.68237 10.7446C8.11925 9.35963 9.52984 7.94889 10.9978 6.59908ZM9.40791 2.11845C9.40791 2.33874 9.31228 2.51684 9.19513 2.51684H1.80268C1.68553 2.51684 1.5899 2.33874 1.5899 2.11845V2.07393C1.5899 1.85365 1.68553 1.67555 1.80268 1.67555H9.19513C9.31228 1.67555 9.40791 1.85365 9.40791 2.07393V2.11845ZM9.40791 4.03303C9.40791 4.25331 9.31228 4.43141 9.19513 4.43141H1.80268C1.68553 4.43141 1.5899 4.25331 1.5899 4.03303V3.99085C1.5899 3.77057 1.68553 3.59247 1.80268 3.59247H9.19513C9.31228 3.59247 9.40791 3.77057 9.40791 3.99085V4.03303ZM9.40791 5.94995C9.40791 6.17023 9.31228 6.34833 9.19513 6.34833H1.80268C1.68553 6.34833 1.5899 6.17023 1.5899 5.94995V5.90777C1.5899 5.68749 1.68553 5.50939 1.80268 5.50939H9.19513C9.31228 5.50939 9.40791 5.68749 9.40791 5.90777V5.94995Z" fill="#50A5F1"/>
<path d="M13.1374 7.99592C13.4028 7.69127 13.4625 7.29055 13.0824 6.84999C13.0824 6.84999 12.6042 6.37427 11.942 6.70704L11.9372 6.70469L11.9252 6.71641C11.8918 6.73281 11.8583 6.75156 11.8224 6.77265C11.8224 6.77265 11.7818 6.78203 11.8009 6.7914C11.7722 6.79374 11.7985 6.7914 11.7698 6.79374L11.7388 6.79843L10.2875 8.18339C10.2588 8.20683 10.2325 8.23261 10.2086 8.25604L6.33548 11.9188C6.21594 12.0313 6.18725 12.0782 6.07967 12.207L6.08684 12.2024L6.09162 12.2L4.58301 14.9114L7.3468 13.5147C7.37789 13.5287 7.52612 13.4233 7.68869 13.2686L11.5451 9.60819C11.569 9.58476 11.5953 9.56133 11.6192 9.53555L13.147 8.06622L13.1446 8.03107C13.1398 8.02873 13.1398 8.01701 13.1374 7.99592ZM11.5929 8.28416C11.3156 7.99592 10.8685 7.85766 10.7872 7.83657L11.7196 6.94607C11.8535 6.97653 12.2384 7.08433 12.554 7.35382C12.8816 7.63738 12.97 7.98889 12.9915 8.092L11.985 9.05983C11.9826 8.86299 11.875 8.58178 11.5929 8.28416ZM11.5164 9.26137L7.68869 12.882C7.66478 12.9054 7.59784 12.9733 7.57393 12.9968C7.3731 13.1913 7.36354 13.3413 7.34441 13.4467L5.85254 14.2083C5.8358 14.1123 5.733 13.6857 5.27874 13.7654L6.13226 12.2305C6.23507 12.2188 6.50523 12.2 6.72041 12.0055C6.74432 11.9821 6.70845 12.0149 6.73236 11.9915L10.6772 8.25838C10.7322 8.20448 10.7633 8.17636 10.792 8.1459C10.8494 8.16699 10.9139 8.19511 10.9809 8.22558C10.957 8.24901 10.9354 8.2701 10.9067 8.29588L6.83756 12.1086C6.76583 12.1766 6.64868 12.2938 6.57457 12.4086C6.40482 12.6781 6.41438 12.8515 6.58413 13.0249C6.76583 13.2077 7.00492 13.1585 7.2966 12.9733C7.35398 12.9452 7.45678 12.8609 7.51177 12.8093L11.5929 8.93094C11.624 8.90048 11.6527 8.87236 11.679 8.84658C11.7172 8.91454 11.7459 8.97781 11.7651 9.03406C11.667 9.12311 11.6097 9.17466 11.5164 9.26137Z" fill="#50A5F1"/>
</svg>
